<svg width="40" height="40" viewBox="0 0 40 40" fill="none" xmlns="http://www.w3.org/2000/svg">
<rect width="40" height="40" rx="20" fill="#455A64"/>
<path d="M27.875 11.75H12.125C11.429 11.7507 10.7618 12.0275 10.2697 12.5197C9.77755 13.0118 9.50074 13.679 9.5 14.375V25.625C9.50074 26.321 9.77755 26.9882 10.2697 27.4803C10.7618 27.9725 11.429 28.2493 12.125 28.25H27.875C28.571 28.2493 29.2382 27.9725 29.7303 27.4803C30.2225 26.9882 30.4993 26.321 30.5 25.625V14.375C30.4993 13.679 30.2225 13.0118 29.7303 12.5197C29.2382 12.0275 28.571 11.7507 27.875 11.75ZM27.2103 16.092L20.4603 21.342C20.3287 21.4444 20.1667 21.4999 20 21.4999C19.8333 21.4999 19.6713 21.4444 19.5397 21.342L12.7897 16.092C12.7104 16.0321 12.6438 15.9571 12.5937 15.8712C12.5437 15.7854 12.5112 15.6904 12.4981 15.5919C12.4851 15.4934 12.4918 15.3933 12.5178 15.2973C12.5438 15.2014 12.5886 15.1116 12.6496 15.0332C12.7106 14.9547 12.7866 14.8892 12.8731 14.8403C12.9597 14.7915 13.0551 14.7603 13.1538 14.7487C13.2525 14.737 13.3525 14.7451 13.448 14.7725C13.5436 14.7998 13.6327 14.8459 13.7103 14.908L20 19.7998L26.2897 14.908C26.447 14.7892 26.6447 14.7371 26.84 14.763C27.0354 14.7888 27.2128 14.8905 27.3338 15.0461C27.4547 15.2017 27.5096 15.3987 27.4865 15.5944C27.4634 15.7901 27.3642 15.9689 27.2103 16.092Z" fill="#F5F5F5"/>
</svg>
