<svg width="83" height="23" viewBox="0 0 83 23" fill="none" xmlns="http://www.w3.org/2000/svg">
<path d="M11.89 12.91C11.89 10.97 11.41 9.53 10.45 8.59C9.51 7.63 8.28 7.15 6.76 7.15C6.4 7.15 6.06 7.16 5.74 7.18C5.42 7.2 5.1 7.24 4.78 7.3V18.46C5.04 18.52 5.35 18.57 5.71 18.61C6.09 18.63 6.45 18.64 6.79 18.64C8.35 18.64 9.59 18.17 10.51 17.23C11.43 16.27 11.89 14.83 11.89 12.91ZM16.75 12.85C16.75 14.45 16.51 15.85 16.03 17.05C15.55 18.25 14.87 19.25 13.99 20.05C13.13 20.85 12.08 21.45 10.84 21.85C9.62 22.25 8.26 22.45 6.76 22.45C6.42 22.45 6.03 22.44 5.59 22.42C5.17 22.4 4.73 22.36 4.27 22.3C3.83 22.26 3.38 22.19 2.92 22.09C2.46 22.01 2.04 21.9 1.66 21.76C0.62 21.38 0.1 20.7 0.1 19.72V5.44C0.1 5.04 0.2 4.73 0.4 4.51C0.62 4.29 0.93 4.11 1.33 3.97C2.15 3.71 3.02 3.54 3.94 3.46C4.86 3.38 5.7 3.34 6.46 3.34C8 3.34 9.4 3.53 10.66 3.91C11.92 4.29 13 4.88 13.9 5.68C14.8 6.46 15.5 7.45 16 8.65C16.5 9.83 16.75 11.23 16.75 12.85ZM24.1626 21.97C23.9626 22.03 23.6826 22.08 23.3226 22.12C22.9626 22.18 22.5626 22.21 22.1226 22.21C21.2226 22.21 20.5726 22.07 20.1726 21.79C19.7726 21.49 19.5726 20.92 19.5726 20.08V10.93C19.5726 10.37 19.7126 9.89 19.9926 9.49C20.2726 9.09 20.6626 8.74 21.1626 8.44C21.8226 8.04 22.6126 7.73 23.5326 7.51C24.4726 7.27 25.4526 7.15 26.4726 7.15C28.5526 7.15 29.5926 7.85 29.5926 9.25C29.5926 9.59 29.5426 9.9 29.4426 10.18C29.3426 10.46 29.2326 10.7 29.1126 10.9C28.6526 10.8 28.0926 10.75 27.4326 10.75C26.8526 10.75 26.2726 10.82 25.6926 10.96C25.1126 11.1 24.6026 11.29 24.1626 11.53V21.97ZM36.4408 21.97C36.2408 22.03 35.9608 22.08 35.6008 22.12C35.2408 22.18 34.8408 22.21 34.4008 22.21C33.5008 22.21 32.8508 22.07 32.4508 21.79C32.0708 21.49 31.8808 20.92 31.8808 20.08V7.75C32.0808 7.69 32.3608 7.63 32.7208 7.57C33.0808 7.51 33.4808 7.48 33.9208 7.48C34.8208 7.48 35.4608 7.63 35.8408 7.93C36.2408 8.23 36.4408 8.8 36.4408 9.64V21.97ZM31.6108 3.43C31.6108 2.75 31.8408 2.17 32.3008 1.69C32.7808 1.21 33.4008 0.969999 34.1608 0.969999C34.9208 0.969999 35.5308 1.21 35.9908 1.69C36.4708 2.17 36.7108 2.75 36.7108 3.43C36.7108 4.13 36.4708 4.72 35.9908 5.2C35.5308 5.68 34.9208 5.92 34.1608 5.92C33.4008 5.92 32.7808 5.68 32.3008 5.2C31.8408 4.72 31.6108 4.13 31.6108 3.43ZM44.4032 8.62H49.5032C49.6032 8.82 49.7032 9.07 49.8032 9.37C49.9232 9.67 49.9832 10 49.9832 10.36C49.9832 11 49.8332 11.46 49.5332 11.74C49.2532 12.02 48.8832 12.16 48.4232 12.16H44.6132V21.97C44.4132 22.03 44.1332 22.08 43.7732 22.12C43.4132 22.18 43.0132 22.21 42.5732 22.21C41.6732 22.21 41.0232 22.07 40.6232 21.79C40.2232 21.49 40.0232 20.92 40.0232 20.08V7.33C40.0232 6.35 40.1832 5.5 40.5032 4.78C40.8432 4.06 41.3032 3.48 41.8832 3.04C42.4632 2.58 43.1432 2.24 43.9232 2.02C44.7032 1.8 45.5432 1.69 46.4432 1.69C47.8632 1.69 48.9132 1.88 49.5932 2.26C50.2932 2.62 50.6432 3.22 50.6432 4.06C50.6432 4.44 50.5632 4.78 50.4032 5.08C50.2632 5.36 50.0932 5.58 49.8932 5.74C49.5132 5.62 49.1032 5.52 48.6632 5.44C48.2432 5.36 47.7632 5.32 47.2232 5.32C46.3032 5.32 45.6032 5.49 45.1232 5.83C44.6432 6.15 44.4032 6.7 44.4032 7.48V8.62ZM58.0335 19.09C58.4735 19.09 58.9035 19.05 59.3235 18.97C59.7635 18.87 60.0935 18.75 60.3135 18.61V15.85L57.8535 16.06C57.2135 16.12 56.6935 16.27 56.2935 16.51C55.9135 16.73 55.7235 17.07 55.7235 17.53C55.7235 18.01 55.9035 18.39 56.2635 18.67C56.6235 18.95 57.2135 19.09 58.0335 19.09ZM57.8535 7.12C58.8935 7.12 59.8335 7.23 60.6735 7.45C61.5335 7.65 62.2635 7.97 62.8635 8.41C63.4635 8.85 63.9235 9.41 64.2435 10.09C64.5835 10.77 64.7535 11.57 64.7535 12.49V19.27C64.7535 19.79 64.6135 20.21 64.3335 20.53C64.0735 20.83 63.7535 21.09 63.3735 21.31C62.7535 21.69 61.9935 21.98 61.0935 22.18C60.1935 22.38 59.1735 22.48 58.0335 22.48C55.9735 22.48 54.3335 22.09 53.1135 21.31C51.8935 20.51 51.2835 19.3 51.2835 17.68C51.2835 16.3 51.6935 15.25 52.5135 14.53C53.3335 13.81 54.5935 13.36 56.2935 13.18L60.2835 12.76V12.43C60.2835 11.79 60.0235 11.32 59.5035 11.02C58.9835 10.72 58.2335 10.57 57.2535 10.57C56.4935 10.57 55.7435 10.66 55.0035 10.84C54.2835 11.02 53.6335 11.23 53.0535 11.47C52.8135 11.31 52.6035 11.07 52.4235 10.75C52.2635 10.41 52.1835 10.05 52.1835 9.67C52.1835 8.79 52.6435 8.16 53.5635 7.78C54.1435 7.56 54.8135 7.4 55.5735 7.3C56.3535 7.18 57.1135 7.12 57.8535 7.12ZM77.4182 12.79C77.4182 12.09 77.2082 11.57 76.7882 11.23C76.3682 10.89 75.8082 10.72 75.1082 10.72C74.6282 10.72 74.1882 10.78 73.7882 10.9C73.3882 11.02 73.0182 11.17 72.6782 11.35V21.97C72.4782 22.03 72.1982 22.08 71.8382 22.12C71.4782 22.18 71.0782 22.21 70.6382 22.21C69.7382 22.21 69.0882 22.07 68.6882 21.79C68.2882 21.49 68.0882 20.92 68.0882 20.08V10.81C68.0882 10.29 68.1982 9.87 68.4182 9.55C68.6382 9.23 68.9482 8.93 69.3482 8.65C69.9882 8.19 70.8082 7.82 71.8082 7.54C72.8282 7.26 73.9482 7.12 75.1682 7.12C77.3482 7.12 79.0282 7.6 80.2082 8.56C81.4082 9.52 82.0082 10.89 82.0082 12.67V21.97C81.7882 22.03 81.4982 22.08 81.1382 22.12C80.7782 22.18 80.3782 22.21 79.9382 22.21C79.0382 22.21 78.3882 22.07 77.9882 21.79C77.6082 21.49 77.4182 20.92 77.4182 20.08V12.79Z" fill="#3950A2"/>
</svg>
