<svg width="32" height="32" viewBox="0 0 32 32" fill="none" xmlns="http://www.w3.org/2000/svg">
<path d="M3.7777 24.3231C3.7777 24.3274 3.77771 24.3356 3.77271 24.3468C3.77458 24.3393 3.77583 24.3312 3.7777 24.3231ZM27.494 25.3499C27.2882 25.3455 27.085 25.3031 26.8946 25.2249L23.3458 23.9668L23.3196 23.9562C23.2422 23.9239 23.159 23.9078 23.0752 23.9087C22.9979 23.9088 22.9213 23.9228 22.849 23.9499C22.7627 23.9824 21.9858 24.2743 21.1708 24.4981C20.729 24.6193 19.1908 25.0149 17.9565 25.0149C14.8015 25.0149 11.8515 23.8024 9.65083 21.6006C8.57577 20.5321 7.72332 19.261 7.14282 17.8609C6.56232 16.4608 6.2653 14.9594 6.26896 13.4437C6.26893 12.6539 6.354 11.8665 6.52271 11.0949C7.07208 8.5562 8.52708 6.24682 10.6196 4.59494C12.7661 2.91122 15.4159 1.99734 18.144 1.99994C21.4071 1.99994 24.4477 3.24994 26.7065 5.51119C28.8415 7.65307 30.0115 10.4693 30.0021 13.4406C30.0002 15.6484 29.341 17.8057 28.1083 19.6374L28.0965 19.6549L28.0502 19.7174C28.0396 19.7318 28.029 19.7456 28.019 19.7599L28.0096 19.7768C27.9847 19.8191 27.9622 19.8627 27.9421 19.9074L28.9258 23.4037C28.9693 23.5479 28.9929 23.6974 28.9958 23.8481C28.9961 24.0454 28.9574 24.2408 28.882 24.4231C28.8066 24.6054 28.696 24.7711 28.5565 24.9106C28.417 25.0501 28.2513 25.1607 28.069 25.2361C27.8867 25.3115 27.6913 25.3502 27.494 25.3499Z" fill="#455A64"/>
<path d="M18.7419 26.5869C18.6773 26.4613 18.5865 26.3511 18.4755 26.2637C18.3645 26.1764 18.236 26.114 18.0988 26.0807C17.7375 25.9851 17.3163 26.0013 16.9944 25.9776C13.9552 25.7662 11.0953 24.4619 8.94316 22.3057C7.02987 20.4031 5.78643 17.9305 5.40003 15.2601C5.31253 14.6513 5.31253 14.5001 5.31253 14.5001C5.31249 14.297 5.25061 14.0987 5.13511 13.9316C5.01962 13.7645 4.85599 13.6366 4.666 13.5648C4.476 13.493 4.26865 13.4808 4.07153 13.5297C3.87441 13.5787 3.69687 13.6865 3.56253 13.8388C3.56253 13.8388 3.07003 14.3751 2.83753 14.9132C2.18546 16.4156 1.90737 18.0537 2.02711 19.6872C2.14685 21.3206 2.66084 22.9007 3.52503 24.2919C3.68753 24.5626 3.68753 24.6876 3.65128 24.9688C3.48066 25.8507 3.18191 27.4063 3.02628 28.2132C2.97475 28.4748 2.99392 28.7455 3.08181 28.9973C3.16969 29.2491 3.32312 29.4729 3.52628 29.6457L3.55503 29.6701C3.82379 29.8835 4.15682 29.9998 4.50003 30.0001C4.69307 30.0002 4.88424 29.9622 5.06253 29.8882L8.40691 28.5976C8.52205 28.5538 8.64926 28.5538 8.76441 28.5976C10.0813 29.0876 11.4519 29.3476 12.7507 29.3476C14.3689 29.3491 15.9675 28.9935 17.4325 28.3063C17.7738 28.1463 18.3075 27.9726 18.62 27.6113C18.7383 27.4712 18.8129 27.2995 18.8345 27.1174C18.8562 26.9353 18.824 26.7509 18.7419 26.5869Z" fill="#455A64"/>
</svg>
