<svg width="31" height="26" viewBox="0 0 31 26" fill="none" xmlns="http://www.w3.org/2000/svg">
<path d="M25.6063 4.39116C22.8464 1.64771 19.1283 0.0842417 15.2371 0.0308968C11.346 -0.0224481 7.58644 1.43851 4.75234 4.10527C1.91823 6.77202 0.231442 10.4358 0.048156 14.323C-0.13513 18.2102 1.19944 22.0164 3.77004 24.938L3.78129 24.9505C3.80192 24.9724 3.82129 24.9949 3.84379 25.0162C3.89004 25.0687 3.94254 25.128 4.00442 25.1899C4.24707 25.4478 4.54036 25.6529 4.86591 25.7922C5.19146 25.9316 5.54228 26.0023 5.89639 25.9998C6.25051 25.9973 6.60031 25.9218 6.92389 25.7779C7.24747 25.634 7.53787 25.4249 7.77692 25.1637C8.6967 24.164 9.81387 23.3661 11.0578 22.8203C12.3017 22.2744 13.6454 21.9926 15.0038 21.9926C16.3622 21.9926 17.7058 22.2744 18.9498 22.8203C20.1937 23.3661 21.3109 24.164 22.2307 25.1637C22.4715 25.4263 22.7642 25.6361 23.0903 25.7797C23.4164 25.9233 23.7688 25.9977 24.1252 25.998C24.4815 25.9984 24.834 25.9247 25.1604 25.7818C25.4868 25.6388 25.78 25.4296 26.0213 25.1674L26.2219 24.9487L26.2332 24.9362C28.766 22.0761 30.1117 18.3571 29.9956 14.5385C29.8794 10.7198 28.3102 7.08952 25.6082 4.38866L25.6063 4.39116ZM14 5.00054C14 4.73532 14.1054 4.48097 14.2929 4.29343C14.4805 4.10589 14.7348 4.00054 15 4.00054C15.2653 4.00054 15.5196 4.10589 15.7071 4.29343C15.8947 4.48097 16 4.73532 16 5.00054V7.00054C16 7.26575 15.8947 7.52011 15.7071 7.70764C15.5196 7.89518 15.2653 8.00054 15 8.00054C14.7348 8.00054 14.4805 7.89518 14.2929 7.70764C14.1054 7.52011 14 7.26575 14 7.00054V5.00054ZM7.00004 16.0005H5.00004C4.73482 16.0005 4.48047 15.8952 4.29293 15.7076C4.1054 15.5201 4.00004 15.2658 4.00004 15.0005C4.00004 14.7353 4.1054 14.481 4.29293 14.2934C4.48047 14.1059 4.73482 14.0005 5.00004 14.0005H7.00004C7.26526 14.0005 7.51961 14.1059 7.70715 14.2934C7.89468 14.481 8.00004 14.7353 8.00004 15.0005C8.00004 15.2658 7.89468 15.5201 7.70715 15.7076C7.51961 15.8952 7.26526 16.0005 7.00004 16.0005ZM10.05 10.0505C9.86252 10.2379 9.60827 10.3432 9.34317 10.3432C9.07806 10.3432 8.82381 10.2379 8.63629 10.0505L7.22192 8.63679C7.03436 8.44923 6.92899 8.19485 6.92899 7.9296C6.92899 7.66435 7.03436 7.40997 7.22192 7.22241C7.40947 7.03485 7.66386 6.92948 7.9291 6.92948C8.19435 6.92948 8.44873 7.03485 8.63629 7.22241L10.05 8.63679C10.2374 8.8243 10.3427 9.07856 10.3427 9.34366C10.3427 9.60876 10.2374 9.86302 10.05 10.0505ZM19.3813 11.4943L16.4125 16.213C16.2911 16.3814 16.1434 16.5291 15.975 16.6505C15.5687 16.934 15.0669 17.0458 14.5786 16.9616C14.0903 16.8775 13.655 16.6041 13.367 16.2009C13.079 15.7978 12.9616 15.2973 13.0404 14.8081C13.1191 14.3189 13.3876 13.8805 13.7875 13.588L18.5063 10.6193C18.6136 10.5445 18.7412 10.5044 18.8719 10.5044C19.0027 10.5044 19.1303 10.5445 19.2375 10.6193C19.3723 10.7165 19.463 10.8632 19.4899 11.0271C19.5169 11.1911 19.4778 11.359 19.3813 11.4943ZM21.3638 10.0505C21.1747 10.2302 20.923 10.3288 20.6622 10.3255C20.4015 10.3221 20.1523 10.2171 19.9679 10.0327C19.7835 9.84826 19.6784 9.59912 19.6751 9.33836C19.6718 9.0776 19.7704 8.82585 19.95 8.63679L21.3638 7.22241C21.5513 7.03485 21.8057 6.92948 22.071 6.92948C22.3362 6.92948 22.5906 7.03485 22.7782 7.22241C22.9657 7.40997 23.0711 7.66435 23.0711 7.9296C23.0711 8.19485 22.9657 8.44923 22.7782 8.63679L21.3638 10.0505ZM25 16.0005H23C22.7348 16.0005 22.4805 15.8952 22.2929 15.7076C22.1054 15.5201 22 15.2658 22 15.0005C22 14.7353 22.1054 14.481 22.2929 14.2934C22.4805 14.1059 22.7348 14.0005 23 14.0005H25C25.2653 14.0005 25.5196 14.1059 25.7071 14.2934C25.8947 14.481 26 14.7353 26 15.0005C26 15.2658 25.8947 15.5201 25.7071 15.7076C25.5196 15.8952 25.2653 16.0005 25 16.0005Z" fill="#3950A2"/>
</svg>
