<svg width="28" height="28" viewBox="0 0 28 28" fill="none" xmlns="http://www.w3.org/2000/svg">
<path d="M22.4375 27.9994C21.2175 27.9994 19.5037 27.5581 16.9375 26.1244C13.8168 24.3744 11.4031 22.7588 8.29934 19.6631C5.30684 16.6725 3.85059 14.7363 1.81247 11.0275C-0.490034 6.84001 -0.0975341 4.64501 0.341216 3.70689C0.863716 2.58564 1.63497 1.91501 2.63184 1.24939C3.19806 0.878412 3.79726 0.560401 4.42184 0.29939C4.48434 0.272515 4.54247 0.24689 4.59434 0.223765C4.90372 0.0843896 5.37247 -0.126235 5.96622 0.0987646C6.36247 0.247515 6.71622 0.55189 7.26997 1.09876C8.40559 2.21876 9.95747 4.71314 10.53 5.93814C10.9143 6.76376 11.1687 7.30876 11.1693 7.92001C11.1693 8.63564 10.8093 9.18751 10.3725 9.78314C10.2906 9.89501 10.2093 10.0019 10.1306 10.1056C9.65496 10.7306 9.55059 10.9113 9.61934 11.2338C9.75872 11.8819 10.7981 13.8113 12.5062 15.5156C14.2143 17.22 16.0881 18.1938 16.7387 18.3325C17.075 18.4044 17.2593 18.2956 17.9043 17.8031C17.9968 17.7325 18.0918 17.6594 18.1912 17.5863C18.8575 17.0906 19.3837 16.74 20.0825 16.74H20.0862C20.6943 16.74 21.215 17.0038 22.0775 17.4388C23.2025 18.0063 25.7718 19.5381 26.8987 20.675C27.4468 21.2275 27.7525 21.58 27.9018 21.9756C28.1268 22.5713 27.915 23.0381 27.7768 23.3506C27.7537 23.4025 27.7281 23.4594 27.7012 23.5225C27.4381 24.146 27.1182 24.7439 26.7456 25.3088C26.0812 26.3025 25.4081 27.0719 24.2843 27.595C23.7073 27.868 23.0758 28.0062 22.4375 27.9994Z" fill="#3950A2"/>
</svg>
