<svg width="266" height="200" viewBox="0 0 266 200" fill="none" xmlns="http://www.w3.org/2000/svg">
<path d="M265.604 176.011H0V176.144H265.604V176.011Z" fill="#EBEBEB"/>
<path d="M50.4646 180.691H28.5735V180.824H50.4646V180.691Z" fill="#EBEBEB"/>
<path d="M95.0864 179.629H73.1316V179.762H95.0864V179.629Z" fill="#EBEBEB"/>
<path d="M123.655 179.629H118.343V179.762H123.655V179.629Z" fill="#EBEBEB"/>
<path d="M70.5603 184.165H45.9919V184.298H70.5603V184.165Z" fill="#EBEBEB"/>
<path d="M155.538 180.622H144.064V180.755H155.538V180.622Z" fill="#EBEBEB"/>
<path d="M175.102 180.622H160.266V180.755H175.102V180.622Z" fill="#EBEBEB"/>
<path d="M246.656 182.869H213.488V183.002H246.656V182.869Z" fill="#EBEBEB"/>
<path d="M125.897 152.319H23.3255C22.522 152.318 21.7518 151.998 21.1841 151.429C20.6164 150.86 20.2976 150.09 20.2976 149.286V5.10021C20.3046 4.30128 20.6265 3.53738 21.1935 2.97443C21.7604 2.41147 22.5265 2.09494 23.3255 2.09357H125.897C126.701 2.09357 127.473 2.41314 128.041 2.98197C128.61 3.55081 128.93 4.32231 128.93 5.12677V149.286C128.93 150.091 128.61 150.862 128.041 151.431C127.473 152 126.701 152.319 125.897 152.319ZM23.3255 2.19981C22.5572 2.20122 21.8208 2.50741 21.278 3.05119C20.7353 3.59497 20.4304 4.33189 20.4304 5.10021V149.286C20.4304 150.054 20.7353 150.791 21.278 151.335C21.8208 151.879 22.5572 152.185 23.3255 152.187H125.897C126.665 152.185 127.402 151.879 127.946 151.335C128.49 150.792 128.796 150.055 128.797 149.286V5.10021C128.796 4.3314 128.49 3.59449 127.946 3.05087C127.402 2.50724 126.665 2.20121 125.897 2.19981H23.3255Z" fill="#EBEBEB"/>
<path d="M240.802 152.319H138.226C137.422 152.318 136.651 151.998 136.083 151.429C135.514 150.861 135.194 150.09 135.193 149.286V5.10021C135.201 4.3008 135.524 3.5369 136.092 2.97409C136.66 2.41129 137.426 2.09492 138.226 2.09357H240.802C241.6 2.09633 242.365 2.41349 242.931 2.97629C243.497 3.5391 243.818 4.3022 243.825 5.10021V149.286C243.825 150.089 243.507 150.859 242.94 151.427C242.374 151.996 241.605 152.317 240.802 152.319ZM138.226 2.19981C137.457 2.20121 136.72 2.50724 136.176 3.05087C135.633 3.59449 135.327 4.3314 135.325 5.10021V149.286C135.327 150.055 135.633 150.792 136.176 151.335C136.72 151.879 137.457 152.185 138.226 152.187H240.802C241.571 152.185 242.308 151.879 242.852 151.335C243.395 150.792 243.701 150.055 243.703 149.286V5.10021C243.701 4.3314 243.395 3.59449 242.852 3.05087C242.308 2.50724 241.571 2.20121 240.802 2.19981H138.226Z" fill="#EBEBEB"/>
<path d="M16.9985 152.426C20.2556 153.599 23.2829 155.332 25.9441 157.546C25.1413 151.433 26.1537 145.219 28.8551 139.677C28.8551 139.677 34.6984 145.918 37.7741 154.338C38.6582 153.094 39.6851 151.959 40.8339 150.954C40.4608 149.291 40.1947 147.605 40.0371 145.908C44.196 147.399 48.0628 149.605 51.4633 152.426C50.4352 144.612 51.7284 136.668 55.1818 129.584C55.1818 129.584 62.6665 137.552 66.5709 148.309C67.9708 146.303 69.6794 144.532 71.6333 143.06C71.6333 143.06 75.5802 150.954 75.9574 159.528C78.5544 158.843 81.252 158.624 83.9255 158.88C83.9255 158.88 83.7714 169.058 78.0822 174.609C77.5521 175.13 76.9781 175.605 76.3664 176.027H24.308C21.6766 173.921 19.4222 171.383 17.6413 168.521C19.1173 168.002 20.6665 167.72 22.2309 167.687C17.5563 160.686 16.9985 152.426 16.9985 152.426Z" fill="#E6E6E6"/>
<path d="M97.4927 141.174C102.302 142.91 106.772 145.47 110.704 148.739C109.519 139.7 111.021 130.513 115.023 122.322C115.023 122.322 123.676 131.533 128.186 143.974C129.495 142.138 131.014 140.46 132.712 138.975C132.16 136.524 131.768 134.04 131.538 131.538C137.68 133.755 143.389 137.025 148.409 141.201C145.753 122.332 153.923 107.464 153.923 107.464C153.923 107.464 164.977 119.225 170.741 135.113C172.81 132.153 175.332 129.538 178.215 127.363C178.215 127.363 184.058 139.018 184.59 151.666C188.424 150.652 192.408 150.326 196.356 150.704C196.356 150.704 196.127 165.743 187.713 173.939C186.926 174.706 186.077 175.406 185.174 176.032H108.282C102.252 171.411 98.4329 164.946 98.4329 164.946C100.613 164.181 102.901 163.766 105.211 163.719C98.3373 153.382 97.4927 141.174 97.4927 141.174Z" fill="#F5F5F5"/>
<path d="M229.158 176.011H188.08C187.939 176.011 187.804 175.955 187.704 175.856C187.604 175.756 187.548 175.621 187.548 175.48V79.6499C187.548 79.509 187.604 79.3739 187.704 79.2743C187.804 79.1747 187.939 79.1187 188.08 79.1187H229.158C229.299 79.1187 229.434 79.1747 229.534 79.2743C229.633 79.3739 229.689 79.509 229.689 79.6499V175.48C229.689 175.621 229.633 175.756 229.534 175.856C229.434 175.955 229.299 176.011 229.158 176.011ZM188.611 174.949H228.627V80.1811H188.611V174.949Z" fill="#E0E0E0"/>
<path d="M229.158 176.011C229.029 176.011 228.904 175.964 228.808 175.878L215.14 163.894C215.083 163.844 215.038 163.783 215.007 163.714C214.976 163.646 214.96 163.571 214.96 163.496C214.96 163.421 214.976 163.346 215.007 163.277C215.038 163.209 215.083 163.147 215.14 163.097L228.372 151.517L215.14 139.931C215.083 139.882 215.038 139.82 215.007 139.752C214.976 139.683 214.96 139.608 214.96 139.533C214.96 139.458 214.976 139.383 215.007 139.315C215.038 139.246 215.083 139.185 215.14 139.135L228.372 127.554L215.14 115.969C215.083 115.919 215.038 115.857 215.007 115.789C214.976 115.72 214.96 115.646 214.96 115.57C214.96 115.495 214.976 115.42 215.007 115.352C215.038 115.283 215.083 115.222 215.14 115.172L228.372 103.586L215.14 92.0058C215.083 91.956 215.038 91.8947 215.007 91.826C214.976 91.7573 214.96 91.6828 214.96 91.6074C214.96 91.5321 214.976 91.4576 215.007 91.3889C215.038 91.3202 215.083 91.2589 215.14 91.209L228.829 79.225C228.935 79.132 229.074 79.0851 229.215 79.0945C229.356 79.104 229.487 79.1691 229.58 79.2754C229.673 79.3818 229.72 79.5207 229.711 79.6617C229.701 79.8027 229.636 79.9341 229.53 80.0271L216.292 91.6074L229.53 103.188C229.587 103.238 229.633 103.299 229.665 103.368C229.697 103.438 229.713 103.513 229.713 103.589C229.713 103.665 229.697 103.74 229.665 103.809C229.633 103.878 229.587 103.94 229.53 103.99L216.292 115.57L229.53 127.151C229.587 127.2 229.633 127.262 229.665 127.331C229.697 127.4 229.713 127.476 229.713 127.552C229.713 127.628 229.697 127.703 229.665 127.772C229.633 127.841 229.587 127.903 229.53 127.953L216.292 139.533L229.53 151.113C229.587 151.164 229.633 151.226 229.664 151.296C229.695 151.365 229.711 151.441 229.711 151.517C229.711 151.593 229.694 151.667 229.663 151.736C229.632 151.804 229.587 151.866 229.53 151.916L216.292 163.496L229.53 175.082C229.611 175.153 229.668 175.247 229.694 175.352C229.72 175.456 229.714 175.566 229.676 175.667C229.638 175.768 229.57 175.855 229.481 175.917C229.392 175.978 229.287 176.011 229.179 176.011H229.158Z" fill="#E0E0E0"/>
<path d="M215.463 176.011C215.388 176.011 215.313 175.995 215.245 175.964C215.176 175.933 215.115 175.887 215.065 175.831C214.973 175.724 214.926 175.585 214.936 175.445C214.946 175.305 215.012 175.174 215.118 175.081L228.35 163.496L215.139 151.894C215.082 151.845 215.035 151.784 215.003 151.715C214.971 151.646 214.954 151.572 214.953 151.496C214.953 151.419 214.97 151.343 215.002 151.274C215.034 151.204 215.081 151.142 215.139 151.092L228.372 139.512L215.139 127.953C215.082 127.903 215.036 127.841 215.004 127.772C214.973 127.703 214.956 127.628 214.956 127.552C214.956 127.476 214.973 127.4 215.004 127.331C215.036 127.262 215.082 127.2 215.139 127.151L228.372 115.57L215.139 103.99C215.082 103.94 215.036 103.878 215.004 103.809C214.973 103.74 214.956 103.665 214.956 103.589C214.956 103.513 214.973 103.438 215.004 103.368C215.036 103.299 215.082 103.238 215.139 103.188L228.372 91.6074L215.139 80.027C215.084 79.9821 215.039 79.9266 215.005 79.8637C214.972 79.8008 214.952 79.7319 214.946 79.661C214.939 79.5901 214.948 79.5187 214.97 79.4511C214.992 79.3834 215.027 79.3209 215.074 79.2671C215.12 79.2134 215.177 79.1696 215.241 79.1383C215.305 79.107 215.374 79.0888 215.445 79.0849C215.516 79.0809 215.588 79.0913 215.654 79.1153C215.721 79.1394 215.783 79.1767 215.835 79.2249L229.53 91.209C229.586 91.2588 229.631 91.3201 229.662 91.3888C229.693 91.4575 229.71 91.532 229.71 91.6074C229.71 91.6828 229.693 91.7573 229.662 91.8259C229.631 91.8946 229.586 91.9559 229.53 92.0058L216.292 103.586L229.53 115.172C229.586 115.222 229.631 115.283 229.662 115.352C229.693 115.42 229.71 115.495 229.71 115.57C229.71 115.646 229.693 115.72 229.662 115.789C229.631 115.857 229.586 115.919 229.53 115.969L216.292 127.554L229.508 139.145C229.565 139.195 229.61 139.256 229.641 139.325C229.672 139.394 229.688 139.468 229.688 139.544C229.688 139.619 229.672 139.694 229.641 139.762C229.61 139.831 229.565 139.892 229.508 139.942L216.271 151.528L229.508 163.108C229.565 163.158 229.61 163.219 229.641 163.288C229.672 163.357 229.688 163.431 229.688 163.506C229.688 163.582 229.672 163.656 229.641 163.725C229.61 163.794 229.565 163.855 229.508 163.905L215.814 175.889C215.715 175.971 215.591 176.014 215.463 176.011Z" fill="#E0E0E0"/>
<path d="M215.464 176.011C215.323 176.011 215.188 175.955 215.088 175.856C214.988 175.756 214.932 175.621 214.932 175.48V79.6499C214.932 79.509 214.988 79.3739 215.088 79.2743C215.188 79.1747 215.323 79.1187 215.464 79.1187C215.604 79.1187 215.74 79.1747 215.839 79.2743C215.939 79.3739 215.995 79.509 215.995 79.6499V175.48C215.995 175.621 215.939 175.756 215.839 175.856C215.74 175.955 215.604 176.011 215.464 176.011Z" fill="#E0E0E0"/>
<path d="M201.774 176.011C201.633 176.011 201.498 175.955 201.399 175.856C201.299 175.756 201.243 175.621 201.243 175.48V79.6499C201.243 79.509 201.299 79.3739 201.399 79.2743C201.498 79.1747 201.633 79.1187 201.774 79.1187C201.915 79.1187 202.05 79.1747 202.15 79.2743C202.25 79.3739 202.306 79.509 202.306 79.6499V175.48C202.306 175.621 202.25 175.756 202.15 175.856C202.05 175.955 201.915 176.011 201.774 176.011Z" fill="#E0E0E0"/>
<path d="M188.08 176.011C187.976 176.011 187.874 175.981 187.788 175.925C187.701 175.868 187.632 175.787 187.591 175.692C187.563 175.628 187.548 175.559 187.546 175.489C187.545 175.419 187.557 175.349 187.583 175.284C187.609 175.219 187.647 175.16 187.696 175.109C187.745 175.059 187.803 175.019 187.867 174.991L214.141 163.496L187.867 152C187.773 151.959 187.693 151.891 187.636 151.804C187.58 151.718 187.55 151.617 187.55 151.514C187.55 151.411 187.58 151.311 187.636 151.224C187.693 151.138 187.773 151.07 187.867 151.028L214.141 139.533L187.867 128.038C187.773 127.996 187.693 127.928 187.636 127.842C187.58 127.755 187.55 127.655 187.55 127.552C187.55 127.449 187.58 127.348 187.636 127.261C187.693 127.175 187.773 127.107 187.867 127.065L214.141 115.57L187.867 104.085C187.773 104.044 187.693 103.976 187.636 103.889C187.58 103.803 187.55 103.702 187.55 103.599C187.55 103.496 187.58 103.396 187.636 103.309C187.693 103.223 187.773 103.155 187.867 103.113L214.141 91.6179L187.867 80.1226C187.8 80.0972 187.738 80.0584 187.686 80.0084C187.634 79.9585 187.593 79.8984 187.565 79.832C187.536 79.7656 187.522 79.6941 187.523 79.622C187.523 79.5499 187.538 79.4786 187.567 79.4125C187.596 79.3465 187.638 79.287 187.691 79.2377C187.743 79.1884 187.805 79.1503 187.873 79.1258C187.941 79.1012 188.013 79.0908 188.085 79.095C188.157 79.0993 188.228 79.1181 188.292 79.1505L215.671 91.1186C215.766 91.1601 215.846 91.2284 215.903 91.3153C215.96 91.4021 215.99 91.5036 215.989 91.6073C215.989 91.7101 215.958 91.8105 215.902 91.8963C215.845 91.9821 215.765 92.0496 215.671 92.0907L189.397 103.586L215.671 115.081C215.766 115.122 215.848 115.19 215.905 115.277C215.963 115.364 215.994 115.466 215.994 115.57C215.994 115.674 215.963 115.776 215.905 115.863C215.848 115.95 215.766 116.018 215.671 116.059L189.397 127.554L215.671 139.044C215.766 139.085 215.848 139.153 215.905 139.24C215.963 139.327 215.994 139.429 215.994 139.533C215.994 139.637 215.963 139.739 215.905 139.826C215.848 139.913 215.766 139.981 215.671 140.022L189.397 151.517L215.671 163.012C215.765 163.053 215.845 163.121 215.902 163.207C215.958 163.293 215.989 163.393 215.989 163.496C215.99 163.599 215.96 163.701 215.903 163.788C215.846 163.875 215.766 163.943 215.671 163.984L188.287 175.963C188.222 175.993 188.151 176.009 188.08 176.011Z" fill="#E0E0E0"/>
<path d="M215.463 176.011C215.39 176.01 215.318 175.994 215.251 175.963L187.867 163.985C187.772 163.943 187.691 163.875 187.635 163.788C187.578 163.701 187.548 163.6 187.548 163.496C187.549 163.393 187.579 163.293 187.636 163.207C187.693 163.121 187.773 163.054 187.867 163.012L214.141 151.517L187.867 140.022C187.771 139.981 187.689 139.913 187.632 139.826C187.575 139.739 187.544 139.637 187.544 139.533C187.544 139.429 187.575 139.327 187.632 139.24C187.689 139.153 187.771 139.085 187.867 139.044L214.141 127.554L187.867 116.059C187.771 116.018 187.689 115.95 187.632 115.863C187.575 115.776 187.544 115.674 187.544 115.57C187.544 115.466 187.575 115.364 187.632 115.277C187.689 115.19 187.771 115.122 187.867 115.082L214.141 103.586L187.867 92.0908C187.773 92.0497 187.693 91.9821 187.636 91.8963C187.579 91.8105 187.549 91.7102 187.548 91.6074C187.548 91.5037 187.578 91.4022 187.635 91.3154C187.691 91.2285 187.772 91.1601 187.867 91.1187L215.251 79.1187C215.315 79.0864 215.386 79.0675 215.458 79.0632C215.53 79.059 215.602 79.0694 215.669 79.094C215.737 79.1185 215.799 79.1566 215.852 79.2059C215.905 79.2552 215.947 79.3147 215.976 79.3808C216.005 79.4468 216.02 79.5181 216.02 79.5902C216.021 79.6623 216.006 79.7338 215.978 79.8002C215.95 79.8666 215.909 79.9267 215.857 79.9766C215.805 80.0266 215.743 80.0654 215.676 80.0908L189.402 91.5861L215.67 103.103C215.765 103.144 215.845 103.212 215.901 103.299C215.957 103.385 215.987 103.486 215.987 103.589C215.987 103.692 215.957 103.793 215.901 103.879C215.845 103.965 215.765 104.033 215.67 104.075L189.397 115.57L215.67 127.066C215.765 127.107 215.845 127.175 215.901 127.261C215.957 127.348 215.987 127.449 215.987 127.552C215.987 127.655 215.957 127.755 215.901 127.842C215.845 127.928 215.765 127.996 215.67 128.038L189.397 139.533L215.67 151.028C215.765 151.07 215.845 151.138 215.901 151.224C215.957 151.311 215.987 151.411 215.987 151.514C215.987 151.617 215.957 151.718 215.901 151.805C215.845 151.891 215.765 151.959 215.67 152L189.397 163.496L215.67 174.991C215.783 175.039 215.876 175.125 215.933 175.234C215.99 175.343 216.007 175.468 215.982 175.588C215.957 175.708 215.891 175.816 215.796 175.893C215.7 175.971 215.581 176.012 215.458 176.011H215.463Z" fill="#E0E0E0"/>
<path d="M67.9946 21.3924C67.9716 24.4929 66.8477 27.4844 64.8236 29.8331C62.7994 32.1819 60.0066 33.735 56.9435 34.2156C53.8803 34.6961 50.7461 34.0727 48.1 32.4566C45.4538 30.8406 43.4679 28.3369 42.4966 25.3924C43.7814 25.8003 45.1221 26.0046 46.47 25.998C49.9349 25.998 53.2583 24.623 55.7103 22.1749C58.1624 19.7268 59.5427 16.4058 59.5484 12.9409C59.5505 11.5846 59.339 10.2366 58.9215 8.94617C61.5567 9.79308 63.8551 11.4545 65.4856 13.6912C67.1161 15.9279 67.9946 18.6245 67.9946 21.3924Z" fill="#F5F5F5"/>
<path d="M49.4661 48.1811C46.4023 46.1233 42.8084 44.9961 39.1182 44.9354C34.4223 44.9354 31.8884 47.1506 32.9455 50.0616C32.0515 49.8211 31.1303 49.6962 30.2045 49.6897C27.0173 49.6897 25.4236 51.3737 26.7251 53.4507C26.8514 53.6515 26.9916 53.8432 27.1447 54.0244H58.6613C58.5817 53.5389 58.4007 53.0755 58.1301 52.6645C56.7437 50.4016 53.0252 48.5211 49.4661 48.1811Z" fill="#FAFAFA"/>
<path d="M55.9095 72.8507C56.6266 69.3979 60.7913 67.0499 67.2561 67.0499C75.6439 67.0499 85.0622 71.0127 89.5935 76.2186C90.9025 75.7472 92.2875 75.522 93.6785 75.5546C99.3996 75.5546 105.896 78.5665 108.18 82.2744C108.389 82.5986 108.567 82.9419 108.712 83.2996H52.4035C51.606 82.5912 50.9121 81.7739 50.3425 80.872C47.8086 76.8189 50.3053 73.4616 55.9095 72.8507Z" fill="#F5F5F5"/>
<path d="M254.566 160.633C252.104 161.38 249.774 162.508 247.66 163.974C248.266 159.933 247.465 155.808 245.392 152.287C245.392 152.287 240.85 156.356 238.486 161.849C237.783 161.022 236.986 160.281 236.112 159.639C236.403 158.559 236.609 157.458 236.728 156.346C233.573 157.292 230.585 158.726 227.873 160.595C229.264 152.266 224.983 145.722 224.983 145.722C224.983 145.722 219.182 150.917 216.159 157.939C215.035 156.604 213.711 155.45 212.234 154.518C212.234 154.518 209.174 159.666 208.882 165.249C206.857 164.8 204.776 164.657 202.709 164.824C202.709 164.824 202.831 171.464 207.246 175.081C207.665 175.424 208.111 175.733 208.579 176.006H248.951C250.941 174.683 252.689 173.028 254.12 171.113C252.962 170.778 251.765 170.599 250.56 170.582C252.756 167.681 254.139 164.246 254.566 160.633Z" fill="#F0F0F0"/>
<path d="M123.4 176.011H82.3371C82.1962 176.011 82.0611 175.955 81.9615 175.856C81.8619 175.756 81.8059 175.621 81.8059 175.48V79.6499C81.8059 79.509 81.8619 79.3739 81.9615 79.2743C82.0611 79.1747 82.1962 79.1187 82.3371 79.1187H123.4C123.54 79.1187 123.676 79.1747 123.775 79.2743C123.875 79.3739 123.931 79.509 123.931 79.6499V175.48C123.931 175.621 123.875 175.756 123.775 175.856C123.676 175.955 123.54 176.011 123.4 176.011ZM82.8524 174.949H122.868V80.1811H82.8683L82.8524 174.949Z" fill="#E0E0E0"/>
<path d="M123.4 176.011C123.273 176.01 123.15 175.963 123.055 175.878L109.36 163.894C109.303 163.844 109.258 163.783 109.227 163.714C109.196 163.646 109.18 163.571 109.18 163.496C109.18 163.42 109.196 163.346 109.227 163.277C109.258 163.209 109.303 163.147 109.36 163.097L122.598 151.517L109.36 139.931C109.303 139.882 109.258 139.82 109.227 139.752C109.196 139.683 109.18 139.608 109.18 139.533C109.18 139.458 109.196 139.383 109.227 139.314C109.258 139.246 109.303 139.184 109.36 139.135L122.598 127.554L109.36 115.969C109.303 115.919 109.258 115.857 109.227 115.789C109.196 115.72 109.18 115.646 109.18 115.57C109.18 115.495 109.196 115.42 109.227 115.352C109.258 115.283 109.303 115.222 109.36 115.172L122.598 103.586L109.36 92.0058C109.303 91.9559 109.258 91.8946 109.227 91.8259C109.196 91.7573 109.18 91.6828 109.18 91.6074C109.18 91.532 109.196 91.4575 109.227 91.3888C109.258 91.3201 109.303 91.2588 109.36 91.209L123.055 79.2249C123.107 79.1767 123.168 79.1394 123.235 79.1153C123.302 79.0913 123.373 79.0809 123.444 79.0849C123.515 79.0888 123.585 79.107 123.649 79.1383C123.713 79.1696 123.77 79.2134 123.816 79.2671C123.863 79.3209 123.898 79.3834 123.92 79.4511C123.942 79.5187 123.95 79.5901 123.944 79.661C123.938 79.7319 123.918 79.8008 123.884 79.8637C123.851 79.9266 123.806 79.9821 123.75 80.027L110.491 91.6074L123.772 103.188C123.829 103.238 123.875 103.299 123.907 103.368C123.938 103.438 123.955 103.513 123.955 103.589C123.955 103.665 123.938 103.74 123.907 103.809C123.875 103.878 123.829 103.94 123.772 103.99L110.491 115.57L123.772 127.151C123.829 127.2 123.875 127.262 123.907 127.331C123.938 127.4 123.955 127.476 123.955 127.552C123.955 127.628 123.938 127.703 123.907 127.772C123.875 127.841 123.829 127.903 123.772 127.953L110.491 139.533L123.772 151.113C123.829 151.164 123.875 151.226 123.906 151.296C123.937 151.365 123.953 151.441 123.952 151.517C123.952 151.593 123.936 151.667 123.905 151.736C123.874 151.804 123.828 151.866 123.772 151.915L110.491 163.496L123.772 175.081C123.878 175.174 123.943 175.305 123.953 175.445C123.963 175.585 123.917 175.724 123.825 175.831C123.772 175.891 123.707 175.938 123.633 175.969C123.559 176.001 123.48 176.015 123.4 176.011Z" fill="#E0E0E0"/>
<path d="M109.711 176.011C109.634 176.012 109.559 175.996 109.489 175.965C109.419 175.934 109.357 175.888 109.307 175.831C109.215 175.724 109.168 175.586 109.178 175.445C109.188 175.305 109.254 175.174 109.36 175.082L122.598 163.496L109.36 151.895C109.303 151.845 109.258 151.784 109.227 151.715C109.196 151.646 109.179 151.572 109.179 151.496C109.179 151.42 109.194 151.344 109.226 151.275C109.257 151.205 109.303 151.143 109.36 151.092L122.598 139.512L109.36 127.932C109.303 127.882 109.256 127.82 109.225 127.751C109.193 127.682 109.177 127.607 109.177 127.531C109.177 127.455 109.193 127.379 109.225 127.31C109.256 127.241 109.303 127.179 109.36 127.13L122.598 115.549L109.36 103.969C109.303 103.919 109.256 103.857 109.225 103.788C109.193 103.719 109.177 103.644 109.177 103.568C109.177 103.492 109.193 103.417 109.225 103.347C109.256 103.278 109.303 103.217 109.36 103.167L122.598 91.5865L109.36 80.0061C109.305 79.9612 109.259 79.9056 109.226 79.8427C109.193 79.7799 109.172 79.7109 109.166 79.6401C109.16 79.5692 109.168 79.4978 109.19 79.4302C109.212 79.3625 109.248 79.2999 109.294 79.2462C109.341 79.1925 109.398 79.1487 109.462 79.1173C109.526 79.086 109.595 79.0679 109.666 79.0639C109.737 79.06 109.808 79.0704 109.875 79.0944C109.942 79.1185 110.004 79.1557 110.056 79.204L123.772 91.2093C123.828 91.2591 123.873 91.3205 123.904 91.3891C123.935 91.4578 123.951 91.5323 123.951 91.6077C123.951 91.6831 123.935 91.7576 123.904 91.8263C123.873 91.895 123.828 91.9563 123.772 92.0061L110.491 103.586L123.772 115.172C123.828 115.222 123.873 115.283 123.904 115.352C123.935 115.421 123.951 115.495 123.951 115.571C123.951 115.646 123.935 115.72 123.904 115.789C123.873 115.858 123.828 115.919 123.772 115.969L110.491 127.555L123.772 139.146C123.828 139.195 123.873 139.257 123.904 139.325C123.935 139.394 123.951 139.469 123.951 139.544C123.951 139.619 123.935 139.694 123.904 139.763C123.873 139.831 123.828 139.893 123.772 139.942L110.491 151.517L123.772 163.098C123.828 163.148 123.873 163.209 123.904 163.278C123.935 163.346 123.951 163.421 123.951 163.496C123.951 163.572 123.935 163.646 123.904 163.715C123.873 163.783 123.828 163.845 123.772 163.895L110.077 175.879C109.976 175.968 109.845 176.015 109.711 176.011Z" fill="#E0E0E0"/>
<path d="M109.71 176.011C109.57 176.011 109.434 175.955 109.335 175.856C109.235 175.756 109.179 175.621 109.179 175.48V79.6499C109.179 79.509 109.235 79.3739 109.335 79.2743C109.434 79.1747 109.57 79.1187 109.71 79.1187C109.851 79.1187 109.986 79.1747 110.086 79.2743C110.186 79.3739 110.242 79.509 110.242 79.6499V175.48C110.242 175.621 110.186 175.756 110.086 175.856C109.986 175.955 109.851 176.011 109.71 176.011Z" fill="#E0E0E0"/>
<path d="M96.0158 176.011C95.8749 176.011 95.7398 175.955 95.6402 175.856C95.5406 175.756 95.4846 175.621 95.4846 175.48V79.6499C95.4846 79.509 95.5406 79.3739 95.6402 79.2743C95.7398 79.1747 95.8749 79.1187 96.0158 79.1187C96.1567 79.1187 96.2918 79.1747 96.3914 79.2743C96.4911 79.3739 96.547 79.509 96.547 79.6499V175.48C96.547 175.621 96.4911 175.756 96.3914 175.856C96.2918 175.955 96.1567 176.011 96.0158 176.011Z" fill="#E0E0E0"/>
<path d="M82.3375 176.011C82.2339 176.012 82.1323 175.982 82.0455 175.925C81.9587 175.868 81.8903 175.788 81.8488 175.693C81.8207 175.628 81.8055 175.559 81.8042 175.489C81.8029 175.419 81.8154 175.35 81.8411 175.285C81.8667 175.219 81.905 175.16 81.9538 175.11C82.0025 175.059 82.0607 175.019 82.1251 174.991L108.367 163.496L82.1091 152.001C82.0149 151.959 81.9347 151.891 81.8784 151.805C81.8222 151.718 81.7922 151.618 81.7922 151.515C81.7922 151.412 81.8222 151.311 81.8784 151.225C81.9347 151.138 82.0149 151.07 82.1091 151.029L108.367 139.533L82.0932 128.038C81.9989 127.996 81.9188 127.928 81.8625 127.842C81.8062 127.756 81.7763 127.655 81.7763 127.552C81.7763 127.449 81.8062 127.348 81.8625 127.262C81.9188 127.175 81.9989 127.107 82.0932 127.066L108.367 115.57L82.1091 104.086C82.0149 104.044 81.9347 103.976 81.8784 103.89C81.8222 103.803 81.7922 103.703 81.7922 103.6C81.7922 103.497 81.8222 103.396 81.8784 103.31C81.9347 103.223 82.0149 103.155 82.1091 103.114L108.367 91.6076L82.0932 80.1122C82.0288 80.0845 81.9706 80.0444 81.9219 79.994C81.8732 79.9437 81.8349 79.8843 81.8092 79.8191C81.7835 79.7539 81.771 79.6843 81.7723 79.6143C81.7736 79.5443 81.7888 79.4752 81.817 79.4111C81.8452 79.3472 81.8857 79.2895 81.9362 79.2413C81.9867 79.1932 82.0463 79.1554 82.1114 79.1302C82.1765 79.1051 82.246 79.093 82.3158 79.0947C82.3855 79.0964 82.4543 79.1118 82.5181 79.1401L109.907 91.1189C110.002 91.1604 110.083 91.2287 110.14 91.3156C110.196 91.4024 110.226 91.5039 110.226 91.6076C110.225 91.7104 110.195 91.8107 110.138 91.8965C110.082 91.9823 110.001 92.0499 109.907 92.091L83.6337 103.586L109.907 115.082C110.003 115.123 110.085 115.191 110.142 115.278C110.2 115.364 110.23 115.466 110.23 115.57C110.23 115.675 110.2 115.776 110.142 115.863C110.085 115.95 110.003 116.018 109.907 116.059L83.6337 127.554L109.907 139.045C110.003 139.085 110.085 139.153 110.142 139.24C110.2 139.327 110.23 139.429 110.23 139.533C110.23 139.637 110.2 139.739 110.142 139.826C110.085 139.913 110.003 139.981 109.907 140.022L83.6337 151.517L109.907 163.013C110.001 163.054 110.082 163.121 110.138 163.207C110.195 163.293 110.225 163.393 110.226 163.496C110.226 163.6 110.196 163.701 110.14 163.788C110.083 163.875 110.002 163.943 109.907 163.985L82.5181 175.964C82.4615 175.991 82.4002 176.007 82.3375 176.011Z" fill="#E0E0E0"/>
<path d="M109.711 176.011C109.637 176.011 109.564 175.995 109.498 175.963L82.109 163.985C82.014 163.943 81.9331 163.875 81.8765 163.788C81.8199 163.701 81.7899 163.6 81.7903 163.496C81.7909 163.393 81.8214 163.293 81.878 163.207C81.9345 163.121 82.0148 163.054 82.109 163.013L108.367 151.517L82.093 140.022C81.9972 139.981 81.9155 139.913 81.8581 139.826C81.8006 139.739 81.77 139.637 81.77 139.533C81.77 139.429 81.8006 139.327 81.8581 139.24C81.9155 139.153 81.9972 139.085 82.093 139.044L108.367 127.554L82.093 116.059C81.9972 116.018 81.9155 115.95 81.8581 115.863C81.8006 115.776 81.77 115.675 81.77 115.57C81.77 115.466 81.8006 115.364 81.8581 115.277C81.9155 115.191 81.9972 115.122 82.093 115.082L108.367 103.586L82.093 92.091C81.9988 92.0498 81.9186 91.9823 81.862 91.8965C81.8055 91.8107 81.775 91.7103 81.7743 91.6076C81.774 91.5039 81.8039 91.4024 81.8606 91.3155C81.9172 91.2287 81.998 91.1603 82.093 91.1188L109.498 79.1188C109.625 79.071 109.766 79.0738 109.892 79.1268C110.017 79.1797 110.117 79.2787 110.172 79.4033C110.226 79.528 110.231 79.6688 110.184 79.7967C110.138 79.9247 110.045 80.03 109.923 80.091L83.6495 91.5863L109.923 103.082C110.017 103.123 110.097 103.191 110.154 103.278C110.21 103.364 110.24 103.465 110.24 103.568C110.24 103.671 110.21 103.772 110.154 103.858C110.097 103.944 110.017 104.012 109.923 104.054L83.6495 115.549L109.923 127.044C110.017 127.086 110.097 127.154 110.154 127.24C110.21 127.327 110.24 127.428 110.24 127.531C110.24 127.634 110.21 127.734 110.154 127.821C110.097 127.907 110.017 127.975 109.923 128.017L83.6495 139.512L109.923 151.007C110.017 151.049 110.097 151.117 110.154 151.203C110.21 151.29 110.24 151.39 110.24 151.493C110.24 151.596 110.21 151.697 110.154 151.783C110.097 151.87 110.017 151.938 109.923 151.979L83.6495 163.475L109.923 174.97C110.036 175.018 110.129 175.104 110.186 175.213C110.243 175.322 110.26 175.447 110.235 175.567C110.21 175.687 110.144 175.795 110.048 175.872C109.953 175.949 109.833 175.991 109.711 175.99V176.011Z" fill="#E0E0E0"/>
<path d="M132.802 200C189.685 200 235.798 197.308 235.798 193.987C235.798 190.666 189.685 187.973 132.802 187.973C75.919 187.973 29.8062 190.666 29.8062 193.987C29.8062 197.308 75.919 200 132.802 200Z" fill="#F5F5F5"/>
<path d="M64.1274 19.9202H63.5962V32.8445H64.1274V19.9202Z" fill="#3950A2"/>
<path d="M64.1274 37.0944H63.5962V41.2272H64.1274V37.0944Z" fill="#3950A2"/>
<path d="M248.462 0H65.4558V103.251H248.462V0Z" fill="#3950A2"/>
<path opacity="0.5" d="M246.773 101.567V1.68921L67.1397 1.68921V101.567L246.773 101.567Z" fill="white"/>
<path opacity="0.5" d="M245.089 99.883V3.37836L68.8341 3.37836V99.883L245.089 99.883Z" fill="white"/>
<path d="M243.4 98.1885V5.06232L70.5181 5.06232V98.1885L243.4 98.1885Z" fill="white"/>
<path d="M249.445 103.251H64.4623C63.5587 103.251 62.8262 103.984 62.8262 104.887V105.801C62.8262 106.704 63.5587 107.437 64.4623 107.437H249.445C250.349 107.437 251.081 106.704 251.081 105.801V104.887C251.081 103.984 250.349 103.251 249.445 103.251Z" fill="#263238"/>
<path d="M130.433 148.988L132.866 147.161L129.243 140.951L126.81 142.778L130.433 148.988Z" fill="#FFB573"/>
<path d="M132.537 146.279L129.573 148.027C129.547 148.04 129.524 148.059 129.506 148.081C129.487 148.103 129.473 148.129 129.465 148.157C129.457 148.184 129.454 148.213 129.457 148.242C129.46 148.271 129.468 148.299 129.482 148.324L130.72 150.752C130.755 150.814 130.801 150.869 130.858 150.913C130.914 150.956 130.979 150.988 131.047 151.007C131.116 151.025 131.188 151.029 131.259 151.019C131.329 151.009 131.397 150.985 131.458 150.948C132.478 150.327 132.824 149.928 134.114 149.158C134.916 148.685 136.425 147.91 137.743 147.081C139.06 146.252 137.854 145.488 137.084 145.854C135.883 146.385 134.162 146.322 133.068 146.178C132.885 146.155 132.699 146.19 132.537 146.279Z" fill="#263238"/>
<path d="M133.742 146.189C133.502 146.324 133.247 146.431 132.983 146.508C132.97 146.512 132.956 146.513 132.942 146.509C132.929 146.506 132.917 146.499 132.908 146.488C132.899 146.478 132.893 146.465 132.891 146.452C132.889 146.438 132.892 146.424 132.898 146.412C132.946 146.306 133.392 145.35 133.79 145.291C133.835 145.283 133.882 145.288 133.924 145.304C133.967 145.319 134.005 145.346 134.035 145.381C134.086 145.428 134.125 145.487 134.147 145.554C134.168 145.62 134.172 145.691 134.157 145.759C134.076 145.948 133.928 146.101 133.742 146.189ZM133.1 146.322C133.631 146.136 133.965 145.918 134.019 145.721C134.026 145.677 134.023 145.631 134.008 145.588C133.993 145.545 133.967 145.507 133.934 145.477C133.919 145.46 133.9 145.446 133.879 145.438C133.857 145.429 133.834 145.427 133.811 145.429C133.599 145.466 133.291 145.945 133.1 146.322Z" fill="#3950A2"/>
<path d="M132.999 146.502H132.967C132.955 146.503 132.942 146.5 132.931 146.494C132.92 146.489 132.91 146.48 132.903 146.47C132.903 146.444 132.372 145.716 132.489 145.302C132.504 145.248 132.531 145.199 132.568 145.158C132.605 145.116 132.65 145.084 132.701 145.063C132.756 145.034 132.818 145.024 132.879 145.034C132.939 145.045 132.995 145.075 133.036 145.121C133.134 145.331 133.185 145.561 133.185 145.793C133.185 146.025 133.134 146.254 133.036 146.465L132.999 146.502ZM132.728 145.222C132.702 145.235 132.68 145.254 132.663 145.277C132.645 145.3 132.633 145.327 132.627 145.355C132.632 145.695 132.746 146.024 132.951 146.295C133.083 145.953 133.083 145.574 132.951 145.233C132.928 145.212 132.897 145.2 132.866 145.2C132.835 145.2 132.805 145.212 132.781 145.233L132.728 145.222Z" fill="#3950A2"/>
<path opacity="0.2" d="M126.81 142.778L129.243 140.951L131.315 144.505L128.808 146.205L126.81 142.778Z" fill="black"/>
<path d="M127.522 145.971L131.798 143.389L131.06 141.658L126.449 144.553L127.522 145.971Z" fill="#3950A2"/>
<path d="M138.518 150.407L141.084 148.728L137.801 142.417L135.235 144.096L138.518 150.407Z" fill="#FFB573"/>
<path opacity="0.2" d="M136.829 147.156L139.442 145.567L137.801 142.417L135.235 144.096L136.829 147.156Z" fill="black"/>
<path d="M140.649 147.384L137.238 147.862C137.21 147.865 137.182 147.873 137.156 147.887C137.131 147.9 137.108 147.919 137.09 147.941C137.072 147.963 137.058 147.989 137.05 148.016C137.042 148.044 137.039 148.073 137.042 148.101L137.254 150.821C137.263 150.892 137.285 150.96 137.32 151.021C137.356 151.083 137.403 151.137 137.459 151.18C137.516 151.223 137.58 151.255 137.649 151.272C137.718 151.29 137.789 151.294 137.86 151.283C139.044 151.097 139.506 150.752 140.983 150.455C142.44 150.236 143.884 149.936 145.307 149.557C146.497 149.142 146.247 148.006 145.233 148.117C143.926 148.261 142.147 148.053 141.196 147.501C141.031 147.404 140.839 147.363 140.649 147.384Z" fill="#263238"/>
<path d="M135.379 146.901L140.027 144.239L139.352 142.311L134.237 145.148L135.379 146.901Z" fill="#3950A2"/>
<path d="M141.795 147.766C141.522 147.796 141.246 147.796 140.972 147.766C140.958 147.765 140.945 147.76 140.933 147.752C140.922 147.743 140.913 147.732 140.908 147.719C140.902 147.707 140.899 147.694 140.899 147.681C140.899 147.668 140.902 147.656 140.908 147.644C140.993 147.565 141.774 146.858 142.162 146.954C142.207 146.963 142.248 146.984 142.282 147.015C142.315 147.046 142.34 147.085 142.353 147.129C142.383 147.192 142.396 147.261 142.39 147.33C142.385 147.399 142.361 147.465 142.321 147.522C142.18 147.663 141.994 147.749 141.795 147.766ZM141.153 147.639C141.684 147.671 142.109 147.596 142.215 147.437C142.238 147.398 142.25 147.353 142.25 147.307C142.25 147.261 142.238 147.216 142.215 147.177C142.209 147.156 142.197 147.137 142.182 147.122C142.166 147.107 142.146 147.097 142.125 147.092C141.939 147.039 141.471 147.368 141.153 147.644V147.639Z" fill="#3950A2"/>
<path d="M140.988 147.766H140.956C140.945 147.762 140.934 147.755 140.926 147.745C140.918 147.736 140.912 147.725 140.908 147.713C140.908 147.676 140.712 146.815 140.977 146.476C141.01 146.432 141.052 146.396 141.101 146.372C141.15 146.348 141.204 146.336 141.259 146.337C141.32 146.33 141.381 146.343 141.433 146.375C141.485 146.407 141.525 146.455 141.546 146.513C141.556 146.746 141.514 146.978 141.422 147.192C141.33 147.407 141.19 147.597 141.015 147.75C141.012 147.755 141.008 147.759 141.003 147.761C140.998 147.764 140.993 147.766 140.988 147.766ZM141.232 146.481C141.204 146.484 141.176 146.493 141.152 146.508C141.127 146.522 141.105 146.542 141.089 146.566C140.96 146.879 140.937 147.226 141.025 147.554C141.275 147.283 141.413 146.929 141.413 146.561C141.413 146.523 141.371 146.476 141.264 146.476L141.232 146.481Z" fill="#3950A2"/>
<path opacity="0.3" d="M133.806 145.435C133.829 145.432 133.852 145.435 133.873 145.443C133.895 145.451 133.914 145.465 133.928 145.482C133.953 145.506 133.973 145.535 133.987 145.567C134.001 145.599 134.008 145.634 134.008 145.668L134.13 145.801V145.764C134.145 145.696 134.142 145.625 134.12 145.559C134.099 145.493 134.06 145.433 134.008 145.387C133.979 145.352 133.941 145.325 133.898 145.309C133.855 145.293 133.809 145.289 133.764 145.296L133.684 145.328L133.806 145.435Z" fill="black"/>
<path opacity="0.3" d="M131.06 141.658L130.842 141.791L131.48 142.635L131.06 141.658Z" fill="black"/>
<path d="M75.0071 162.518H68.8344C62.8211 162.518 57.95 169.424 57.95 177.923C57.95 186.422 62.8211 193.328 68.8344 193.328H75.0071C81.0203 193.328 85.8915 186.422 85.8915 177.923C85.8915 169.424 81.0203 162.518 75.0071 162.518Z" fill="black"/>
<path d="M142.237 162.518H136.059C130.051 162.518 125.174 169.424 125.174 177.923C125.174 186.422 130.051 193.328 136.059 193.328H142.237C148.25 193.328 153.121 186.422 153.121 177.923C153.121 169.424 148.25 162.518 142.237 162.518Z" fill="black"/>
<path d="M108.967 158.433L36.9407 170.279V174.205L39.363 180.532L40.8185 181.19C47.9346 184.393 55.6495 186.05 63.4533 186.051H203.517C205.811 186.052 208.082 185.6 210.202 184.723C212.321 183.845 214.246 182.558 215.868 180.935L208.601 158.454L108.967 158.433Z" fill="black"/>
<path d="M217.084 175.735C215.996 175.732 214.953 175.298 214.184 174.529C213.414 173.759 212.981 172.717 212.978 171.628V169.541C212.981 168.453 213.414 167.41 214.184 166.64C214.953 165.871 215.996 165.437 217.084 165.434C218.172 165.437 219.215 165.871 219.984 166.64C220.754 167.41 221.187 168.453 221.19 169.541V171.628C221.187 172.717 220.754 173.759 219.984 174.529C219.215 175.298 218.172 175.732 217.084 175.735Z" fill="white"/>
<path d="M219.251 164.569L217.716 179.193C217.574 180.485 216.963 181.681 215.999 182.553C215.035 183.426 213.784 183.914 212.484 183.926H208.707C209.238 181.97 209.502 179.95 209.493 177.923C209.493 168.537 203.878 160.893 196.988 160.893H190.816C183.91 160.893 178.311 168.537 178.311 177.923C178.305 179.957 178.576 181.982 179.118 183.942H141.45C141.99 181.981 142.262 179.957 142.258 177.923C142.258 168.537 136.648 160.893 129.759 160.893H123.586C116.68 160.893 111.081 168.537 111.081 177.923C111.082 178.841 111.137 179.758 111.246 180.67L104.303 179.517H93.4929L83.5275 176.484H40.0374L39.1609 179.097H36.4465C32.8555 159.166 38.5713 142.646 38.5713 142.646C50.4383 136.637 62.9009 131.885 75.7559 128.468H153.727C157 128.473 160.174 129.597 162.72 131.655L182.237 147.368C185.885 150.31 190.122 152.437 194.662 153.604L215.326 158.943C216.539 159.265 217.6 160.007 218.318 161.037C219.037 162.067 219.367 163.318 219.251 164.569Z" fill="#3950A2"/>
<path d="M44.3509 144.17C53.4826 138.92 63.1084 134.58 73.0893 131.214C73.971 130.927 74.8926 130.782 75.8197 130.784H113.291C113.434 130.801 113.568 130.859 113.679 130.951C113.789 131.043 113.872 131.164 113.916 131.301C113.96 131.437 113.964 131.584 113.928 131.723C113.891 131.862 113.816 131.987 113.711 132.085C109.173 135.307 104.92 138.913 100.999 142.863C100.179 143.703 99.1989 144.371 98.117 144.827C97.0351 145.283 95.873 145.519 94.6989 145.519H44.7281C44.5781 145.503 44.4365 145.442 44.3214 145.345C44.2063 145.247 44.1231 145.118 44.0825 144.972C44.0419 144.827 44.0458 144.673 44.0937 144.53C44.1415 144.387 44.2311 144.262 44.3509 144.17Z" fill="#263238"/>
<path d="M93.3494 154.019H36.0852C35.2301 160.039 35.0519 166.137 35.554 172.197H94.8899L93.3494 154.019Z" fill="#263238"/>
<path opacity="0.4" d="M102.056 154.035H93.3496L94.8795 172.213H104.393L102.056 154.035Z" fill="#263238"/>
<path d="M129.615 132.77L131.947 146.502C132.005 146.843 131.988 147.192 131.897 147.526C131.806 147.859 131.643 148.169 131.42 148.433C131.197 148.697 130.919 148.909 130.605 149.055C130.292 149.2 129.95 149.275 129.604 149.275H115.155C114.519 149.276 113.893 149.11 113.34 148.796C112.787 148.481 112.325 148.028 112 147.481C111.676 146.933 111.499 146.311 111.488 145.674C111.476 145.038 111.631 144.41 111.936 143.851L118.072 132.696C118.383 132.122 118.843 131.641 119.404 131.306C119.965 130.97 120.606 130.792 121.259 130.789H127.24C127.808 130.781 128.359 130.977 128.794 131.34C129.23 131.704 129.521 132.211 129.615 132.77Z" fill="#263238"/>
<path d="M165.567 149.281H137.052C136.49 149.28 135.947 149.08 135.519 148.718C135.09 148.355 134.803 147.853 134.709 147.299L132.383 133.589C132.325 133.248 132.343 132.899 132.435 132.565C132.527 132.232 132.69 131.923 132.914 131.659C133.137 131.396 133.416 131.184 133.729 131.039C134.043 130.895 134.385 130.82 134.731 130.821L155.241 130.869C155.739 130.875 156.23 130.981 156.687 131.181C157.143 131.381 157.554 131.67 157.897 132.032L168.255 143.124C168.742 143.646 169.066 144.299 169.186 145.003C169.307 145.707 169.219 146.431 168.933 147.085C168.647 147.739 168.177 148.296 167.578 148.686C166.98 149.076 166.281 149.283 165.567 149.281Z" fill="#263238"/>
<path d="M85.4609 169.111C88.0339 169.111 90.1196 166.72 90.1196 163.772C90.1196 160.823 88.0339 158.433 85.4609 158.433C82.888 158.433 80.8022 160.823 80.8022 163.772C80.8022 166.72 82.888 169.111 85.4609 169.111Z" fill="white"/>
<path d="M42.4705 169.111C45.0434 169.111 47.1292 166.72 47.1292 163.772C47.1292 160.823 45.0434 158.433 42.4705 158.433C39.8975 158.433 37.8118 160.823 37.8118 163.772C37.8118 166.72 39.8975 169.111 42.4705 169.111Z" fill="white"/>
<path d="M123.586 162.518H129.759V193.328H123.586C117.573 193.328 112.701 186.422 112.701 177.923C112.701 169.424 117.573 162.518 123.586 162.518Z" fill="black"/>
<path d="M129.759 193.323C135.77 193.323 140.643 186.421 140.643 177.907C140.643 169.393 135.77 162.491 129.759 162.491C123.747 162.491 118.874 169.393 118.874 177.907C118.874 186.421 123.747 193.323 129.759 193.323Z" fill="#263238"/>
<path d="M129.759 187.517C133.505 187.517 136.542 183.214 136.542 177.907C136.542 172.6 133.505 168.298 129.759 168.298C126.012 168.298 122.975 172.6 122.975 177.907C122.975 183.214 126.012 187.517 129.759 187.517Z" fill="#E0E0E0"/>
<path d="M124.558 177.923C124.558 181.382 125.769 184.181 128.208 184.181C130.646 184.181 132.627 181.382 132.627 177.923C132.627 174.465 130.678 171.655 128.208 171.655C125.737 171.655 124.558 174.455 124.558 177.923Z" fill="#263238"/>
<path d="M190.81 162.518H196.988V193.328H190.81C184.802 193.328 179.931 186.422 179.931 177.923C179.931 169.424 184.802 162.518 190.81 162.518Z" fill="black"/>
<path d="M196.988 193.323C203 193.323 207.873 186.421 207.873 177.907C207.873 169.393 203 162.491 196.988 162.491C190.977 162.491 186.104 169.393 186.104 177.907C186.104 186.421 190.977 193.323 196.988 193.323Z" fill="#263238"/>
<path d="M196.988 187.517C200.735 187.517 203.772 183.214 203.772 177.907C203.772 172.6 200.735 168.298 196.988 168.298C193.242 168.298 190.205 172.6 190.205 177.907C190.205 183.214 193.242 187.517 196.988 187.517Z" fill="#E0E0E0"/>
<path d="M191.767 177.923C191.767 181.381 192.978 184.181 195.416 184.181C197.854 184.181 199.836 181.381 199.836 177.923C199.836 174.465 197.854 171.671 195.416 171.671C192.978 171.671 191.767 174.454 191.767 177.923Z" fill="#263238"/>
<path opacity="0.1" d="M182.561 151.145L110.906 150.98L113.96 158.433H188.144L182.561 151.145Z" fill="white"/>
<path d="M176.305 145.758L172.519 146.853C170.921 147.315 170 148.985 170.462 150.583L170.622 151.134C171.084 152.732 172.754 153.653 174.352 153.191L178.138 152.096C179.736 151.633 180.657 149.963 180.195 148.365L180.035 147.814C179.573 146.216 177.903 145.296 176.305 145.758Z" fill="#263238"/>
<path d="M175.894 147.82H166.763C166.391 147.82 166.034 147.967 165.771 148.23C165.508 148.493 165.36 148.85 165.36 149.222C165.362 149.594 165.51 149.949 165.773 150.212C166.035 150.475 166.391 150.623 166.763 150.624H175.894C176.266 150.623 176.622 150.475 176.884 150.212C177.147 149.949 177.295 149.594 177.297 149.222C177.297 148.85 177.149 148.493 176.886 148.23C176.623 147.967 176.266 147.82 175.894 147.82Z" fill="#263238"/>
<path d="M175.995 169.11H172.202C171.857 169.11 171.526 168.973 171.282 168.729C171.038 168.485 170.901 168.154 170.901 167.809C170.902 167.464 171.04 167.134 171.283 166.89C171.527 166.646 171.857 166.509 172.202 166.507H175.995C176.34 166.509 176.67 166.646 176.914 166.89C177.157 167.134 177.295 167.464 177.296 167.809C177.296 168.154 177.159 168.485 176.915 168.729C176.671 168.973 176.34 169.11 175.995 169.11Z" fill="white"/>
<path opacity="0.1" d="M151.187 149.28H144.021L137.264 130.831H144.436L151.187 149.28Z" fill="white"/>
<path opacity="0.1" d="M157.365 149.28H153.785L147.028 130.831H150.608L157.365 149.28Z" fill="white"/>
<path opacity="0.3" d="M221.19 169.541V171.623C221.188 172.404 220.965 173.168 220.545 173.826C220.126 174.485 219.528 175.01 218.821 175.342C218.602 175.44 218.412 175.592 218.268 175.785C218.125 175.977 218.034 176.203 218.003 176.441L217.711 179.198C217.577 180.492 216.969 181.692 216.004 182.564C215.039 183.437 213.785 183.922 212.484 183.926H212.186C211.966 183.926 211.749 183.979 211.554 184.08C210.141 184.813 208.634 185.349 207.076 185.674C206.856 185.718 206.65 185.813 206.474 185.951C206.298 186.09 206.156 186.268 206.061 186.47C205.226 188.309 203.996 189.941 202.46 191.251C200.939 192.569 199 193.305 196.988 193.328H190.816C187.134 193.328 183.91 190.747 181.912 186.794C181.798 186.566 181.622 186.374 181.404 186.241C181.186 186.107 180.935 186.038 180.68 186.04H152.372C152.116 186.038 151.864 186.108 151.646 186.241C151.427 186.374 151.25 186.566 151.134 186.794C149.158 190.747 145.912 193.328 142.242 193.328H136.059C135.153 193.329 134.254 193.173 133.403 192.866C133.078 192.752 132.723 192.752 132.399 192.866C131.546 193.172 130.648 193.328 129.742 193.328H123.586C119.91 193.328 116.68 190.747 114.688 186.794C114.574 186.566 114.398 186.374 114.18 186.241C113.962 186.107 113.711 186.038 113.456 186.04H85.1422C84.8863 186.039 84.635 186.109 84.4165 186.242C84.1979 186.375 84.0207 186.566 83.9045 186.794C81.9337 190.747 78.688 193.328 75.0121 193.328H68.8288C65.1104 193.328 61.7956 190.672 59.8355 186.587C59.7287 186.375 59.569 186.193 59.3718 186.06C59.1745 185.927 58.9464 185.847 58.7093 185.828C52.5274 185.298 46.4799 183.724 40.8235 181.174L39.8833 180.755C39.5486 180.601 39.2873 180.323 39.1555 179.979C39.0553 179.715 38.8771 179.488 38.6446 179.327C38.4122 179.167 38.1364 179.081 37.8541 179.081H37.6203C37.2917 179.082 36.9735 178.966 36.7225 178.754C36.4715 178.542 36.3039 178.247 36.2498 177.923C35.9311 175.984 35.7186 174.077 35.5486 172.218C35.5486 172.165 35.5486 172.117 35.5486 172.064C35.4902 171.299 35.4317 170.539 35.3946 169.79C35.3946 169.631 35.3946 169.482 35.3946 169.328C35.3627 168.696 35.3414 168.069 35.3308 167.458C35.3308 167.288 35.3308 167.129 35.3308 166.959C35.3308 166.231 35.3308 165.509 35.3308 164.802C35.3308 164.707 35.3308 164.611 35.3308 164.521C35.3308 163.873 35.3308 163.23 35.3786 162.603C35.3786 162.481 35.3786 162.353 35.3786 162.231C35.4424 160.776 35.5362 159.379 35.6602 158.04C35.6602 158.014 35.6602 157.987 35.6602 157.966C36.0939 152.963 37.0264 148.016 38.4437 143.198C38.4986 143.02 38.5897 142.855 38.7113 142.713C38.8328 142.571 38.9822 142.456 39.1502 142.375C45.1529 139.357 50.8952 136.887 55.9895 134.895C58.4234 133.949 61.0117 133.463 63.623 133.461H153.248C156.893 133.438 160.455 134.552 163.437 136.648L185.551 152.457C189.784 155.457 194.568 157.589 199.628 158.731L218.178 162.98C218.498 163.057 218.78 163.245 218.975 163.511C219.169 163.776 219.263 164.102 219.24 164.431V164.553L219.177 165.19C219.159 165.411 219.195 165.634 219.283 165.837C219.371 166.041 219.508 166.22 219.681 166.359C220.154 166.743 220.535 167.229 220.796 167.779C221.057 168.33 221.191 168.931 221.19 169.541Z" fill="black"/>
</svg>
