<svg width="269" height="200" viewBox="0 0 269 200" fill="none" xmlns="http://www.w3.org/2000/svg">
<path d="M268.413 175.757H0V175.891H268.413V175.757Z" fill="#EBEBEB"/>
<path d="M127.228 151.814H23.5724C22.7603 151.813 21.982 151.489 21.4084 150.915C20.8347 150.34 20.5124 149.561 20.5125 148.749V3.03844C20.5195 2.23106 20.8449 1.45908 21.4178 0.890175C21.9907 0.321268 22.765 0.00138307 23.5724 0H127.228C128.041 0 128.821 0.322948 129.396 0.897799C129.97 1.47265 130.293 2.25232 130.293 3.06528V148.749C130.293 149.562 129.97 150.342 129.396 150.917C128.821 151.492 128.041 151.814 127.228 151.814ZM23.5724 0.107366C22.7959 0.108788 22.0518 0.418223 21.5033 0.967751C20.9547 1.51728 20.6467 2.262 20.6467 3.03844V148.749C20.6467 149.526 20.9547 150.27 21.5033 150.82C22.0518 151.369 22.7959 151.679 23.5724 151.68H127.228C128.005 151.679 128.75 151.37 129.299 150.82C129.849 150.271 130.158 149.526 130.159 148.749V3.03844C130.158 2.2615 129.849 1.5168 129.299 0.967423C128.75 0.418048 128.005 0.108785 127.228 0.107366H23.5724Z" fill="#EBEBEB"/>
<path d="M243.348 151.814H139.687C138.875 151.813 138.096 151.49 137.521 150.915C136.947 150.341 136.623 149.562 136.622 148.749V3.03844C136.631 2.23057 136.957 1.4586 137.531 0.889839C138.105 0.32108 138.879 0.00136799 139.687 0H243.348C244.155 0.00279391 244.928 0.323303 245.5 0.892059C246.071 1.46082 246.396 2.23199 246.403 3.03844V148.749C246.403 149.56 246.082 150.338 245.509 150.913C244.936 151.487 244.16 151.812 243.348 151.814ZM139.687 0.107366C138.91 0.108785 138.166 0.418048 137.616 0.967423C137.067 1.5168 136.758 2.2615 136.756 3.03844V148.749C136.758 149.526 137.067 150.271 137.616 150.82C138.166 151.37 138.91 151.679 139.687 151.68H243.348C244.125 151.679 244.87 151.37 245.419 150.82C245.969 150.271 246.278 149.526 246.28 148.749V3.03844C246.278 2.2615 245.969 1.5168 245.419 0.967423C244.87 0.418048 244.125 0.108785 243.348 0.107366H139.687Z" fill="#EBEBEB"/>
<path d="M241.518 184.395H227.56V184.529H241.518V184.395Z" fill="#EBEBEB"/>
<path d="M191.127 185.855H166.953V185.989H191.127V185.855Z" fill="#EBEBEB"/>
<path d="M227.024 179.412H194.39V179.546H227.024V179.412Z" fill="#EBEBEB"/>
<path d="M38.4855 180.314H28.1624V180.448H38.4855V180.314Z" fill="#EBEBEB"/>
<path d="M72.9497 180.314H43.2686V180.448H72.9497V180.314Z" fill="#EBEBEB"/>
<path d="M131.061 182.58H91.0835V182.714H131.061V182.58Z" fill="#EBEBEB"/>
<path d="M36.2037 136.365H24.823V175.757H36.2037V136.365Z" fill="#FAFAFA"/>
<path d="M46.1668 145.007H34.7861V175.757H46.1668V145.007Z" fill="#FAFAFA"/>
<path d="M53.4461 119.669H42.0654V175.757H53.4461V119.669Z" fill="#FAFAFA"/>
<path d="M61.0108 74.1897H49.6301V175.757H61.0108V74.1897Z" fill="#FAFAFA"/>
<path d="M89.1611 82.0967H58.6211V175.757H89.1611V82.0967Z" fill="#FAFAFA"/>
<path d="M207.902 175.757H220.904V148.797H207.902V175.757Z" fill="#FAFAFA"/>
<path d="M196.511 175.757H209.513V154.713H196.511V175.757Z" fill="#FAFAFA"/>
<path d="M188.2 175.757H201.202V137.368H188.2V175.757Z" fill="#FAFAFA"/>
<path d="M179.558 175.757H192.56V106.243H179.558V175.757Z" fill="#FAFAFA"/>
<path d="M186.547 90.8358H146.644V175.756H186.547V90.8358Z" fill="#F0F0F0"/>
<path d="M182.746 94.3954H180.846V104.729H182.746V94.3954Z" fill="#F5F5F5"/>
<path d="M182.746 110.559H180.846V120.893H182.746V110.559Z" fill="#F5F5F5"/>
<path d="M182.746 126.718H180.846V137.052H182.746V126.718Z" fill="#F5F5F5"/>
<path d="M182.746 142.876H180.846V153.21H182.746V142.876Z" fill="#F5F5F5"/>
<path d="M182.746 159.04H180.846V169.374H182.746V159.04Z" fill="#F5F5F5"/>
<path d="M176.015 94.3954H174.115V104.729H176.015V94.3954Z" fill="#F5F5F5"/>
<path d="M176.015 110.559H174.115V120.893H176.015V110.559Z" fill="#F5F5F5"/>
<path d="M176.015 126.718H174.115V137.052H176.015V126.718Z" fill="#F5F5F5"/>
<path d="M176.015 142.876H174.115V153.21H176.015V142.876Z" fill="#F5F5F5"/>
<path d="M176.015 159.04H174.115V169.374H176.015V159.04Z" fill="#F5F5F5"/>
<path d="M169.282 94.3954H167.382V104.729H169.282V94.3954Z" fill="#F5F5F5"/>
<path d="M169.282 110.559H167.382V120.893H169.282V110.559Z" fill="#F5F5F5"/>
<path d="M169.282 126.718H167.382V137.052H169.282V126.718Z" fill="#F5F5F5"/>
<path d="M169.282 142.876H167.382V153.21H169.282V142.876Z" fill="#F5F5F5"/>
<path d="M169.282 159.04H167.382V169.374H169.282V159.04Z" fill="#F5F5F5"/>
<path d="M162.551 94.3954H160.651V104.729H162.551V94.3954Z" fill="#F5F5F5"/>
<path d="M162.551 110.559H160.651V120.893H162.551V110.559Z" fill="#F5F5F5"/>
<path d="M162.551 126.718H160.651V137.052H162.551V126.718Z" fill="#F5F5F5"/>
<path d="M162.551 142.876H160.651V153.21H162.551V142.876Z" fill="#F5F5F5"/>
<path d="M162.551 159.04H160.651V169.374H162.551V159.04Z" fill="#F5F5F5"/>
<path d="M155.813 94.3954H153.913V104.729H155.813V94.3954Z" fill="#F5F5F5"/>
<path d="M155.813 110.559H153.913V120.893H155.813V110.559Z" fill="#F5F5F5"/>
<path d="M155.813 126.718H153.913V137.052H155.813V126.718Z" fill="#F5F5F5"/>
<path d="M155.813 142.876H153.913V153.21H155.813V142.876Z" fill="#F5F5F5"/>
<path d="M155.813 159.04H153.913V169.374H155.813V159.04Z" fill="#F5F5F5"/>
<path opacity="0.5" d="M146.644 90.8358H154.863L158.438 175.756H146.644V90.8358Z" fill="#E0E0E0"/>
<path d="M127.03 58.026L150.693 62.5031V175.757H127.03V58.026Z" fill="#F0F0F0"/>
<path d="M127.029 58.026H108.095V175.757H127.029V58.026Z" fill="#E6E6E6"/>
<path d="M108.095 68.3864H150.693V67.7851H108.095V68.3864Z" fill="#E0E0E0"/>
<path d="M108.095 74.7965H150.693V74.1953H108.095V74.7965Z" fill="#E0E0E0"/>
<path d="M108.095 81.2054H150.693V80.6042H108.095V81.2054Z" fill="#E0E0E0"/>
<path d="M108.095 87.6104H150.693V87.0091H108.095V87.6104Z" fill="#E0E0E0"/>
<path d="M108.095 94.0245H150.693V93.4233H108.095V94.0245Z" fill="#E0E0E0"/>
<path d="M108.095 100.435H150.693V99.8334H108.095V100.435Z" fill="#E0E0E0"/>
<path d="M108.095 106.845H150.693V106.244H108.095V106.845Z" fill="#E0E0E0"/>
<path d="M108.095 113.254H150.693V112.653H108.095V113.254Z" fill="#E0E0E0"/>
<path d="M108.095 119.669H150.693V119.068H108.095V119.669Z" fill="#E0E0E0"/>
<path d="M108.095 126.079H150.693V125.478H108.095V126.079Z" fill="#E0E0E0"/>
<path d="M108.095 132.488H150.693V131.887H108.095V132.488Z" fill="#E0E0E0"/>
<path d="M108.095 138.893H150.693V138.292H108.095V138.893Z" fill="#E0E0E0"/>
<path d="M108.095 145.309H150.693V144.707H108.095V145.309Z" fill="#E0E0E0"/>
<path d="M108.095 151.718H150.693V151.116H108.095V151.718Z" fill="#E0E0E0"/>
<path d="M108.095 158.128H150.693V157.527H108.095V158.128Z" fill="#E0E0E0"/>
<path d="M108.095 164.537H150.693V163.936H108.095V164.537Z" fill="#E0E0E0"/>
<path d="M108.095 170.952H150.693V170.351H108.095V170.952Z" fill="#E0E0E0"/>
<path d="M97.7401 33.0038H77.9473V175.757H97.7401V33.0038Z" fill="#F0F0F0"/>
<path d="M97.7401 33.0043H77.9473L85.232 20.3997H113.576L97.7401 33.0043Z" fill="#FAFAFA"/>
<path d="M97.7402 33.0043L113.577 20.3997V175.757H97.7402V33.0043Z" fill="#EBEBEB"/>
<path d="M113.576 39.6552H77.9473V40.4174H113.576V39.6552Z" fill="#E0E0E0"/>
<path d="M113.576 47.7351H77.9473V48.4974H113.576V47.7351Z" fill="#E0E0E0"/>
<path d="M113.576 55.8137H77.9473V56.576H113.576V55.8137Z" fill="#E0E0E0"/>
<path d="M113.576 63.8988H77.9473V64.6611H113.576V63.8988Z" fill="#E0E0E0"/>
<path d="M113.576 71.9774H77.9473V72.7397H113.576V71.9774Z" fill="#E0E0E0"/>
<path d="M113.576 80.0574H77.9473V80.8197H113.576V80.0574Z" fill="#E0E0E0"/>
<path d="M113.576 88.136H77.9473V88.8983H113.576V88.136Z" fill="#E0E0E0"/>
<path d="M113.576 96.2158H77.9473V96.9781H113.576V96.2158Z" fill="#E0E0E0"/>
<path d="M113.576 104.294H77.9473V105.057H113.576V104.294Z" fill="#E0E0E0"/>
<path d="M113.576 112.38H77.9473V113.142H113.576V112.38Z" fill="#E0E0E0"/>
<path d="M113.576 120.458H77.9473V121.221H113.576V120.458Z" fill="#E0E0E0"/>
<path d="M113.576 128.538H77.9473V129.3H113.576V128.538Z" fill="#E0E0E0"/>
<path d="M113.576 136.617H77.9473V137.379H113.576V136.617Z" fill="#E0E0E0"/>
<path d="M113.576 144.697H77.9473V145.459H113.576V144.697Z" fill="#E0E0E0"/>
<path d="M113.576 152.775H77.9473V153.538H113.576V152.775Z" fill="#E0E0E0"/>
<path d="M113.576 160.86H77.9473V161.623H113.576V160.86Z" fill="#E0E0E0"/>
<path d="M113.576 168.939H77.9473V169.701H113.576V168.939Z" fill="#E0E0E0"/>
<path d="M74.5113 102.082H52.9041V175.756H74.5113V102.082Z" fill="#F0F0F0"/>
<path d="M60.6237 105.89H57.1558V117.716H60.6237V105.89Z" fill="#E6E6E6"/>
<path d="M69.1322 105.89H65.6643V117.716H69.1322V105.89Z" fill="#E6E6E6"/>
<path d="M60.6237 121.205H57.1558V133.032H60.6237V121.205Z" fill="#E6E6E6"/>
<path d="M69.1322 121.205H65.6643V133.032H69.1322V121.205Z" fill="#E6E6E6"/>
<path d="M60.6237 136.515H57.1558V148.341H60.6237V136.515Z" fill="#E6E6E6"/>
<path d="M69.1322 136.515H65.6643V148.341H69.1322V136.515Z" fill="#E6E6E6"/>
<path d="M60.6237 151.83H57.1558V163.657H60.6237V151.83Z" fill="#E6E6E6"/>
<path d="M69.1322 151.83H65.6643V163.657H69.1322V151.83Z" fill="#E6E6E6"/>
<path d="M74.5059 102.083H52.9041L57.9717 96.9773H79.5789L74.5059 102.083Z" fill="white"/>
<path d="M74.5056 102.083L79.5786 96.9773L84.6463 102.083V175.757H74.5056V102.083Z" fill="#E6E6E6"/>
<path d="M134.207 200C191.692 200 238.292 197.279 238.292 193.923C238.292 190.567 191.692 187.846 134.207 187.846C76.7224 187.846 30.1218 190.567 30.1218 193.923C30.1218 197.279 76.7224 200 134.207 200Z" fill="#F5F5F5"/>
<path d="M223.829 31.9839H155.368C152.614 31.9839 150.381 34.2167 150.381 36.971V188.93C150.381 191.685 152.614 193.918 155.368 193.918H223.829C226.584 193.918 228.817 191.685 228.817 188.93V36.971C228.817 34.2167 226.584 31.9839 223.829 31.9839Z" fill="#3950A2"/>
<path d="M220.726 31.9841H152.265C149.51 31.9841 147.278 34.2169 147.278 36.9712V188.931C147.278 191.685 149.51 193.918 152.265 193.918H220.726C223.48 193.918 225.713 191.685 225.713 188.931V36.9712C225.713 34.2169 223.48 31.9841 220.726 31.9841Z" fill="#3950A2"/>
<path opacity="0.7" d="M220.726 31.9841H152.265C149.51 31.9841 147.278 34.2169 147.278 36.9712V188.931C147.278 191.685 149.51 193.918 152.265 193.918H220.726C223.48 193.918 225.713 191.685 225.713 188.931V36.9712C225.713 34.2169 223.48 31.9841 220.726 31.9841Z" fill="white"/>
<g opacity="0.9">
<path opacity="0.9" d="M163.023 31.9839H158.777V193.918H163.023V31.9839Z" fill="white"/>
<path opacity="0.9" d="M207.949 31.9839H205.345V193.918H207.949V31.9839Z" fill="white"/>
<path opacity="0.9" d="M147.277 67.1566V71.4029L225.713 66.5446V62.2983L147.277 67.1566Z" fill="white"/>
<path opacity="0.9" d="M147.282 167.474V171.72H225.718V167.474H147.282Z" fill="white"/>
<path opacity="0.9" d="M147.277 88.3553V90.6691H225.713V88.3553H147.277Z" fill="white"/>
<path opacity="0.9" d="M147.277 143.096V147.959L225.713 121.419V116.555L147.277 143.096Z" fill="white"/>
<path opacity="0.9" d="M174.769 31.9839H170.522L181.935 193.923H186.182L174.769 31.9839Z" fill="white"/>
</g>
<path d="M212.046 177.308H118.665V148.201H200.977L208.659 154.444C209.72 155.306 210.576 156.394 211.162 157.63C211.748 158.865 212.05 160.216 212.046 161.584V177.308Z" fill="#3950A2"/>
<path opacity="0.5" d="M212.046 177.308H118.665V148.201H200.977L208.659 154.444C209.72 155.306 210.576 156.394 211.162 157.63C211.748 158.865 212.05 160.216 212.046 161.584V177.308Z" fill="black"/>
<path d="M118.129 174.683C118.129 164.059 122.96 155.449 128.865 155.449H117.474C111.531 155.449 106.737 164.038 106.737 174.683C106.737 185.328 111.568 193.923 117.474 193.923H128.887C122.933 193.923 118.129 185.307 118.129 174.683Z" fill="#263238"/>
<path d="M128.887 193.918C134.828 193.918 139.645 185.306 139.645 174.683C139.645 164.06 134.828 155.449 128.887 155.449C122.945 155.449 118.129 164.06 118.129 174.683C118.129 185.306 122.945 193.918 128.887 193.918Z" fill="#263238"/>
<path d="M129.751 189.682C133.964 189.682 137.379 182.967 137.379 174.683C137.379 166.4 133.964 159.684 129.751 159.684C125.538 159.684 122.122 166.4 122.122 174.683C122.122 182.967 125.538 189.682 129.751 189.682Z" fill="white"/>
<path d="M56.1197 174.683C56.1197 164.059 60.9512 155.449 66.8563 155.449H55.4648C49.5221 155.449 44.7283 164.038 44.7283 174.683C44.7283 185.328 49.5597 193.923 55.4648 193.923H66.8777C60.9351 193.923 56.1197 185.307 56.1197 174.683Z" fill="#263238"/>
<path d="M66.8781 193.918C72.8196 193.918 77.6361 185.306 77.6361 174.683C77.6361 164.06 72.8196 155.449 66.8781 155.449C60.9366 155.449 56.1201 164.06 56.1201 174.683C56.1201 185.306 60.9366 193.918 66.8781 193.918Z" fill="#263238"/>
<path d="M191.85 174.683C191.85 164.059 196.682 155.449 202.587 155.449H191.196C185.258 155.449 180.459 164.038 180.459 174.683C180.459 185.328 185.29 193.923 191.196 193.923H202.608C196.671 193.923 191.85 185.307 191.85 174.683Z" fill="#263238"/>
<path d="M202.609 193.918C208.55 193.918 213.367 185.306 213.367 174.683C213.367 164.06 208.55 155.449 202.609 155.449C196.667 155.449 191.851 164.06 191.851 174.683C191.851 185.306 196.667 193.918 202.609 193.918Z" fill="#263238"/>
<path d="M203.478 189.682C207.691 189.682 211.106 182.967 211.106 174.683C211.106 166.4 207.691 159.684 203.478 159.684C199.265 159.684 195.849 166.4 195.849 174.683C195.849 182.967 199.265 189.682 203.478 189.682Z" fill="white"/>
<path d="M105.416 180.05H91.6144L90.8414 179.299C90.0474 178.503 88.97 178.055 87.8459 178.053H53.3494C52.2253 178.055 51.1479 178.503 50.3539 179.299L49.8815 179.766H48.6253C47.6493 179.766 46.6829 179.573 45.7816 179.198C44.8804 178.824 44.062 178.275 43.3736 177.583C42.6852 176.891 42.1403 176.07 41.7702 175.167C41.4002 174.264 41.2122 173.296 41.2171 172.32V160.966H119.497L113.27 174.505C112.696 176.128 111.632 177.534 110.225 178.527C108.818 179.52 107.138 180.052 105.416 180.05Z" fill="#3950A2"/>
<path opacity="0.2" d="M105.416 180.05H91.6144L90.8414 179.299C90.0474 178.503 88.97 178.055 87.8459 178.053H53.3494C52.2253 178.055 51.1479 178.503 50.3539 179.299L49.8815 179.766H48.6253C47.6493 179.766 46.6829 179.573 45.7816 179.198C44.8804 178.824 44.062 178.275 43.3736 177.583C42.6852 176.891 42.1403 176.07 41.7702 175.167C41.4002 174.264 41.2122 173.296 41.2171 172.32V160.966H119.497L113.27 174.505C112.696 176.128 111.632 177.534 110.225 178.527C108.818 179.52 107.138 180.052 105.416 180.05Z" fill="black"/>
<path d="M186.9 112.561C186.853 112.562 186.806 112.549 186.766 112.524C186.735 112.506 186.709 112.483 186.687 112.455C186.665 112.428 186.65 112.396 186.641 112.362C186.632 112.328 186.629 112.292 186.634 112.257C186.639 112.222 186.651 112.189 186.67 112.159L190.427 105.717C190.443 105.682 190.465 105.652 190.493 105.627C190.521 105.602 190.554 105.583 190.59 105.572C190.626 105.56 190.664 105.556 190.701 105.56C190.738 105.564 190.774 105.576 190.807 105.595C190.839 105.614 190.867 105.64 190.889 105.67C190.911 105.7 190.927 105.735 190.935 105.772C190.942 105.809 190.942 105.847 190.934 105.883C190.927 105.92 190.911 105.955 190.889 105.985L187.131 112.427C187.108 112.468 187.074 112.501 187.034 112.525C186.993 112.548 186.947 112.561 186.9 112.561Z" fill="#263238"/>
<path d="M206.721 144.609V137.287C206.721 133.438 201.128 115.277 193.435 111.874C185.742 108.47 167.13 106.956 155.406 107.579C143.682 108.202 128.028 132.724 128.028 132.724L129.73 153.811C132.113 153.811 139.704 153.091 140.815 173.952C140.89 175.423 141.527 176.809 142.596 177.822C143.664 178.835 145.081 179.399 146.554 179.396H187.6C188.979 179.395 190.311 178.895 191.35 177.99C192.39 177.084 193.068 175.833 193.258 174.468C194.331 167.033 197.134 153.794 203.892 153.794C208.633 153.794 212.031 157.853 212.031 162.507C212.032 157.394 210.79 152.357 208.412 147.83L206.721 144.609Z" fill="#3950A2"/>
<path d="M112.46 107.58C91.11 107.58 66.9207 132.725 66.9207 132.725H128.049C128.049 132.725 143.687 108.208 155.427 107.58H112.46Z" fill="#3950A2"/>
<path opacity="0.4" d="M113.769 107.58C95.7857 107.58 76.9216 125.424 71.4192 131.045C71.2824 131.184 71.1899 131.36 71.1533 131.552C71.1167 131.743 71.1376 131.941 71.2134 132.121C71.2891 132.301 71.4164 132.454 71.5791 132.561C71.7419 132.669 71.9328 132.726 72.1278 132.725H121.441C123.425 132.73 125.384 132.268 127.156 131.374C128.928 130.48 130.465 129.181 131.64 127.582C136.944 120.356 147.16 108.025 155.427 107.58H113.769Z" fill="white"/>
<path d="M128.049 132.724L105.47 150.541L44.7064 150.348C44.7064 150.348 41.217 155.421 41.217 160.966H119.497C120.78 157.568 125.279 153.81 129.75 153.81C129.75 147.487 128.049 132.724 128.049 132.724Z" fill="#3950A2"/>
<path opacity="0.2" d="M113.27 145.291C113.206 145.29 113.144 145.267 113.095 145.224C113.047 145.182 113.016 145.124 113.007 145.06C112.997 144.991 113.016 144.92 113.058 144.864C113.1 144.808 113.163 144.77 113.232 144.76C118.652 143.881 123.724 141.521 127.888 137.942C128.711 137.25 129.246 136.275 129.39 135.21C129.534 134.144 129.276 133.062 128.666 132.176C128.644 132.148 128.627 132.115 128.618 132.079C128.609 132.044 128.607 132.007 128.613 131.971C128.618 131.935 128.631 131.901 128.65 131.87C128.67 131.839 128.695 131.812 128.725 131.792C128.755 131.771 128.789 131.756 128.824 131.749C128.86 131.742 128.897 131.742 128.932 131.749C128.968 131.756 129.002 131.771 129.032 131.792C129.062 131.813 129.087 131.839 129.106 131.87C129.79 132.866 130.08 134.081 129.918 135.279C129.756 136.476 129.155 137.571 128.231 138.35C123.995 141.996 118.831 144.397 113.313 145.286L113.27 145.291Z" fill="black"/>
<path d="M44.7073 150.348C44.7073 150.348 55.3794 137.91 66.9211 132.724H128.05L105.471 150.541L44.7073 150.348Z" fill="#3950A2"/>
<path d="M91.9742 150.349H51.8894V151.514H91.9742V150.349Z" fill="#263238"/>
<path d="M91.1414 148.019L93.2887 145.871C93.7715 145.389 94.3826 145.056 95.0494 144.911L111.267 141.378C111.837 141.253 112.429 141.272 112.99 141.432L113.86 141.673C114.439 141.837 114.967 142.144 115.396 142.566C115.824 142.988 116.139 143.512 116.31 144.088C116.481 144.665 116.504 145.275 116.376 145.863C116.248 146.451 115.973 146.997 115.578 147.45L112.088 151.438C111.487 152.125 110.646 152.555 109.737 152.641L93.9919 154.069C93.4718 154.118 92.9472 154.053 92.4555 153.876C91.9637 153.7 91.5168 153.417 91.1467 153.049C90.4809 152.381 90.1065 151.478 90.1055 150.535C90.1045 149.592 90.4769 148.687 91.1414 148.019Z" fill="white"/>
<path d="M53.0226 149.156L51.2457 145.833C50.9956 145.368 50.6247 144.979 50.1721 144.706C49.7422 144.448 49.2531 144.305 48.752 144.291C48.2509 144.277 47.7545 144.392 47.3108 144.626L45.9634 145.334C45.3016 145.684 44.7985 146.274 44.5569 146.982L43.7355 149.414C43.599 149.814 43.5508 150.24 43.5945 150.66C43.6381 151.081 43.7725 151.488 43.9883 151.851C44.2042 152.215 44.4964 152.528 44.8448 152.768C45.1932 153.008 45.5894 153.17 46.0063 153.242L49.7158 153.88C50.3208 153.985 50.9435 153.897 51.4955 153.628C52.0476 153.359 52.5011 152.924 52.7918 152.383L53.0387 151.926C53.266 151.5 53.3836 151.023 53.3808 150.539C53.3779 150.056 53.2549 149.58 53.0226 149.156Z" fill="white"/>
<path opacity="0.4" d="M140.535 133.439H197.052C197.531 133.439 198.004 133.327 198.432 133.112C198.86 132.897 199.232 132.585 199.518 132.201C199.804 131.816 199.996 131.37 200.078 130.898C200.161 130.426 200.132 129.941 199.994 129.483C198.705 125.188 196.236 118.472 192.527 115.047C192.114 114.67 191.608 114.41 191.061 114.296C184.399 112.884 173.689 111.944 165.744 111.397C162.143 111.151 158.531 111.687 155.157 112.97C151.783 114.252 148.727 116.25 146.198 118.827C143.175 121.88 140.445 125.211 138.044 128.774C137.743 129.226 137.57 129.75 137.544 130.292C137.517 130.834 137.638 131.373 137.894 131.852C138.15 132.33 138.53 132.731 138.995 133.01C139.46 133.29 139.992 133.438 140.535 133.439Z" fill="white"/>
<path d="M103.994 167.259C103.994 169.019 102.19 170.453 99.9678 170.453C97.7454 170.453 95.9417 169.019 95.9417 167.259C95.9417 165.498 97.74 164.07 99.9678 164.07C102.196 164.07 103.994 165.498 103.994 167.259Z" fill="#263238"/>
<path d="M71.5527 147.911C72.8733 147.911 73.5175 149.264 72.9914 150.928C72.4653 152.592 70.9729 153.951 69.647 153.951C68.321 153.951 67.6822 152.598 68.2083 150.928C68.7344 149.259 70.2321 147.911 71.5527 147.911Z" fill="#263238"/>
<path d="M44.4656 167.259C44.4656 169.019 43.9288 170.453 43.3329 170.453C42.737 170.453 42.1948 169.019 42.1948 167.259C42.1948 165.498 42.7317 164.07 43.3329 164.07C43.9341 164.07 44.4656 165.498 44.4656 167.259Z" fill="#263238"/>
<path d="M138.796 132.928V131.119C138.795 130.6 138.911 130.087 139.133 129.618C139.356 129.149 139.68 128.736 140.083 128.408C140.486 128.081 140.957 127.847 141.461 127.724C141.966 127.602 142.491 127.593 142.999 127.699L149.881 129.133C150.667 129.297 151.372 129.726 151.879 130.349C152.385 130.972 152.662 131.75 152.662 132.552V132.928C152.662 133.854 152.295 134.742 151.64 135.397C150.986 136.053 150.099 136.421 149.173 136.423H142.291C141.364 136.423 140.475 136.055 139.819 135.399C139.164 134.744 138.796 133.855 138.796 132.928Z" fill="#263238"/>
<path d="M175.004 112.147C175.004 112.147 174.086 112.056 172.487 111.917C179.562 126.411 177.758 133.438 177.758 133.438H183.159C183.212 124.613 175.004 112.147 175.004 112.147Z" fill="#263238"/>
<path opacity="0.2" d="M115.332 126.948C115.222 128.087 114.693 129.145 113.846 129.915C113 130.685 111.897 131.113 110.753 131.114H82.9289C80.8997 131.114 80.1642 128.849 81.6351 127.163C84.2893 124.141 87.1715 121.327 90.2566 118.745C95.496 114.333 102.002 112.041 108.085 112.465L110.382 112.631C111.374 112.708 112.314 113.104 113.063 113.759C113.811 114.414 114.329 115.293 114.537 116.265C115.349 119.764 115.617 123.368 115.332 126.948Z" fill="#3950A2"/>
<path opacity="0.2" d="M178.404 175.579C178.332 175.579 178.264 175.551 178.214 175.5C178.164 175.45 178.135 175.382 178.135 175.31C178.135 169.878 180.905 147.476 181.63 144.121C182.333 140.862 182.333 137.223 181.63 134.855C181.61 134.787 181.618 134.713 181.652 134.651C181.687 134.589 181.744 134.542 181.813 134.522C181.881 134.504 181.954 134.513 182.016 134.547C182.078 134.581 182.124 134.637 182.145 134.705C182.87 137.153 182.87 140.895 182.145 144.234C181.421 147.573 178.661 169.899 178.661 175.31C178.661 175.38 178.635 175.447 178.587 175.497C178.539 175.547 178.473 175.576 178.404 175.579Z" fill="black"/>
<path opacity="0.2" d="M177.689 144.406H171.145C171.021 144.41 170.898 144.385 170.785 144.334C170.671 144.283 170.571 144.206 170.493 144.11C170.414 144.014 170.358 143.901 170.33 143.781C170.301 143.66 170.301 143.534 170.329 143.413L170.463 142.656C170.518 142.383 170.662 142.137 170.873 141.957C171.085 141.777 171.351 141.673 171.628 141.663H178.172C178.296 141.659 178.42 141.683 178.533 141.734C178.646 141.786 178.746 141.862 178.825 141.958C178.904 142.054 178.959 142.167 178.988 142.288C179.016 142.409 179.016 142.535 178.988 142.656L178.854 143.413C178.8 143.685 178.655 143.931 178.444 144.112C178.233 144.292 177.967 144.395 177.689 144.406Z" fill="black"/>
<path d="M197.487 63.0666H196.951C196.951 61.6998 196.754 60.3401 196.365 59.0297L196.902 58.8793C197.298 60.2396 197.495 61.6499 197.487 63.0666ZM195.174 56.2006C193.944 53.994 192.148 52.1552 189.971 50.8738C187.794 49.5924 185.315 48.9146 182.789 48.9105V48.3737C185.411 48.3763 187.985 49.0793 190.245 50.41C192.504 51.7408 194.367 53.6509 195.641 55.9429L195.174 56.2006Z" fill="#3950A2"/>
<path d="M182.789 50.2531C179.392 50.2545 176.134 51.6051 173.732 54.0081C171.33 56.411 169.98 59.6695 169.98 63.0671C169.98 75.4141 182.789 83.8745 182.789 83.8745C182.789 83.8745 195.609 75.4087 195.609 63.0671C195.607 59.6681 194.256 56.4088 191.852 54.0059C189.448 51.6029 186.188 50.2531 182.789 50.2531ZM182.789 69.101C181.607 69.1 180.451 68.7483 179.468 68.0906C178.485 67.4328 177.72 66.4984 177.268 65.4056C176.816 64.3128 176.698 63.1105 176.93 61.9508C177.161 60.7911 177.731 59.726 178.568 58.8902C179.404 58.0544 180.47 57.4854 181.63 57.255C182.79 57.0247 183.992 57.1435 185.084 57.5963C186.177 58.0491 187.11 58.8156 187.767 59.7989C188.424 60.7822 188.775 61.9382 188.775 63.1208C188.775 63.9066 188.62 64.6846 188.319 65.4106C188.018 66.1365 187.577 66.796 187.021 67.3514C186.465 67.9067 185.806 68.3471 185.079 68.6473C184.353 68.9476 183.575 69.1017 182.789 69.101Z" fill="#3950A2"/>
<path d="M159.957 193.107L163.2 193.053L164.134 185.538L160.897 185.591L159.957 193.107Z" fill="#B97964"/>
<path d="M175.434 192.865L178.58 191.904L176.626 184.78L173.48 185.746L175.434 192.865Z" fill="#B97964"/>
<path d="M178.483 190.96L174.972 192.769C174.915 192.799 174.87 192.848 174.845 192.908C174.82 192.967 174.815 193.034 174.833 193.096L175.584 195.947C175.603 196.016 175.636 196.08 175.683 196.134C175.729 196.189 175.788 196.232 175.853 196.26C175.919 196.288 175.99 196.302 176.062 196.298C176.133 196.295 176.203 196.276 176.266 196.242C177.388 195.641 178.177 195.168 179.6 194.411C180.475 193.96 183.159 192.693 184.367 192.065C185.575 191.437 185.118 190.165 184.571 190.315C182.101 190.976 180.083 191.169 179.042 190.895C178.854 190.846 178.655 190.869 178.483 190.96Z" fill="#263238"/>
<path d="M163.264 192.677L159.727 192.736C159.663 192.737 159.602 192.76 159.553 192.801C159.504 192.842 159.471 192.899 159.458 192.961L158.862 195.849C158.847 195.919 158.847 195.991 158.864 196.061C158.881 196.13 158.913 196.195 158.959 196.25C159.004 196.305 159.062 196.349 159.127 196.378C159.192 196.407 159.263 196.421 159.335 196.418C160.612 196.375 162.454 196.273 164.059 196.246C165.932 196.22 166.48 196.295 168.681 196.246C170.007 196.246 170.356 194.872 169.798 194.759C167.253 194.223 166.26 194.223 164.054 192.902C163.814 192.76 163.543 192.682 163.264 192.677Z" fill="#263238"/>
<path d="M168.187 94.5079C168.922 95.9842 169.754 97.5464 170.586 99.0334C171.419 100.52 172.299 102.002 173.238 103.392C173.48 103.736 173.705 104.096 173.952 104.423L174.559 105.25C174.682 105.411 174.752 105.486 174.774 105.524C174.795 105.561 174.806 105.615 174.962 105.626C175.532 105.523 176.062 105.262 176.492 104.874C176.787 104.649 177.087 104.391 177.383 104.117C177.678 103.843 177.973 103.527 178.231 103.274L180.373 104.466C180.194 104.94 179.982 105.401 179.739 105.846C179.5 106.301 179.223 106.735 178.913 107.145C178.582 107.592 178.204 108.003 177.785 108.369C177.287 108.812 176.71 109.156 176.084 109.383C175.299 109.67 174.447 109.716 173.636 109.518C172.875 109.331 172.171 108.963 171.585 108.444C171.455 108.335 171.332 108.218 171.215 108.095L171.043 107.918L170.919 107.778L170.447 107.241C170.13 106.882 169.84 106.511 169.54 106.168C168.393 104.693 167.335 103.152 166.372 101.551C165.9 100.757 165.433 99.9406 165.003 99.1407C164.574 98.3409 164.155 97.5303 163.758 96.623L168.187 94.5079Z" fill="#B97964"/>
<path d="M162.378 94.5289C161.503 97.5029 167.65 105.604 167.65 105.604L173.85 101.615C172.683 99.0384 171.243 96.5944 169.555 94.3249C167.016 91.0878 163.334 91.2596 162.378 94.5289Z" fill="#3950A2"/>
<g opacity="0.2">
<path opacity="0.2" d="M162.378 94.5289C161.503 97.5029 167.65 105.604 167.65 105.604L173.85 101.615C172.683 99.0384 171.243 96.5944 169.555 94.3249C167.016 91.0878 163.334 91.2596 162.378 94.5289Z" fill="black"/>
</g>
<path opacity="0.2" d="M166.158 98.0181C167.43 98.555 169.309 101.636 170.286 103.923L167.656 105.614C166.184 103.649 164.861 101.577 163.699 99.4139C164.531 98.4906 165.481 97.7336 166.158 98.0181Z" fill="black"/>
<path d="M177.86 103.854L180.104 100.225L182.064 103.354C181.592 104.189 180.827 104.819 179.916 105.121L177.86 103.854Z" fill="#B97964"/>
<path d="M183.233 100.262V101.384C183.234 101.735 183.112 102.074 182.89 102.345L182.074 103.355L180.115 100.225L182.138 99.4894C182.262 99.4456 182.395 99.4321 182.525 99.4501C182.655 99.4681 182.779 99.517 182.886 99.5927C182.993 99.6684 183.081 99.7687 183.141 99.8853C183.202 100.002 183.233 100.131 183.233 100.262Z" fill="#B97964"/>
<path d="M181.044 104.901L177.512 104.847L179.466 97.5302L182.998 97.5838L181.044 104.901Z" fill="#3950A2"/>
<path d="M181.403 104.901L177.871 104.847L179.825 97.5302L183.357 97.5838L181.403 104.901Z" fill="#263238"/>
<path opacity="0.2" d="M164.134 185.543L163.651 189.413L160.408 189.467L160.891 185.591L164.134 185.543Z" fill="black"/>
<path opacity="0.2" d="M173.48 185.746L176.631 184.78L177.635 188.452L174.484 189.418L173.48 185.746Z" fill="black"/>
<path d="M148.7 96.0913C151.346 107.483 150.772 118.783 151.062 121.22L168.342 119.932C170.001 101.417 166.071 92.0168 166.071 92.0168C166.071 92.0168 164.96 91.8021 163.452 91.6464C162.979 91.5981 162.464 91.5551 161.933 91.5283C161.637 91.5283 161.342 91.5015 161.036 91.4961C158.58 91.5343 156.128 91.7135 153.692 92.0329C153.231 92.092 152.764 92.1564 152.307 92.2315L151.083 92.457H151.035C150.64 92.5356 150.264 92.6931 149.931 92.9201C149.597 93.1471 149.313 93.4389 149.095 93.7781C148.877 94.1173 148.73 94.497 148.662 94.8945C148.594 95.2919 148.607 95.699 148.7 96.0913Z" fill="#3950A2"/>
<g opacity="0.2">
<path opacity="0.2" d="M148.7 96.0913C151.346 107.483 150.772 118.783 151.062 121.22L168.342 119.932C170.001 101.417 166.071 92.0168 166.071 92.0168C166.071 92.0168 164.96 91.8021 163.452 91.6464C162.979 91.5981 162.464 91.5551 161.933 91.5283C161.637 91.5283 161.342 91.5015 161.036 91.4961C158.58 91.5343 156.128 91.7135 153.692 92.0329C153.231 92.092 152.764 92.1564 152.307 92.2315L151.083 92.457H151.035C150.64 92.5356 150.264 92.6931 149.931 92.9201C149.597 93.1471 149.313 93.4389 149.095 93.7781C148.877 94.1173 148.73 94.497 148.662 94.8945C148.594 95.2919 148.607 95.699 148.7 96.0913Z" fill="black"/>
</g>
<path opacity="0.2" d="M151.625 98.4961L149.639 101.046C149.642 101.078 149.642 101.11 149.639 101.143C149.918 102.871 150.133 104.562 150.294 106.194C152.2 103.848 151.92 99.6127 151.625 98.4961Z" fill="black"/>
<path d="M154.524 86.9967C154.937 88.736 154.91 90.6686 153.665 92.0536C155.045 93.2346 156.832 94.5821 159.645 94.4747C162.458 94.3673 161.83 92.467 161.009 91.5061C158.609 91.1195 158.604 89.5574 158.582 87.8395C158.581 87.6657 158.525 87.4967 158.422 87.3568C158.319 87.2169 158.174 87.1134 158.008 87.0611L155.367 86.213C155.255 86.1773 155.136 86.172 155.022 86.1975C154.907 86.2231 154.802 86.2786 154.716 86.3584C154.63 86.4382 154.567 86.5393 154.534 86.6515C154.5 86.7637 154.497 86.8828 154.524 86.9967Z" fill="#B97964"/>
<path d="M162.121 105.576C160.671 105.576 159.335 103.837 159.072 101.614C158.969 101.026 158.987 100.423 159.124 99.8412C159.262 99.2598 159.516 98.7124 159.872 98.2323C160.039 98.0299 160.249 97.8664 160.486 97.7533C160.724 97.6402 160.983 97.5801 161.246 97.5774C162.69 97.5774 164.032 99.3167 164.29 101.539C164.393 102.127 164.376 102.73 164.239 103.312C164.103 103.893 163.849 104.441 163.495 104.921C163.326 105.122 163.116 105.285 162.879 105.398C162.642 105.511 162.383 105.572 162.121 105.576ZM161.251 98.1142C161.064 98.1175 160.88 98.162 160.712 98.2446C160.544 98.3272 160.396 98.4458 160.28 98.592C159.977 99.0158 159.762 99.4958 159.648 100.004C159.534 100.512 159.522 101.037 159.614 101.55C159.834 103.445 160.983 105.039 162.126 105.039C162.314 105.037 162.499 104.993 162.668 104.91C162.837 104.827 162.986 104.708 163.103 104.561C163.405 104.137 163.619 103.657 163.733 103.149C163.847 102.642 163.859 102.116 163.769 101.604C163.56 99.7086 162.411 98.1142 161.273 98.1142H161.251Z" fill="#3950A2"/>
<path opacity="0.2" d="M158.588 87.9365L155.931 88.2801C155.99 88.3982 156.065 88.5109 156.135 88.6237C156.64 89.4289 157.746 89.9604 158.894 90.1536C158.646 89.4424 158.542 88.6886 158.588 87.9365Z" fill="black"/>
<path d="M162.035 81.0603C163.511 81.3073 166.27 79.6324 165.626 77.3992C164.799 78.4352 162.035 78.0863 162.035 78.0863V81.0603Z" fill="#263238"/>
<path d="M156.269 83.4217C156.43 84.914 154.589 87.5713 152.399 86.7929C153.473 86.0306 153.301 83.2445 153.301 83.2445L156.269 83.4217Z" fill="#263238"/>
<path d="M154.105 80.5231C153.708 83.7118 153.311 85.5639 154.605 87.5018C156.542 90.3846 160.708 89.6491 162.05 86.659C163.258 83.9749 163.704 79.1917 160.848 77.3558C160.222 76.95 159.504 76.7105 158.76 76.6597C158.016 76.609 157.271 76.7487 156.596 77.0657C155.922 77.3827 155.339 77.8666 154.903 78.4715C154.467 79.0765 154.192 79.7826 154.105 80.5231Z" fill="#B97964"/>
<path d="M153.665 83.744C154.444 84.5653 156.586 81.2101 156.194 79.9862C156.999 80.3405 158.545 79.6641 158.448 78.3327C160.859 79.6211 164.354 80.6411 164.407 78.3327C164.461 76.0244 162.26 74.2797 160.113 74.0972C160.37 74.7897 159.688 75.0849 158.287 74.7897C156.886 74.4944 151.486 72.0089 152.082 76.9746C150.063 77.0927 149.8 79.648 153.665 83.744Z" fill="#263238"/>
<path d="M152.087 82.5038C152.199 83.3048 152.623 84.0287 153.268 84.5169C154.127 85.1558 154.664 84.4794 154.744 83.4701C154.819 82.5575 154.744 81.1296 153.719 80.888C153.496 80.8394 153.264 80.8473 153.045 80.911C152.826 80.9747 152.626 81.0922 152.464 81.2527C152.302 81.4133 152.182 81.6119 152.117 81.8304C152.051 82.0489 152.041 82.2804 152.087 82.5038Z" fill="#B97964"/>
<path d="M156.956 120.784L168.316 119.942C168.316 119.942 169.786 143.256 169.674 153.139C169.561 163.425 164.842 188.639 164.842 188.639L159.356 188.725C159.356 188.725 159.791 164.267 159.791 154.17C159.791 140.572 156.94 120.784 156.94 120.784" fill="#263238"/>
<path opacity="0.2" d="M161.348 145.023C161.498 145.694 165.723 164.595 167.087 175.622C167.811 171.037 168.557 165.889 169.062 161.342L161.348 145.023Z" fill="black"/>
<path d="M162.186 120.404C162.186 120.404 170.834 141.587 172.782 150.88C174.93 161.053 178.339 186.783 178.339 186.783L172.471 187.695C172.471 187.695 168.032 168.461 165.546 158.637C162.722 147.439 151.524 129.707 151.052 121.231L162.186 120.404Z" fill="#263238"/>
<path d="M179.074 187.282L171.783 188.989L170.865 186.182L178.827 184.818L179.074 187.282Z" fill="#3950A2"/>
<path d="M165.55 188.763L159.012 188.865L158.979 186.755L166.28 186.53L165.55 188.763Z" fill="#3950A2"/>
<path d="M158.55 82.1761C158.502 82.4338 158.599 82.6646 158.765 82.713C158.931 82.7613 159.109 82.5626 159.157 82.305C159.205 82.0473 159.109 81.8165 158.937 81.7681C158.765 81.7198 158.599 81.9184 158.55 82.1761Z" fill="#263238"/>
<path d="M161.729 82.8525C161.68 83.1048 161.777 83.341 161.943 83.3893C162.11 83.4376 162.287 83.239 162.335 82.9813C162.383 82.7236 162.287 82.4874 162.12 82.4445C161.954 82.4015 161.777 82.5948 161.729 82.8525Z" fill="#263238"/>
<path d="M160.682 82.7885C160.842 83.6309 161.116 84.4473 161.498 85.2149C161.299 85.3072 161.082 85.355 160.862 85.355C160.643 85.355 160.425 85.3072 160.226 85.2149L160.682 82.7885Z" fill="#B97964"/>
<path d="M159.683 86.0045C159.396 85.9449 159.124 85.8269 158.883 85.6579C158.643 85.489 158.44 85.2726 158.287 85.0221C158.278 85.0035 158.276 84.9819 158.282 84.9619C158.288 84.9419 158.301 84.9249 158.32 84.9147C158.338 84.9067 158.358 84.9055 158.377 84.9115C158.395 84.9174 158.411 84.93 158.422 84.9469C158.596 85.2212 158.833 85.4505 159.113 85.6165C159.393 85.7824 159.708 85.8804 160.032 85.9025C160.049 85.907 160.064 85.9171 160.075 85.9312C160.086 85.9453 160.092 85.9626 160.092 85.9803C160.092 85.9981 160.086 86.0154 160.075 86.0294C160.064 86.0435 160.049 86.0536 160.032 86.0582C159.914 86.0503 159.798 86.0324 159.683 86.0045Z" fill="#263238"/>
<path d="M158.234 81.0281C158.209 81.0169 158.185 81.0025 158.164 80.9851C158.137 80.9547 158.123 80.9156 158.123 80.8751C158.123 80.8345 158.137 80.7954 158.164 80.765C158.342 80.5977 158.556 80.4749 158.791 80.4068C159.025 80.3386 159.272 80.3271 159.512 80.3731C159.55 80.3844 159.583 80.4103 159.603 80.4454C159.623 80.4804 159.629 80.5219 159.619 80.561C159.609 80.5994 159.584 80.6322 159.55 80.6523C159.516 80.6724 159.475 80.6782 159.436 80.6684C159.244 80.6338 159.047 80.6455 158.86 80.7024C158.673 80.7594 158.503 80.8599 158.363 80.9958C158.345 81.0104 158.324 81.0208 158.302 81.0264C158.28 81.0319 158.256 81.0325 158.234 81.0281Z" fill="#263238"/>
<path d="M163.442 82.0534C163.417 82.0454 163.395 82.0314 163.377 82.0127C163.359 81.9939 163.346 81.971 163.34 81.9461C163.296 81.7588 163.208 81.5849 163.083 81.439C162.958 81.2932 162.799 81.1798 162.62 81.1086C162.581 81.0963 162.549 81.0691 162.53 81.0329C162.511 80.9967 162.507 80.9545 162.518 80.9154C162.531 80.8764 162.558 80.8438 162.594 80.8248C162.63 80.8057 162.672 80.8016 162.712 80.8134C162.941 80.9039 163.145 81.049 163.306 81.236C163.467 81.4231 163.58 81.6465 163.635 81.887C163.641 81.9064 163.644 81.9269 163.642 81.9473C163.64 81.9676 163.633 81.9873 163.623 82.005C163.613 82.0228 163.599 82.0382 163.583 82.0502C163.566 82.0623 163.548 82.0707 163.528 82.0749C163.497 82.0792 163.466 82.0715 163.442 82.0534Z" fill="#263238"/>
<path d="M179.697 190.969C179.44 191.094 179.17 191.19 178.891 191.254C178.88 191.263 178.866 191.268 178.851 191.268C178.836 191.268 178.822 191.263 178.811 191.254C178.802 191.241 178.797 191.226 178.797 191.211C178.797 191.196 178.802 191.181 178.811 191.168C178.881 191.05 179.514 189.998 179.917 189.998C179.962 189.998 180.007 190.01 180.046 190.034C180.084 190.057 180.116 190.091 180.137 190.132C180.179 190.195 180.205 190.268 180.212 190.344C180.22 190.42 180.209 190.496 180.18 190.567C180.066 190.749 179.897 190.891 179.697 190.969ZM179.036 191.055C179.43 190.997 179.787 190.792 180.035 190.481C180.054 190.432 180.06 190.38 180.054 190.328C180.047 190.277 180.028 190.228 179.997 190.186C179.965 190.132 179.938 190.127 179.911 190.127C179.702 190.127 179.299 190.647 179.036 191.055Z" fill="#3950A2"/>
<path d="M178.908 191.248H178.865C178.851 191.246 178.838 191.241 178.826 191.232C178.815 191.224 178.806 191.213 178.8 191.2C178.605 190.779 178.542 190.31 178.618 189.853C178.64 189.798 178.674 189.748 178.716 189.706C178.759 189.665 178.809 189.632 178.865 189.611C178.916 189.585 178.974 189.578 179.03 189.591C179.086 189.604 179.136 189.635 179.171 189.681C179.401 189.971 179.171 190.899 178.934 191.216C178.932 191.223 178.929 191.229 178.924 191.235C178.92 191.24 178.914 191.245 178.908 191.248ZM178.908 189.783C178.849 189.812 178.804 189.862 178.779 189.922C178.715 190.285 178.759 190.659 178.908 190.996C179.085 190.615 179.208 189.949 179.074 189.783C179.074 189.783 179.031 189.729 178.94 189.783H178.908Z" fill="#3950A2"/>
<path d="M163.592 193.122C163.578 193.116 163.566 193.107 163.557 193.094C163.549 193.082 163.544 193.067 163.544 193.052C163.544 193.037 163.549 193.022 163.557 193.01C163.566 192.998 163.578 192.988 163.592 192.982C163.737 192.902 165.03 192.22 165.428 192.446C165.464 192.466 165.495 192.496 165.517 192.532C165.54 192.567 165.553 192.608 165.556 192.65C165.565 192.719 165.556 192.789 165.532 192.854C165.508 192.92 165.468 192.978 165.417 193.025C165.068 193.342 164.139 193.229 163.613 193.133L163.592 193.122ZM165.342 192.558C164.826 192.588 164.325 192.743 163.882 193.009C164.362 193.146 164.876 193.108 165.331 192.902C165.365 192.87 165.391 192.831 165.406 192.787C165.421 192.743 165.425 192.695 165.417 192.65C165.418 192.633 165.413 192.616 165.405 192.602C165.396 192.588 165.384 192.576 165.369 192.569L165.342 192.558Z" fill="#3950A2"/>
<path d="M163.591 193.123C163.581 193.114 163.572 193.104 163.567 193.092C163.561 193.079 163.558 193.066 163.559 193.053C163.587 192.594 163.756 192.156 164.042 191.797C164.16 191.696 164.312 191.646 164.466 191.657C164.681 191.657 164.74 191.786 164.756 191.872C164.82 192.237 164.058 192.945 163.682 193.128C163.669 193.137 163.652 193.142 163.636 193.141C163.619 193.14 163.604 193.133 163.591 193.123ZM164.509 191.818C164.484 191.811 164.458 191.811 164.434 191.818C164.378 191.812 164.321 191.817 164.267 191.835C164.213 191.853 164.164 191.882 164.123 191.92C163.884 192.204 163.74 192.555 163.709 192.924C164.106 192.682 164.622 192.119 164.584 191.904C164.584 191.872 164.573 191.84 164.509 191.818Z" fill="#3950A2"/>
<path d="M153.859 97.1002C152.785 99.006 151.712 101.041 150.745 103.043C149.772 105 148.938 107.024 148.249 109.098C148.169 109.351 148.109 109.598 148.034 109.844C148.007 109.957 147.959 110.118 147.943 110.193C147.926 110.255 147.911 110.318 147.9 110.381C147.854 110.719 147.863 111.061 147.927 111.396C148.143 112.315 148.496 113.196 148.974 114.01C150.088 115.887 151.386 117.647 152.85 119.266L151.293 121.134C149.217 119.761 147.372 118.067 145.828 116.115C144.968 115.027 144.301 113.799 143.858 112.486C143.602 111.701 143.488 110.878 143.52 110.054C143.52 109.834 143.563 109.603 143.589 109.383C143.616 109.163 143.648 109.05 143.681 108.878C143.745 108.567 143.804 108.239 143.874 107.933C144.475 105.549 145.291 103.224 146.311 100.987C147.29 98.7884 148.401 96.6514 149.639 94.5879L153.859 97.1002Z" fill="#B97964"/>
<path d="M150.488 92.704C147.497 93.5253 144.583 101.927 144.583 101.927L151.781 103.924C153.043 102.155 154.049 100.218 154.771 98.1689C156.285 94.0836 154.106 91.7162 150.488 92.704Z" fill="#3950A2"/>
<g opacity="0.2">
<path opacity="0.2" d="M150.488 92.704C147.497 93.5253 144.583 101.927 144.583 101.927L151.781 103.924C153.043 102.155 154.049 100.218 154.771 98.1689C156.285 94.0836 154.106 91.7162 150.488 92.704Z" fill="black"/>
</g>
<path d="M151.47 118.712L154.755 119.577L153.451 122.663C153.451 122.663 150.503 122.041 150.52 120.435L151.47 118.712Z" fill="#B97964"/>
<path d="M156.017 121.671L155.046 124.113L153.451 122.664L154.756 119.577L156.017 121.671Z" fill="#B97964"/>
</svg>
