<svg width="30" height="29" viewBox="0 0 30 29" fill="none" xmlns="http://www.w3.org/2000/svg">
<path d="M23.6251 28.0003C23.4146 28.0012 23.2092 27.9355 23.0382 27.8128L15.0001 21.9853L6.96193 27.8128C6.7902 27.9374 6.58331 28.0041 6.37117 28.0033C6.15903 28.0026 5.95263 27.9343 5.78181 27.8085C5.61099 27.6827 5.4846 27.5059 5.42092 27.3035C5.35724 27.1012 5.35956 26.8838 5.42756 26.6828L8.56256 17.3972L0.437558 11.8253C0.261565 11.7048 0.128735 11.5311 0.0584774 11.3297C-0.0117807 11.1283 -0.0157856 10.9096 0.0470482 10.7058C0.109882 10.5019 0.236261 10.3235 0.407721 10.1966C0.57918 10.0697 0.786734 10.0009 1.00006 10.0003H11.0238L14.0488 0.690961C14.114 0.489975 14.2411 0.314794 14.412 0.190549C14.5829 0.0663048 14.7888 -0.000617981 15.0001 -0.000617981C15.2113 -0.000617981 15.4172 0.0663048 15.5881 0.190549C15.759 0.314794 15.8861 0.489975 15.9513 0.690961L18.9763 10.0035H29.0001C29.2136 10.0034 29.4217 10.0716 29.5936 10.1983C29.7656 10.325 29.8925 10.5034 29.9557 10.7074C30.019 10.9114 30.0152 11.1303 29.945 11.3321C29.8748 11.5338 29.7419 11.7078 29.5657 11.8285L21.4376 17.3972L24.5707 26.6803C24.6214 26.8306 24.6357 26.9908 24.6123 27.1478C24.589 27.3047 24.5286 27.4537 24.4362 27.5827C24.3438 27.7117 24.2221 27.8168 24.081 27.8894C23.94 27.962 23.7837 28.0001 23.6251 28.0003Z" fill="#3950A2"/>
</svg>
