<svg width="40" height="40" viewBox="0 0 40 40" fill="none" xmlns="http://www.w3.org/2000/svg">
<rect width="40" height="40" rx="20" fill="#25D366"/>
<path fill-rule="evenodd" clip-rule="evenodd" d="M27.4405 12.5515C26.4697 11.5803 25.3165 10.8107 24.0471 10.2869C22.7777 9.76322 21.4172 9.49575 20.0441 9.49993C14.2812 9.49993 9.59 14.1677 9.58766 19.9062C9.58511 21.7334 10.0668 23.5287 10.9836 25.1093L9.5 30.4999L15.043 29.0529C16.5773 29.8841 18.2948 30.3191 20.0398 30.3185H20.0441C25.8064 30.3185 30.4972 25.6502 30.5 19.9123C30.5035 18.5438 30.2348 17.1883 29.7095 15.9246C29.1843 14.6609 28.413 13.5143 27.4405 12.5515ZM20.0441 28.5621H20.0403C18.4847 28.5626 16.9574 28.1463 15.6172 27.3565L15.2998 27.169L12.0106 28.0277L12.8886 24.836L12.6819 24.5079C11.8121 23.1308 11.3512 21.535 11.353 19.9062C11.353 15.1376 15.2534 11.2577 20.0473 11.2577C22.347 11.2536 24.5542 12.1631 26.1833 13.7862C27.8125 15.4093 28.7302 17.6131 28.7347 19.9127C28.7328 24.6818 24.8342 28.5621 20.0441 28.5621ZM24.8108 22.0845C24.5497 21.9541 23.2639 21.3251 23.0258 21.2384C22.7877 21.1516 22.6119 21.1081 22.438 21.3687C22.2641 21.6293 21.763 22.2124 21.6106 22.3882C21.4583 22.564 21.3059 22.5832 21.0448 22.4529C20.7838 22.3226 19.9414 22.0484 18.9434 21.1624C18.1667 20.4729 17.6427 19.6216 17.4903 19.3615C17.338 19.1013 17.4739 18.9602 17.6047 18.8309C17.7223 18.7141 17.8658 18.5271 17.9966 18.3752C18.1273 18.2234 18.1709 18.1146 18.2577 17.9412C18.3444 17.7677 18.3012 17.6159 18.2361 17.486C18.1709 17.3562 17.6483 16.076 17.4308 15.5552C17.2184 15.0481 17.0033 15.117 16.843 15.109C16.6906 15.1015 16.5148 15.0996 16.3419 15.0996C16.2096 15.1031 16.0795 15.1337 15.9597 15.1897C15.8398 15.2457 15.7328 15.3257 15.6453 15.4249C15.4058 15.6856 14.7308 16.3156 14.7308 17.5943C14.7308 18.8731 15.6683 20.1106 15.7977 20.284C15.927 20.4574 17.6398 23.0838 20.2606 24.2102C20.7473 24.4187 21.2445 24.6014 21.7503 24.7577C22.3761 24.9556 22.9456 24.9279 23.3956 24.8609C23.8977 24.7863 24.9425 24.2318 25.1595 23.6243C25.3766 23.0168 25.377 22.4965 25.3119 22.3882C25.2467 22.2799 25.0723 22.2143 24.8108 22.0845Z" fill="#F5F5F5"/>
</svg>
