<svg width="256" height="200" viewBox="0 0 256 200" fill="none" xmlns="http://www.w3.org/2000/svg">
<path d="M255.337 167.194H0V167.322H255.337V167.194Z" fill="#EBEBEB"/>
<path d="M88.4587 170.452H76.6213V170.58H88.4587V170.452Z" fill="#EBEBEB"/>
<path d="M234.282 173.19H205.342V173.317H234.282V173.19Z" fill="#EBEBEB"/>
<path d="M50.756 173.19H21.8162V173.317H50.756V173.19Z" fill="#EBEBEB"/>
<path d="M121.029 144.418H22.4235C21.6511 144.417 20.9107 144.109 20.3649 143.562C19.8192 143.016 19.5127 142.275 19.5127 141.502V2.89041C19.5194 2.12237 19.8289 1.388 20.3739 0.846807C20.9189 0.305616 21.6555 0.00131569 22.4235 0H121.029C121.803 0 122.544 0.307215 123.091 0.85406C123.638 1.40091 123.945 2.14259 123.945 2.91594V141.502C123.945 142.276 123.638 143.017 123.091 143.564C122.544 144.111 121.803 144.418 121.029 144.418ZM22.4235 0.102135C21.6849 0.103488 20.977 0.397848 20.4552 0.920604C19.9334 1.44336 19.6404 2.1518 19.6404 2.89041V141.502C19.6404 142.241 19.9334 142.949 20.4552 143.472C20.977 143.995 21.6849 144.289 22.4235 144.291H121.029C121.768 144.288 122.476 143.993 122.998 143.471C123.52 142.949 123.815 142.241 123.818 141.502V2.89041C123.815 2.15174 123.52 1.4441 122.998 0.921775C122.476 0.399454 121.768 0.104826 121.029 0.102135H22.4235Z" fill="#EBEBEB"/>
<path d="M231.493 144.418H132.882C132.109 144.416 131.369 144.108 130.823 143.561C130.277 143.015 129.969 142.275 129.966 141.502V2.89041C129.974 2.1219 130.285 1.38754 130.831 0.846488C131.376 0.305438 132.113 0.00130134 132.882 0H231.493C232.26 0.0026578 232.995 0.307552 233.539 0.8486C234.083 1.38965 234.392 2.12325 234.399 2.89041V141.502C234.399 141.885 234.325 142.263 234.179 142.617C234.033 142.97 233.82 143.291 233.55 143.562C233.28 143.833 232.959 144.048 232.607 144.195C232.254 144.342 231.875 144.418 231.493 144.418ZM132.882 0.102135C132.143 0.104826 131.436 0.399454 130.913 0.921775C130.391 1.4441 130.096 2.15174 130.094 2.89041V141.502C130.096 142.241 130.391 142.949 130.913 143.471C131.436 143.993 132.143 144.288 132.882 144.291H231.493C232.232 144.288 232.939 143.993 233.462 143.471C233.984 142.949 234.279 142.241 234.281 141.502V2.89041C234.279 2.15174 233.984 1.4441 233.462 0.921775C232.939 0.399454 232.232 0.104826 231.493 0.102135H132.882Z" fill="#EBEBEB"/>
<path d="M230.13 182.979H219.099V183.107H230.13V182.979Z" fill="#EBEBEB"/>
<path d="M239.066 121.688C237.999 118.624 229.578 122.791 226.182 127.862C223.91 131.238 222.521 134.848 221.877 139.689C221.954 134.154 222.041 128.225 222.127 122.623C222.817 121.229 224.39 118.001 225.529 115.473C229.307 106.955 238.295 103.789 241.4 98.4067C245.486 91.3594 245.445 80.7936 241.982 76.9839C238.995 73.6493 229.001 96.0576 227.878 98.5599C224.82 105.261 222.893 112.422 222.173 119.753C222.25 114.488 222.332 109.657 222.398 105.908C222.607 93.7494 222.873 89.8376 222.99 88.6375C223.409 88.0451 223.899 87.3608 224.18 86.9931C226.591 83.8883 231.943 80.191 234.618 75.6766C238.525 69.0838 237.892 61.1939 235.155 58.278C232.29 55.214 227.224 62.4655 224.538 69.6558C221.852 76.8461 223.006 83.735 222.245 89.7099C222.087 90.8998 221.923 95.3273 221.77 101.506C220.953 94.8677 219.329 90.4146 216.321 86.268C212.614 81.1612 209.417 74.9566 206.368 75.7583C203.319 76.5601 204.959 84.7819 207.389 90.5679C209.539 95.7052 220.156 100.827 221.688 104.959C221.51 113.323 221.341 123.94 221.224 133.796C220.391 128.69 220.963 128.261 217.536 120.468C215.494 115.826 207.149 110.101 206.159 113.293C205.168 116.485 206.669 122.485 209.825 126.739C212.379 130.145 217.996 130.14 219.319 132.254C219.62 132.765 220.626 134.624 221.203 135.722C221.065 147.768 221.004 158.406 221.075 162.037L221.622 162.072C221.596 161.138 221.663 155.005 221.77 146.89C223.139 142.58 232.366 140.057 235.216 135.568C238.203 130.845 240.343 125.365 239.066 121.688Z" fill="#E6E6E6"/>
<path d="M230.39 167.47H212.69C212.224 167.465 211.774 167.3 211.415 167.004C211.055 166.708 210.808 166.297 210.714 165.841L209.452 159.642H233.658L232.402 165.841C232.306 166.303 232.054 166.718 231.687 167.015C231.32 167.312 230.862 167.473 230.39 167.47Z" fill="#E6E6E6"/>
<path d="M234.149 162.042H208.932C208.639 162.043 208.356 161.937 208.138 161.743C207.919 161.549 207.78 161.28 207.747 160.99L207.236 156.394C207.201 156.085 207.289 155.775 207.48 155.529C207.67 155.284 207.95 155.123 208.258 155.081H234.649C234.805 155.08 234.96 155.109 235.105 155.168C235.249 155.227 235.381 155.313 235.492 155.423C235.603 155.532 235.691 155.663 235.752 155.807C235.812 155.95 235.844 156.105 235.844 156.261C235.847 156.307 235.847 156.353 235.844 156.399L235.334 160.995C235.302 161.285 235.163 161.554 234.944 161.747C234.725 161.941 234.441 162.046 234.149 162.042Z" fill="#F0F0F0"/>
<path d="M62.6648 17.368H27.0198V56.506H62.6648V17.368Z" fill="#E6E6E6"/>
<path d="M65.7136 17.368H27.4949V56.506H65.7136V17.368Z" fill="#F5F5F5"/>
<path d="M63.2776 19.8039H29.9307V54.065H63.2776V19.8039Z" fill="white"/>
<path d="M41.6097 49.1216C39.7037 47.2141 38.6331 44.6279 38.6331 41.9314C38.6331 39.2348 39.7037 36.6486 41.6097 34.7411L51.578 24.7523C53.484 26.6598 54.5547 29.246 54.5547 31.9426C54.5547 34.6391 53.484 37.2254 51.578 39.1329L41.6097 49.1216Z" fill="#F5F5F5"/>
<path d="M51.8077 77.1423H27.5457V104.525H51.8077V77.1423Z" fill="#E6E6E6"/>
<path d="M55.316 77.1423H28.1379V104.525H55.316V77.1423Z" fill="#F5F5F5"/>
<path d="M52.5174 79.9459H30.9465V101.726H52.5174V79.9459Z" fill="white"/>
<path d="M39.7728 86.4116L37.2993 88.8852C36.2224 89.9621 36.2224 91.7081 37.2993 92.7851L39.7728 95.2586C40.8498 96.3355 42.5958 96.3355 43.6727 95.2586L46.1463 92.7851C47.2232 91.7081 47.2232 89.9621 46.1463 88.8852L43.6727 86.4116C42.5958 85.3347 40.8498 85.3347 39.7728 86.4116Z" fill="#F5F5F5"/>
<path d="M105.127 111.347H94.071V167.118H105.127V111.347Z" fill="#E6E6E6"/>
<path d="M94.0711 111.352H46.3691V167.123H94.0711V111.352Z" fill="#F0F0F0"/>
<path d="M89.7252 132.806H50.7148V145.659H89.7252V132.806Z" fill="#E6E6E6"/>
<path d="M89.7252 148.529H50.7148V161.383H89.7252V148.529Z" fill="#E6E6E6"/>
<path d="M65.8361 134.532H74.5992C74.8842 134.529 75.1567 134.415 75.3582 134.213C75.5597 134.012 75.6741 133.739 75.6768 133.454C75.6754 133.169 75.5615 132.896 75.3597 132.694C75.1579 132.492 74.8846 132.378 74.5992 132.377H65.8361C65.5512 132.378 65.2784 132.492 65.0775 132.694C64.8765 132.896 64.7637 133.169 64.7637 133.454C64.7637 133.739 64.8765 134.012 65.0775 134.214C65.2784 134.416 65.5512 134.53 65.8361 134.532Z" fill="#F0F0F0"/>
<path d="M89.7252 117.087H50.7148V129.941H89.7252V117.087Z" fill="#E6E6E6"/>
<path d="M65.8361 118.808H74.5992C74.8846 118.807 75.1579 118.693 75.3597 118.491C75.5615 118.289 75.6754 118.016 75.6768 117.731C75.6741 117.446 75.5597 117.173 75.3582 116.972C75.1567 116.77 74.8842 116.656 74.5992 116.653H65.8361C65.5512 116.654 65.2784 116.768 65.0775 116.97C64.8765 117.172 64.7637 117.446 64.7637 117.731C64.7637 118.015 64.8765 118.289 65.0775 118.491C65.2784 118.693 65.5512 118.807 65.8361 118.808Z" fill="#F0F0F0"/>
<path d="M65.8361 150.255H74.5992C74.8855 150.254 75.1595 150.139 75.3615 149.936C75.5634 149.734 75.6768 149.459 75.6768 149.173C75.6754 148.888 75.5613 148.615 75.3594 148.414C75.1574 148.213 74.8841 148.1 74.5992 148.1H65.8361C65.6953 148.1 65.5558 148.128 65.4257 148.182C65.2956 148.236 65.1774 148.315 65.0778 148.414C64.9782 148.514 64.8992 148.632 64.8453 148.762C64.7914 148.892 64.7637 149.032 64.7637 149.173C64.763 149.314 64.7902 149.454 64.8437 149.585C64.8973 149.716 64.9761 149.836 65.0757 149.936C65.1752 150.037 65.2937 150.117 65.4241 150.171C65.5546 150.226 65.6946 150.255 65.8361 150.255Z" fill="#F0F0F0"/>
<path d="M94.0711 108.416H44.8933V111.347H94.0711V108.416Z" fill="#E6E6E6"/>
<path d="M106.669 108.421H94.071V111.352H106.669V108.421Z" fill="#E0E0E0"/>
<path d="M130.732 200C180.137 200 220.187 196.84 220.187 192.943C220.187 189.045 180.137 185.885 130.732 185.885C81.3278 185.885 41.2776 189.045 41.2776 192.943C41.2776 196.84 81.3278 200 130.732 200Z" fill="#F5F5F5"/>
<path d="M203.064 37.703C202.328 35.2655 201.353 32.9067 200.153 30.6608L201.966 24.7268L190.251 12.9813L184.307 14.8095C182.069 13.5954 179.71 12.6164 177.27 11.8885L174.359 6.40894H157.798L154.882 11.8885C152.434 12.617 150.067 13.5959 147.82 14.8095L141.88 12.9864L130.135 24.7319L131.953 30.671C130.747 32.914 129.772 35.2735 129.042 37.7132L123.583 40.6291V57.1954L129.063 60.1113C129.792 62.5503 130.769 64.9083 131.978 67.1484L130.16 73.0773L141.906 84.8228L147.845 83.0099C150.087 84.2161 152.447 85.1898 154.887 85.9156L157.798 91.4105H174.385L177.296 85.9309C179.734 85.1993 182.092 84.2224 184.333 83.015L190.277 84.8279L202.022 73.0824L200.184 67.1586C201.382 64.9152 202.354 62.5579 203.085 60.1215L208.544 57.1954V40.6138L203.064 37.703ZM166.061 78.9807C160.113 78.9797 154.299 77.215 149.354 73.9099C144.409 70.6048 140.556 65.9076 138.28 60.4123C136.005 54.9169 135.41 48.8703 136.571 43.037C137.732 37.2036 140.596 31.8455 144.802 27.6401C149.009 23.4348 154.367 20.5711 160.201 19.4111C166.034 18.2511 172.081 18.847 177.576 21.1233C183.071 23.3997 187.767 27.2543 191.071 32.1997C194.376 37.1452 196.139 42.9594 196.139 48.9071C196.138 56.8836 192.968 64.5329 187.328 70.1727C181.687 75.8124 174.037 78.9807 166.061 78.9807Z" fill="#E5E5E7"/>
<path d="M166.06 23.0518C160.946 23.0538 155.947 24.5722 151.696 27.415C147.445 30.2578 144.132 34.2974 142.176 39.023C140.22 43.7485 139.709 48.9479 140.708 53.9637C141.707 58.9794 144.171 63.5864 147.788 67.202C151.405 70.8176 156.013 73.2796 161.029 74.2766C166.045 75.2736 171.245 74.7609 175.969 72.8033C180.694 70.8456 184.732 67.531 187.574 63.2785C190.415 59.026 191.931 54.0266 191.931 48.9123C191.931 45.5154 191.262 42.1517 189.962 39.0135C188.661 35.8753 186.756 33.024 184.353 30.6225C181.951 28.221 179.099 26.3164 175.96 25.0174C172.821 23.7184 169.457 23.0504 166.06 23.0518ZM166.06 71.3308C161.627 71.3318 157.292 70.018 153.605 67.5555C149.917 65.0929 147.043 61.5923 145.345 57.4962C143.648 53.4001 143.203 48.8926 144.067 44.5436C144.931 40.1947 147.065 36.1996 150.199 33.0636C153.334 29.9276 157.328 27.7915 161.677 26.9255C166.025 26.0595 170.533 26.5024 174.63 28.1983C178.727 29.8942 182.229 32.7668 184.693 36.453C187.157 40.1391 188.473 44.4732 188.474 48.9072C188.462 54.8488 186.097 60.5437 181.896 64.7461C177.696 68.9484 172.002 71.316 166.06 71.3308Z" fill="#E5E5E7"/>
<path opacity="0.4" d="M203.064 37.703C202.328 35.2655 201.353 32.9067 200.153 30.6608L201.966 24.7268L190.251 12.9813L184.307 14.8095C182.069 13.5954 179.71 12.6164 177.27 11.8885L174.359 6.40894H157.798L154.882 11.8885C152.434 12.617 150.067 13.5959 147.82 14.8095L141.88 12.9864L130.135 24.7319L131.953 30.671C130.747 32.914 129.772 35.2735 129.042 37.7132L123.583 40.6291V57.1954L129.063 60.1113C129.792 62.5503 130.769 64.9083 131.978 67.1484L130.16 73.0773L141.906 84.8228L147.845 83.0099C150.087 84.2161 152.447 85.1898 154.887 85.9156L157.798 91.4105H174.385L177.296 85.9309C179.734 85.1993 182.092 84.2224 184.333 83.015L190.277 84.8279L202.022 73.0824L200.184 67.1586C201.382 64.9152 202.354 62.5579 203.085 60.1215L208.544 57.1954V40.6138L203.064 37.703ZM166.061 78.9807C160.113 78.9797 154.299 77.215 149.354 73.9099C144.409 70.6048 140.556 65.9076 138.28 60.4123C136.005 54.9169 135.41 48.8703 136.571 43.037C137.732 37.2036 140.596 31.8455 144.802 27.6401C149.009 23.4348 154.367 20.5711 160.201 19.4111C166.034 18.2511 172.081 18.847 177.576 21.1233C183.071 23.3997 187.767 27.2543 191.071 32.1997C194.376 37.1452 196.139 42.9594 196.139 48.9071C196.138 56.8836 192.968 64.5329 187.328 70.1727C181.687 75.8124 174.037 78.9807 166.061 78.9807Z" fill="white"/>
<path opacity="0.4" d="M166.06 23.0518C160.946 23.0538 155.947 24.5722 151.696 27.415C147.445 30.2578 144.132 34.2974 142.176 39.023C140.22 43.7485 139.709 48.9479 140.708 53.9637C141.707 58.9794 144.171 63.5864 147.788 67.202C151.405 70.8176 156.013 73.2796 161.029 74.2766C166.045 75.2736 171.245 74.7609 175.969 72.8033C180.694 70.8456 184.732 67.531 187.574 63.2785C190.415 59.026 191.931 54.0266 191.931 48.9123C191.931 45.5154 191.262 42.1517 189.962 39.0135C188.661 35.8753 186.756 33.024 184.353 30.6225C181.951 28.221 179.099 26.3164 175.96 25.0174C172.821 23.7184 169.457 23.0504 166.06 23.0518ZM166.06 71.3308C161.627 71.3318 157.292 70.018 153.605 67.5555C149.917 65.0929 147.043 61.5923 145.345 57.4962C143.648 53.4001 143.203 48.8926 144.067 44.5436C144.931 40.1947 147.065 36.1996 150.199 33.0636C153.334 29.9276 157.328 27.7915 161.677 26.9255C166.025 26.0595 170.533 26.5024 174.63 28.1983C178.727 29.8942 182.229 32.7668 184.693 36.453C187.157 40.1391 188.473 44.4732 188.474 48.9072C188.462 54.8488 186.097 60.5437 181.896 64.7461C177.696 68.9484 172.002 71.316 166.06 71.3308Z" fill="white"/>
<path d="M98.7234 70.5342C98.3386 69.2418 97.8253 67.9913 97.1914 66.8011L98.1566 63.6503L91.9213 57.4252L88.7704 58.3904C87.5803 57.7563 86.3298 57.2431 85.0374 56.8583L83.5054 53.9679H74.6809L73.1489 56.8583C71.8565 57.2431 70.606 57.7563 69.4159 58.3904L66.265 57.4252L60.045 63.6503L61.0051 66.8011C60.3731 67.9922 59.8599 69.2425 59.4731 70.5342L56.5623 72.0662V80.8702L59.4731 82.4022C59.8577 83.6946 60.3709 84.9452 61.0051 86.1352L60.045 89.2861L66.265 95.5112L69.4159 94.546C70.607 95.1779 71.8573 95.6911 73.1489 96.078L74.6809 98.9633H83.4849L85.017 96.078C86.3085 95.6911 87.5589 95.1779 88.75 94.546L91.9008 95.5112L98.1259 89.2861L97.1608 86.1352C97.7947 84.9451 98.3079 83.6945 98.6928 82.4022L101.599 80.8702V72.0815L98.7234 70.5342ZM79.0829 88.9848C76.6094 88.9848 74.1914 88.2513 72.1348 86.8771C70.0781 85.5029 68.4751 83.5496 67.5285 81.2644C66.582 78.9791 66.3343 76.4645 66.8169 74.0385C67.2994 71.6125 68.4905 69.3841 70.2396 67.635C71.9886 65.886 74.2171 64.6949 76.6431 64.2123C79.0691 63.7298 81.5837 63.9774 83.8689 64.924C86.1542 65.8706 88.1074 67.4736 89.4816 69.5302C90.8558 71.5869 91.5893 74.0049 91.5893 76.4784C91.588 79.7949 90.2699 82.9751 87.9248 85.3202C85.5797 87.6654 82.3994 88.9834 79.0829 88.9848Z" fill="#263238"/>
<path d="M98.7234 70.5342C98.3386 69.2418 97.8253 67.9913 97.1914 66.8011L98.1566 63.6503L91.9213 57.4252L88.7704 58.3904C87.5803 57.7563 86.3298 57.2431 85.0374 56.8583L83.5054 53.9679H74.6809L73.1489 56.8583C71.8565 57.2431 70.606 57.7563 69.4159 58.3904L66.265 57.4252L60.045 63.6503L61.0051 66.8011C60.3731 67.9922 59.8599 69.2425 59.4731 70.5342L56.5623 72.0662V80.8702L59.4731 82.4022C59.8577 83.6946 60.3709 84.9452 61.0051 86.1352L60.045 89.2861L66.265 95.5112L69.4159 94.546C70.607 95.1779 71.8573 95.6911 73.1489 96.078L74.6809 98.9633H83.4849L85.017 96.078C86.3085 95.6911 87.5589 95.1779 88.75 94.546L91.9008 95.5112L98.1259 89.2861L97.1608 86.1352C97.7947 84.9451 98.3079 83.6945 98.6928 82.4022L101.599 80.8702V72.0815L98.7234 70.5342ZM79.0829 88.9848C76.6094 88.9848 74.1914 88.2513 72.1348 86.8771C70.0781 85.5029 68.4751 83.5496 67.5285 81.2644C66.582 78.9791 66.3343 76.4645 66.8169 74.0385C67.2994 71.6125 68.4905 69.3841 70.2396 67.635C71.9886 65.886 74.2171 64.6949 76.6431 64.2123C79.0691 63.7298 81.5837 63.9774 83.8689 64.924C86.1542 65.8706 88.1074 67.4736 89.4816 69.5302C90.8558 71.5869 91.5893 74.0049 91.5893 76.4784C91.588 79.7949 90.2699 82.9751 87.9248 85.3202C85.5797 87.6654 82.3994 88.9834 79.0829 88.9848Z" fill="#E5E5E7"/>
<path d="M79.0829 72.3368C78.2628 72.3368 77.4611 72.58 76.7792 73.0357C76.0973 73.4913 75.5658 74.1389 75.2519 74.8966C74.9381 75.6543 74.856 76.4881 75.016 77.2925C75.176 78.0968 75.5709 78.8357 76.1508 79.4156C76.7307 79.9955 77.4696 80.3905 78.274 80.5505C79.0783 80.7105 79.9121 80.6284 80.6698 80.3145C81.4275 80.0007 82.0751 79.4692 82.5308 78.7873C82.9864 78.1053 83.2296 77.3036 83.2296 76.4835C83.2296 75.3837 82.7927 74.329 82.0151 73.5514C81.2374 72.7737 80.1827 72.3368 79.0829 72.3368Z" fill="#263238"/>
<path opacity="0.4" d="M98.7234 70.5342C98.3386 69.2418 97.8253 67.9913 97.1914 66.8011L98.1566 63.6503L91.9213 57.4252L88.7704 58.3904C87.5803 57.7563 86.3298 57.2431 85.0374 56.8583L83.5054 53.9679H74.6809L73.1489 56.8583C71.8565 57.2431 70.606 57.7563 69.4159 58.3904L66.265 57.4252L60.045 63.6503L61.0051 66.8011C60.3731 67.9922 59.8599 69.2425 59.4731 70.5342L56.5623 72.0662V80.8702L59.4731 82.4022C59.8577 83.6946 60.3709 84.9452 61.0051 86.1352L60.045 89.2861L66.265 95.5112L69.4159 94.546C70.607 95.1779 71.8573 95.6911 73.1489 96.078L74.6809 98.9633H83.4849L85.017 96.078C86.3085 95.6911 87.5589 95.1779 88.75 94.546L91.9008 95.5112L98.1259 89.2861L97.1608 86.1352C97.7947 84.9451 98.3079 83.6945 98.6928 82.4022L101.599 80.8702V72.0815L98.7234 70.5342ZM79.0829 88.9848C76.6094 88.9848 74.1914 88.2513 72.1348 86.8771C70.0781 85.5029 68.4751 83.5496 67.5285 81.2644C66.582 78.9791 66.3343 76.4645 66.8169 74.0385C67.2994 71.6125 68.4905 69.3841 70.2396 67.635C71.9886 65.886 74.2171 64.6949 76.6431 64.2123C79.0691 63.7298 81.5837 63.9774 83.8689 64.924C86.1542 65.8706 88.1074 67.4736 89.4816 69.5302C90.8558 71.5869 91.5893 74.0049 91.5893 76.4784C91.588 79.7949 90.2699 82.9751 87.9248 85.3202C85.5797 87.6654 82.3994 88.9834 79.0829 88.9848Z" fill="white"/>
<path opacity="0.2" d="M79.0829 72.3368C78.2628 72.3368 77.4611 72.58 76.7792 73.0357C76.0973 73.4913 75.5658 74.1389 75.2519 74.8966C74.9381 75.6543 74.856 76.4881 75.016 77.2925C75.176 78.0968 75.5709 78.8357 76.1508 79.4156C76.7307 79.9955 77.4696 80.3905 78.274 80.5505C79.0783 80.7105 79.9121 80.6284 80.6698 80.3145C81.4275 80.0007 82.0751 79.4692 82.5308 78.7873C82.9864 78.1053 83.2296 77.3036 83.2296 76.4835C83.2296 75.3837 82.7927 74.329 82.0151 73.5514C81.2374 72.7737 80.1827 72.3368 79.0829 72.3368Z" fill="white"/>
<path d="M106.731 62.5523L103.36 61.1633L103.238 59.8968C102.923 59.631 102.629 59.3407 102.359 59.0287L101.103 58.901L99.709 55.5357L100.521 54.5705C100.485 54.1577 100.485 53.7425 100.521 53.3296L99.709 52.3695L101.113 49.0246L102.37 48.9021C102.643 48.5804 102.94 48.28 103.258 48.0033L103.381 46.7419L106.751 45.3529L107.711 46.1597C108.124 46.1291 108.539 46.1291 108.952 46.1597L109.912 45.3529L113.283 46.7419L113.4 48.0033C113.713 48.2735 114.006 48.5653 114.278 48.8765L115.535 48.9991L116.924 52.3644L116.117 53.3245C116.153 53.7374 116.153 54.1525 116.117 54.5654L116.924 55.5306L115.535 58.8959L114.278 59.0236C114.009 59.3373 113.715 59.6293 113.4 59.8968L113.283 61.1582L109.912 62.5472L108.952 61.7404C108.541 61.771 108.128 61.771 107.716 61.7404L106.731 62.5523ZM109.172 61.0203L110.045 61.7404L112.598 60.6833L112.701 59.5547L112.823 59.4628C113.181 59.1727 113.511 58.8496 113.809 58.4976L113.901 58.3801L115.029 58.2729L116.086 55.7195L115.412 54.8208V54.6727C115.458 54.2091 115.458 53.7421 115.412 53.2785V53.11L116.132 52.2316L115.075 49.6783L113.952 49.5761L113.855 49.4536C113.554 49.1086 113.221 48.7939 112.859 48.5139L112.736 48.4169L112.634 47.2934L110.081 46.2312L109.192 46.9819H109.044C108.581 46.9309 108.113 46.9309 107.65 46.9819H107.497L106.623 46.2568L104.07 47.319L103.963 48.4424L103.851 48.5395C103.489 48.825 103.157 49.1466 102.86 49.4995L102.763 49.6221L101.634 49.7242L100.567 52.2776L101.292 53.1509V53.2989C101.241 53.7623 101.241 54.2298 101.292 54.6931V54.8463L100.567 55.6634L101.629 58.2167L102.753 58.324L102.85 58.4363C103.143 58.8 103.473 59.1321 103.835 59.427L103.953 59.5189L104.06 60.6526L106.613 61.7097L107.492 60.9897H107.64C108.103 61.0356 108.57 61.0356 109.034 60.9897L109.172 61.0203Z" fill="#263238"/>
<path d="M109.841 57.5631C109.126 57.86 108.339 57.9383 107.58 57.7879C106.821 57.6376 106.123 57.2654 105.575 56.7185C105.028 56.1715 104.655 55.4744 104.503 54.7154C104.352 53.9564 104.429 53.1695 104.725 52.4544C105.022 51.7393 105.523 51.1281 106.167 50.6981C106.81 50.2681 107.567 50.0387 108.341 50.0389C109.115 50.0391 109.871 50.2689 110.515 50.6993C111.158 51.1296 111.659 51.7411 111.955 52.4563C112.152 52.9301 112.253 53.4381 112.254 53.9511C112.254 54.4642 112.154 54.9723 111.958 55.4465C111.762 55.9207 111.475 56.3517 111.112 56.7149C110.75 57.078 110.32 57.3663 109.846 57.5631H109.841Z" fill="#263238"/>
<path d="M81.7078 54.5705C81.6441 54.5705 81.5831 54.5452 81.5381 54.5002C81.4931 54.4552 81.4678 54.3942 81.4678 54.3305V53.11C81.4678 53.0464 81.4931 52.9853 81.5381 52.9403C81.5831 52.8953 81.6441 52.87 81.7078 52.87C81.7714 52.87 81.8325 52.8953 81.8775 52.9403C81.9225 52.9853 81.9478 53.0464 81.9478 53.11V54.3101C81.9506 54.3433 81.9465 54.3767 81.9358 54.4082C81.925 54.4397 81.9077 54.4687 81.8852 54.4932C81.8626 54.5177 81.8352 54.5372 81.8046 54.5505C81.7741 54.5638 81.7411 54.5707 81.7078 54.5705Z" fill="#E5E5E7"/>
<path d="M81.7078 50.9601C81.6441 50.9601 81.5831 50.9348 81.5381 50.8898C81.4931 50.8448 81.4678 50.7837 81.4678 50.7201V48.3097C81.4678 48.246 81.4931 48.185 81.5381 48.14C81.5831 48.095 81.6441 48.0697 81.7078 48.0697C81.7714 48.0697 81.8325 48.095 81.8775 48.14C81.9225 48.185 81.9478 48.246 81.9478 48.3097V50.7201C81.9478 50.7837 81.9225 50.8448 81.8775 50.8898C81.8325 50.9348 81.7714 50.9601 81.7078 50.9601ZM81.7078 46.1393C81.6441 46.1393 81.5831 46.114 81.5381 46.069C81.4931 46.024 81.4678 45.963 81.4678 45.8993V43.4889C81.4678 43.4253 81.4931 43.3642 81.5381 43.3192C81.5831 43.2742 81.6441 43.2489 81.7078 43.2489C81.7714 43.2489 81.8325 43.2742 81.8775 43.3192C81.9225 43.3642 81.9478 43.4253 81.9478 43.4889V45.8993C81.9478 45.963 81.9225 46.024 81.8775 46.069C81.8325 46.114 81.7714 46.1393 81.7078 46.1393ZM81.7078 41.3237C81.6437 41.3223 81.5826 41.2959 81.5378 41.2501C81.4929 41.2043 81.4678 41.1427 81.4678 41.0786V38.6733C81.4678 38.6096 81.4931 38.5486 81.5381 38.5036C81.5831 38.4586 81.6441 38.4333 81.7078 38.4333C81.7714 38.4333 81.8325 38.4586 81.8775 38.5036C81.9225 38.5486 81.9478 38.6096 81.9478 38.6733V41.0786C81.9478 41.1427 81.9227 41.2043 81.8778 41.2501C81.833 41.2959 81.7719 41.3223 81.7078 41.3237ZM81.7078 36.4876C81.677 36.4897 81.6461 36.4855 81.6171 36.4751C81.588 36.4648 81.5614 36.4485 81.5389 36.4275C81.5164 36.4064 81.4985 36.3809 81.4862 36.3526C81.474 36.3243 81.4677 36.2938 81.4678 36.2629V36.2272C81.4676 35.4069 81.604 34.5923 81.8712 33.8168C81.8932 33.7572 81.9374 33.7085 81.9945 33.6809C82.0517 33.6533 82.1173 33.6489 82.1776 33.6687C82.2079 33.6784 82.2359 33.6942 82.2599 33.7151C82.284 33.7359 82.3035 33.7615 82.3173 33.7901C82.3312 33.8188 82.3391 33.85 82.3405 33.8818C82.342 33.9136 82.3369 33.9453 82.3257 33.9751C82.0748 34.6994 81.947 35.4606 81.9478 36.2272C81.948 36.2928 81.9234 36.3562 81.8789 36.4045C81.8344 36.4528 81.7733 36.4825 81.7078 36.4876ZM83.2398 32.0345C83.186 32.0354 83.1336 32.0173 83.0917 31.9835C83.0669 31.964 83.0462 31.9399 83.0307 31.9124C83.0152 31.885 83.0053 31.8547 83.0015 31.8234C82.9977 31.7921 83.0001 31.7604 83.0086 31.73C83.017 31.6996 83.0314 31.6712 83.0509 31.6464C83.5699 30.9965 84.1949 30.4389 84.8995 29.997C84.9263 29.9802 84.9562 29.9689 84.9874 29.9636C85.0186 29.9584 85.0505 29.9594 85.0813 29.9665C85.1122 29.9736 85.1413 29.9867 85.167 30.0051C85.1928 30.0235 85.2147 30.0467 85.2314 30.0736C85.2482 30.1004 85.2595 30.1302 85.2647 30.1614C85.27 30.1926 85.269 30.2246 85.2619 30.2554C85.2548 30.2862 85.2417 30.3153 85.2233 30.3411C85.2049 30.3668 85.1817 30.3887 85.1548 30.4055C84.4965 30.8142 83.9127 31.3323 83.4288 31.9375C83.3925 31.9865 83.34 32.0209 83.2807 32.0345H83.2398ZM87.2486 29.5322C87.1891 29.5327 87.1315 29.511 87.087 29.4714C87.0426 29.4318 87.0145 29.3771 87.0081 29.3179C87.0017 29.2587 87.0176 29.1993 87.0526 29.1511C87.0876 29.1029 87.1393 29.0695 87.1975 29.0573C87.7206 28.9407 88.2549 28.8825 88.7908 28.8837H89.6436C89.6752 28.8837 89.7064 28.8899 89.7355 28.902C89.7646 28.914 89.7911 28.9317 89.8134 28.954C89.8357 28.9763 89.8533 29.0027 89.8654 29.0319C89.8775 29.061 89.8837 29.0922 89.8837 29.1237C89.8837 29.1552 89.8775 29.1864 89.8654 29.2156C89.8533 29.2447 89.8357 29.2711 89.8134 29.2934C89.7911 29.3157 89.7646 29.3334 89.7355 29.3454C89.7064 29.3575 89.6752 29.3637 89.6436 29.3637H88.8572C88.3557 29.3642 87.8558 29.419 87.366 29.5271L87.2486 29.5322ZM128.199 29.3637H125.83C125.766 29.3637 125.705 29.3384 125.66 29.2934C125.615 29.2484 125.59 29.1874 125.59 29.1237C125.59 29.06 125.615 28.999 125.66 28.954C125.705 28.909 125.766 28.8837 125.83 28.8837H128.24C128.272 28.8837 128.303 28.8899 128.332 28.902C128.361 28.914 128.388 28.9317 128.41 28.954C128.432 28.9763 128.45 29.0027 128.462 29.0319C128.474 29.061 128.48 29.0922 128.48 29.1237C128.48 29.1552 128.474 29.1864 128.462 29.2156C128.45 29.2447 128.432 29.2711 128.41 29.2934C128.388 29.3157 128.361 29.3334 128.332 29.3454C128.303 29.3575 128.272 29.3637 128.24 29.3637H128.199ZM123.379 29.3637H121.03C120.998 29.3637 120.967 29.3575 120.938 29.3454C120.909 29.3334 120.882 29.3157 120.86 29.2934C120.838 29.2711 120.82 29.2447 120.808 29.2156C120.796 29.1864 120.79 29.1552 120.79 29.1237C120.79 29.0922 120.796 29.061 120.808 29.0319C120.82 29.0027 120.838 28.9763 120.86 28.954C120.882 28.9317 120.909 28.914 120.938 28.902C120.967 28.8899 120.998 28.8837 121.03 28.8837H123.435C123.466 28.8837 123.498 28.8899 123.527 28.902C123.556 28.914 123.582 28.9317 123.605 28.954C123.627 28.9763 123.645 29.0027 123.657 29.0319C123.669 29.061 123.675 29.0922 123.675 29.1237C123.675 29.1552 123.669 29.1864 123.657 29.2156C123.645 29.2447 123.627 29.2711 123.605 29.2934C123.582 29.3157 123.556 29.3334 123.527 29.3454C123.498 29.3575 123.466 29.3637 123.435 29.3637H123.379ZM118.563 29.3637H116.153C116.089 29.3637 116.028 29.3384 115.983 29.2934C115.938 29.2484 115.913 29.1874 115.913 29.1237C115.913 29.06 115.938 28.999 115.983 28.954C116.028 28.909 116.089 28.8837 116.153 28.8837H118.563C118.595 28.8837 118.626 28.8899 118.655 28.902C118.684 28.914 118.71 28.9317 118.733 28.954C118.755 28.9763 118.773 29.0027 118.785 29.0319C118.797 29.061 118.803 29.0922 118.803 29.1237C118.803 29.1552 118.797 29.1864 118.785 29.2156C118.773 29.2447 118.755 29.2711 118.733 29.2934C118.71 29.3157 118.684 29.3334 118.655 29.3454C118.626 29.3575 118.595 29.3637 118.563 29.3637ZM113.742 29.3637H111.332C111.268 29.3637 111.207 29.3384 111.162 29.2934C111.117 29.2484 111.092 29.1874 111.092 29.1237C111.092 29.06 111.117 28.999 111.162 28.954C111.207 28.909 111.268 28.8837 111.332 28.8837H113.742C113.774 28.8837 113.805 28.8899 113.834 28.902C113.863 28.914 113.89 28.9317 113.912 28.954C113.934 28.9763 113.952 29.0027 113.964 29.0319C113.976 29.061 113.982 29.0922 113.982 29.1237C113.982 29.1552 113.976 29.1864 113.964 29.2156C113.952 29.2447 113.934 29.2711 113.912 29.2934C113.89 29.3157 113.863 29.3334 113.834 29.3454C113.805 29.3575 113.774 29.3637 113.742 29.3637ZM108.922 29.3637H106.511C106.448 29.3637 106.386 29.3384 106.341 29.2934C106.296 29.2484 106.271 29.1874 106.271 29.1237C106.271 29.06 106.296 28.999 106.341 28.954C106.386 28.909 106.448 28.8837 106.511 28.8837H108.922C108.953 28.8837 108.984 28.8899 109.013 28.902C109.043 28.914 109.069 28.9317 109.091 28.954C109.114 28.9763 109.131 29.0027 109.143 29.0319C109.155 29.061 109.162 29.0922 109.162 29.1237C109.162 29.1552 109.155 29.1864 109.143 29.2156C109.131 29.2447 109.114 29.2711 109.091 29.2934C109.069 29.3157 109.043 29.3334 109.013 29.3454C108.984 29.3575 108.953 29.3637 108.922 29.3637ZM104.101 29.3637H101.696C101.664 29.3637 101.633 29.3575 101.604 29.3454C101.575 29.3334 101.548 29.3157 101.526 29.2934C101.504 29.2711 101.486 29.2447 101.474 29.2156C101.462 29.1864 101.456 29.1552 101.456 29.1237C101.456 29.0922 101.462 29.061 101.474 29.0319C101.486 29.0027 101.504 28.9763 101.526 28.954C101.548 28.9317 101.575 28.914 101.604 28.902C101.633 28.8899 101.664 28.8837 101.696 28.8837H104.101C104.132 28.8837 104.164 28.8899 104.193 28.902C104.222 28.914 104.248 28.9317 104.271 28.954C104.293 28.9763 104.31 29.0027 104.323 29.0319C104.335 29.061 104.341 29.0922 104.341 29.1237C104.341 29.1552 104.335 29.1864 104.323 29.2156C104.31 29.2447 104.293 29.2711 104.271 29.2934C104.248 29.3157 104.222 29.3334 104.193 29.3454C104.164 29.3575 104.132 29.3637 104.101 29.3637ZM99.2852 29.3637H96.8748C96.8111 29.3637 96.7501 29.3384 96.7051 29.2934C96.6601 29.2484 96.6348 29.1874 96.6348 29.1237C96.6348 29.06 96.6601 28.999 96.7051 28.954C96.7501 28.909 96.8111 28.8837 96.8748 28.8837H99.2852C99.3167 28.8837 99.3479 28.8899 99.377 28.902C99.4061 28.914 99.4326 28.9317 99.4549 28.954C99.4772 28.9763 99.4948 29.0027 99.5069 29.0319C99.519 29.061 99.5252 29.0922 99.5252 29.1237C99.5252 29.1552 99.519 29.1864 99.5069 29.2156C99.4948 29.2447 99.4772 29.2711 99.4549 29.2934C99.4326 29.3157 99.4061 29.3334 99.377 29.3454C99.3479 29.3575 99.3167 29.3637 99.2852 29.3637ZM94.4644 29.3637H92.054C91.9904 29.3637 91.9293 29.3384 91.8843 29.2934C91.8393 29.2484 91.814 29.1874 91.814 29.1237C91.814 29.06 91.8393 28.999 91.8843 28.954C91.9293 28.909 91.9904 28.8837 92.054 28.8837H94.4644C94.4959 28.8837 94.5271 28.8899 94.5563 28.902C94.5854 28.914 94.6118 28.9317 94.6341 28.954C94.6564 28.9763 94.6741 29.0027 94.6862 29.0319C94.6982 29.061 94.7044 29.0922 94.7044 29.1237C94.7044 29.1552 94.6982 29.1864 94.6862 29.2156C94.6741 29.2447 94.6564 29.2711 94.6341 29.2934C94.6118 29.3157 94.5854 29.3334 94.5563 29.3454C94.5271 29.3575 94.4959 29.3637 94.4644 29.3637Z" fill="#E5E5E7"/>
<path d="M131.861 29.3637H130.656C130.592 29.3637 130.531 29.3384 130.486 29.2934C130.441 29.2484 130.416 29.1873 130.416 29.1237C130.416 29.06 130.441 28.999 130.486 28.954C130.531 28.909 130.592 28.8837 130.656 28.8837H131.861C131.925 28.8837 131.986 28.909 132.031 28.954C132.076 28.999 132.101 29.06 132.101 29.1237C132.101 29.1873 132.076 29.2484 132.031 29.2934C131.986 29.3384 131.925 29.3637 131.861 29.3637Z" fill="#E5E5E7"/>
<path d="M81.5852 192.406H84.1028L84.1028 113.727H81.5852L81.5852 192.406Z" fill="#263238"/>
<path d="M185.308 149.014H143.729V143.249H185.308C185.81 143.249 186.292 143.449 186.647 143.804C187.003 144.159 187.202 144.641 187.202 145.143V147.12C187.202 147.369 187.153 147.615 187.058 147.845C186.963 148.075 186.823 148.284 186.647 148.459C186.472 148.635 186.263 148.775 186.033 148.87C185.803 148.965 185.557 149.014 185.308 149.014Z" fill="#FF9201"/>
<path d="M183.71 192.84L180.697 145.22" stroke="#FF9201" stroke-width="2.8255" stroke-linecap="round" stroke-linejoin="round"/>
<path d="M172.173 195.2L169.16 147.579" stroke="#FF9201" stroke-width="2.8255" stroke-linecap="round" stroke-linejoin="round"/>
<path d="M141.937 192.84L144.949 145.22" stroke="#FF9201" stroke-width="2.8255" stroke-linecap="round" stroke-linejoin="round"/>
<path d="M153.473 195.2L156.486 147.579" stroke="#FF9201" stroke-width="2.8255" stroke-linecap="round" stroke-linejoin="round"/>
<path d="M189 145.22H147.421V139.455H189C189.503 139.455 189.985 139.654 190.34 140.01C190.695 140.365 190.895 140.847 190.895 141.349V143.326C190.895 143.828 190.695 144.31 190.34 144.665C189.985 145.021 189.503 145.22 189 145.22Z" fill="#FF9201"/>
<path opacity="0.2" d="M189 145.22H147.421V139.455H189C189.503 139.455 189.985 139.654 190.34 140.01C190.695 140.365 190.895 140.847 190.895 141.349V143.326C190.895 143.828 190.695 144.31 190.34 144.665C189.985 145.021 189.503 145.22 189 145.22Z" fill="black"/>
<path d="M147.125 194.286H149.643V115.606H147.125V194.286Z" fill="#263238"/>
<path d="M155.704 121.591C155.704 121.591 126.928 122.674 122.148 134.225C122.148 134.225 122.812 168.629 126.662 179.92L134.899 178.986L133.582 145.542L163.349 121.602L155.704 121.591Z" fill="#263238"/>
<path opacity="0.2" d="M155.704 121.591C155.704 121.591 126.928 122.674 122.148 134.225C122.148 134.225 122.812 168.629 126.662 179.92L134.899 178.986L133.582 145.542L163.349 121.602L155.704 121.591Z" fill="black"/>
<path d="M133.536 187.596H128.393L128.322 184.169L128.271 181.483L133.296 181.789L133.393 184.169L133.536 187.596Z" fill="#E4897B"/>
<path opacity="0.2" d="M133.393 184.169H128.322L128.271 181.483L133.296 181.789L133.393 184.169Z" fill="black"/>
<path d="M135.834 182.576L124.824 182.908L122.817 178.822L135.527 178.705L135.834 182.576Z" fill="#FF9201"/>
<path d="M127.076 188.372C127.076 188.372 127.341 185.354 126.289 185.773C125.237 186.191 126.412 187.734 127.076 188.372Z" stroke="#FF9201" stroke-width="0.941833" stroke-miterlimit="10"/>
<path d="M127.076 188.372C127.076 188.372 124.814 186.789 124.237 187.596C123.659 188.403 127.076 188.372 127.076 188.372Z" stroke="#FF9201" stroke-width="0.941833" stroke-miterlimit="10"/>
<path d="M128.868 186.906L132.954 186.947C133.242 186.954 133.517 187.067 133.727 187.265C133.936 187.463 134.065 187.732 134.088 188.02L134.373 191.63C134.387 191.787 134.368 191.944 134.316 192.093C134.265 192.241 134.183 192.377 134.075 192.492C133.968 192.607 133.838 192.697 133.693 192.758C133.548 192.819 133.392 192.849 133.235 192.845C131.023 192.779 126.473 192.662 124.86 192.708C122.699 192.769 119.63 192.805 119.191 191.982C119.066 191.762 119.024 191.504 119.072 191.255C119.119 191.006 119.254 190.783 119.452 190.624C119.452 190.624 125.34 190.078 128.046 187.279C128.151 187.165 128.278 187.073 128.42 187.009C128.561 186.945 128.713 186.91 128.868 186.906Z" fill="#263238"/>
<path d="M181.524 121.591C181.524 121.591 182.07 128.296 181.866 133.48C181.631 139.455 168.767 144.715 150.041 141.651C150.041 141.651 148.58 151.747 143.402 161.056C138.224 170.366 130.125 184.169 130.125 184.169L122.158 178.986C122.158 178.986 132.647 149.877 134.644 141.799C136.641 133.72 137.432 129.844 143.142 127.321C148.851 124.798 161.337 121.591 161.337 121.591H181.524Z" fill="#263238"/>
<path d="M127.076 182.647L126.131 184.098L124.053 187.3L120.064 184.976L122.153 181.728L122.965 180.472L127.076 182.647Z" fill="#E4897B"/>
<path opacity="0.2" d="M127.076 182.647L126.131 184.098L122.153 181.728L122.965 180.472L127.076 182.647Z" fill="black"/>
<path d="M132.198 181.483L121.755 175.232L120.064 179.405L129.977 185.129L132.198 181.483Z" fill="#FF9201"/>
<path d="M117.332 185.129C117.332 185.129 118.093 182.514 117.24 182.463C116.388 182.412 117.332 185.129 117.332 185.129Z" stroke="#FF9201" stroke-width="0.941833" stroke-miterlimit="10"/>
<path d="M117.133 185.032C117.133 185.032 115.953 182.193 115.003 182.826C114.054 183.459 117.133 185.032 117.133 185.032Z" stroke="#FF9201" stroke-width="0.941833" stroke-miterlimit="10"/>
<path d="M120.58 184.69L124.063 186.733C124.308 186.876 124.489 187.108 124.569 187.38C124.65 187.652 124.624 187.945 124.497 188.198L122.919 191.4C122.849 191.54 122.751 191.664 122.631 191.764C122.511 191.864 122.371 191.938 122.221 191.981C122.071 192.025 121.913 192.036 121.758 192.015C121.603 191.994 121.454 191.941 121.321 191.86C119.446 190.706 115.581 188.341 114.171 187.58C112.271 186.559 109.611 185.068 109.647 184.154C109.654 183.903 109.75 183.663 109.917 183.476C110.084 183.289 110.312 183.167 110.561 183.133C110.561 183.133 115.913 185.594 119.666 184.573C119.819 184.53 119.978 184.519 120.135 184.539C120.292 184.559 120.443 184.611 120.58 184.69Z" fill="#263238"/>
<path d="M149.198 92.2888C149.198 92.2888 148.126 104.004 148.555 107.017C148.555 107.017 137.361 108.656 131.703 107.88L127.914 106.93L123.175 108.089L124.467 111.843H128.256C128.256 111.843 131.013 112.619 132.219 111.843C132.219 111.843 141.692 113.737 147.289 113.135C152.886 112.532 154.622 110.402 154.872 106.159C155.107 102.073 157.798 92.9731 155.648 90.9049L149.198 92.2888Z" fill="#E4897B"/>
<path d="M187.642 93.6064C187.642 93.6064 183.347 82.6984 179.17 80.2369C174.992 77.7755 155.648 82.4839 155.648 82.4839C155.648 82.4839 147.35 85.1547 146.875 98.1207L154.499 101.353L155.704 121.591H181.524L181.386 95.3784L187.642 93.6064Z" fill="#FF9201"/>
<path d="M156 61.1071C156 61.1071 153.447 60.7854 152.753 58.8704C152.058 56.9554 154.724 57.9205 154.499 54.4582C154.274 50.9958 158.252 50.1685 161.138 51.6903C164.023 53.2121 168.604 51.5524 170.33 53.6309C172.056 55.7093 171.3 57.6448 171.3 57.6448C171.3 57.6448 176.264 63.2622 169.972 67.0973C163.681 70.9325 156 61.1071 156 61.1071Z" fill="#263238"/>
<path d="M171.014 79.7723C168.256 83.9751 165.775 84.4092 162.45 84.4041C158.717 84.4041 159.968 81.7537 159.968 81.7537C161.531 80.9723 162.67 80.1348 162.848 78.2096C162.885 77.8363 162.893 77.4607 162.874 77.0861C162.837 76.2193 162.688 75.3609 162.43 74.5328C157.144 75.0128 155.28 72.4339 154.621 67.5672C154.254 64.5737 154.798 61.539 156.184 58.8602C159.248 62.4656 165.014 59.6415 165.014 59.6415C163.395 64.3244 167.358 66.0045 167.358 66.0045C168.89 65.0445 170.115 65.882 169.998 67.7459C169.975 68.2659 169.797 68.7671 169.487 69.1849C169.176 69.6027 168.748 69.9179 168.256 70.0899C167.955 78.3883 171.014 79.7723 171.014 79.7723Z" fill="#E4897B"/>
<path d="M157.64 69.4822C157.598 69.4822 157.558 69.4664 157.528 69.438C157.497 69.4095 157.479 69.3705 157.476 69.329C157.475 69.3075 157.478 69.286 157.485 69.2656C157.492 69.2452 157.502 69.2265 157.517 69.2103C157.531 69.1942 157.548 69.181 157.568 69.1716C157.587 69.1622 157.608 69.1566 157.629 69.1553C159.478 69.0583 160.183 68.1697 160.208 68.1595C160.221 68.1429 160.237 68.1291 160.256 68.1188C160.274 68.1085 160.294 68.1019 160.315 68.0996C160.336 68.0972 160.357 68.099 160.378 68.1049C160.398 68.1108 160.417 68.1207 160.433 68.134C160.45 68.147 160.465 68.1633 160.475 68.1819C160.486 68.2006 160.493 68.2212 160.496 68.2425C160.499 68.2639 160.498 68.2856 160.492 68.3064C160.486 68.3272 160.477 68.3467 160.464 68.3638C160.433 68.4046 159.657 69.3851 157.65 69.4822H157.64Z" fill="#263238"/>
<path d="M157.64 67.4701L157.338 64.3704L156 67.1893C156.225 67.3748 156.495 67.4983 156.783 67.5475C157.07 67.5968 157.365 67.5701 157.64 67.4701Z" fill="#A02724"/>
<path d="M159.703 64.3704C159.703 64.7585 159.882 65.0751 160.106 65.0751C160.331 65.0751 160.51 64.7585 160.51 64.3704C160.51 63.9822 160.331 63.6656 160.106 63.6656C159.882 63.6656 159.703 63.9822 159.703 64.3704Z" fill="#263238"/>
<path d="M155.597 65.0751C155.82 65.0751 156 64.7596 156 64.3704C156 63.9811 155.82 63.6656 155.597 63.6656C155.374 63.6656 155.194 63.9811 155.194 64.3704C155.194 64.7596 155.374 65.0751 155.597 65.0751Z" fill="#263238"/>
<path d="M162.394 62.8128C162.359 62.8137 162.324 62.8057 162.293 62.7897C162.262 62.7736 162.235 62.75 162.215 62.7209C162.19 62.68 161.521 61.7812 159.968 62.0672C159.94 62.0731 159.911 62.0733 159.883 62.0677C159.855 62.0621 159.828 62.0508 159.804 62.0346C159.78 62.0184 159.76 61.9976 159.744 61.9734C159.729 61.9491 159.718 61.922 159.713 61.8936C159.704 61.8369 159.717 61.7788 159.749 61.7314C159.781 61.6839 159.831 61.6506 159.887 61.6382C161.725 61.3012 162.537 62.4196 162.573 62.4706C162.595 62.5034 162.608 62.5416 162.61 62.5811C162.612 62.6205 162.604 62.6599 162.585 62.6949C162.567 62.7299 162.54 62.7594 162.506 62.7801C162.472 62.8009 162.434 62.8122 162.394 62.8128Z" fill="#263238"/>
<path d="M154.912 62.5268C154.877 62.5261 154.842 62.5174 154.81 62.5013C154.785 62.4883 154.763 62.4705 154.744 62.4488C154.726 62.4271 154.712 62.402 154.704 62.375C154.695 62.3479 154.692 62.3194 154.694 62.2911C154.697 62.2628 154.705 62.2353 154.718 62.2102C154.891 61.9232 155.144 61.6938 155.447 61.5511C155.75 61.4084 156.088 61.3587 156.419 61.4084C156.447 61.4122 156.475 61.4215 156.499 61.436C156.524 61.4504 156.545 61.4696 156.562 61.4924C156.58 61.5152 156.592 61.5412 156.599 61.5689C156.606 61.5966 156.607 61.6254 156.603 61.6536C156.6 61.6816 156.591 61.7088 156.577 61.7334C156.563 61.758 156.544 61.7795 156.522 61.7967C156.5 61.8139 156.474 61.8263 156.447 61.8333C156.419 61.8403 156.391 61.8417 156.363 61.8374C156.121 61.801 155.873 61.8357 155.65 61.9372C155.427 62.0387 155.238 62.2027 155.107 62.4094C155.087 62.4441 155.059 62.4731 155.025 62.4937C154.991 62.5143 154.952 62.5257 154.912 62.5268Z" fill="#263238"/>
<path d="M154.565 66.7858C154.088 66.7848 153.621 66.6423 153.225 66.3763C152.828 66.1102 152.519 65.7326 152.337 65.2912C152.155 64.8497 152.108 64.3642 152.202 63.896C152.296 63.4278 152.526 62.9978 152.864 62.6605C153.202 62.3232 153.633 62.0937 154.101 62.0009C154.57 61.9081 155.055 61.9562 155.496 62.1392C155.937 62.3222 156.314 62.6318 156.579 63.0289C156.844 63.426 156.986 63.8928 156.986 64.3703C156.986 64.688 156.923 65.0025 156.802 65.2959C156.68 65.5893 156.502 65.8558 156.277 66.0802C156.052 66.3045 155.785 66.4823 155.491 66.6034C155.198 66.7245 154.883 66.7865 154.565 66.7858ZM154.565 62.2766C154.151 62.2766 153.746 62.3994 153.402 62.6294C153.058 62.8595 152.789 63.1865 152.631 63.5691C152.473 63.9517 152.431 64.3727 152.512 64.7788C152.593 65.185 152.792 65.558 153.085 65.8509C153.378 66.1437 153.751 66.3431 154.157 66.4239C154.563 66.5047 154.984 66.4632 155.367 66.3047C155.749 66.1463 156.076 65.8779 156.306 65.5336C156.536 65.1893 156.659 64.7845 156.659 64.3703C156.652 63.8195 156.429 63.2935 156.037 62.9063C155.645 62.5192 155.116 62.3021 154.565 62.3021V62.2766Z" fill="white"/>
<path d="M160.351 66.7858C159.874 66.7858 159.407 66.6442 159.009 66.3787C158.612 66.1133 158.302 65.7361 158.12 65.2947C157.937 64.8533 157.889 64.3677 157.982 63.8991C158.075 63.4306 158.305 63.0002 158.643 62.6623C158.981 62.3245 159.411 62.0945 159.88 62.0013C160.349 61.9081 160.834 61.9559 161.276 62.1387C161.717 62.3216 162.094 62.6312 162.36 63.0284C162.625 63.4256 162.767 63.8926 162.767 64.3703C162.765 65.0106 162.51 65.6242 162.058 66.0769C161.605 66.5296 160.991 66.7845 160.351 66.7858ZM160.351 62.2766C159.937 62.2756 159.532 62.3975 159.187 62.627C158.842 62.8564 158.573 63.1831 158.413 63.5656C158.254 63.9481 158.212 64.3692 158.292 64.7757C158.372 65.1822 158.571 65.5557 158.864 65.849C159.156 66.1424 159.53 66.3423 159.936 66.4235C160.342 66.5047 160.763 66.4635 161.146 66.3052C161.529 66.1469 161.856 65.8785 162.087 65.5341C162.317 65.1897 162.44 64.7847 162.44 64.3703C162.432 63.8208 162.209 63.2963 161.818 62.9096C161.428 62.5228 160.901 62.3047 160.351 62.3021V62.2766Z" fill="white"/>
<path d="M156.986 64.3704H157.916" stroke="white" stroke-width="0.941833" stroke-miterlimit="10"/>
<path d="M162.593 64.8146L167.123 65.9023" stroke="white" stroke-width="0.941833" stroke-linecap="round" stroke-linejoin="round"/>
<path opacity="0.2" d="M164.181 74.0476C163.892 75.1109 163.452 76.1272 162.874 77.0657C162.838 76.1989 162.688 75.3405 162.43 74.5123L164.181 74.0476Z" fill="black"/>
<path opacity="0.2" d="M154.499 101.353V98.1207L153.192 100.802L154.499 101.353Z" fill="black"/>
<path opacity="0.2" d="M175.81 97.0381L174.814 91.2215L174.533 97.5539L175.81 97.0381Z" fill="black"/>
<path d="M182.933 109.243C182.872 113.497 180.957 115.616 175.355 116.219C169.753 116.822 160.285 114.927 160.285 114.927C159.08 115.703 156.322 114.927 156.322 114.927H152.533L151.246 111.174L155.98 110.019L159.769 110.964C165.453 111.74 176.647 110.106 176.647 110.106C176.325 107.849 175.963 100.48 175.809 97.0381L182.489 95.0618C183.148 99.5812 182.99 105.577 182.933 109.243Z" fill="#E4897B"/>
<path d="M84.1437 87.0289L88.6632 110.065C88.7634 110.565 89.0332 111.014 89.427 111.337C89.8207 111.66 90.3141 111.837 90.8233 111.837H129.088C129.409 111.837 129.726 111.767 130.017 111.631C130.308 111.494 130.566 111.296 130.772 111.05C130.978 110.803 131.127 110.515 131.209 110.205C131.292 109.894 131.305 109.569 131.248 109.253L127.163 86.2169C127.073 85.7097 126.807 85.2504 126.412 84.9198C126.017 84.5892 125.518 84.4084 125.003 84.4091H86.3039C85.9788 84.4074 85.6574 84.478 85.363 84.6158C85.0687 84.7537 84.8086 84.9553 84.6018 85.2061C84.395 85.4569 84.2466 85.7506 84.1674 86.0659C84.0882 86.3812 84.0801 86.7101 84.1437 87.0289Z" fill="#FF9201"/>
<path opacity="0.2" d="M125.559 84.4092L130.339 111.837C130.507 111.838 130.673 111.801 130.825 111.731C130.977 111.66 131.112 111.556 131.219 111.428C131.327 111.299 131.405 111.148 131.448 110.986C131.491 110.824 131.498 110.654 131.468 110.489L126.989 85.3488C126.942 85.0842 126.803 84.8447 126.597 84.6728C126.39 84.5008 126.129 84.4074 125.861 84.4092H125.559Z" fill="black"/>
<path d="M89.1123 114.038H147.962C147.963 113.749 147.906 113.463 147.796 113.195C147.686 112.928 147.524 112.685 147.319 112.481C147.115 112.276 146.872 112.114 146.604 112.004C146.337 111.893 146.05 111.837 145.761 111.837H91.3235C91.0338 111.837 90.7468 111.893 90.4789 112.003C90.211 112.114 89.9674 112.276 89.7621 112.48C89.5567 112.684 89.3937 112.927 89.2822 113.195C89.1707 113.462 89.113 113.749 89.1123 114.038Z" fill="#FF9201"/>
<path opacity="0.2" d="M128.521 114.038H147.963C147.963 113.749 147.907 113.463 147.796 113.195C147.686 112.928 147.524 112.685 147.319 112.481C147.115 112.276 146.872 112.114 146.605 112.004C146.337 111.893 146.051 111.837 145.762 111.837H130.732C130.443 111.837 130.156 111.893 129.888 112.003C129.62 112.114 129.376 112.276 129.171 112.48C128.966 112.684 128.803 112.927 128.691 113.195C128.58 113.462 128.522 113.749 128.521 114.038Z" fill="black"/>
<path opacity="0.4" d="M103.018 98.9787C103.432 101.844 105.413 103.932 107.446 103.641C109.478 103.35 110.791 100.786 110.382 97.9216C109.973 95.0567 107.987 92.968 105.954 93.2591C103.922 93.5502 102.604 96.1087 103.018 98.9787Z" fill="white"/>
<path opacity="0.2" d="M89.1123 114.038H147.962C147.963 113.749 147.906 113.463 147.796 113.195C147.686 112.928 147.524 112.685 147.319 112.481C147.115 112.276 146.872 112.114 146.604 112.004C146.337 111.893 146.05 111.837 145.761 111.837H91.3235C91.0338 111.837 90.7468 111.893 90.4789 112.003C90.211 112.114 89.9674 112.276 89.7621 112.48C89.5567 112.684 89.3937 112.927 89.2822 113.195C89.1707 113.462 89.113 113.749 89.1123 114.038Z" fill="black"/>
<path d="M65.0088 116.888H166.633C166.633 115.924 166.25 114.999 165.568 114.317C164.886 113.635 163.961 113.252 162.997 113.252H68.6499C67.6851 113.252 66.7597 113.635 66.077 114.317C65.3944 114.998 65.0101 115.923 65.0088 116.888Z" fill="#263238"/>
</svg>
