<svg width="252" height="200" viewBox="0 0 252 200" fill="none" xmlns="http://www.w3.org/2000/svg">
<path d="M34.3888 163.274C34.3888 163.274 29.8642 158.357 32.5387 155.507C35.2133 152.656 37.2645 156.879 37.2645 156.879C37.2645 156.879 33.8107 150.711 37.2645 148.745C40.7183 146.779 41.6534 151.761 41.6534 151.761C41.6534 151.761 40.7635 145.291 45.3938 144.929C50.024 144.567 49.0638 149.921 49.0638 149.921C49.0638 149.921 51.8087 144.743 55.4033 146.905C58.9979 149.067 55.9664 153.667 55.9664 153.667C55.9664 153.667 59.1688 150.278 60.9938 152.737C62.8187 155.195 59.9078 157.407 59.9078 157.407C59.9078 157.407 63.3717 156.301 63.8895 159.519C64.4073 162.736 61.1546 163.259 61.1546 163.259L34.3888 163.274Z" fill="#E0E0E0"/>
<path d="M170.172 163.274C170.172 163.274 163.245 155.774 167.352 151.425C171.459 147.076 174.566 153.516 174.566 153.516C174.566 153.516 169.293 144.1 174.566 141.099C179.84 138.097 181.258 145.724 181.258 145.724C181.258 145.724 179.9 135.82 186.964 135.277C194.027 134.734 192.564 142.898 192.564 142.898C192.564 142.898 196.757 134.995 202.242 138.313C207.727 141.631 203.107 148.64 203.107 148.64C203.107 148.64 207.988 143.466 210.768 147.217C213.549 150.967 209.104 154.341 209.104 154.341C209.104 154.341 214.393 152.657 215.188 157.563C215.982 162.47 211.01 163.269 211.01 163.269L170.172 163.274Z" fill="#F0F0F0"/>
<path d="M117.682 132.98H121.633L129.717 109.703H125.766L117.682 132.98Z" fill="#E6E6E6"/>
<path d="M64.9897 132.98H68.9413L77.0253 109.703H73.0738L64.9897 132.98Z" fill="#E6E6E6"/>
<path d="M226.671 163.275H23.8059V169.423H226.671V163.275Z" fill="#F5F5F5"/>
<path d="M47.5151 163.275H23.8059V169.423H47.5151V163.275Z" fill="#E0E0E0"/>
<path d="M94.9377 163.275H71.2285V169.423H94.9377V163.275Z" fill="#E0E0E0"/>
<path d="M142.361 163.275H118.652V169.423H142.361V163.275Z" fill="#E0E0E0"/>
<path d="M189.785 163.275H166.076V169.423H189.785V163.275Z" fill="#E0E0E0"/>
<path d="M226.671 163.275H213.499V169.423H226.671V163.275Z" fill="#E0E0E0"/>
<path d="M205.933 70.0315H189.574C189.502 69.427 189.647 68.8166 189.985 68.3098C190.322 67.8031 190.829 67.4331 191.414 67.2664C193.591 66.467 194.607 67.6686 194.607 67.6686C194.342 67.3512 194.196 66.9509 194.196 66.5374C194.196 66.124 194.342 65.7236 194.607 65.4063C195.512 64.0991 198.03 64.9035 198.03 64.9035C198.03 64.9035 197.291 63.4355 198.925 62.0932C200.559 60.7509 202.977 62.0932 202.977 62.0932C202.977 62.0932 203.168 59.484 206.361 59.9013C209.553 60.3186 209.201 62.4652 209.201 62.4652C209.201 62.4652 210.066 61.6961 211.916 62.5658C212.416 62.7547 212.84 63.1035 213.122 63.558C213.404 64.0125 213.528 64.5474 213.474 65.0795C213.474 65.0795 214.42 63.9131 216.415 64.6723C218.411 65.4314 217.863 67.0251 217.863 67.0251C217.863 67.0251 220.136 66.0196 221.297 67.2714C222.69 68.7796 221.609 70.0365 221.609 70.0365L205.933 70.0315Z" fill="#E6E6E6"/>
<path d="M120.568 63.848H104.219C104.145 63.244 104.29 62.6337 104.626 62.1268C104.962 61.6199 105.469 61.2497 106.054 61.0829C108.231 60.2835 109.246 61.4851 109.246 61.4851C108.983 61.1661 108.838 60.7652 108.838 60.3514C108.838 59.9376 108.983 59.5367 109.246 59.2177C110.156 57.9156 112.675 58.715 112.675 58.715C112.675 58.715 111.931 57.247 113.565 55.9047C115.199 54.5624 117.622 55.9047 117.622 55.9047C117.622 55.9047 117.813 53.3005 121.005 53.7178C124.198 54.135 123.846 56.2817 123.846 56.2817C123.846 56.2817 124.705 55.5125 126.555 56.3823C127.056 56.571 127.481 56.9196 127.763 57.374C128.046 57.8284 128.171 58.3634 128.119 58.896C128.119 58.896 129.059 57.7246 131.055 58.4837C133.051 59.2429 132.508 60.8416 132.508 60.8416C132.508 60.8416 134.775 59.8361 135.936 61.0879C137.334 62.5961 136.248 63.853 136.248 63.853L120.568 63.848Z" fill="#E6E6E6"/>
<path d="M154.362 31.9845H147.047C146.508 31.9964 145.995 32.2196 145.619 32.6061C145.243 32.9926 145.034 33.5114 145.036 34.0508V39.3748C145.04 39.6297 145.095 39.8813 145.2 40.1138C145.305 40.3463 145.456 40.5549 145.644 40.7265C145.833 40.8981 146.055 41.0291 146.296 41.1114C146.538 41.1937 146.793 41.2254 147.047 41.2047H148.153L147.595 43.3062L149.606 41.2047H154.357C155.458 41.2047 156.464 40.4758 156.464 39.3748V34.0508C156.441 33.504 156.211 32.9864 155.821 32.6027C155.431 32.219 154.909 31.9981 154.362 31.9845Z" fill="#E6E6E6"/>
<path d="M106.27 29.6866H77.7295C77.5938 28.6142 77.8405 27.5284 78.4262 26.6199C79.0119 25.7115 79.8992 25.0386 80.9319 24.7195C84.7326 23.3269 86.5073 25.353 86.5073 25.353C86.5073 25.353 84.9237 23.6437 86.5073 21.3663C88.0909 19.0889 92.4848 20.4513 92.4848 20.4513C92.4848 20.4513 91.1928 17.8823 94.0433 15.5395C96.8939 13.1968 101.117 15.5395 101.117 15.5395C101.117 15.5395 101.449 10.9897 107.024 11.7137C112.599 12.4376 111.981 16.1931 111.981 16.1931C111.981 16.1931 113.489 14.8457 116.712 16.369C119.934 17.8923 119.432 20.763 119.432 20.763C119.432 20.763 121.071 18.7168 124.59 20.039C128.109 21.3612 127.103 24.1313 127.103 24.1313C127.103 24.1313 131.07 22.4924 133.091 24.6994C135.529 27.3589 133.634 29.6665 133.634 29.6665L106.27 29.6866Z" fill="#E6E6E6"/>
<path d="M54.6591 54.7186H29.8992C29.8992 54.7186 29.3965 51.7374 32.6794 50.5308C35.9622 49.3242 37.5157 51.1391 37.5157 51.1391C37.5157 51.1391 36.1432 49.6862 37.5157 47.7104C38.8882 45.7347 42.704 46.9312 42.704 46.9312C42.704 46.9312 41.5829 44.7091 44.0513 42.678C46.5198 40.647 50.1898 42.678 50.1898 42.678C50.1898 42.678 50.4813 38.7315 55.3127 39.365C60.144 39.9984 59.6161 43.2461 59.6161 43.2461C59.6161 43.2461 60.9182 42.0798 63.7184 43.3969C66.5187 44.7141 66.0813 47.2127 66.0813 47.2127C66.0813 47.2127 67.5091 45.4381 70.5306 46.5893C73.552 47.7406 72.7275 50.1537 72.7275 50.1537C72.7275 50.1537 76.1663 48.6154 77.9208 50.5308C80.0323 52.8384 78.3884 54.7186 78.3884 54.7186H54.6591Z" fill="#E6E6E6"/>
<path d="M165.115 93.2586H148.761C148.687 92.6547 148.832 92.0444 149.168 91.5374C149.504 91.0305 150.011 90.6604 150.596 90.4936C152.773 89.6942 153.788 90.8958 153.788 90.8958C153.524 90.578 153.379 90.1778 153.379 89.7646C153.379 89.3514 153.524 88.9512 153.788 88.6334C154.693 87.3263 157.212 88.1307 157.212 88.1307C157.212 88.1307 156.473 86.6627 158.107 85.3204C159.741 83.9781 162.159 85.3204 162.159 85.3204C162.159 85.3204 162.35 82.7112 165.547 83.1285C168.745 83.5457 168.388 85.6924 168.388 85.6924C168.388 85.6924 169.247 84.9232 171.097 85.793C171.598 85.9819 172.022 86.3306 172.303 86.7852C172.585 87.2397 172.709 87.7745 172.656 88.3067C172.656 88.3067 173.601 87.1403 175.597 87.8994C177.593 88.6586 177.05 90.2523 177.05 90.2523C177.05 90.2523 179.317 89.2468 180.478 90.4986C181.876 92.0068 180.79 93.2637 180.79 93.2637L165.115 93.2586Z" fill="#E6E6E6"/>
<path d="M125.239 132.979H39.6123V138.685H125.239V132.979Z" fill="#F0F0F0"/>
<path d="M131.382 125.071H54.9805V130.777H131.382V125.071Z" fill="#F0F0F0"/>
<path d="M137.973 113.659H61.5715V119.365H137.973V113.659Z" fill="#F0F0F0"/>
<path d="M142.367 103.997H65.9607V109.703H142.367V103.997Z" fill="#F0F0F0"/>
<path d="M47.0777 138.685H43.1262V163.274H47.0777V138.685Z" fill="#F0F0F0"/>
<path d="M47.0777 138.685H43.1262V143.516H47.0777V138.685Z" fill="#E6E6E6"/>
<path d="M124.359 138.685H120.407V163.274H124.359V138.685Z" fill="#F0F0F0"/>
<path d="M124.359 138.685H120.407V143.516H124.359V138.685Z" fill="#E6E6E6"/>
<path d="M251.782 169.624H0.413086V169.75H251.782V169.624Z" fill="#EBEBEB"/>
<path d="M226.595 177.712H209.944V177.838H226.595V177.712Z" fill="#EBEBEB"/>
<path d="M166.93 179.081H162.561V179.207H166.93V179.081Z" fill="#EBEBEB"/>
<path d="M209.442 173.047H199.794V173.173H209.442V173.047Z" fill="#EBEBEB"/>
<path d="M48.5004 173.893H26.7871V174.018H48.5004V173.893Z" fill="#EBEBEB"/>
<path d="M56.1621 173.893H52.9797V174.018H56.1621V173.893Z" fill="#EBEBEB"/>
<path d="M113.605 176.014H66.5081V176.139H113.605V176.014Z" fill="#EBEBEB"/>
<path d="M119.562 147.202H22.4887C21.7282 147.2 20.9993 146.897 20.4621 146.359C19.9248 145.821 19.623 145.092 19.623 144.331V7.87284C19.6297 7.11674 19.9343 6.39378 20.4709 5.86099C21.0074 5.32821 21.7325 5.02864 22.4887 5.02734H119.562C120.324 5.02734 121.054 5.32979 121.592 5.86813C122.131 6.40648 122.433 7.13664 122.433 7.89798V144.331C122.433 145.093 122.131 145.823 121.592 146.361C121.054 146.899 120.324 147.202 119.562 147.202ZM22.4887 5.12789C21.7615 5.12922 21.0646 5.41901 20.5509 5.93364C20.0372 6.44828 19.7487 7.14571 19.7487 7.87284V144.331C19.7487 145.058 20.0372 145.756 20.5509 146.27C21.0646 146.785 21.7615 147.075 22.4887 147.076H119.562C120.29 147.075 120.987 146.785 121.502 146.271C122.016 145.756 122.306 145.059 122.307 144.331V7.87284C122.306 7.14525 122.016 6.44783 121.502 5.93334C120.987 5.41885 120.29 5.12922 119.562 5.12789H22.4887Z" fill="#EBEBEB"/>
<path d="M228.309 147.202H131.23C130.47 147.2 129.74 146.898 129.202 146.36C128.664 145.822 128.361 145.092 128.36 144.331V7.87284C128.368 7.11628 128.674 6.39332 129.211 5.86068C129.748 5.32804 130.474 5.02862 131.23 5.02734H228.309C229.065 5.02996 229.788 5.33012 230.324 5.86276C230.859 6.3954 231.163 7.11761 231.17 7.87284V144.331C231.17 145.091 230.869 145.819 230.333 146.357C229.796 146.896 229.069 147.199 228.309 147.202ZM131.23 5.12789C130.503 5.12922 129.805 5.41885 129.291 5.93334C128.777 6.44783 128.487 7.14525 128.486 7.87284V144.331C128.487 145.059 128.777 145.756 129.291 146.271C129.805 146.785 130.503 147.075 131.23 147.076H228.309C229.037 147.075 229.734 146.785 230.249 146.271C230.763 145.756 231.053 145.059 231.054 144.331V7.87284C231.053 7.14525 230.763 6.44783 230.249 5.93334C229.734 5.41885 229.037 5.12922 228.309 5.12789H131.23Z" fill="#EBEBEB"/>
<path d="M223.573 195.772C223.573 198.11 179.93 200 126.097 200C72.2636 200 28.6208 198.11 28.6208 195.772C28.6208 193.434 72.2636 191.544 126.097 191.544C179.93 191.544 223.573 193.439 223.573 195.772Z" fill="#F5F5F5"/>
<path d="M219.059 11.6431H227.148C227.148 11.6431 226.484 16.2884 220.255 17.5955L219.059 11.6431Z" fill="#263238"/>
<path d="M219.059 23.9598H227.148C227.148 23.9598 226.484 28.6051 220.255 29.9273L219.059 23.9598Z" fill="#263238"/>
<path d="M219.059 36.278H227.148C227.148 36.278 226.484 40.9233 220.255 42.2455L219.059 36.278Z" fill="#263238"/>
<path opacity="0.1" d="M219.059 11.6431H227.148C227.148 11.6431 226.484 16.2884 220.255 17.5955L219.059 11.6431Z" fill="white"/>
<path opacity="0.1" d="M219.059 23.9598H227.148C227.148 23.9598 226.484 28.6051 220.255 29.9273L219.059 23.9598Z" fill="white"/>
<path opacity="0.1" d="M219.059 36.278H227.148C227.148 36.278 226.484 40.9233 220.255 42.2455L219.059 36.278Z" fill="white"/>
<path d="M219.104 7.03784H204.022C202.633 7.03784 201.508 8.16326 201.508 9.55153V49.2679C201.508 50.6562 202.633 51.7816 204.022 51.7816H219.104C220.492 51.7816 221.618 50.6562 221.618 49.2679V9.55153C221.618 8.16326 220.492 7.03784 219.104 7.03784Z" fill="#263238"/>
<path opacity="0.1" d="M210.557 7.03784H204.022C202.633 7.03784 201.508 8.16326 201.508 9.55153V49.2679C201.508 50.6562 202.633 51.7816 204.022 51.7816H210.557C211.946 51.7816 213.071 50.6562 213.071 49.2679V9.55153C213.071 8.16326 211.946 7.03784 210.557 7.03784Z" fill="white"/>
<path d="M202.765 4.36462H204.685C205.309 4.36595 205.907 4.61426 206.348 5.05521C206.789 5.49617 207.037 6.09384 207.038 6.71744V54.8446C207.037 55.4682 206.789 56.0659 206.348 56.5068C205.907 56.9478 205.309 57.1961 204.685 57.1974H202.765" stroke="#3950A2" stroke-width="5" stroke-miterlimit="10"/>
<path d="M210.084 178.542C209.954 178.364 209.784 178.219 209.587 178.119C209.391 178.02 209.173 177.968 208.953 177.969H196.575C196.355 177.968 196.137 178.02 195.941 178.119C195.744 178.219 195.574 178.364 195.444 178.542L191.065 184.505H214.463L210.084 178.542Z" fill="#3950A2"/>
<path d="M204.524 1.75958C204.524 1.29291 204.339 0.845357 204.009 0.515371C203.679 0.185385 203.231 0 202.764 0C202.298 0 201.85 0.185385 201.52 0.515371C201.19 0.845357 201.005 1.29291 201.005 1.75958C201.008 1.84382 201.016 1.92777 201.03 2.01095H201.005V177.969H204.524V2.01095C204.529 1.92725 204.529 1.84329 204.524 1.75958Z" fill="#3950A2"/>
<path d="M202.765 18.2747H200.135C199.698 18.2773 199.28 18.4527 198.972 18.7626C198.664 19.0725 198.491 19.4917 198.491 19.9287V58.2424C198.491 58.4594 198.534 58.6742 198.617 58.8746C198.7 59.075 198.822 59.257 198.976 59.4102C199.13 59.5634 199.312 59.6847 199.513 59.7673C199.713 59.8499 199.928 59.892 200.145 59.8914H202.775" stroke="#3950A2" stroke-width="5" stroke-miterlimit="10"/>
<path d="M207.038 23.1265H191.453C190.065 23.1265 188.94 24.2519 188.94 25.6402V53.2908C188.94 54.6791 190.065 55.8045 191.453 55.8045H207.038C208.427 55.8045 209.552 54.6791 209.552 53.2908V25.6402C209.552 24.2519 208.427 23.1265 207.038 23.1265Z" fill="#263238"/>
<path opacity="0.2" d="M207.038 23.1265H191.453C190.065 23.1265 188.94 24.2519 188.94 25.6402V53.2908C188.94 54.6791 190.065 55.8045 191.453 55.8045H207.038C208.427 55.8045 209.552 54.6791 209.552 53.2908V25.6402C209.552 24.2519 208.427 23.1265 207.038 23.1265Z" fill="white"/>
<path opacity="0.1" d="M204.525 23.1265H191.453C190.065 23.1265 188.94 24.2519 188.94 25.6402V53.2908C188.94 54.6791 190.065 55.8045 191.453 55.8045H204.525C205.913 55.8045 207.038 54.6791 207.038 53.2908V25.6402C207.038 24.2519 205.913 23.1265 204.525 23.1265Z" fill="white"/>
<path d="M198.331 39.4241C201.515 39.4241 204.097 36.8423 204.097 33.6576C204.097 30.4729 201.515 27.8912 198.331 27.8912C195.146 27.8912 192.564 30.4729 192.564 33.6576C192.564 36.8423 195.146 39.4241 198.331 39.4241Z" fill="#3950A2"/>
<path d="M192.564 46.9656C192.559 48.1072 192.893 49.2245 193.524 50.1761C194.154 51.1277 195.053 51.8707 196.106 52.311C197.16 52.7513 198.32 52.8691 199.44 52.6494C200.56 52.4298 201.59 51.8826 202.399 51.0771C203.208 50.2717 203.76 49.2443 203.984 48.125C204.209 47.0058 204.096 45.8451 203.661 44.7899C203.225 43.7348 202.486 42.8327 201.537 42.198C200.588 41.5632 199.472 41.2244 198.331 41.2244C196.806 41.2244 195.343 41.8284 194.262 42.9044C193.181 43.9804 192.571 45.4407 192.564 46.9656Z" fill="#3950A2"/>
<path opacity="0.6" d="M192.564 46.9656C192.559 48.1072 192.893 49.2245 193.524 50.1761C194.154 51.1277 195.053 51.8707 196.106 52.311C197.16 52.7513 198.32 52.8691 199.44 52.6494C200.56 52.4298 201.59 51.8826 202.399 51.0771C203.208 50.2717 203.76 49.2443 203.984 48.125C204.209 47.0058 204.096 45.8451 203.661 44.7899C203.225 43.7348 202.486 42.8327 201.537 42.198C200.588 41.5632 199.472 41.2244 198.331 41.2244C196.806 41.2244 195.343 41.8284 194.262 42.9044C193.181 43.9804 192.571 45.4407 192.564 46.9656Z" fill="white"/>
<path d="M197.738 43.7383C197.737 43.8869 197.78 44.0324 197.862 44.1564C197.944 44.2803 198.061 44.3771 198.198 44.4345C198.335 44.4918 198.486 44.507 198.632 44.4783C198.777 44.4495 198.911 44.3781 199.016 44.273C199.121 44.168 199.193 44.034 199.222 43.8883C199.25 43.7425 199.235 43.5915 199.178 43.4544C199.12 43.3173 199.024 43.2004 198.9 43.1184C198.776 43.0365 198.63 42.9933 198.482 42.9943C198.285 42.9956 198.096 43.0744 197.957 43.2137C197.818 43.3529 197.739 43.5414 197.738 43.7383Z" fill="#3950A2"/>
<path d="M198.789 44.9239L199.161 45.4267C199.388 45.7964 199.721 46.089 200.116 46.2663L200.986 46.6584L200.845 46.9751L199.749 46.7087C199.406 46.618 199.091 46.4455 198.829 46.2059L198.628 48.0359L198.291 48.6442C197.922 49.3132 197.447 49.9177 196.884 50.434L196.577 50.7155L196.673 51.4143L195.878 50.5194L196.054 50.3535C196.784 49.6766 197.358 48.85 197.738 47.9303L198.201 44.6525L198.789 44.9239Z" fill="#3950A2"/>
<path d="M198.864 48.2426L198.431 48.9715L200.487 51.0931L200.985 50.1982L200.417 50.3943L198.864 48.2426Z" fill="#3950A2"/>
<path d="M197.989 44.8242L197.753 45.9202C197.162 46.0711 196.615 46.3567 196.154 46.7547L195.893 46.981L195.697 46.7648L196.506 45.9101C196.729 45.6733 196.98 45.4655 197.255 45.2918L197.989 44.8242Z" fill="#3950A2"/>
<g opacity="0.6">
<path opacity="0.6" d="M198.33 30.8781C198.741 30.8781 199.074 30.545 199.074 30.1341C199.074 29.7231 198.741 29.39 198.33 29.39C197.919 29.39 197.586 29.7231 197.586 30.1341C197.586 30.545 197.919 30.8781 198.33 30.8781Z" fill="white"/>
<path opacity="0.6" d="M197.637 32.0337C197.206 32.4007 196.869 32.8664 196.656 33.3911L196.531 33.6978H196.269L196.425 32.9588C196.515 32.5584 196.671 32.176 196.888 31.8276L197.174 31.3701C197.248 31.254 197.349 31.1584 197.47 31.0925C197.59 31.0265 197.726 30.9923 197.863 30.9931H198.798C198.935 30.9923 199.071 31.0265 199.191 31.0925C199.312 31.1584 199.413 31.254 199.487 31.3701L199.773 31.8276C199.994 32.1739 200.151 32.557 200.236 32.9588L200.397 33.6978H200.13L200.005 33.3911C199.792 32.8664 199.456 32.4007 199.024 32.0337V33.3207L199.728 37.951L200.231 38.2023H199.266L198.305 34.7435L197.37 38.2073H196.41L196.913 37.956L197.622 33.3258V32.0388L197.637 32.0337Z" fill="white"/>
</g>
<path d="M133.313 198.31L123.55 200H9.72461L11.3485 199.693H11.3535L19.4978 198.31H133.313Z" fill="#3950A2"/>
<path d="M152.804 194.927L143.056 196.616H29.3064L39.1148 194.927H152.804Z" fill="#3950A2"/>
<path d="M172.306 191.544L162.558 193.238H48.9238L58.7323 191.544H172.306Z" fill="#3950A2"/>
<path opacity="0.6" d="M133.313 198.31L123.55 200H9.72461L11.3485 199.693H11.3535L19.4978 198.31H133.313Z" fill="white"/>
<path opacity="0.6" d="M152.804 194.927L143.056 196.616H29.3064L39.1148 194.927H152.804Z" fill="white"/>
<path opacity="0.6" d="M172.306 191.544L162.558 193.238H48.9238L58.7323 191.544H172.306Z" fill="white"/>
<path d="M133.135 188.904L128.937 189.351L128.148 180.297L132.346 179.854L133.135 188.904Z" fill="#B97964"/>
<path opacity="0.2" d="M132.346 179.854L128.148 180.297L128.555 184.967L132.758 184.52L132.346 179.854Z" fill="black"/>
<path d="M155.271 171.836L152.22 174.525L145.739 167.673L148.796 164.983L155.271 171.836Z" fill="#B97964"/>
<path opacity="0.2" d="M148.796 164.989L145.744 167.679L149.087 171.208L152.144 168.519L148.796 164.989Z" fill="black"/>
<path d="M136.433 140.219C138.665 147.68 151.782 164.768 151.782 164.768L146.005 170.544C142.667 166.522 133.377 154.527 133.377 154.527C131.707 167.166 134.347 182.721 134.347 182.721L126.152 183.274C121.713 172.766 123.432 153.481 124.408 145.498C124.684 143.241 124.91 141.883 124.91 141.883C123.06 137.861 122.899 130.677 123.377 123.322C124.009 115.145 125.125 107.014 126.72 98.9694L147.835 99.2509C147.694 104.389 147.559 113.137 144.502 120.497C141.445 127.857 136.433 140.219 136.433 140.219Z" fill="#3950A2"/>
<path opacity="0.6" d="M136.433 140.219C138.665 147.68 151.782 164.768 151.782 164.768L146.005 170.544C142.667 166.522 133.377 154.527 133.377 154.527C131.707 167.166 134.347 182.721 134.347 182.721L126.152 183.274C121.713 172.766 123.432 153.481 124.408 145.498C124.684 143.241 124.91 141.883 124.91 141.883C123.06 137.861 122.899 130.677 123.377 123.322C124.009 115.145 125.125 107.014 126.72 98.9694L147.835 99.2509C147.694 104.389 147.559 113.137 144.502 120.497C141.445 127.857 136.433 140.219 136.433 140.219Z" fill="white"/>
<path d="M128.49 188.024H133.432C133.513 188.024 133.592 188.052 133.655 188.104C133.718 188.155 133.762 188.226 133.779 188.305L134.584 191.925C134.615 192.081 134.584 192.243 134.498 192.376C134.411 192.51 134.276 192.604 134.121 192.639C134.076 192.644 134.03 192.644 133.985 192.639C132.387 192.639 131.225 192.518 129.214 192.518C127.978 192.518 124.247 192.644 122.543 192.644C120.839 192.644 120.612 190.96 121.311 190.804C124.443 190.12 126.806 189.175 127.807 188.29C127.993 188.118 128.237 188.023 128.49 188.024Z" fill="#263238"/>
<path d="M127.149 188.713C126.871 188.737 126.594 188.664 126.364 188.507C126.292 188.446 126.236 188.368 126.201 188.281C126.166 188.193 126.153 188.098 126.163 188.004C126.161 187.948 126.176 187.893 126.206 187.846C126.235 187.798 126.278 187.761 126.329 187.738C126.782 187.502 128.094 188.311 128.24 188.401C128.256 188.411 128.269 188.425 128.278 188.442C128.286 188.459 128.288 188.478 128.285 188.497C128.282 188.516 128.274 188.534 128.262 188.548C128.249 188.562 128.233 188.573 128.214 188.577C127.865 188.662 127.508 188.708 127.149 188.713ZM126.54 187.869C126.497 187.869 126.454 187.879 126.415 187.899C126.415 187.899 126.359 187.934 126.354 188.009C126.346 188.073 126.353 188.139 126.376 188.199C126.399 188.26 126.436 188.314 126.485 188.356C126.941 188.564 127.458 188.591 127.933 188.432C127.51 188.155 127.037 187.964 126.54 187.869Z" fill="#3950A2"/>
<path d="M128.184 188.567H128.138C127.721 188.341 126.907 187.446 126.992 187.019C127.006 186.947 127.044 186.883 127.1 186.836C127.156 186.79 127.226 186.763 127.299 186.763C127.372 186.752 127.448 186.757 127.519 186.779C127.59 186.801 127.656 186.838 127.711 186.888C128.179 187.27 128.279 188.442 128.284 188.497C128.285 188.515 128.281 188.532 128.273 188.548C128.265 188.564 128.253 188.577 128.239 188.587C128.219 188.587 128.199 188.58 128.184 188.567ZM127.369 186.918H127.324C127.198 186.918 127.188 186.989 127.183 187.019C127.133 187.28 127.646 187.959 128.068 188.276C128.033 187.809 127.858 187.364 127.565 186.999C127.51 186.952 127.441 186.923 127.369 186.918Z" fill="#3950A2"/>
<path d="M151.485 174.546L155.195 171.278C155.257 171.227 155.335 171.199 155.416 171.199C155.497 171.199 155.575 171.227 155.637 171.278L158.654 173.465C158.781 173.56 158.866 173.702 158.889 173.859C158.913 174.016 158.873 174.177 158.779 174.305L158.689 174.4C157.472 175.441 156.532 176.135 155.024 177.462C154.099 178.282 151.384 180.846 150.102 181.987C148.82 183.128 147.538 181.987 147.96 181.419C149.861 178.835 151.007 176.562 151.163 175.225C151.178 174.966 151.294 174.722 151.485 174.546Z" fill="#263238"/>
<path d="M150.948 175.958C150.756 176.158 150.503 176.286 150.229 176.32C150.13 176.324 150.032 176.303 149.944 176.258C149.856 176.213 149.781 176.146 149.726 176.064C149.689 176.022 149.665 175.971 149.656 175.915C149.647 175.86 149.654 175.804 149.676 175.752C149.857 175.28 151.38 175.018 151.546 174.993C151.564 174.988 151.584 174.989 151.601 174.995C151.619 175.002 151.635 175.013 151.646 175.028C151.656 175.045 151.661 175.064 151.661 175.084C151.661 175.103 151.656 175.122 151.646 175.139C151.445 175.438 151.211 175.713 150.948 175.958ZM149.942 175.727C149.908 175.753 149.881 175.788 149.867 175.828C149.867 175.828 149.867 175.893 149.897 175.953C149.932 176.008 149.98 176.053 150.037 176.084C150.095 176.115 150.159 176.13 150.224 176.129C150.703 175.984 151.108 175.66 151.355 175.224C150.854 175.303 150.373 175.477 149.937 175.737L149.942 175.727Z" fill="#3950A2"/>
<path d="M151.631 175.174L151.596 175.205C151.133 175.31 149.932 175.174 149.71 174.797C149.673 174.735 149.659 174.661 149.671 174.589C149.683 174.517 149.72 174.452 149.776 174.405C149.823 174.348 149.882 174.303 149.949 174.272C150.016 174.24 150.089 174.224 150.163 174.224C150.771 174.224 151.616 175.014 151.671 175.054C151.679 175.069 151.682 175.085 151.682 175.102C151.682 175.118 151.679 175.134 151.671 175.149C151.66 175.162 151.646 175.17 151.631 175.174ZM149.927 174.476L149.896 174.506C149.801 174.586 149.841 174.647 149.856 174.672C149.992 174.903 150.826 175.069 151.364 175.029C151.038 174.699 150.619 174.478 150.163 174.395C150.077 174.39 149.992 174.419 149.927 174.476Z" fill="#3950A2"/>
<path opacity="0.2" d="M138.972 146.392C136.637 149.365 135.172 152.927 134.739 156.683C133.905 155.391 133.377 154.526 133.377 154.526C133.377 154.526 133.679 147.01 136.434 140.218C137.116 142.34 137.965 144.404 138.972 146.392Z" fill="black"/>
<path opacity="0.2" d="M124.438 145.261C124.699 143.144 124.9 141.883 124.9 141.883C124.744 143.436 124.589 144.105 124.438 145.261Z" fill="black"/>
<path opacity="0.2" d="M135.649 106.078C135.377 106.606 126.72 123.564 124.905 141.873C123.935 139.762 123.427 136.786 123.231 133.377C125.514 125.459 129.113 113.257 135.649 106.078Z" fill="black"/>
<path d="M146.764 171.887L153.476 166.226L151.782 164.22L144.713 169.961L146.764 171.887Z" fill="#3950A2"/>
<path opacity="0.6" d="M146.764 171.887L153.476 166.226L151.782 164.22L144.713 169.961L146.764 171.887Z" fill="#3950A2"/>
<g opacity="0.4">
<path opacity="0.4" d="M153.471 166.226L152.883 166.723L150.54 168.704L146.769 171.887L144.713 169.961L145.507 169.323L151.309 164.607L151.782 164.22L153.471 166.226Z" fill="white"/>
<path opacity="0.6" d="M153.471 166.226L152.883 166.723L150.54 168.704L146.769 171.887L144.713 169.961L145.507 169.323L151.309 164.607L151.782 164.22L153.471 166.226Z" fill="white"/>
</g>
<path d="M125.775 184.449L134.819 183.102L134.543 180.598L125.131 181.835L125.775 184.449Z" fill="#3950A2"/>
<path opacity="0.6" d="M125.775 184.449L134.819 183.102L134.543 180.598L125.131 181.835L125.775 184.449Z" fill="#3950A2"/>
<g opacity="0.4">
<path opacity="0.4" d="M125.775 184.449L134.819 183.102L134.543 180.598L125.131 181.835L125.775 184.449Z" fill="white"/>
<path opacity="0.6" d="M125.775 184.449L134.819 183.102L134.543 180.598L125.131 181.835L125.775 184.449Z" fill="white"/>
</g>
<path d="M178.382 30.1643H176.371V51.7821H178.382V30.1643Z" fill="#3950A2"/>
<path d="M160.716 67.9607L167.87 71.0977C168.267 70.9771 172.113 53.9242 172.113 53.9242L175.572 54.1806C175.572 54.1806 173.425 73.0132 170.917 75.4917C168.855 77.5278 159.188 72.1887 159.188 72.1887L160.716 67.9607Z" fill="#B97964"/>
<path d="M144.277 70.3831C144.543 70.3566 144.81 70.3566 145.076 70.3831C147.015 70.6021 148.939 70.9379 150.838 71.3886C153.836 72.0825 156.767 73.0415 159.595 74.2542L161.998 67.3667C161.998 67.3667 148.636 59.9413 145.83 59.9815C145.83 59.9815 142.055 70.72 144.277 70.3831Z" fill="#3950A2"/>
<path opacity="0.2" d="M145.075 70.3831C147.014 70.6021 148.938 70.9379 150.837 71.3886C150.057 68.0203 145.91 65.2653 145.91 65.2653L145.075 70.3831Z" fill="black"/>
<path d="M173.078 51.4097C173.078 51.4097 173.792 49.6752 174.586 49.3987C175.381 49.1222 180.408 48.7954 180.866 49.3434C181.323 49.8914 181.097 53.9183 180.127 54.3708C179.156 54.8233 174.752 54.4362 174.345 54.23L173.078 51.4097Z" fill="#B97964"/>
<path d="M122.548 61.8623C122.548 61.8623 123.186 65.0697 123.965 69.7301C124.317 71.8366 124.694 74.2548 125.061 76.7685C125.061 76.7685 125.061 76.7936 125.061 76.8037C125.509 79.9257 125.931 83.2488 126.248 86.4814C126.59 89.8219 126.758 93.1781 126.751 96.5362H147.901C147.901 96.5362 148.207 91.2825 148.162 84.3749C148.162 81.2127 148.052 77.7086 147.825 74.1995C147.499 69.1218 146.89 64.0391 145.814 59.9921C145.829 59.982 133.387 57.1868 122.548 61.8623Z" fill="#3950A2"/>
<path d="M129.616 59.9511C131.542 61.7006 136.257 61.0521 136.257 61.0521C136.257 61.0521 139.203 60.2477 138.585 59.3277C136.846 59.0411 136.011 58.2317 135.664 57.1961C135.474 56.5541 135.414 55.8807 135.488 55.2153C135.517 54.8443 135.566 54.4751 135.634 54.1093L129.817 49.7706C130.576 52.6413 131.517 57.8848 129.616 59.9511Z" fill="#B97964"/>
<path opacity="0.2" d="M131.165 52.536C131.396 56.0552 134.272 57.0003 135.69 57.1964C135.5 56.5544 135.44 55.881 135.514 55.2156L131.165 52.536Z" fill="black"/>
<path d="M139.631 40.5714C139.631 40.5714 141.295 45.825 138.766 48.3437C136.237 50.8625 134.644 40.8479 134.644 40.8479L139.631 40.5714Z" fill="#263238"/>
<path d="M130.38 52.9581C130.603 53.305 130.861 53.6284 131.15 53.9233C131.887 54.7144 132.864 55.2412 133.931 55.4229C134.997 55.6045 136.094 55.431 137.052 54.9288C138.304 54.3027 139.273 53.2247 139.761 51.9124C139.827 51.7314 139.887 51.5454 139.937 51.3543C140.054 50.8911 140.142 50.421 140.199 49.9467C140.656 46.4627 139.892 41.8224 136.549 40.3947C135.707 40.0383 134.787 39.9035 133.878 40.003C132.969 40.1025 132.1 40.4331 131.355 40.9633C130.609 41.4934 130.012 42.2055 129.62 43.0317C129.228 43.8579 129.053 44.7708 129.113 45.6835C129.244 48.9915 129.209 51.1482 130.38 52.9581Z" fill="#B97964"/>
<path d="M135.021 46.8557C134.996 47.1674 135.182 47.4338 135.393 47.4338C135.605 47.4338 135.77 47.1775 135.775 46.8607C135.78 46.544 135.615 46.2826 135.408 46.2775C135.202 46.2725 135.026 46.5289 135.021 46.8557Z" fill="#263238"/>
<path d="M138.625 46.8998C138.595 47.2165 138.786 47.4779 138.992 47.4779C139.198 47.4779 139.374 47.2215 139.379 46.9048C139.384 46.5881 139.213 46.3267 139.007 46.3267C138.801 46.3267 138.63 46.5981 138.625 46.8998Z" fill="#263238"/>
<path d="M137.479 47.041C137.846 48.0212 138.345 48.9465 138.963 49.791C138.745 49.9403 138.497 50.0409 138.237 50.086C137.977 50.1311 137.71 50.1196 137.454 50.0524L137.479 47.041Z" fill="#D58745"/>
<path d="M133.92 45.6739C133.953 45.6775 133.987 45.673 134.019 45.6608C134.05 45.6485 134.078 45.6289 134.101 45.6035C134.24 45.4144 134.422 45.2604 134.631 45.1539C134.841 45.0474 135.072 44.9914 135.307 44.9902C135.357 44.9942 135.405 44.9784 135.443 44.9464C135.481 44.9143 135.504 44.8686 135.508 44.8192C135.512 44.7699 135.497 44.721 135.464 44.6833C135.432 44.6456 135.387 44.6222 135.337 44.6182C135.044 44.6149 134.754 44.6817 134.492 44.8128C134.23 44.944 134.003 45.1358 133.829 45.3723C133.798 45.4103 133.783 45.4592 133.788 45.5082C133.792 45.5572 133.816 45.6023 133.854 45.6337C133.874 45.6502 133.896 45.6637 133.92 45.6739Z" fill="#263238"/>
<path d="M140.173 45.6782C140.21 45.6883 140.248 45.6883 140.284 45.6782C140.329 45.6575 140.363 45.6199 140.38 45.5737C140.397 45.5276 140.395 45.4765 140.374 45.4319C140.253 45.1603 140.069 44.9216 139.838 44.7353C139.606 44.5491 139.333 44.4208 139.042 44.361C139.018 44.3575 138.993 44.3589 138.969 44.3651C138.945 44.3713 138.922 44.3822 138.903 44.3972C138.883 44.4122 138.867 44.4309 138.854 44.4523C138.842 44.4737 138.834 44.4974 138.831 44.5219C138.826 44.5701 138.84 44.6184 138.868 44.6574C138.897 44.6964 138.939 44.7234 138.987 44.7331C139.217 44.7855 139.431 44.891 139.612 45.0412C139.794 45.1913 139.938 45.382 140.033 45.5978C140.067 45.6418 140.118 45.6707 140.173 45.6782Z" fill="#263238"/>
<path d="M132.029 40.8378L132.301 42.5521C132.014 42.702 131.794 42.9541 131.684 43.2586C131.574 43.563 131.583 43.8975 131.708 44.1961C132.316 45.6238 131.572 47.9063 130.491 48.8414C130.491 48.8414 130.436 48.2129 129.908 48.3788C129.38 48.5447 129.641 51.8125 130.732 53.3409C130.732 53.3409 129.119 51.9835 128.118 48.5749C127.188 45.4278 126.997 42.7834 127.615 41.5366L132.029 40.8378Z" fill="#263238"/>
<path d="M127.686 42.0285C127.686 42.0285 125.941 39.3339 130.637 37.9161C135.333 36.4984 138.6 38.5144 138.6 38.5144C138.6 38.5144 141.652 42.1643 137.595 42.7625C133.608 43.3407 127.686 42.0285 127.686 42.0285Z" fill="#263238"/>
<path d="M137.353 51.2345C137.137 51.7997 136.961 52.3793 136.825 52.9689H136.508C135.065 52.8634 134.427 52.3355 134.165 51.7875C134.04 51.5154 133.983 51.2169 134 50.9178C134.001 50.7475 134.026 50.5782 134.075 50.415C134.809 50.9178 136.146 51.1289 136.865 51.2094C137.157 51.2295 137.353 51.2345 137.353 51.2345Z" fill="#263238"/>
<path d="M137.092 51.2792L136.926 51.7819C135.689 51.7216 134.508 51.3847 134.111 50.9423C134.111 50.7657 134.158 50.5923 134.247 50.4396C135.124 50.9193 136.095 51.2056 137.092 51.2792Z" fill="white"/>
<path d="M136.509 52.949C135.066 52.8434 134.427 52.3156 134.166 51.7676C134.713 51.8189 135.248 51.9652 135.745 52.1999C136.072 52.3634 136.339 52.6254 136.509 52.949Z" fill="#DE5753"/>
<path d="M127.73 48.2023C127.515 48.4071 127.24 48.536 126.945 48.5696C126.65 48.6032 126.352 48.5395 126.096 48.3883C125.282 47.8252 125.719 46.6287 125.719 46.6287C125.414 46.7663 125.07 46.7913 124.748 46.6993C124.426 46.6073 124.146 46.4042 123.96 46.126C123.206 45.1205 124.211 43.9894 124.211 43.9894C123.801 43.8211 123.45 43.534 123.203 43.165C122.957 42.796 122.827 42.3618 122.829 41.9181C122.827 41.7223 122.865 41.5283 122.941 41.348C123.017 41.1676 123.129 41.0046 123.271 40.8691C123.412 40.7335 123.579 40.6282 123.763 40.5596C123.946 40.491 124.141 40.4606 124.337 40.4702C124.12 40.3934 123.923 40.2694 123.76 40.1072C123.597 39.9449 123.472 39.7484 123.394 39.532C123.316 39.3155 123.287 39.0844 123.309 38.8554C123.331 38.6264 123.404 38.4053 123.522 38.2079C124.337 36.574 125.845 37.5794 125.845 37.5794C125.845 37.5794 124.779 35.3171 126.413 34.6284C126.61 34.5212 126.826 34.4556 127.049 34.4358C127.272 34.4159 127.496 34.4422 127.709 34.5129C127.921 34.5837 128.116 34.6974 128.283 34.847C128.449 34.9966 128.583 35.1789 128.676 35.3825C128.676 35.3825 128.484 33.1201 130.621 32.8688C132.758 32.6174 133.009 34.1859 133.009 34.1859C133.009 34.1859 134.08 32.175 135.649 32.6777C135.85 32.7214 136.04 32.8059 136.207 32.9259C136.375 33.046 136.516 33.199 136.622 33.3757C136.728 33.5523 136.797 33.7488 136.824 33.953C136.851 34.1572 136.836 34.3648 136.78 34.563C137.189 34.3709 137.646 34.3042 138.094 34.3712C138.541 34.4383 138.958 34.6362 139.293 34.9401C140.49 36.0109 139.484 36.951 139.484 36.951C139.484 36.951 140.927 36.8253 141.179 38.5246C141.43 40.2238 140.425 40.2188 140.425 40.2188C140.762 40.3673 141.045 40.6156 141.237 40.9303C141.428 41.2449 141.518 41.6108 141.495 41.9784C141.43 43.3006 140.55 43.1096 140.55 43.1096C140.815 43.3094 141.016 43.5825 141.128 43.8952C141.24 44.2079 141.257 44.5465 141.179 44.8691C140.867 45.94 140.113 45.8143 140.113 45.8143C140.113 45.8143 139.359 42.9839 138.479 42.1041C137.599 41.2243 131.124 42.1041 131.124 42.1041L130.309 46.7544L127.73 48.2023Z" fill="#263238"/>
<path d="M126.987 48.9266C127.41 49.8179 128.169 50.5049 129.098 50.837C130.33 51.2643 131.034 50.1834 130.762 48.9718C130.511 47.901 129.576 46.3526 128.304 46.4581C127.032 46.5637 126.484 47.8256 126.987 48.9266Z" fill="#B97964"/>
<path d="M126.364 96.5256H148.218V99.1449L126.147 98.8634L126.364 96.5256Z" fill="#263238"/>
<path d="M141.863 95.4602H141.089V100.05H141.863V95.4602Z" fill="#3950A2"/>
<path d="M130.114 95.3951H129.34V99.9851H130.114V95.3951Z" fill="#3950A2"/>
<path d="M137.78 96.1083H133.759V99.0041H137.78V96.1083Z" fill="white"/>
<path opacity="0.6" d="M141.863 95.4602H141.089V100.05H141.863V95.4602Z" fill="white"/>
<path opacity="0.6" d="M130.114 95.3951H129.34V99.9851H130.114V95.3951Z" fill="white"/>
<path d="M120.517 83.8825C120.517 83.8825 119.747 89.5182 115.313 92.8514C110.879 96.1846 98.1096 91.9012 98.1096 91.9012L96.0986 88.1005C96.0986 88.1005 110.562 90.2874 112.146 89.2317C113.73 88.1759 115.162 83.5055 115.162 83.5055L120.517 83.8825Z" fill="#B97964"/>
<path d="M125.429 75.9132C125.429 75.9132 123.749 78.9297 120.105 87.8633L113.529 85.1134C113.529 85.1134 121.196 63.3347 122.548 61.8617C122.548 61.8617 124.906 62.7817 125.429 75.9132Z" fill="#3950A2"/>
<path d="M171.509 53.9842C171.509 53.9842 170.941 55.0601 172.087 55.3667C173.233 55.6734 174.737 55.9851 174.737 55.9851C174.737 55.9851 175.998 56.2717 176.119 55.3667L176.24 54.4668C176.24 54.4668 180.111 54.9042 180.463 53.9641C180.815 53.024 181.689 49.9422 180.85 49.2987C180.01 48.6552 177.627 48.3787 176.622 48.3737C176.546 48.1791 176.43 48.0024 176.282 47.8548C176.135 47.7072 175.958 47.592 175.763 47.5164C175.568 47.4407 175.36 47.4064 175.151 47.4155C174.942 47.4246 174.738 47.477 174.551 47.5693C173.093 48.263 171.509 53.9842 171.509 53.9842Z" fill="#3950A2"/>
<path opacity="0.6" d="M171.509 53.9842C171.509 53.9842 170.941 55.0601 172.087 55.3667C173.233 55.6734 174.737 55.9851 174.737 55.9851C174.737 55.9851 175.998 56.2717 176.119 55.3667L176.24 54.4668C176.24 54.4668 180.111 54.9042 180.463 53.9641C180.815 53.024 181.689 49.9422 180.85 49.2987C180.01 48.6552 177.627 48.3787 176.622 48.3737C176.546 48.1791 176.43 48.0024 176.282 47.8548C176.135 47.7072 175.958 47.592 175.763 47.5164C175.568 47.4407 175.36 47.4064 175.151 47.4155C174.942 47.4246 174.738 47.477 174.551 47.5693C173.093 48.263 171.509 53.9842 171.509 53.9842Z" fill="white"/>
<path d="M136.187 101.05H125.091C125.714 92.9307 125.697 84.7746 125.041 76.6575C125.041 76.6575 128.831 75.9989 127.253 69.7147C125.674 63.4304 124.87 60.5849 124.87 60.5849L128.776 59.4437C128.776 59.4437 128.354 63.7019 134.643 63.6164C134.643 63.6164 136.971 89.9901 136.187 101.05Z" fill="#3950A2"/>
<path opacity="0.2" d="M136.187 101.05H125.091C125.714 92.9307 125.697 84.7746 125.041 76.6575C125.041 76.6575 128.831 75.9989 127.253 69.7147C125.674 63.4304 124.87 60.5849 124.87 60.5849L128.776 59.4437C128.776 59.4437 128.354 63.7019 134.643 63.6164C134.643 63.6164 136.971 89.9901 136.187 101.05Z" fill="black"/>
<path d="M135.317 63.6616C135.317 63.6616 140.149 62.9075 139.369 58.8202C139.369 58.8202 141.551 59.0414 143.567 59.152C143.567 59.152 145.779 67.6081 145.991 71.3535C145.991 71.3535 146.247 73.7264 148.172 73.5957C148.172 73.5957 148.947 89.4269 148.675 101.05H136.906C136.906 101.05 137.353 85.4653 135.317 63.6616Z" fill="#3950A2"/>
<path opacity="0.2" d="M135.317 63.6616C135.317 63.6616 140.149 62.9075 139.369 58.8202C139.369 58.8202 141.551 59.0414 143.567 59.152C143.567 59.152 145.779 67.6081 145.991 71.3535C145.991 71.3535 146.247 73.7264 148.172 73.5957C148.172 73.5957 148.947 89.4269 148.675 101.05H136.906C136.906 101.05 137.353 85.4653 135.317 63.6616Z" fill="black"/>
<path d="M137.795 67.1912C137.795 67.1912 135.116 67.6487 133.573 67.694C132.029 67.7392 132.532 68.6441 132.567 69.3429C132.602 70.0417 132.773 70.8512 133.864 70.7406C134.955 70.63 137.142 70.5143 137.795 70.3585C138.449 70.2026 139.253 70.0769 138.942 68.9458C138.63 67.8146 138.751 67.0354 137.795 67.1912Z" fill="#3950A2"/>
<path d="M139.013 87.5772C139.013 87.5772 136.293 87.6878 134.76 87.5772C133.226 87.4666 133.603 88.3866 133.568 89.0854C133.533 89.7842 133.568 90.5937 134.679 90.6389C135.79 90.6841 137.957 90.8299 138.621 90.7646C139.284 90.6992 140.129 90.6691 139.943 89.5077C139.757 88.3464 139.978 87.5471 139.013 87.5772Z" fill="#3950A2"/>
<path opacity="0.6" d="M139.013 87.5772C139.013 87.5772 136.293 87.6878 134.76 87.5772C133.226 87.4666 133.603 88.3866 133.568 89.0854C133.533 89.7842 133.568 90.5937 134.679 90.6389C135.79 90.6841 137.957 90.8299 138.621 90.7646C139.284 90.6992 140.129 90.6691 139.943 89.5077C139.757 88.3464 139.978 87.5471 139.013 87.5772Z" fill="white"/>
<path d="M138.519 77.8442C138.519 77.8442 135.81 78.1056 134.271 78.0503C132.733 77.995 133.16 78.92 133.16 79.6189C133.16 80.3177 133.256 81.1271 134.357 81.1271C135.458 81.1271 137.64 81.1271 138.303 81.0416C138.967 80.9561 139.781 80.8656 139.55 79.7144C139.319 78.5631 139.485 77.7638 138.519 77.8442Z" fill="#3950A2"/>
<path opacity="0.6" d="M138.519 77.8442C138.519 77.8442 135.81 78.1056 134.271 78.0503C132.733 77.995 133.16 78.92 133.16 79.6189C133.16 80.3177 133.256 81.1271 134.357 81.1271C135.458 81.1271 137.64 81.1271 138.303 81.0416C138.967 80.9561 139.781 80.8656 139.55 79.7144C139.319 78.5631 139.485 77.7638 138.519 77.8442Z" fill="white"/>
<path opacity="0.6" d="M137.795 67.1912C137.795 67.1912 135.116 67.6487 133.573 67.694C132.029 67.7392 132.532 68.6441 132.567 69.3429C132.602 70.0417 132.773 70.8512 133.864 70.7406C134.955 70.63 137.142 70.5143 137.795 70.3585C138.449 70.2026 139.253 70.0769 138.942 68.9458C138.63 67.8146 138.751 67.0354 137.795 67.1912Z" fill="white"/>
<path opacity="0.2" d="M178.382 30.1643V34.8297L176.371 35.5436V30.1643H177.99H178.382Z" fill="black"/>
<path d="M167.322 20.4665C167.356 22.4846 167.985 24.4476 169.131 26.1092C170.276 27.7708 171.888 29.0567 173.762 29.8055C175.636 30.5543 177.69 30.7326 179.665 30.3179C181.64 29.9033 183.449 28.9142 184.864 27.475C186.279 26.0357 187.237 24.2104 187.618 22.2284C187.999 20.2463 187.786 18.1959 187.005 16.3347C186.224 14.4734 184.911 12.8844 183.23 11.7671C181.549 10.6498 179.576 10.0541 177.558 10.0548C174.82 10.0787 172.204 11.1889 170.284 13.1414C168.365 15.0938 167.299 17.7287 167.322 20.4665Z" fill="#3950A2"/>
<path opacity="0.6" d="M167.322 20.4665C167.356 22.4846 167.985 24.4476 169.131 26.1092C170.276 27.7708 171.888 29.0567 173.762 29.8055C175.636 30.5543 177.69 30.7326 179.665 30.3179C181.64 29.9033 183.449 28.9142 184.864 27.475C186.279 26.0357 187.237 24.2104 187.618 22.2284C187.999 20.2463 187.786 18.1959 187.005 16.3347C186.224 14.4734 184.911 12.8844 183.23 11.7671C181.549 10.6498 179.576 10.0541 177.558 10.0548C174.82 10.0787 172.204 11.1889 170.284 13.1414C168.365 15.0938 167.299 17.7287 167.322 20.4665Z" fill="white"/>
<path d="M184.918 18.6011H170.338V22.623H184.918V18.6011Z" fill="white"/>
<path d="M66.0206 97.0291L54.709 113.619L58.4795 117.139L70.5452 99.7942L74.5672 92.0017V74.4059L66.0206 97.0291Z" fill="#3950A2"/>
<path d="M76.0662 188.542L71.989 188.969L71.2249 180.177L75.3021 179.744L76.0662 188.542Z" fill="#B97964"/>
<path d="M96.4167 188.246H92.4652L92.1384 179.091H96.095L96.4167 188.246Z" fill="#B97964"/>
<path d="M91.9124 187.789H96.7136C96.7924 187.788 96.869 187.815 96.9304 187.864C96.9918 187.914 97.0342 187.983 97.0504 188.06L97.8296 191.579C97.8458 191.665 97.8431 191.752 97.8216 191.837C97.8001 191.921 97.7604 191.999 97.7052 192.066C97.6501 192.134 97.5808 192.188 97.5024 192.225C97.424 192.263 97.3384 192.282 97.2515 192.283C95.698 192.258 94.5669 192.162 92.6162 192.162C91.4147 192.162 87.79 192.288 86.1309 192.288C84.4719 192.288 84.2557 190.649 84.9344 190.498C87.981 189.835 90.2735 188.915 91.2488 188.04C91.4292 187.874 91.667 187.784 91.9124 187.789Z" fill="#263238"/>
<path d="M71.5562 187.662H76.3574C76.4362 187.662 76.5128 187.688 76.5742 187.738C76.6356 187.787 76.678 187.857 76.6942 187.934L77.4734 191.453C77.4896 191.538 77.4869 191.626 77.4654 191.71C77.4439 191.794 77.4042 191.873 77.349 191.94C77.2939 192.007 77.2247 192.061 77.1463 192.099C77.0678 192.136 76.9822 192.156 76.8953 192.157C75.3418 192.132 74.2107 192.036 72.26 192.036C71.0585 192.036 67.4338 192.162 65.7747 192.162C64.1157 192.162 63.8995 190.523 64.5782 190.372C67.6248 189.708 69.9173 188.788 70.8926 187.914C71.073 187.747 71.3108 187.657 71.5562 187.662Z" fill="#263238"/>
<path opacity="0.2" d="M75.3021 179.744L71.2249 180.177L71.622 184.711L75.6992 184.284L75.3021 179.744Z" fill="black"/>
<path opacity="0.2" d="M96.095 179.096H92.1384L92.3094 183.817H96.2659L96.095 179.096Z" fill="black"/>
<path d="M97.7232 182.997H90.4938C90.4938 182.997 86.5876 159.187 84.7626 148.308C84.0186 143.884 83.1639 135.568 82.44 127.751L82.3947 127.856C80.8865 131.426 79.7755 136.458 78.9711 142.024C76.4574 159.348 76.8344 181.85 76.8344 181.85L69.7358 182.66C65.2664 152.898 71.4903 119.652 73.4862 110.1H94.4605C94.4906 112.613 94.8124 137.926 95.5615 149.544C96.2452 160.258 97.7232 182.997 97.7232 182.997Z" fill="#263238"/>
<path opacity="0.2" d="M82.4408 127.736L82.3956 127.841C80.8874 131.411 79.7763 136.443 78.972 142.008C78.796 142.838 78.6452 143.517 78.5446 144.019C77.7101 129.188 81.7923 118.38 81.7923 118.38L82.4408 127.736Z" fill="black"/>
<path d="M68.9173 184.214L77.7052 182.906L77.4388 180.473L68.2939 181.67L68.9173 184.214Z" fill="#3950A2"/>
<path d="M68.9173 184.214L77.7052 182.906L77.4388 180.473L68.2939 181.67L68.9173 184.214Z" fill="#3950A2"/>
<path d="M89.6247 183.058H98.1512V180.509L89.303 180.343L89.6247 183.058Z" fill="#3950A2"/>
<path d="M89.6247 183.058H98.1512V180.509L89.303 180.343L89.6247 183.058Z" fill="#3950A2"/>
<path d="M73.3104 109.598H94.4254V112.403L73.0439 111.865L73.3104 109.598Z" fill="#263238"/>
<path d="M87.6379 109.245H86.8838V113.111H87.6379V109.245Z" fill="#3950A2"/>
<path d="M76.9548 109.245H76.2007V113.111H76.9548V109.245Z" fill="#3950A2"/>
<path d="M82.9324 109.843H79.0261V112.281H82.9324V109.843Z" fill="white"/>
<path d="M54.8406 119.733V119.763L53.2972 126.585L42.2168 175.457L37.7324 195.269C37.6721 195.425 37.5816 195.868 36.6616 195.868H36.5258C36.3544 195.868 36.1848 195.833 36.028 195.763C35.8713 195.694 35.7308 195.593 35.6159 195.465C35.4913 195.27 35.4447 195.035 35.4852 194.807L40.1003 174.883L51.3968 126.465L53.2017 118.697V118.647C53.2017 118.501 53.3374 117.762 54.0412 117.762C54.2234 117.765 54.4043 117.792 54.5792 117.843C54.6515 117.859 54.7192 117.892 54.7775 117.938C54.8357 117.984 54.883 118.043 54.916 118.109C55.0637 118.645 55.0373 119.213 54.8406 119.733Z" fill="#263238"/>
<path d="M41.7137 175.456L37.2292 195.269C37.1689 195.425 37.0784 195.867 36.1584 195.867H36.0227C35.8512 195.868 35.6816 195.832 35.5249 195.763C35.3681 195.694 35.2277 195.592 35.1127 195.465C34.9882 195.27 34.9415 195.035 34.982 194.807L39.6273 174.858C40.2548 175.245 40.9765 175.452 41.7137 175.456Z" fill="#3950A2"/>
<path d="M54.8403 119.733V119.763L53.2014 126.907C52.5176 126.907 52.03 127.088 51.3865 126.439L53.2014 118.697V118.647C53.2014 118.501 53.3371 117.762 54.0409 117.762C54.2231 117.765 54.404 117.792 54.5789 117.843C54.6512 117.859 54.7189 117.892 54.7772 117.938C54.8354 117.984 54.8827 118.043 54.9157 118.109C55.0634 118.645 55.037 119.213 54.8403 119.733Z" fill="#3950A2"/>
<path opacity="0.6" d="M54.8403 119.733V119.763L53.2014 126.907C52.5176 126.907 52.03 127.088 51.3865 126.439L53.2014 118.697V118.647C53.2014 118.501 53.3371 117.762 54.0409 117.762C54.2231 117.765 54.404 117.792 54.5789 117.843C54.6512 117.859 54.7189 117.892 54.7772 117.938C54.8354 117.984 54.8827 118.043 54.9157 118.109C55.0634 118.645 55.037 119.213 54.8403 119.733Z" fill="white"/>
<path d="M105.245 124.121C104.298 123.253 103.045 122.795 101.761 122.848C100.477 122.9 99.266 123.46 98.393 124.403C97.2518 125.448 95.824 127.313 94.8437 130.521C92.9785 136.619 93.2701 149.504 104.396 147.961C112.485 146.845 111.947 128.862 105.245 124.121ZM104.893 125.991C105.562 126.808 105.909 127.842 105.869 128.897C105.924 133.221 99.5493 133.924 98.2774 130.953C97.3574 128.787 97.9204 127.298 98.8455 126.308C98.941 126.207 99.0365 126.117 99.132 126.026C100.293 124.996 103.707 124.634 104.893 125.991Z" fill="#3950A2"/>
<path opacity="0.2" d="M107.558 134.04C107.518 133.94 106.869 129.395 105.884 131.657C104.898 133.92 102.41 133.729 99.7654 133.668C97.121 133.608 99.4537 140.39 97.7243 134.674C95.9948 128.958 98.8253 126.354 98.8253 126.354L98.8605 126.318C97.9354 127.324 97.3522 128.797 98.2924 130.964C99.5643 133.95 105.939 133.231 105.884 128.907C105.924 127.852 105.577 126.819 104.908 126.002C107.849 128.641 107.819 134.634 107.558 134.04Z" fill="black"/>
<path d="M54.7097 113.62C54.7097 113.62 52.6983 114.68 52.1101 115.847C51.9431 116.209 51.8567 116.604 51.8567 117.003C51.8567 117.402 51.9431 117.797 52.1101 118.159C51.9807 118.354 51.9306 118.591 51.9698 118.822C52.009 119.053 52.1347 119.26 52.3212 119.401C52.9899 120.04 51.6626 121.97 52.3715 122.694C53.0804 123.418 52.4871 122.694 52.4871 122.694C52.4871 122.694 53.1206 123.272 54.0406 121.286C54.9606 119.301 54.2718 122.211 54.2718 122.211C54.3478 122.431 54.5043 122.613 54.7097 122.721C54.9151 122.83 55.1539 122.856 55.3779 122.795C56.3029 122.669 54.9606 121.623 55.7549 120.447C56.5493 119.27 57.992 119.13 58.731 116.888L54.7097 113.62Z" fill="#B97964"/>
<path d="M105.244 124.122C105.265 124.766 105.151 125.406 104.907 126.002C104.128 127.797 102.202 128.013 101.192 128.013C100.297 128.013 99.6084 127.008 99.181 126.053V126.017C98.9487 125.517 98.7571 125 98.6079 124.469C98.5458 124.445 98.4853 124.416 98.4269 124.383C96.7528 123.499 98.8894 121.091 99.8698 120.11C100.131 119.849 100.312 119.688 100.312 119.688L104.475 120.191C104.525 120.336 104.575 120.482 104.621 120.623C105.008 121.75 105.218 122.931 105.244 124.122Z" fill="#B97964"/>
<path d="M97.9444 74.5008L97.7886 75.4108C97.7433 75.6873 97.688 76.0241 97.6277 76.4163C97.5171 77.1 97.3814 77.9496 97.2305 78.93C97.0948 79.8299 96.944 80.8454 96.7831 81.9464C96.7831 82.0972 96.7379 82.248 96.7177 82.3989C96.6976 82.5497 96.6574 82.8463 96.6222 83.0776C96.5166 83.8417 96.4111 84.6361 96.3005 85.4656L96.1698 86.4711C96.0642 87.2855 95.9586 88.1251 95.853 88.9847C95.853 89.1456 95.8178 89.3065 95.7977 89.4875C95.7977 89.4875 95.7977 89.5126 95.7977 89.5227C95.6972 90.3421 95.6017 91.1767 95.5112 92.0364C95.4207 92.8961 95.3201 93.801 95.2347 94.6908C95.2347 94.8115 95.2095 94.9321 95.1995 95.0528L95.109 96.0583C95.0336 96.8979 94.9632 97.7374 94.8978 98.572C94.8978 98.7932 94.8626 99.0093 94.8476 99.2255C94.8023 99.8891 94.7872 100.694 94.7973 101.588C94.8073 102.483 94.8425 103.549 94.8878 104.605C94.8878 104.937 94.923 105.273 94.9431 105.61C94.9883 106.45 95.0436 107.3 95.0939 108.124C95.1643 109.195 95.2347 110.22 95.295 111.14C95.3603 112.146 95.4157 113.006 95.4408 113.654H71.7417C71.7417 113.654 71.8724 112.684 72.0433 111.14C72.1389 110.291 72.2444 109.26 72.35 108.124C72.4254 107.33 72.4958 106.485 72.5612 105.61C72.5863 105.279 72.6064 104.942 72.6315 104.605C72.6969 103.599 72.7522 102.594 72.7924 101.588C72.8326 100.583 72.8527 99.5523 72.8527 98.572C72.8527 98.2552 72.8527 97.9435 72.8527 97.6369C72.8527 97.1341 72.8527 96.5912 72.8527 96.0583C72.8527 95.7265 72.8527 95.3896 72.8527 95.0528C72.8527 94.0473 72.8527 93.0418 72.8527 92.0364C72.8527 91.0309 72.8829 90.0254 72.9181 89.0199C72.9181 88.5172 72.9483 87.9843 72.9684 87.4665C72.9684 87.1397 72.9935 86.823 73.0086 86.5062C73.0237 86.1895 73.0388 85.8326 73.0538 85.5008C73.1091 84.2791 73.1745 83.1077 73.26 81.9816C73.3404 80.946 73.4359 79.9455 73.5566 78.9652C73.6622 78.1155 73.7878 77.281 73.9336 76.4515C73.999 76.1146 74.0593 75.7778 74.1297 75.446C74.2001 75.1142 74.3057 74.6416 74.4012 74.2394C74.366 74.2042 87.9198 72.2335 97.9444 74.5008Z" fill="#3950A2"/>
<path opacity="0.2" d="M96.5976 83.0773C96.3311 85.0229 96.0446 87.1897 95.7731 89.4721C95.7731 89.4721 95.7731 89.4972 95.7731 89.5073C95.572 91.1864 95.3809 92.9159 95.21 94.6553L95.1195 95.4145C92.1333 90.2212 93.8174 80.7898 93.8174 80.7898L96.5976 83.0773Z" fill="black"/>
<g opacity="0.2">
<path opacity="0.2" d="M95.2652 111.105H72.0437C72.1392 110.256 72.2448 109.225 72.3504 108.089H95.0641C95.1345 109.16 95.2049 110.185 95.2652 111.105Z" fill="black"/>
<path opacity="0.2" d="M94.9286 105.576H72.5618C72.5869 105.244 72.607 104.907 72.6322 104.57H94.8582C94.8783 104.902 94.8934 105.239 94.9286 105.576Z" fill="black"/>
<path opacity="0.2" d="M94.8182 99.191C94.773 99.8546 94.7579 100.659 94.768 101.554H72.8083C72.8486 100.548 72.8687 99.5178 72.8687 98.5375H94.8836C94.8484 98.7587 94.8333 98.9749 94.8182 99.191Z" fill="black"/>
<path opacity="0.2" d="M95.1702 95.0173L95.0797 96.0228H72.8083C72.8083 95.691 72.8083 95.3542 72.8083 95.0173H95.1702Z" fill="black"/>
<path opacity="0.2" d="M95.8287 88.9847C95.8287 89.1456 95.7936 89.3065 95.7734 89.4875C95.7734 89.4875 95.7734 89.5126 95.7734 89.5227C95.6729 90.3421 95.5774 91.1767 95.4869 92.0364H72.8083C72.8083 91.0309 72.8301 90.0254 72.8737 89.0199L95.8287 88.9847Z" fill="black"/>
<path opacity="0.2" d="M96.2761 85.4658L96.1453 86.4713H72.9741C72.9741 86.1294 73.0043 85.7976 73.0194 85.4658H96.2761Z" fill="black"/>
<path opacity="0.2" d="M97.2062 78.9299C97.0705 79.8298 96.9197 80.8454 96.7588 81.9464H73.2256C73.306 80.9107 73.4015 79.9103 73.5222 78.9299H97.2062Z" fill="black"/>
<path opacity="0.2" d="M97.7632 75.411C97.718 75.6875 97.6627 76.0243 97.6023 76.4165H73.8982C73.9635 76.0796 74.0239 75.7428 74.0943 75.411H97.7632Z" fill="black"/>
</g>
<path d="M106.492 95.5803C105.295 91.4428 101.012 80.1211 99.046 75.1943C98.8248 74.6463 97.94 74.4955 97.94 74.4955C92.797 75.6065 93.2796 84.5 93.2796 84.5C95.0644 85.5055 99.6493 97.5712 99.6493 97.5712C99.6493 97.5712 102.123 103.101 101.66 105.384C101.198 107.666 99.0159 120.039 99.0159 120.039L105.888 120.788C105.888 120.788 106.859 114.478 107.542 108.124C108.226 101.769 108.236 101.553 106.492 95.5803Z" fill="#3950A2"/>
<path d="M89.801 73.4861C88.3933 77.0807 84.2105 76.9047 84.2105 76.9047C84.2105 76.9047 80.2539 77.0103 80.812 73.6118C82.4559 73.2247 83.2402 72.4153 83.5469 71.4148C83.5609 71.3736 83.5727 71.3317 83.5821 71.2891C83.7321 70.6285 83.7457 69.9443 83.6223 69.2782C83.572 68.9162 83.4916 68.5492 83.4061 68.1872L84.4116 67.3175L85.0249 66.8148L88.9161 63.5017C88.6354 64.9512 88.4673 66.4202 88.4134 67.8957C88.4134 68.0465 88.4134 68.1923 88.4134 68.3381C88.3932 69.1792 88.4487 70.0205 88.5793 70.8518C88.686 71.8402 89.1154 72.7661 89.801 73.4861Z" fill="#B97964"/>
<path opacity="0.2" d="M88.931 63.5017C88.6502 64.9512 88.4822 66.4202 88.4282 67.8956C88.4282 68.0465 88.4282 68.1923 88.4282 68.3381C87.4931 70.4898 85.1705 71.1283 83.5768 71.4148C83.5909 71.3736 83.6026 71.3317 83.612 71.2891C83.762 70.6285 83.7757 69.9443 83.6522 69.2782C83.6019 68.9162 83.5215 68.5492 83.436 68.1872L84.4415 67.3175L85.0549 66.8148L88.931 63.5017Z" fill="black"/>
<path d="M78.5746 55.1053C78.5746 55.1053 77.4836 60.5047 80.2738 62.7369C83.064 64.9691 83.5467 54.8389 83.5467 54.8389L78.5746 55.1053Z" fill="#E0E0E0"/>
<path d="M89.1076 66.4217C88.9239 66.79 88.7033 67.1387 88.449 67.4624C87.8006 68.3287 86.8857 68.9581 85.845 69.2542C84.8042 69.5503 83.695 69.4966 82.6877 69.1013C81.3744 68.6169 80.2955 67.6495 79.6712 66.3966C79.5858 66.2257 79.5053 66.0447 79.4349 65.8637C79.2672 65.4159 79.1295 64.9574 79.0227 64.4912C78.1932 61.0776 78.4496 56.382 81.6219 54.6225C82.419 54.1746 83.3175 53.9381 84.2319 53.9356C85.1463 53.933 86.0461 54.1645 86.8458 54.6079C87.6454 55.0513 88.3183 55.6919 88.8005 56.4689C89.2826 57.2458 89.558 58.1332 89.6003 59.0466C89.8115 62.3395 90.0779 64.4962 89.1076 66.4217Z" fill="#B97964"/>
<path d="M83.8386 60.8316C83.8989 61.1433 83.7431 61.4248 83.5319 61.45C83.3208 61.4751 83.1247 61.2338 83.0845 60.9221C83.0443 60.6104 83.1851 60.3289 83.3912 60.3037C83.5973 60.2786 83.7934 60.53 83.8386 60.8316Z" fill="#263238"/>
<path d="M80.2584 61.2895C80.3187 61.6012 80.1579 61.8828 79.9517 61.9029C79.7456 61.923 79.5495 61.6917 79.5093 61.4001C79.4691 61.1085 79.6099 60.8069 79.816 60.7868C80.0221 60.7667 80.2232 60.9879 80.2584 61.2895Z" fill="#263238"/>
<path d="M81.4153 61.3047C81.1547 62.3175 80.7572 63.29 80.2339 64.1954C80.47 64.3241 80.7312 64.3997 80.9995 64.417C81.2678 64.4344 81.5367 64.3931 81.7873 64.296L81.4153 61.3047Z" fill="#B97964"/>
<path d="M84.4117 58.7208C84.3825 58.7371 84.3496 58.7456 84.3162 58.7456C84.2827 58.7456 84.2498 58.7371 84.2206 58.7208C84.0171 58.6029 83.7888 58.5341 83.554 58.5202C83.3192 58.5062 83.0843 58.5474 82.8683 58.6404C82.8247 58.6623 82.7743 58.6667 82.7276 58.6526C82.6808 58.6386 82.6412 58.6072 82.6169 58.5649C82.6047 58.5436 82.597 58.5201 82.5942 58.4957C82.5914 58.4713 82.5936 58.4466 82.6006 58.4231C82.6077 58.3995 82.6195 58.3777 82.6352 58.3589C82.651 58.3401 82.6704 58.3247 82.6923 58.3136C82.9621 58.1896 83.2577 58.1322 83.5543 58.1462C83.8508 58.1602 84.1397 58.2452 84.3966 58.394C84.4398 58.4175 84.4722 58.4568 84.4872 58.5036C84.5022 58.5504 84.4986 58.6012 84.4771 58.6454L84.4117 58.7208Z" fill="#263238"/>
<path d="M84.145 64.9545C84.13 64.9847 84.1071 65.0104 84.0789 65.029C84.0506 65.0475 84.0179 65.0582 83.9842 65.06C83.7496 65.0626 83.5188 65.1198 83.3103 65.2271C83.1017 65.3345 82.921 65.489 82.7826 65.6784C82.7698 65.6992 82.7529 65.7173 82.7331 65.7316C82.7132 65.7459 82.6908 65.7562 82.6669 65.7618C82.6431 65.7674 82.6184 65.7682 82.5943 65.7643C82.5701 65.7603 82.547 65.7516 82.5262 65.7387C82.5052 65.7268 82.4867 65.7107 82.472 65.6915C82.4572 65.6723 82.4465 65.6503 82.4404 65.6269C82.4343 65.6034 82.433 65.579 82.4365 65.555C82.44 65.5311 82.4483 65.5081 82.4609 65.4874C82.6305 65.244 82.8559 65.0449 83.1183 64.9067C83.3808 64.7685 83.6725 64.6952 83.9691 64.693C83.9933 64.691 84.0176 64.6938 84.0407 64.7014C84.0637 64.7089 84.0851 64.721 84.1033 64.7369C84.1216 64.7529 84.1365 64.7724 84.1472 64.7942C84.1578 64.816 84.1639 64.8397 84.1651 64.864C84.1658 64.8953 84.1589 64.9263 84.145 64.9545Z" fill="#263238"/>
<path d="M78.6246 58.8563C78.5865 58.851 78.5512 58.8333 78.524 58.806C78.4975 58.7646 78.4884 58.7144 78.4988 58.6664C78.5092 58.6184 78.5381 58.5764 78.5793 58.5496C78.8274 58.3858 79.111 58.2834 79.4065 58.2511C79.702 58.2187 80.001 58.2573 80.2786 58.3636C80.3232 58.3844 80.358 58.4217 80.3758 58.4676C80.3936 58.5135 80.393 58.5645 80.3741 58.6099C80.3533 58.6545 80.316 58.6894 80.2701 58.7072C80.2242 58.7249 80.1732 58.7243 80.1278 58.7055C79.9059 58.6259 79.6684 58.5994 79.4344 58.6283C79.2004 58.6571 78.9764 58.7403 78.7804 58.8714C78.7549 58.8803 78.7278 58.8836 78.7009 58.881C78.6739 58.8784 78.6479 58.87 78.6246 58.8563Z" fill="#263238"/>
<path d="M86.1604 54.5468L86.075 56.2812C86.376 56.3989 86.6218 56.6256 86.7634 56.9162C86.905 57.2068 86.932 57.5401 86.8391 57.8497C86.3917 59.358 87.377 61.5248 88.5535 62.3342C88.5535 62.3342 88.5534 61.7058 89.0813 61.8314C89.6092 61.9571 89.7198 65.2149 88.7998 66.8588C88.7998 66.8588 90.2577 65.3506 90.8862 61.8314C91.4693 58.6039 91.3889 55.9544 90.6348 54.7931L86.1604 54.5468Z" fill="#E0E0E0"/>
<path d="M85.2808 60.7566C85.2823 61.2292 85.0982 61.6836 84.7683 62.022C84.4383 62.3604 83.9888 62.5559 83.5162 62.5664H83.4659C83.4108 62.5714 83.3552 62.5714 83.3 62.5664C83.1488 62.5555 82.9999 62.5234 82.8576 62.4709C82.698 62.4174 82.5485 62.3375 82.4152 62.2346C82.1829 62.058 81.9948 61.8298 81.8657 61.5681C81.7366 61.3064 81.67 61.0182 81.6712 60.7264C81.6683 60.2403 81.8553 59.7722 82.1925 59.422C82.5296 59.0717 82.9901 58.8669 83.476 58.8512C83.6489 58.8706 83.8182 58.9147 83.9787 58.9819C84.1266 59.0312 84.267 59.1005 84.396 59.188C84.4571 59.2259 84.5144 59.2697 84.5669 59.3187C84.7871 59.4886 84.9658 59.7064 85.0895 59.9555C85.2131 60.2045 85.2786 60.4785 85.2808 60.7566Z" fill="#263238"/>
<path d="M81.2594 61.2587C81.2608 61.7313 81.0767 62.1857 80.7468 62.5241C80.4168 62.8625 79.9673 63.058 79.4947 63.0685H79.4445C79.3893 63.0735 79.3337 63.0735 79.2786 63.0685C79.1273 63.0576 78.9784 63.0255 78.8362 62.973C78.6731 62.9179 78.5202 62.8364 78.3837 62.7317C78.1489 62.5563 77.9581 62.3288 77.8264 62.0671C77.6946 61.8053 77.6255 61.5165 77.6245 61.2235C77.6217 60.7374 77.8087 60.2693 78.1458 59.919C78.4829 59.5688 78.9435 59.364 79.4294 59.3483H79.4646C79.6274 59.3669 79.7866 59.4093 79.9371 59.474C80.0767 59.5257 80.21 59.5932 80.3343 59.675C80.3987 59.7146 80.4593 59.76 80.5153 59.8108C80.7424 59.9786 80.9276 60.1966 81.0567 60.4477C81.1857 60.6988 81.2551 60.9764 81.2594 61.2587Z" fill="#263238"/>
<path d="M81.0383 61.0168C81.1338 61.0168 89.6603 60.1571 89.6603 60.1571L89.4592 60.509L81.0132 61.3034L81.0383 61.0168Z" fill="#263238"/>
<path d="M92.0422 62.0433C91.883 62.505 91.6341 62.9306 91.3096 63.2956C90.9852 63.6606 90.5917 63.9577 90.1519 64.1699C88.9755 64.733 88.1409 63.7325 88.2968 62.5008C88.4325 61.4099 89.1917 59.7659 90.4686 59.7307C91.7456 59.6955 92.4142 60.8971 92.0422 62.0433Z" fill="#B97964"/>
<path opacity="0.2" d="M83.9583 58.9521L82.8623 62.436V62.4612C82.7027 62.4076 82.5532 62.3278 82.4199 62.2249V62.1746L83.4656 58.8364C83.6344 58.852 83.8002 58.8909 83.9583 58.9521Z" fill="white"/>
<path opacity="0.2" d="M84.5617 59.3231L83.516 62.5909H83.4657C83.4105 62.5959 83.355 62.5959 83.2998 62.5909L84.3857 59.1924C84.4469 59.2302 84.5041 59.274 84.5567 59.3231H84.5617Z" fill="white"/>
<path opacity="0.2" d="M79.9566 59.4592L78.8355 62.9783C78.6725 62.9233 78.5196 62.8417 78.3831 62.737L79.4639 59.3385C79.6268 59.3572 79.7859 59.3995 79.9365 59.4642L79.9566 59.4592Z" fill="white"/>
<path opacity="0.2" d="M80.5347 59.826L79.494 63.0837H79.4437C79.3885 63.0887 79.333 63.0887 79.2778 63.0837L80.3537 59.7103C80.4176 59.743 80.4782 59.7818 80.5347 59.826Z" fill="white"/>
<path d="M78.9071 56.1511L78.5753 55.1054C78.4908 55.1056 78.4076 55.0845 78.3334 55.044C78.2592 55.0036 78.1964 54.9451 78.1508 54.8739C78.1052 54.8027 78.0782 54.7212 78.0725 54.6369C78.0667 54.5526 78.0823 54.4682 78.1178 54.3915C78.339 53.7329 78.7462 53.929 78.7462 53.929C78.6805 53.85 78.6323 53.7581 78.6046 53.6592C78.577 53.5602 78.5705 53.4566 78.5857 53.355C78.6009 53.2534 78.6374 53.1562 78.6928 53.0697C78.7481 52.9832 78.8212 52.9094 78.9071 52.8531C79.0654 52.6956 79.2795 52.6072 79.5028 52.6072C79.7261 52.6072 79.9403 52.6956 80.0986 52.8531C80.0712 52.6494 80.1248 52.4431 80.248 52.2786C80.3712 52.114 80.554 52.0044 80.7572 51.9733C80.8463 51.9446 80.9402 51.934 81.0334 51.9421C81.1267 51.9501 81.2174 51.9767 81.3003 52.0202C81.3831 52.0638 81.4565 52.1234 81.516 52.1956C81.5756 52.2678 81.6201 52.3512 81.647 52.4409C81.647 52.4409 81.8531 51.5611 82.5972 51.722C83.3412 51.8828 83.301 52.4409 83.301 52.4409C83.3927 52.236 83.5376 52.0594 83.7206 51.9294C83.9036 51.7995 84.118 51.7209 84.3417 51.7018C84.5596 51.7253 84.7674 51.8061 84.944 51.9359C85.1206 52.0657 85.2597 52.2399 85.3472 52.4409C85.4494 52.1837 85.6373 51.9697 85.8792 51.835C86.121 51.7003 86.4019 51.6533 86.6744 51.7018C87.6799 51.8476 87.4939 52.6621 87.4939 52.6621C87.4939 52.6621 87.8257 52.0638 88.6803 52.4107C89.535 52.7576 89.2836 53.4162 89.2836 53.4162C89.4341 53.2822 89.6271 53.2056 89.8286 53.2001C90.0301 53.1946 90.227 53.2604 90.3846 53.386C90.9829 53.8234 90.6913 54.8389 90.6913 54.8389L89.8115 56.5885L86.0862 56.2818C85.8408 56.1099 85.5737 55.9712 85.2919 55.8695C84.5378 55.5227 87.4084 54.3865 85.3472 54.0446C84.4589 53.8897 83.5464 53.9494 82.6859 54.2187C81.8253 54.4881 81.0416 54.9593 80.4002 55.593C79.3143 56.684 78.9071 56.1511 78.9071 56.1511Z" fill="#E0E0E0"/>
<path d="M99.8954 85.7019C99.8954 85.7019 99.4379 83.9021 98.8899 83.9071C98.0503 83.9071 94.2496 84.8271 93.9731 85.4857C93.6966 86.1443 95.0993 89.9249 96.155 90.0707C97.2108 90.2165 100.735 89.1909 100.539 88.4519L99.8954 85.7019Z" fill="#3950A2"/>
<path opacity="0.7" d="M99.8954 85.7019C99.8954 85.7019 99.4379 83.9021 98.8899 83.9071C98.0503 83.9071 94.2496 84.8271 93.9731 85.4857C93.6966 86.1443 95.0993 89.9249 96.155 90.0707C97.2108 90.2165 100.735 89.1909 100.539 88.4519L99.8954 85.7019Z" fill="white"/>
<path d="M80.812 73.611C80.812 73.611 80.5255 76.904 84.2105 76.904C87.8956 76.904 89.801 73.4854 89.801 73.4854L90.8618 73.5457C90.3514 74.814 89.4629 75.8945 88.317 76.6402C87.171 77.3858 85.8232 77.7606 84.4569 77.7134C79.4697 77.7134 79.9322 73.6462 79.9322 73.6462L80.812 73.611Z" fill="#3950A2"/>
<path opacity="0.6" d="M80.812 73.611C80.812 73.611 80.5255 76.904 84.2105 76.904C87.8956 76.904 89.801 73.4854 89.801 73.4854L90.8618 73.5457C90.3514 74.814 89.4629 75.8945 88.317 76.6402C87.171 77.3858 85.8232 77.7606 84.4569 77.7134C79.4697 77.7134 79.9322 73.6462 79.9322 73.6462L80.812 73.611Z" fill="white"/>
</svg>
