<svg width="1221" height="834" viewBox="0 0 1221 834" fill="none" xmlns="http://www.w3.org/2000/svg">
<g opacity="0.05">
<rect width="2" height="99" transform="matrix(-1 -5.56363e-08 -5.56363e-08 1 40 168)" fill="url(#paint0_linear)"/>
<rect width="6" height="6" rx="3" transform="matrix(-1 -5.56363e-08 -5.56363e-08 1 42 262)" fill="black"/>
<path d="M39.0001 305C38.2861 305 37.6251 304.619 37.2681 304L20.5251 275C20.1681 274.381 20.1681 273.619 20.5251 273C20.8821 272.381 21.5431 272 22.2571 272H55.7431C56.4571 272 57.1181 272.381 57.4751 273C57.8321 273.619 57.8321 274.381 57.4751 275L40.7321 304C40.3751 304.619 39.7141 305 39.0001 305ZM25.7211 276L39.0001 299L52.2791 276H25.7211Z" fill="black"/>
<path d="M25.7209 276L38.9999 299L52.2789 276H25.7209Z" fill="#FAFAFA"/>
<path d="M125 506L134 498V496H125V506ZM125 519L134 511V509H125V519ZM125 532L134 524V522H125V532ZM107 506L98 498V496H107V506ZM107 519L98 511V509H107V519ZM107 532L98 524V522H107V532Z" fill="black"/>
<path d="M107 533C107 534.104 107.896 535 109 535H123C124.104 535 125 534.104 125 533V495C125 493.896 124.104 493 123 493H109C107.896 493 107 493.896 107 495V533Z" fill="black"/>
<path d="M116 508C117.591 508 119.117 508.632 120.243 509.757C121.368 510.883 122 512.409 122 514C122 515.591 121.368 517.117 120.243 518.243C119.117 519.368 117.591 520 116 520C114.409 520 112.883 519.368 111.757 518.243C110.632 517.117 110 515.591 110 514C110 512.409 110.632 510.883 111.757 509.757C112.883 508.632 114.409 508 116 508ZM116 521C117.591 521 119.117 521.632 120.243 522.757C121.368 523.883 122 525.409 122 527C122 528.591 121.368 530.117 120.243 531.243C119.117 532.368 117.591 533 116 533C114.409 533 112.883 532.368 111.757 531.243C110.632 530.117 110 528.591 110 527C110 525.409 110.632 523.883 111.757 522.757C112.883 521.632 114.409 521 116 521ZM116 495C116.788 495 117.568 495.155 118.296 495.457C119.024 495.758 119.685 496.2 120.243 496.757C120.8 497.315 121.242 497.976 121.543 498.704C121.845 499.432 122 500.212 122 501C122 501.788 121.845 502.568 121.543 503.296C121.242 504.024 120.8 504.685 120.243 505.243C119.685 505.8 119.024 506.242 118.296 506.543C117.568 506.845 116.788 507 116 507C115.212 507 114.432 506.845 113.704 506.543C112.976 506.242 112.315 505.8 111.757 505.243C111.2 504.685 110.758 504.024 110.457 503.296C110.155 502.568 110 501.788 110 501C110 500.212 110.155 499.432 110.457 498.704C110.758 497.976 111.2 497.315 111.757 496.757C112.315 496.2 112.976 495.758 113.704 495.457C114.432 495.155 115.212 495 116 495Z" fill="black"/>
<path d="M116 509.715C117.137 509.715 118.227 510.166 119.03 510.97C119.834 511.774 120.285 512.864 120.285 514C120.285 515.136 119.834 516.226 119.03 517.03C118.227 517.834 117.137 518.285 116 518.285C114.864 518.285 113.774 517.834 112.97 517.03C112.167 516.226 111.715 515.136 111.715 514C111.715 512.864 112.167 511.774 112.97 510.97C113.774 510.166 114.864 509.715 116 509.715Z" fill="white"/>
<path d="M116 522.715C116.563 522.715 117.12 522.826 117.64 523.041C118.16 523.257 118.632 523.572 119.03 523.97C119.428 524.368 119.744 524.84 119.959 525.36C120.174 525.88 120.285 526.437 120.285 527C120.285 527.563 120.174 528.12 119.959 528.64C119.744 529.16 119.428 529.632 119.03 530.03C118.632 530.428 118.16 530.744 117.64 530.959C117.12 531.174 116.563 531.285 116 531.285C115.437 531.285 114.88 531.174 114.36 530.959C113.84 530.744 113.368 530.428 112.97 530.03C112.572 529.632 112.257 529.16 112.041 528.64C111.826 528.12 111.715 527.563 111.715 527C111.715 526.437 111.826 525.88 112.041 525.36C112.257 524.84 112.572 524.368 112.97 523.97C113.368 523.572 113.84 523.257 114.36 523.041C114.88 522.826 115.437 522.715 116 522.715Z" fill="white"/>
<path d="M116 496.715C117.137 496.715 118.227 497.166 119.03 497.97C119.834 498.774 120.285 499.864 120.285 501C120.285 502.136 119.834 503.226 119.03 504.03C118.227 504.834 117.137 505.285 116 505.285C114.864 505.285 113.774 504.834 112.97 504.03C112.167 503.226 111.715 502.136 111.715 501C111.715 499.864 112.167 498.774 112.97 497.97C113.774 497.166 114.864 496.715 116 496.715Z" fill="white"/>
<rect width="2" height="101" transform="matrix(-1 0 0 1 242 514)" fill="url(#paint1_linear)"/>
<rect width="2" height="99" transform="matrix(4.37114e-08 -1 -1 -4.37114e-08 240 516)" fill="url(#paint2_linear)"/>
<rect width="6" height="6" rx="3" transform="matrix(4.37114e-08 -1 -1 -4.37114e-08 146 518)" fill="black"/>
<rect width="2" height="101" transform="matrix(4.37114e-08 1 1 -4.37114e-08 476.5 356)" fill="url(#paint3_linear)"/>
<rect width="2" height="99" transform="matrix(-1 0 0 1 478.5 358)" fill="url(#paint4_linear)"/>
<rect width="6" height="6" rx="3" transform="matrix(-1 0 0 1 480.5 452)" fill="black"/>
<path d="M468.188 465.094C465.703 465.094 463.762 466.227 462.688 468.312C462.352 468.961 461.086 472.184 459.844 475.438H459.812C459.781 475.516 459.727 475.594 459.688 475.688C459.555 475.992 459.367 476.422 459.281 476.906C458.219 479.703 457.281 482.234 457.062 482.812L457 483V495C457 496.652 458.348 498 460 498H464C465.652 498 467 496.652 467 495V494.188L487 494.688V495C487 496.652 488.348 498 490 498H494C495.652 498 497 496.652 497 495C497 495 497 492.332 497 492C497 487.902 495.691 486.57 494.688 486.156L494.5 480.812L491.219 477.719C491.992 476.371 493.273 473.578 491.656 471.875C490.105 470.242 486.574 469.961 485.281 469.906C484.16 468.832 480.223 466.035 468.906 465.125C468.664 465.105 468.414 465.094 468.188 465.094ZM468 467.094C468.238 467.086 468.492 467.105 468.75 467.125C481.176 468.125 484.02 471.453 484.031 471.469L484.312 471.875H484.812C486.398 471.887 489.258 472.27 490.188 473.25C490.871 473.969 489.961 476.098 489.125 477.312L488.625 478.031L492.469 481.625C492.391 482.109 492.191 482.594 491.781 482.812C491.359 483.043 490.051 483.336 487 481.219C484.445 476.188 476.875 477.207 470.781 478.031C468.527 478.336 466.402 478.613 464.938 478.531C461.891 478.359 461.359 477.723 461.281 477.594C461.25 477.543 461.25 477.477 461.25 477.406C462.742 473.492 464.16 469.848 464.469 469.25C465.176 467.875 466.336 467.145 468 467.094ZM457.094 475C454.07 475 453 476.859 453 478.594C453 479.438 453.379 480.797 455.625 480.969C456.039 479.871 456.68 478.172 457.375 476.344C457.5 475.766 457.68 475.305 457.812 475H457.094ZM494.406 476.375L494 477.562L495.875 479.344L496.469 479.906L496.5 480.75L496.594 483.469C497.164 483.672 497.656 483.781 498.094 483.781C499.125 483.781 499.891 483.238 500.25 482.25C500.469 481.648 500.66 480.723 500.281 479.75C499.887 478.73 499 477.973 497.625 477.469L494.406 476.375ZM463 483H467C468.656 483 470 484.344 470 486C470 487.656 468.656 489 467 489C465.324 489 464.828 488.574 463.094 487.594C461.934 486.938 461 486.309 461 485C461 483.895 461.895 483 463 483ZM486.625 485.531C486.996 485.523 487.359 485.59 487.719 485.719C487.719 485.719 490.281 487.062 491.312 486.75L491.281 487.906L492.438 489C491.637 490.387 490.789 490.727 489.562 490.938L489.219 489.938L491.438 489.188L489.688 488.875L490.188 487.688L488.594 488.656C488.582 488.664 488.57 488.633 488.562 488.625L486.812 486.625L487.312 488.844C487.316 488.863 487.297 488.906 487.281 488.906H484.75L487.656 490.094C487.664 490.098 487.688 490.086 487.688 490.094L487.781 491.219C487.09 491.293 486.523 491.25 485.656 490.938C484.164 490.402 483.426 488.734 484.031 487.25C484.465 486.188 485.516 485.551 486.625 485.531Z" fill="black"/>
<path d="M1107.53 607.252L1098.75 598.464C1097.8 597.52 1096.55 597 1095.21 597H1082.79C1081.45 597 1080.2 597.52 1079.25 598.465L1070.47 607.252C1069.52 608.197 1069 609.452 1069 610.787V623.214C1069 624.547 1069.52 625.804 1070.47 626.751L1079.25 635.536C1080.2 636.48 1081.45 637 1082.79 637H1095.21C1096.55 637 1097.8 636.48 1098.75 635.535L1107.54 626.748C1108.48 625.802 1109 624.545 1109 623.213V610.787C1109 609.452 1108.48 608.197 1107.53 607.252Z" fill="black"/>
<path opacity="0.05" d="M1103.13 611.372H1100.3C1099.43 611.372 1098.72 612.079 1098.72 612.947V615.296C1098.45 614.351 1097.97 613.482 1097.32 612.81C1096.3 611.763 1094.92 611.209 1093.33 611.209C1091.35 611.209 1089.91 611.98 1088.95 613.113V612.946C1088.95 612.078 1088.24 611.371 1087.37 611.371H1080.84C1080.16 611.371 1079.59 611.796 1079.37 612.389C1079.16 611.937 1078.78 611.577 1078.27 611.447C1077.66 611.29 1076.93 611.21 1076.12 611.21C1073.21 611.21 1071.33 612.731 1071.33 615.083C1071.33 617.571 1073.3 618.432 1074.61 619.001C1074.91 619.135 1075.35 619.324 1075.56 619.442C1075.45 619.47 1075.28 619.497 1075.03 619.497C1074.38 619.497 1073.69 619.155 1073.34 618.952C1072.94 618.718 1072.43 618.715 1072.03 618.948C1071.62 619.18 1071.37 619.615 1071.37 620.083V621.202C1071.37 621.924 1071.82 622.569 1072.49 622.808C1073.24 623.075 1074.13 623.209 1075.15 623.209C1075.16 623.209 1075.16 623.209 1075.17 623.209C1077.24 623.209 1078.37 622.519 1078.95 621.938C1079.62 621.267 1079.97 620.387 1079.97 619.323C1079.97 616.802 1077.89 615.9 1076.65 615.362C1076.38 615.243 1076 615.079 1075.78 614.979C1075.92 614.946 1076.09 614.921 1076.25 614.921C1076.83 614.921 1077.34 615.107 1077.68 615.262C1078.08 615.454 1078.55 615.423 1078.93 615.182C1079.22 614.998 1079.42 614.714 1079.5 614.39C1079.78 614.841 1080.27 615.144 1080.84 615.144H1082.01V621.464C1082.01 622.332 1082.71 623.039 1083.58 623.039H1084.62C1085.49 623.039 1086.19 622.332 1086.19 621.464V615.144H1087.37C1087.55 615.144 1087.71 615.11 1087.86 615.059C1087.61 615.793 1087.49 616.57 1087.49 617.333C1087.49 620.162 1089.27 623.208 1093.18 623.208C1096.49 623.208 1098.15 621.124 1098.72 618.863V621.464C1098.72 622.332 1099.43 623.039 1100.3 623.039H1101.32C1102.19 623.039 1102.9 622.332 1102.9 621.464V619.71H1102.94C1106.27 619.71 1107.79 617.503 1107.79 615.453C1107.79 613.929 1107.18 611.372 1103.13 611.372ZM1093.27 615.085C1093.65 615.085 1094.66 615.085 1094.66 617.261C1094.66 618.033 1094.48 619.329 1093.22 619.329C1091.96 619.329 1091.78 618.008 1091.78 617.22C1091.78 616.423 1091.97 615.085 1093.27 615.085ZM1103.49 615.534C1103.49 615.848 1103.49 616.032 1102.9 616.055V615.046C1103.49 615.07 1103.49 615.25 1103.49 615.534Z" fill="black"/>
<path opacity="0.07" d="M1079.46 619.324C1079.46 620.251 1079.17 621.012 1078.6 621.585C1078.08 622.099 1077.07 622.71 1075.17 622.71C1075.16 622.71 1075.16 622.71 1075.15 622.71C1074.18 622.71 1073.35 622.585 1072.66 622.337C1072.18 622.17 1071.87 621.713 1071.87 621.202V620.083C1071.87 619.79 1072.02 619.527 1072.27 619.382C1072.52 619.237 1072.84 619.237 1073.09 619.385C1073.48 619.614 1074.26 619.997 1075.03 619.997C1075.87 619.997 1076.17 619.74 1076.17 619.519C1076.17 619.163 1075.65 618.912 1074.81 618.542C1073.55 617.993 1071.83 617.243 1071.83 615.082C1071.83 612.595 1074.05 611.709 1076.12 611.709C1076.89 611.709 1077.57 611.783 1078.15 611.931C1078.67 612.067 1079.04 612.542 1079.04 613.086V614.076C1079.04 614.355 1078.9 614.611 1078.66 614.761C1078.43 614.91 1078.14 614.928 1077.89 614.811C1077.51 614.633 1076.92 614.422 1076.25 614.422C1076.01 614.422 1075.12 614.503 1075.12 614.9C1075.12 615.221 1075.65 615.474 1076.45 615.822C1077.72 616.374 1079.46 617.131 1079.46 619.324ZM1088.45 613.57V612.947C1088.45 612.354 1087.97 611.872 1087.37 611.872H1080.84C1080.24 611.872 1079.76 612.354 1079.76 612.947V613.57C1079.76 614.163 1080.24 614.645 1080.84 614.645H1082.51V621.465C1082.51 622.058 1082.99 622.54 1083.58 622.54H1084.61C1085.21 622.54 1085.69 622.058 1085.69 621.465V614.645H1087.37C1087.97 614.646 1088.45 614.163 1088.45 613.57ZM1096.96 613.158C1097.94 614.165 1098.5 615.658 1098.46 617.152C1098.38 619.716 1096.96 622.71 1093.18 622.71C1089.59 622.71 1087.98 620.011 1087.98 617.335C1087.98 614.535 1089.64 611.71 1093.33 611.71C1094.79 611.71 1096.04 612.211 1096.96 613.158ZM1095.16 617.261C1095.16 615.486 1094.53 614.585 1093.27 614.585C1091.42 614.585 1091.28 616.602 1091.28 617.22C1091.28 617.832 1091.42 619.829 1093.22 619.829C1094.97 619.829 1095.16 618.033 1095.16 617.261ZM1107.29 615.453C1107.29 617.323 1105.94 619.21 1102.94 619.21H1102.4V621.466C1102.4 622.059 1101.92 622.541 1101.32 622.541H1100.3C1099.7 622.541 1099.22 622.059 1099.22 621.466V612.947C1099.22 612.354 1099.7 611.872 1100.3 611.872H1103.13C1106.57 611.872 1107.29 613.819 1107.29 615.453ZM1102.4 616.559H1102.75C1103.84 616.559 1103.99 616.067 1103.99 615.535C1103.99 615.02 1103.84 614.545 1102.75 614.545H1102.4V616.559Z" fill="black"/>
<path d="M1072.82 621.866C1072.55 621.767 1072.37 621.497 1072.37 621.202V620.083C1072.37 619.842 1072.63 619.695 1072.84 619.816C1073.33 620.105 1074.17 620.497 1075.03 620.497C1076.63 620.497 1076.67 619.659 1076.67 619.519C1076.67 617.835 1072.33 618.252 1072.33 615.082C1072.33 612.275 1075.56 612.209 1076.12 612.209C1077 612.209 1077.61 612.31 1078.02 612.415C1078.33 612.493 1078.54 612.77 1078.54 613.086V614.076C1078.54 614.304 1078.3 614.454 1078.1 614.357C1077.68 614.163 1077.01 613.922 1076.24 613.922C1076 613.922 1074.62 613.981 1074.62 614.9C1074.62 616.52 1078.96 616.13 1078.96 619.323C1078.96 622.262 1075.64 622.209 1075.13 622.209C1074.04 622.21 1073.29 622.034 1072.82 621.866Z" fill="white"/>
<path d="M1087.37 614.145H1085.19V621.466C1085.19 621.784 1084.93 622.041 1084.62 622.041H1083.58C1083.26 622.041 1083.01 621.783 1083.01 621.466V614.145H1080.84C1080.52 614.145 1080.26 613.887 1080.26 613.57V612.947C1080.26 612.629 1080.52 612.372 1080.84 612.372H1087.37C1087.69 612.372 1087.95 612.63 1087.95 612.947V613.57C1087.95 613.888 1087.69 614.145 1087.37 614.145Z" fill="white"/>
<path d="M1093.18 622.21C1089.6 622.21 1088.48 619.366 1088.48 617.335C1088.48 614.699 1090.06 612.21 1093.33 612.21C1096.61 612.21 1098.02 614.913 1097.96 617.139C1097.89 619.365 1096.75 622.21 1093.18 622.21ZM1093.27 614.085C1091.09 614.085 1090.78 616.276 1090.78 617.221C1090.78 618.179 1091.09 620.33 1093.22 620.33C1095.34 620.33 1095.66 618.224 1095.66 617.262C1095.66 616.258 1095.45 614.085 1093.27 614.085Z" fill="white"/>
<path d="M1101.9 618.71V621.466C1101.9 621.784 1101.64 622.041 1101.32 622.041H1100.3C1099.98 622.041 1099.72 621.783 1099.72 621.466V612.947C1099.72 612.629 1099.98 612.372 1100.3 612.372H1103.13C1105.57 612.372 1106.79 613.399 1106.79 615.454C1106.79 617.154 1105.54 618.711 1102.94 618.711H1101.9V618.71ZM1101.9 614.044V617.058H1102.75C1103.91 617.058 1104.49 616.55 1104.49 615.534C1104.49 614.541 1103.91 614.044 1102.75 614.044H1101.9Z" fill="white"/>
<rect width="2" height="101" transform="matrix(1 0 0 -1 1215 617)" fill="url(#paint5_linear)"/>
<rect width="2" height="99" transform="matrix(4.37114e-08 -1 -1 -4.37114e-08 1215 617)" fill="url(#paint6_linear)"/>
<rect width="6" height="6" rx="3" transform="matrix(4.37114e-08 -1 -1 -4.37114e-08 1121 619)" fill="black"/>
<rect width="2" height="101" transform="matrix(1 5.56363e-08 5.56363e-08 -1 537 777)" fill="url(#paint7_linear)"/>
<rect width="2" height="99" transform="matrix(-9.93477e-08 1 1 9.93477e-08 539 775)" fill="url(#paint8_linear)"/>
<rect width="6" height="6" rx="3" transform="matrix(-9.93477e-08 1 1 9.93477e-08 633 773)" fill="black"/>
<path d="M642.5 760.035C642.5 759.127 642.973 758.31 643.764 757.851C644.568 757.385 645.53 757.382 646.336 757.844L674.223 773.81C675.022 774.267 675.5 775.086 675.5 776C675.5 776.914 675.022 777.733 674.223 778.19L646.336 794.155C645.53 794.617 644.568 794.614 643.764 794.148C642.972 793.689 642.5 792.873 642.5 791.964L642.5 760.035Z" fill="black"/>
<path d="M675 776C675 776.733 674.617 777.389 673.975 777.757L646.088 793.722C645.438 794.094 644.663 794.092 644.015 793.716C643.379 793.347 643 792.693 643 791.965L643 760.035C643 759.307 643.379 758.653 644.015 758.284C644.663 757.908 645.438 757.906 646.088 758.278L673.975 774.243C674.617 774.611 675 775.267 675 776ZM676 776C676 774.979 675.491 773.959 674.472 773.375L646.585 757.411C644.547 756.244 642 757.702 642 760.035L642 791.965C642 794.298 644.547 795.756 646.585 794.59L674.472 778.625C675.491 778.041 676 777.021 676 776Z" fill="black"/>
<path d="M645.5 761.147L672.023 776L645.5 790.853L645.5 761.147Z" fill="white"/>
<path d="M671 776L646 790L646 762L671 776ZM673.047 776L671.489 775.127L646.489 761.127L645 760.294L645 762L645 790L645 791.706L646.489 790.872L671.489 776.872L673.047 776Z" fill="black"/>
<path d="M657 771L650 782" stroke="black" stroke-width="0.5" stroke-miterlimit="10"/>
<path d="M655.327 776.45L652.686 777.088C652.262 777.179 651.97 777.568 652 778C652.037 778.525 652.528 778.898 653.043 778.792L657.012 777.913C657.272 777.86 657.502 777.713 657.659 777.498C658.037 776.979 658.752 775.996 659.039 775.601C659.121 775.488 659.179 775.362 659.211 775.226L659.954 773.066C660.057 772.638 659.887 772.19 659.525 771.939L657.355 770.14C656.978 769.879 656.461 769.964 656.187 770.333C655.903 770.716 655.99 771.258 656.379 771.534L657.738 772.731L657.431 773.653L655 772L647 770L647 772L652 773.474L650.715 774.632L647 775.217L647 777L651.369 776.45L653.615 775.19L655.327 776.45Z" fill="black"/>
<path d="M662 778C662 777.47 661.789 776.961 661.414 776.586C661.039 776.211 660.53 776 660 776C659.47 776 658.961 776.211 658.586 776.586C658.211 776.961 658 777.47 658 778C658 778.53 658.211 779.039 658.586 779.414C658.961 779.789 659.47 780 660 780C660.53 780 661.039 779.789 661.414 779.414C661.789 779.039 662 778.53 662 778Z" fill="black"/>
<path d="M647 778L647 786C648.985 785.211 652 783.569 652 782.71C652 781.884 648.716 781.09 648.716 780.441C648.716 780.136 649.032 779.727 649.032 779.316C649.032 778.885 647.676 778 647 778Z" fill="black"/>
<path d="M244 733C244 744.044 235.044 753 224 753C212.956 753 204 744.044 204 733C204 721.956 212.956 713 224 713C235.044 713 244 721.956 244 733Z" fill="white"/>
<path d="M224 717C232.821 717 240 724.179 240 733C240 741.821 232.821 749 224 749C215.179 749 208 741.821 208 733C208 724.179 215.179 717 224 717ZM224 713C212.956 713 204 721.956 204 733C204 744.044 212.956 753 224 753C235.044 753 244 744.044 244 733C244 721.956 235.044 713 224 713Z" fill="black"/>
<path d="M214.254 733.156L215.063 726.187H222.782V728.621H217.548L217.247 731.348C217.466 731.215 217.751 731.098 218.106 730.996C218.461 730.898 218.805 730.848 219.145 730.848C220.458 730.848 221.465 731.25 222.168 732.051C222.871 732.852 223.227 733.977 223.227 735.426C223.227 736.297 223.036 737.09 222.661 737.797C222.282 738.504 221.751 739.051 221.067 739.43C220.383 739.809 219.574 740 218.645 740C217.817 740 217.04 739.824 216.313 739.473C215.586 739.121 215.02 738.637 214.61 738.024C214.196 737.411 213.993 736.715 214.001 735.942H217.067C217.098 736.442 217.251 736.837 217.528 737.13C217.805 737.423 218.173 737.568 218.626 737.568C219.653 737.568 220.169 736.787 220.169 735.216C220.169 733.767 219.54 733.036 218.282 733.036C217.567 733.036 217.036 733.274 216.684 733.747L214.254 733.156ZM234 734.242C234 736.086 233.602 737.504 232.801 738.504C231.996 739.504 230.867 740 229.41 740C227.941 740 226.805 739.496 226 738.492C225.195 737.488 224.793 736.07 224.793 734.242V731.758C224.793 729.914 225.195 728.496 225.996 727.496C226.797 726.5 227.93 726 229.395 726C230.856 726 231.989 726.504 232.793 727.508C233.597 728.512 234 729.93 234 731.766V734.242ZM230.941 731.352C230.941 730.375 230.82 729.645 230.57 729.161C230.324 728.677 229.929 728.434 229.39 728.434C228.867 728.434 228.484 728.661 228.242 729.11C228.008 729.559 227.879 730.239 227.859 731.149V734.629C227.859 735.645 227.984 736.391 228.23 736.859C228.476 737.332 228.871 737.566 229.41 737.566C229.93 737.566 230.312 737.336 230.562 736.878C230.808 736.421 230.937 735.698 230.941 734.722V731.352Z" fill="black"/>
<rect width="2" height="101" transform="matrix(-1 0 0 1 101 733)" fill="url(#paint9_linear)"/>
<rect width="2" height="99" transform="matrix(-4.37114e-08 1 1 4.37114e-08 101 733)" fill="url(#paint10_linear)"/>
<rect x="99" y="832" width="2" height="99" transform="rotate(90 99 832)" fill="url(#paint11_linear)"/>
<rect width="6" height="6" rx="3" transform="matrix(-4.37114e-08 1 1 4.37114e-08 195 731)" fill="black"/>
<path d="M899.5 573C899.5 584.044 890.544 593 879.5 593C868.456 593 859.5 584.044 859.5 573C859.5 561.956 868.456 553 879.5 553C890.544 553 899.5 561.956 899.5 573Z" fill="white"/>
<path d="M879.5 557C888.321 557 895.5 564.179 895.5 573C895.5 581.821 888.321 589 879.5 589C870.679 589 863.5 581.821 863.5 573C863.5 564.179 870.679 557 879.5 557ZM879.5 553C868.456 553 859.5 561.956 859.5 573C859.5 584.044 868.456 593 879.5 593C890.544 593 899.5 584.044 899.5 573C899.5 561.956 890.544 553 879.5 553Z" fill="black"/>
<path d="M869.754 573.156L870.563 566.187H878.282V568.621H873.048L872.747 571.348C872.966 571.215 873.251 571.098 873.606 570.996C873.961 570.898 874.305 570.848 874.645 570.848C875.958 570.848 876.965 571.25 877.668 572.051C878.371 572.852 878.727 573.977 878.727 575.426C878.727 576.297 878.536 577.09 878.161 577.797C877.782 578.504 877.251 579.051 876.567 579.43C875.883 579.809 875.074 580 874.145 580C873.317 580 872.54 579.824 871.813 579.473C871.086 579.121 870.52 578.637 870.11 578.024C869.696 577.411 869.493 576.715 869.501 575.942H872.567C872.598 576.442 872.751 576.837 873.028 577.13C873.305 577.423 873.673 577.568 874.126 577.568C875.153 577.568 875.669 576.787 875.669 575.216C875.669 573.767 875.04 573.036 873.782 573.036C873.067 573.036 872.536 573.274 872.184 573.747L869.754 573.156ZM889.5 574.242C889.5 576.086 889.102 577.504 888.301 578.504C887.496 579.504 886.367 580 884.91 580C883.441 580 882.305 579.496 881.5 578.492C880.695 577.488 880.293 576.07 880.293 574.242V571.758C880.293 569.914 880.695 568.496 881.496 567.496C882.297 566.5 883.43 566 884.895 566C886.356 566 887.489 566.504 888.293 567.508C889.097 568.512 889.5 569.93 889.5 571.766V574.242ZM886.441 571.352C886.441 570.375 886.32 569.645 886.07 569.161C885.824 568.677 885.429 568.434 884.89 568.434C884.367 568.434 883.984 568.661 883.742 569.11C883.508 569.559 883.379 570.239 883.359 571.149V574.629C883.359 575.645 883.484 576.391 883.73 576.859C883.976 577.332 884.371 577.566 884.91 577.566C885.43 577.566 885.812 577.336 886.062 576.878C886.308 576.421 886.437 575.698 886.441 574.722V571.352Z" fill="black"/>
<rect width="2" height="101" transform="matrix(4.37114e-08 -1 -1 -4.37114e-08 879.5 450)" fill="url(#paint12_linear)"/>
<rect width="2" height="99" transform="matrix(-1 -8.74228e-08 -8.74228e-08 1 879.5 450)" fill="url(#paint13_linear)"/>
<rect x="780.5" y="448" width="2" height="99" transform="rotate(-180 780.5 448)" fill="url(#paint14_linear)"/>
<rect width="6" height="6" rx="3" transform="matrix(-1 -8.74228e-08 -8.74228e-08 1 881.5 544)" fill="black"/>
<path d="M946 121C946 132.044 937.044 141 926 141C914.956 141 906 132.044 906 121C906 109.956 914.956 101 926 101C937.044 101 946 109.956 946 121Z" fill="white"/>
<path d="M926 105C934.821 105 942 112.179 942 121C942 129.821 934.821 137 926 137C917.179 137 910 129.821 910 121C910 112.179 917.179 105 926 105ZM926 101C914.956 101 906 109.956 906 121C906 132.044 914.956 141 926 141C937.044 141 946 132.044 946 121C946 109.956 937.044 101 926 101Z" fill="black"/>
<path d="M916.254 121.156L917.063 114.187H924.782V116.621H919.548L919.247 119.348C919.466 119.215 919.751 119.098 920.106 118.996C920.461 118.898 920.805 118.848 921.145 118.848C922.458 118.848 923.465 119.25 924.168 120.051C924.871 120.852 925.227 121.977 925.227 123.426C925.227 124.297 925.036 125.09 924.661 125.797C924.282 126.504 923.751 127.051 923.067 127.43C922.383 127.809 921.574 128 920.645 128C919.817 128 919.04 127.824 918.313 127.473C917.586 127.121 917.02 126.637 916.61 126.024C916.196 125.411 915.993 124.715 916.001 123.942H919.067C919.098 124.442 919.251 124.837 919.528 125.13C919.805 125.423 920.173 125.568 920.626 125.568C921.653 125.568 922.169 124.787 922.169 123.216C922.169 121.767 921.54 121.036 920.282 121.036C919.567 121.036 919.036 121.274 918.684 121.747L916.254 121.156ZM936 122.242C936 124.086 935.602 125.504 934.801 126.504C933.996 127.504 932.867 128 931.41 128C929.941 128 928.805 127.496 928 126.492C927.195 125.488 926.793 124.07 926.793 122.242V119.758C926.793 117.914 927.195 116.496 927.996 115.496C928.797 114.5 929.93 114 931.395 114C932.856 114 933.989 114.504 934.793 115.508C935.597 116.512 936 117.93 936 119.766V122.242ZM932.941 119.352C932.941 118.375 932.82 117.645 932.57 117.161C932.324 116.677 931.929 116.434 931.39 116.434C930.867 116.434 930.484 116.661 930.242 117.11C930.008 117.559 929.879 118.239 929.859 119.149V122.629C929.859 123.645 929.984 124.391 930.23 124.859C930.476 125.332 930.871 125.566 931.41 125.566C931.93 125.566 932.312 125.336 932.562 124.878C932.808 124.421 932.937 123.698 932.941 122.722V119.352Z" fill="black"/>
<rect width="2" height="101" transform="matrix(-1 0 0 1 803 121)" fill="url(#paint15_linear)"/>
<rect width="2" height="99" transform="matrix(-4.37114e-08 1 1 4.37114e-08 803 121)" fill="url(#paint16_linear)"/>
<rect x="801" y="220" width="2" height="99" transform="rotate(90 801 220)" fill="url(#paint17_linear)"/>
<rect width="6" height="6" rx="3" transform="matrix(-4.37114e-08 1 1 4.37114e-08 897 119)" fill="black"/>
<rect width="2" height="101" transform="matrix(-1 0 0 1 237 19)" fill="url(#paint18_linear)"/>
<rect width="2" height="99" transform="matrix(4.37114e-08 -1 -1 -4.37114e-08 235 21)" fill="url(#paint19_linear)"/>
<rect width="6" height="6" rx="3" transform="matrix(4.37114e-08 -1 -1 -4.37114e-08 141 23)" fill="black"/>
<path d="M119.502 34.975L94.5274 34.9992C93.1524 35.0009 92.0266 33.8767 92.0249 32.5017L92.0007 7.52752C91.9991 6.15252 93.1232 5.02586 94.4982 5.02502L119.472 5.00086C120.847 4.99919 121.973 6.12336 121.975 7.49836L121.999 32.4725C122.001 33.8475 120.877 34.9742 119.502 34.975Z" fill="black"/>
<path opacity="0.05" d="M112.623 12.5484C111.338 11.41 109.575 10.8334 107.385 10.8334H102.773C101.887 10.8334 101.167 11.5534 101.167 12.4392V29.2275C101.167 30.1134 101.887 30.8334 102.773 30.8334H104.739C105.624 30.8334 106.345 30.1134 106.345 29.2275V24.4875H106.952C109.226 24.4875 111.088 23.8317 112.485 22.5384C113.919 21.2117 114.647 19.5 114.647 17.4492C114.646 15.3859 113.965 13.7359 112.623 12.5484ZM109.374 17.5434C109.374 18.4092 109.078 18.7667 108.856 18.96C108.451 19.3117 107.74 19.4975 106.8 19.4975H106.345V15.8242H107.046C109.374 15.8234 109.374 16.8175 109.374 17.5434Z" fill="black"/>
<path opacity="0.07" d="M112.347 12.86C111.14 11.7917 109.471 11.25 107.385 11.25H102.772C102.117 11.25 101.583 11.7833 101.583 12.4392V29.2275C101.583 29.8833 102.117 30.4167 102.772 30.4167H104.739C105.395 30.4167 105.928 29.8833 105.928 29.2275V24.0708H106.952C109.118 24.0708 110.884 23.4525 112.202 22.2325C113.547 20.9883 114.23 19.3783 114.23 17.4492C114.229 15.51 113.596 13.9658 112.347 12.86ZM109.791 17.5433C109.791 18.3217 109.574 18.8867 109.128 19.2742C108.64 19.6992 107.857 19.9142 106.8 19.9142H105.928V15.4075H107.046C109.457 15.4067 109.791 16.4342 109.791 17.5433Z" fill="black"/>
<path d="M112.071 13.1716C110.943 12.1733 109.366 11.6666 107.385 11.6666H102.772C102.345 11.6666 102 12.0125 102 12.4391V29.2283C102 29.6541 102.345 30 102.773 30H104.74C105.167 30 105.513 29.6541 105.513 29.2275V23.6541H106.953C109.01 23.6541 110.682 23.0725 111.92 21.9266C113.176 20.765 113.813 19.2583 113.813 17.4491C113.812 15.6341 113.226 14.195 112.071 13.1716ZM105.512 14.99H107.046C109.848 14.99 110.208 16.3541 110.208 17.5433C110.208 18.4483 109.943 19.1175 109.402 19.5891C108.835 20.0808 107.961 20.3308 106.8 20.3308H105.512V14.99Z" fill="white"/>
<rect width="2" height="99" transform="matrix(1 8.74228e-08 8.74228e-08 -1 1117.86 166.52)" fill="url(#paint20_linear)"/>
<rect width="6" height="6" rx="3" transform="matrix(1 8.74228e-08 8.74228e-08 -1 1115.86 72.52)" fill="black"/>
<path d="M1118.36 39C1111.65 39 1106.2 44.445 1106.2 51.16C1106.2 57.875 1111.65 63.32 1118.36 63.32C1125.08 63.32 1130.52 57.875 1130.52 51.16C1130.52 44.445 1125.08 39 1118.36 39ZM1107.7 40.28C1107.56 40.305 1107.44 40.375 1107.34 40.48C1104.66 43.245 1103 47.01 1103 51.16C1103 54.675 1104.19 57.93 1106.18 60.52C1106.4 60.8025 1106.81 60.85 1107.09 60.63C1107.37 60.41 1107.42 60.0025 1107.2 59.72C1105.38 57.345 1104.28 54.3875 1104.28 51.16C1104.28 47.35 1105.8 43.895 1108.26 41.36C1108.46 41.1625 1108.5 40.8625 1108.37 40.6175C1108.25 40.3725 1107.97 40.235 1107.7 40.28ZM1128.8 40.28C1128.57 40.3225 1128.38 40.49 1128.31 40.7175C1128.23 40.945 1128.29 41.1925 1128.46 41.36C1130.92 43.895 1132.44 47.35 1132.44 51.16C1132.44 54.3875 1131.35 57.345 1129.52 59.72C1129.3 60.0025 1129.35 60.41 1129.63 60.63C1129.91 60.85 1130.32 60.8025 1130.54 60.52C1132.53 57.93 1133.72 54.675 1133.72 51.16C1133.72 47.01 1132.06 43.245 1129.38 40.48C1129.23 40.32 1129.02 40.2425 1128.8 40.28ZM1117.72 43.48H1119C1119.35 43.48 1119.64 43.7675 1119.64 44.12V52.44C1119.64 52.7925 1119.35 53.08 1119 53.08H1117.72C1117.37 53.08 1117.08 52.7925 1117.08 52.44V44.12C1117.08 43.7675 1117.37 43.48 1117.72 43.48ZM1117.72 55.64H1119C1119.35 55.64 1119.64 55.9275 1119.64 56.28V57.56C1119.64 57.9125 1119.35 58.2 1119 58.2H1117.72C1117.37 58.2 1117.08 57.9125 1117.08 57.56V56.28C1117.08 55.9275 1117.37 55.64 1117.72 55.64Z" fill="black"/>
<g clip-path="url(#clip0)">
<path d="M1191.91 299.5C1190.94 299.5 1190.06 300.188 1189.84 301.156L1183.06 328.875H1180.38H1180.25C1179.72 328.875 1179.31 329.281 1179.31 329.812C1179.31 330.344 1179.72 330.75 1180.25 330.75H1180.38H1208C1208.53 330.75 1208.94 330.344 1208.94 329.812C1208.94 329.312 1208.56 328.938 1208.09 328.875C1208.03 328.844 1207.94 328.844 1207.88 328.844H1205.19L1198.44 301.125C1198.19 300.156 1197.34 299.5 1196.34 299.5H1191.91ZM1191.91 301.344H1195.38L1196.28 309.344H1189.75L1191.66 301.562C1191.69 301.437 1191.78 301.344 1191.91 301.344ZM1189.28 311.219H1196.47L1197.41 319.344H1187.31L1189.28 311.219ZM1186.88 321.219H1197.66L1198.5 328.875H1194.12H1185L1186.88 321.219ZM1175.53 328.898C1175.29 328.898 1175.05 328.984 1174.88 329.156C1174.69 329.344 1174.59 329.562 1174.59 329.812C1174.59 330.062 1174.69 330.312 1174.88 330.469C1175.06 330.656 1175.31 330.75 1175.53 330.75C1175.78 330.75 1176.03 330.656 1176.19 330.469C1176.37 330.281 1176.47 330.062 1176.47 329.812C1176.47 329.562 1176.37 329.313 1176.19 329.156C1176.02 328.984 1175.77 328.898 1175.53 328.898Z" fill="black"/>
</g>
<rect x="1071" y="319" width="2" height="101" fill="url(#paint21_linear)"/>
<rect x="1073" y="321" width="2" height="99" transform="rotate(-90 1073 321)" fill="url(#paint22_linear)"/>
<rect x="1167" y="323" width="6" height="6" rx="3" transform="rotate(-90 1167 323)" fill="black"/>
<rect width="2" height="99" transform="matrix(-1 -1.74846e-07 -1.74846e-07 1 553 7)" fill="url(#paint23_linear)"/>
<rect width="6" height="6" rx="3" transform="matrix(-1 -1.74846e-07 -1.74846e-07 1 555 101)" fill="black"/>
<path d="M552.5 134.52C559.215 134.52 564.66 129.075 564.66 122.36C564.66 115.645 559.215 110.2 552.5 110.2C545.785 110.2 540.34 115.645 540.34 122.36C540.34 129.075 545.785 134.52 552.5 134.52ZM563.16 133.24C563.3 133.215 563.425 133.145 563.52 133.04C566.197 130.275 567.86 126.51 567.86 122.36C567.86 118.845 566.67 115.59 564.68 113C564.46 112.718 564.052 112.67 563.77 112.89C563.487 113.11 563.44 113.518 563.66 113.8C565.485 116.175 566.58 119.133 566.58 122.36C566.58 126.17 565.057 129.625 562.6 132.16C562.405 132.358 562.36 132.658 562.487 132.903C562.615 133.148 562.887 133.285 563.16 133.24ZM542.06 133.24C542.292 133.198 542.485 133.03 542.555 132.803C542.627 132.575 542.567 132.328 542.4 132.16C539.942 129.625 538.42 126.17 538.42 122.36C538.42 119.133 539.515 116.175 541.34 113.8C541.56 113.518 541.512 113.11 541.23 112.89C540.947 112.67 540.54 112.718 540.32 113C538.33 115.59 537.14 118.845 537.14 122.36C537.14 126.51 538.802 130.275 541.48 133.04C541.627 133.2 541.845 133.278 542.06 133.24ZM553.14 130.04L551.86 130.04C551.507 130.04 551.22 129.753 551.22 129.4L551.22 121.08C551.22 120.728 551.507 120.44 551.86 120.44L553.14 120.44C553.492 120.44 553.78 120.728 553.78 121.08L553.78 129.4C553.78 129.753 553.492 130.04 553.14 130.04ZM553.14 117.88L551.86 117.88C551.507 117.88 551.22 117.593 551.22 117.24L551.22 115.96C551.22 115.608 551.507 115.32 551.86 115.32L553.14 115.32C553.492 115.32 553.78 115.608 553.78 115.96L553.78 117.24C553.78 117.593 553.492 117.88 553.14 117.88Z" fill="black"/>
<rect width="2" height="99" transform="matrix(-1 -1.74846e-07 -1.74846e-07 1 936 652)" fill="url(#paint24_linear)"/>
<rect width="6" height="6" rx="3" transform="matrix(-1 -1.74846e-07 -1.74846e-07 1 938 746)" fill="black"/>
<path d="M935.5 779.52C942.215 779.52 947.66 774.075 947.66 767.36C947.66 760.645 942.215 755.2 935.5 755.2C928.785 755.2 923.34 760.645 923.34 767.36C923.34 774.075 928.785 779.52 935.5 779.52ZM946.16 778.24C946.3 778.215 946.425 778.145 946.52 778.04C949.197 775.275 950.86 771.51 950.86 767.36C950.86 763.845 949.67 760.59 947.68 758C947.46 757.718 947.052 757.67 946.77 757.89C946.487 758.11 946.44 758.518 946.66 758.8C948.485 761.175 949.58 764.133 949.58 767.36C949.58 771.17 948.057 774.625 945.6 777.16C945.405 777.358 945.36 777.658 945.487 777.903C945.615 778.148 945.887 778.285 946.16 778.24ZM925.06 778.24C925.292 778.198 925.485 778.03 925.555 777.803C925.627 777.575 925.567 777.328 925.4 777.16C922.942 774.625 921.42 771.17 921.42 767.36C921.42 764.133 922.515 761.175 924.34 758.8C924.56 758.518 924.512 758.11 924.23 757.89C923.947 757.67 923.54 757.718 923.32 758C921.33 760.59 920.14 763.845 920.14 767.36C920.14 771.51 921.802 775.275 924.48 778.04C924.627 778.2 924.845 778.278 925.06 778.24ZM936.14 775.04L934.86 775.04C934.507 775.04 934.22 774.753 934.22 774.4L934.22 766.08C934.22 765.728 934.507 765.44 934.86 765.44L936.14 765.44C936.492 765.44 936.78 765.728 936.78 766.08L936.78 774.4C936.78 774.753 936.492 775.04 936.14 775.04ZM936.14 762.88L934.86 762.88C934.507 762.88 934.22 762.593 934.22 762.24L934.22 760.96C934.22 760.608 934.507 760.32 934.86 760.32L936.14 760.32C936.492 760.32 936.78 760.608 936.78 760.96L936.78 762.24C936.78 762.593 936.492 762.88 936.14 762.88Z" fill="black"/>
<rect width="2" height="99" transform="matrix(1 8.74228e-08 8.74228e-08 -1 296.86 349.52)" fill="url(#paint25_linear)"/>
<rect width="6" height="6" rx="3" transform="matrix(1 8.74228e-08 8.74228e-08 -1 294.86 255.52)" fill="black"/>
<path d="M297.36 222C290.645 222 285.2 227.445 285.2 234.16C285.2 240.875 290.645 246.32 297.36 246.32C304.075 246.32 309.52 240.875 309.52 234.16C309.52 227.445 304.075 222 297.36 222ZM286.7 223.28C286.56 223.305 286.435 223.375 286.34 223.48C283.662 226.245 282 230.01 282 234.16C282 237.675 283.19 240.93 285.18 243.52C285.4 243.802 285.808 243.85 286.09 243.63C286.372 243.41 286.42 243.002 286.2 242.72C284.375 240.345 283.28 237.387 283.28 234.16C283.28 230.35 284.803 226.895 287.26 224.36C287.455 224.162 287.5 223.862 287.373 223.617C287.245 223.372 286.973 223.235 286.7 223.28ZM307.8 223.28C307.568 223.322 307.375 223.49 307.305 223.717C307.233 223.945 307.293 224.192 307.46 224.36C309.918 226.895 311.44 230.35 311.44 234.16C311.44 237.387 310.345 240.345 308.52 242.72C308.3 243.002 308.348 243.41 308.63 243.63C308.913 243.85 309.32 243.802 309.54 243.52C311.53 240.93 312.72 237.675 312.72 234.16C312.72 230.01 311.058 226.245 308.38 223.48C308.233 223.32 308.015 223.242 307.8 223.28ZM296.72 226.48H298C298.353 226.48 298.64 226.767 298.64 227.12V235.44C298.64 235.792 298.353 236.08 298 236.08H296.72C296.368 236.08 296.08 235.792 296.08 235.44V227.12C296.08 226.767 296.368 226.48 296.72 226.48ZM296.72 238.64H298C298.353 238.64 298.64 238.927 298.64 239.28V240.56C298.64 240.912 298.353 241.2 298 241.2H296.72C296.368 241.2 296.08 240.912 296.08 240.56V239.28C296.08 238.927 296.368 238.64 296.72 238.64Z" fill="black"/>
<rect width="2" height="99" transform="matrix(-1.31134e-07 1 1 1.31134e-07 932 479.86)" fill="url(#paint26_linear)"/>
<rect width="6" height="6" rx="3" transform="matrix(-1.31134e-07 1 1 1.31134e-07 1026 477.86)" fill="black"/>
<path d="M1059.52 480.36C1059.52 473.645 1054.08 468.2 1047.36 468.2C1040.65 468.2 1035.2 473.645 1035.2 480.36C1035.2 487.075 1040.65 492.52 1047.36 492.52C1054.08 492.52 1059.52 487.075 1059.52 480.36ZM1058.24 469.7C1058.22 469.56 1058.15 469.435 1058.04 469.34C1055.28 466.662 1051.51 465 1047.36 465C1043.85 465 1040.59 466.19 1038 468.18C1037.72 468.4 1037.67 468.807 1037.89 469.09C1038.11 469.372 1038.52 469.42 1038.8 469.2C1041.18 467.375 1044.13 466.28 1047.36 466.28C1051.17 466.28 1054.63 467.802 1057.16 470.26C1057.36 470.455 1057.66 470.5 1057.9 470.373C1058.15 470.245 1058.29 469.973 1058.24 469.7ZM1058.24 490.8C1058.2 490.568 1058.03 490.375 1057.8 490.305C1057.58 490.233 1057.33 490.293 1057.16 490.46C1054.63 492.918 1051.17 494.44 1047.36 494.44C1044.13 494.44 1041.18 493.345 1038.8 491.52C1038.52 491.3 1038.11 491.348 1037.89 491.63C1037.67 491.913 1037.72 492.32 1038 492.54C1040.59 494.53 1043.85 495.72 1047.36 495.72C1051.51 495.72 1055.28 494.058 1058.04 491.38C1058.2 491.233 1058.28 491.015 1058.24 490.8ZM1055.04 479.72L1055.04 481C1055.04 481.353 1054.75 481.64 1054.4 481.64L1046.08 481.64C1045.73 481.64 1045.44 481.353 1045.44 481L1045.44 479.72C1045.44 479.368 1045.73 479.08 1046.08 479.08L1054.4 479.08C1054.75 479.08 1055.04 479.368 1055.04 479.72ZM1042.88 479.72L1042.88 481C1042.88 481.353 1042.59 481.64 1042.24 481.64L1040.96 481.64C1040.61 481.64 1040.32 481.353 1040.32 481L1040.32 479.72C1040.32 479.368 1040.61 479.08 1040.96 479.08L1042.24 479.08C1042.59 479.08 1042.88 479.368 1042.88 479.72Z" fill="black"/>
<rect width="2" height="99" transform="matrix(1 8.74228e-08 8.74228e-08 -1 375.86 719.52)" fill="url(#paint27_linear)"/>
<rect width="6" height="6" rx="3" transform="matrix(1 8.74228e-08 8.74228e-08 -1 373.86 625.52)" fill="black"/>
<path d="M357.617 593C357.617 582.297 366.297 573.617 377 573.617C387.703 573.617 396.383 582.297 396.383 593C396.383 603.703 387.703 612.383 377 612.383C366.297 612.383 357.617 603.703 357.617 593Z" fill="black"/>
<path d="M387.907 590.641C382.821 590.641 377.727 590.641 372.641 590.641C373.547 589.734 374.453 588.828 375.36 587.922C377.453 585.828 374.196 582.594 372.094 584.695C369.883 586.906 367.672 589.117 365.461 591.328C364.571 592.219 364.594 593.695 365.477 594.57C367.688 596.781 369.899 598.992 372.11 601.203C374.203 603.297 377.438 600.039 375.336 597.938C374.438 597.039 373.532 596.133 372.633 595.234C377.711 595.234 382.789 595.234 387.868 595.234C390.836 595.234 390.86 590.641 387.907 590.641Z" fill="white"/>
</g>
<defs>
<linearGradient id="paint0_linear" x1="0.999998" y1="0" x2="0.999998" y2="99" gradientUnits="userSpaceOnUse">
<stop stop-opacity="0.5"/>
<stop offset="1"/>
</linearGradient>
<linearGradient id="paint1_linear" x1="1" y1="0" x2="1" y2="101" gradientUnits="userSpaceOnUse">
<stop stop-opacity="0.5"/>
<stop offset="1" stop-color="#C4C4C4" stop-opacity="0"/>
</linearGradient>
<linearGradient id="paint2_linear" x1="0.999998" y1="0" x2="0.999998" y2="99" gradientUnits="userSpaceOnUse">
<stop stop-opacity="0.5"/>
<stop offset="1"/>
</linearGradient>
<linearGradient id="paint3_linear" x1="1" y1="0" x2="1" y2="101" gradientUnits="userSpaceOnUse">
<stop stop-opacity="0.5"/>
<stop offset="1" stop-color="#C4C4C4" stop-opacity="0"/>
</linearGradient>
<linearGradient id="paint4_linear" x1="0.999998" y1="0" x2="0.999998" y2="99" gradientUnits="userSpaceOnUse">
<stop stop-opacity="0.5"/>
<stop offset="1"/>
</linearGradient>
<linearGradient id="paint5_linear" x1="1" y1="0" x2="1" y2="101" gradientUnits="userSpaceOnUse">
<stop stop-opacity="0.5"/>
<stop offset="1" stop-color="#C4C4C4" stop-opacity="0"/>
</linearGradient>
<linearGradient id="paint6_linear" x1="0.999998" y1="0" x2="0.999998" y2="99" gradientUnits="userSpaceOnUse">
<stop stop-opacity="0.5"/>
<stop offset="1"/>
</linearGradient>
<linearGradient id="paint7_linear" x1="1" y1="0" x2="1" y2="101" gradientUnits="userSpaceOnUse">
<stop stop-opacity="0.5"/>
<stop offset="1" stop-color="#C4C4C4" stop-opacity="0"/>
</linearGradient>
<linearGradient id="paint8_linear" x1="0.999998" y1="0" x2="0.999998" y2="99" gradientUnits="userSpaceOnUse">
<stop stop-opacity="0.5"/>
<stop offset="1"/>
</linearGradient>
<linearGradient id="paint9_linear" x1="1" y1="0" x2="1" y2="101" gradientUnits="userSpaceOnUse">
<stop stop-opacity="0.7"/>
<stop offset="1" stop-opacity="0.3"/>
</linearGradient>
<linearGradient id="paint10_linear" x1="0.999998" y1="0" x2="0.999998" y2="99" gradientUnits="userSpaceOnUse">
<stop stop-opacity="0.7"/>
<stop offset="1"/>
</linearGradient>
<linearGradient id="paint11_linear" x1="100" y1="832" x2="100" y2="931" gradientUnits="userSpaceOnUse">
<stop stop-opacity="0.3"/>
<stop offset="1" stop-opacity="0"/>
</linearGradient>
<linearGradient id="paint12_linear" x1="1" y1="0" x2="1" y2="101" gradientUnits="userSpaceOnUse">
<stop stop-opacity="0.7"/>
<stop offset="1" stop-opacity="0.3"/>
</linearGradient>
<linearGradient id="paint13_linear" x1="0.999998" y1="0" x2="0.999998" y2="99" gradientUnits="userSpaceOnUse">
<stop stop-opacity="0.7"/>
<stop offset="1"/>
</linearGradient>
<linearGradient id="paint14_linear" x1="781.5" y1="448" x2="781.5" y2="547" gradientUnits="userSpaceOnUse">
<stop stop-opacity="0.3"/>
<stop offset="1" stop-opacity="0"/>
</linearGradient>
<linearGradient id="paint15_linear" x1="1" y1="0" x2="1" y2="101" gradientUnits="userSpaceOnUse">
<stop stop-opacity="0.7"/>
<stop offset="1" stop-opacity="0.3"/>
</linearGradient>
<linearGradient id="paint16_linear" x1="0.999998" y1="0" x2="0.999998" y2="99" gradientUnits="userSpaceOnUse">
<stop stop-opacity="0.7"/>
<stop offset="1"/>
</linearGradient>
<linearGradient id="paint17_linear" x1="802" y1="220" x2="802" y2="319" gradientUnits="userSpaceOnUse">
<stop stop-opacity="0.3"/>
<stop offset="1" stop-opacity="0"/>
</linearGradient>
<linearGradient id="paint18_linear" x1="1" y1="0" x2="1" y2="101" gradientUnits="userSpaceOnUse">
<stop stop-opacity="0.5"/>
<stop offset="1" stop-color="#C4C4C4" stop-opacity="0"/>
</linearGradient>
<linearGradient id="paint19_linear" x1="0.999998" y1="0" x2="0.999998" y2="99" gradientUnits="userSpaceOnUse">
<stop stop-opacity="0.5"/>
<stop offset="1"/>
</linearGradient>
<linearGradient id="paint20_linear" x1="0.999998" y1="0" x2="0.999998" y2="99" gradientUnits="userSpaceOnUse">
<stop stop-opacity="0.5"/>
<stop offset="1"/>
</linearGradient>
<linearGradient id="paint21_linear" x1="1072" y1="319" x2="1072" y2="420" gradientUnits="userSpaceOnUse">
<stop stop-opacity="0.5"/>
<stop offset="1" stop-color="#C4C4C4" stop-opacity="0"/>
</linearGradient>
<linearGradient id="paint22_linear" x1="1074" y1="321" x2="1074" y2="420" gradientUnits="userSpaceOnUse">
<stop stop-opacity="0.5"/>
<stop offset="1"/>
</linearGradient>
<linearGradient id="paint23_linear" x1="0.999998" y1="0" x2="0.999998" y2="99" gradientUnits="userSpaceOnUse">
<stop stop-opacity="0.5"/>
<stop offset="1"/>
</linearGradient>
<linearGradient id="paint24_linear" x1="0.999998" y1="0" x2="0.999998" y2="99" gradientUnits="userSpaceOnUse">
<stop stop-opacity="0.5"/>
<stop offset="1"/>
</linearGradient>
<linearGradient id="paint25_linear" x1="0.999998" y1="0" x2="0.999998" y2="99" gradientUnits="userSpaceOnUse">
<stop stop-opacity="0.5"/>
<stop offset="1"/>
</linearGradient>
<linearGradient id="paint26_linear" x1="0.999998" y1="0" x2="0.999998" y2="99" gradientUnits="userSpaceOnUse">
<stop stop-opacity="0.5"/>
<stop offset="1"/>
</linearGradient>
<linearGradient id="paint27_linear" x1="0.999998" y1="0" x2="0.999998" y2="99" gradientUnits="userSpaceOnUse">
<stop stop-opacity="0.5"/>
<stop offset="1"/>
</linearGradient>
<clipPath id="clip0">
<rect width="48" height="48" fill="white" transform="translate(1173 295)"/>
</clipPath>
</defs>
</svg>
