<svg width="1440" height="849" viewBox="0 0 1440 849" fill="none" xmlns="http://www.w3.org/2000/svg">
<g opacity="0.05">
<rect width="2" height="99" transform="matrix(-1 -5.56363e-08 -5.56363e-08 1 87 130)" fill="url(#paint0_linear)"/>
<rect width="6" height="6" rx="3" transform="matrix(-1 -5.56363e-08 -5.56363e-08 1 89 224)" fill="black"/>
<path d="M86.0001 267C85.2861 267 84.6251 266.619 84.2681 266L67.5251 237C67.1681 236.381 67.1681 235.619 67.5251 235C67.8821 234.381 68.5431 234 69.2571 234H102.743C103.457 234 104.118 234.381 104.475 235C104.832 235.619 104.832 236.381 104.475 237L87.7321 266C87.3751 266.619 86.7141 267 86.0001 267ZM72.7211 238L86.0001 261L99.2791 238H72.7211Z" fill="black"/>
<path d="M72.7209 238L85.9999 261L99.2789 238H72.7209Z" fill="#FAFAFA"/>
<path d="M255 555L264 547V545H255V555ZM255 568L264 560V558H255V568ZM255 581L264 573V571H255V581ZM237 555L228 547V545H237V555ZM237 568L228 560V558H237V568ZM237 581L228 573V571H237V581Z" fill="black"/>
<path d="M237 582C237 583.104 237.896 584 239 584H253C254.104 584 255 583.104 255 582V544C255 542.896 254.104 542 253 542H239C237.896 542 237 542.896 237 544V582Z" fill="black"/>
<path d="M246 557C247.591 557 249.117 557.632 250.243 558.757C251.368 559.883 252 561.409 252 563C252 564.591 251.368 566.117 250.243 567.243C249.117 568.368 247.591 569 246 569C244.409 569 242.883 568.368 241.757 567.243C240.632 566.117 240 564.591 240 563C240 561.409 240.632 559.883 241.757 558.757C242.883 557.632 244.409 557 246 557ZM246 570C247.591 570 249.117 570.632 250.243 571.757C251.368 572.883 252 574.409 252 576C252 577.591 251.368 579.117 250.243 580.243C249.117 581.368 247.591 582 246 582C244.409 582 242.883 581.368 241.757 580.243C240.632 579.117 240 577.591 240 576C240 574.409 240.632 572.883 241.757 571.757C242.883 570.632 244.409 570 246 570ZM246 544C246.788 544 247.568 544.155 248.296 544.457C249.024 544.758 249.685 545.2 250.243 545.757C250.8 546.315 251.242 546.976 251.543 547.704C251.845 548.432 252 549.212 252 550C252 550.788 251.845 551.568 251.543 552.296C251.242 553.024 250.8 553.685 250.243 554.243C249.685 554.8 249.024 555.242 248.296 555.543C247.568 555.845 246.788 556 246 556C245.212 556 244.432 555.845 243.704 555.543C242.976 555.242 242.315 554.8 241.757 554.243C241.2 553.685 240.758 553.024 240.457 552.296C240.155 551.568 240 550.788 240 550C240 549.212 240.155 548.432 240.457 547.704C240.758 546.976 241.2 546.315 241.757 545.757C242.315 545.2 242.976 544.758 243.704 544.457C244.432 544.155 245.212 544 246 544Z" fill="black"/>
<path d="M246 558.715C247.137 558.715 248.227 559.166 249.03 559.97C249.834 560.774 250.285 561.864 250.285 563C250.285 564.136 249.834 565.226 249.03 566.03C248.227 566.834 247.137 567.285 246 567.285C244.864 567.285 243.774 566.834 242.97 566.03C242.167 565.226 241.715 564.136 241.715 563C241.715 561.864 242.167 560.774 242.97 559.97C243.774 559.166 244.864 558.715 246 558.715Z" fill="white"/>
<path d="M246 571.715C246.563 571.715 247.12 571.826 247.64 572.041C248.16 572.257 248.632 572.572 249.03 572.97C249.428 573.368 249.744 573.84 249.959 574.36C250.174 574.88 250.285 575.437 250.285 576C250.285 576.563 250.174 577.12 249.959 577.64C249.744 578.16 249.428 578.632 249.03 579.03C248.632 579.428 248.16 579.744 247.64 579.959C247.12 580.174 246.563 580.285 246 580.285C245.437 580.285 244.88 580.174 244.36 579.959C243.84 579.744 243.368 579.428 242.97 579.03C242.572 578.632 242.257 578.16 242.041 577.64C241.826 577.12 241.715 576.563 241.715 576C241.715 575.437 241.826 574.88 242.041 574.36C242.257 573.84 242.572 573.368 242.97 572.97C243.368 572.572 243.84 572.257 244.36 572.041C244.88 571.826 245.437 571.715 246 571.715Z" fill="white"/>
<path d="M246 545.715C247.137 545.715 248.227 546.166 249.03 546.97C249.834 547.774 250.285 548.864 250.285 550C250.285 551.136 249.834 552.226 249.03 553.03C248.227 553.834 247.137 554.285 246 554.285C244.864 554.285 243.774 553.834 242.97 553.03C242.167 552.226 241.715 551.136 241.715 550C241.715 548.864 242.167 547.774 242.97 546.97C243.774 546.166 244.864 545.715 246 545.715Z" fill="white"/>
<rect width="2" height="101" transform="matrix(-1 0 0 1 372 563)" fill="url(#paint1_linear)"/>
<rect width="2" height="99" transform="matrix(4.37114e-08 -1 -1 -4.37114e-08 370 565)" fill="url(#paint2_linear)"/>
<rect width="6" height="6" rx="3" transform="matrix(4.37114e-08 -1 -1 -4.37114e-08 276 567)" fill="black"/>
<rect x="605" y="352" width="2" height="101" transform="rotate(90 605 352)" fill="url(#paint3_linear)"/>
<rect x="603" y="354" width="2" height="99" fill="url(#paint4_linear)"/>
<rect x="601" y="448" width="6" height="6" rx="3" fill="black"/>
<path d="M593.188 461.094C590.703 461.094 588.762 462.227 587.688 464.313C587.352 464.961 586.086 468.184 584.844 471.438H584.812C584.781 471.516 584.727 471.594 584.688 471.688C584.555 471.992 584.367 472.422 584.281 472.906C583.219 475.703 582.281 478.234 582.062 478.813L582 479V491C582 492.652 583.348 494 585 494H589C590.652 494 592 492.652 592 491V490.188L612 490.688V491C612 492.652 613.348 494 615 494H619C620.652 494 622 492.652 622 491C622 491 622 488.332 622 488C622 483.902 620.691 482.57 619.688 482.156L619.5 476.813L616.219 473.719C616.992 472.371 618.273 469.578 616.656 467.875C615.105 466.242 611.574 465.961 610.281 465.906C609.16 464.832 605.223 462.035 593.906 461.125C593.664 461.106 593.414 461.094 593.188 461.094ZM593 463.094C593.238 463.086 593.492 463.106 593.75 463.125C606.176 464.125 609.02 467.453 609.031 467.469L609.312 467.875H609.812C611.398 467.887 614.258 468.27 615.188 469.25C615.871 469.969 614.961 472.098 614.125 473.313L613.625 474.031L617.469 477.625C617.391 478.109 617.191 478.594 616.781 478.813C616.359 479.043 615.051 479.336 612 477.219C609.445 472.188 601.875 473.207 595.781 474.031C593.527 474.336 591.402 474.613 589.938 474.531C586.891 474.359 586.359 473.723 586.281 473.594C586.25 473.543 586.25 473.477 586.25 473.406C587.742 469.492 589.16 465.848 589.469 465.25C590.176 463.875 591.336 463.145 593 463.094ZM582.094 471C579.07 471 578 472.859 578 474.594C578 475.438 578.379 476.797 580.625 476.969C581.039 475.871 581.68 474.172 582.375 472.344C582.5 471.766 582.68 471.305 582.812 471H582.094ZM619.406 472.375L619 473.563L620.875 475.344L621.469 475.906L621.5 476.75L621.594 479.469C622.164 479.672 622.656 479.781 623.094 479.781C624.125 479.781 624.891 479.238 625.25 478.25C625.469 477.648 625.66 476.723 625.281 475.75C624.887 474.731 624 473.973 622.625 473.469L619.406 472.375ZM588 479H592C593.656 479 595 480.344 595 482C595 483.656 593.656 485 592 485C590.324 485 589.828 484.574 588.094 483.594C586.934 482.938 586 482.309 586 481C586 479.895 586.895 479 588 479ZM611.625 481.531C611.996 481.523 612.359 481.59 612.719 481.719C612.719 481.719 615.281 483.063 616.312 482.75L616.281 483.906L617.438 485C616.637 486.387 615.789 486.727 614.562 486.938L614.219 485.938L616.438 485.188L614.688 484.875L615.188 483.688L613.594 484.656C613.582 484.664 613.57 484.633 613.562 484.625L611.812 482.625L612.312 484.844C612.316 484.863 612.297 484.906 612.281 484.906H609.75L612.656 486.094C612.664 486.098 612.688 486.086 612.688 486.094L612.781 487.219C612.09 487.293 611.523 487.25 610.656 486.938C609.164 486.402 608.426 484.734 609.031 483.25C609.465 482.188 610.516 481.551 611.625 481.531Z" fill="black"/>
<path d="M1256.47 723.252L1265.25 714.464C1266.2 713.52 1267.45 713 1268.79 713H1281.21C1282.55 713 1283.8 713.52 1284.75 714.465L1293.53 723.252C1294.48 724.197 1295 725.452 1295 726.787V739.214C1295 740.547 1294.48 741.804 1293.53 742.751L1284.75 751.536C1283.8 752.48 1282.55 753 1281.21 753H1268.79C1267.45 753 1266.2 752.48 1265.25 751.535L1256.46 742.748C1255.52 741.802 1255 740.545 1255 739.213V726.787C1255 725.452 1255.52 724.197 1256.47 723.252Z" fill="black"/>
<path opacity="0.05" d="M1260.87 727.372H1263.7C1264.57 727.372 1265.28 728.079 1265.28 728.947V731.296C1265.55 730.351 1266.03 729.482 1266.68 728.81C1267.7 727.763 1269.08 727.209 1270.67 727.209C1272.65 727.209 1274.09 727.98 1275.05 729.113V728.946C1275.05 728.078 1275.76 727.371 1276.63 727.371H1283.16C1283.84 727.371 1284.41 727.796 1284.63 728.389C1284.84 727.937 1285.22 727.577 1285.73 727.447C1286.34 727.29 1287.07 727.21 1287.88 727.21C1290.79 727.21 1292.67 728.731 1292.67 731.083C1292.67 733.571 1290.7 734.432 1289.39 735.001C1289.09 735.135 1288.65 735.324 1288.44 735.442C1288.55 735.47 1288.72 735.497 1288.97 735.497C1289.62 735.497 1290.31 735.155 1290.66 734.952C1291.06 734.718 1291.57 734.715 1291.97 734.948C1292.38 735.18 1292.63 735.615 1292.63 736.083V737.202C1292.63 737.924 1292.18 738.569 1291.51 738.808C1290.76 739.075 1289.87 739.209 1288.85 739.209C1288.84 739.209 1288.84 739.209 1288.83 739.209C1286.76 739.209 1285.63 738.519 1285.05 737.938C1284.38 737.267 1284.03 736.387 1284.03 735.323C1284.03 732.802 1286.11 731.9 1287.35 731.362C1287.62 731.243 1288 731.079 1288.22 730.979C1288.08 730.946 1287.91 730.921 1287.75 730.921C1287.17 730.921 1286.66 731.107 1286.32 731.262C1285.92 731.454 1285.45 731.423 1285.07 731.182C1284.78 730.998 1284.58 730.714 1284.5 730.39C1284.22 730.841 1283.73 731.144 1283.16 731.144H1281.99V737.464C1281.99 738.332 1281.29 739.039 1280.42 739.039H1279.38C1278.51 739.039 1277.81 738.332 1277.81 737.464V731.144H1276.63C1276.45 731.144 1276.29 731.11 1276.14 731.059C1276.39 731.793 1276.51 732.57 1276.51 733.333C1276.51 736.162 1274.73 739.208 1270.82 739.208C1267.51 739.208 1265.85 737.124 1265.28 734.863V737.464C1265.28 738.332 1264.57 739.039 1263.7 739.039H1262.68C1261.81 739.039 1261.1 738.332 1261.1 737.464V735.71H1261.06C1257.73 735.71 1256.21 733.503 1256.21 731.453C1256.21 729.929 1256.82 727.372 1260.87 727.372ZM1270.73 731.085C1270.35 731.085 1269.34 731.085 1269.34 733.261C1269.34 734.033 1269.52 735.329 1270.78 735.329C1272.04 735.329 1272.22 734.008 1272.22 733.22C1272.22 732.423 1272.03 731.085 1270.73 731.085ZM1260.51 731.534C1260.51 731.848 1260.51 732.032 1261.1 732.055V731.046C1260.51 731.07 1260.51 731.25 1260.51 731.534Z" fill="black"/>
<path opacity="0.07" d="M1284.54 735.324C1284.54 736.251 1284.83 737.012 1285.4 737.585C1285.92 738.099 1286.93 738.71 1288.83 738.71C1288.84 738.71 1288.84 738.71 1288.85 738.71C1289.82 738.71 1290.65 738.585 1291.34 738.337C1291.82 738.17 1292.13 737.713 1292.13 737.202V736.083C1292.13 735.79 1291.98 735.527 1291.73 735.382C1291.48 735.237 1291.16 735.237 1290.91 735.385C1290.52 735.614 1289.74 735.997 1288.97 735.997C1288.13 735.997 1287.83 735.74 1287.83 735.519C1287.83 735.163 1288.35 734.912 1289.19 734.542C1290.45 733.993 1292.17 733.243 1292.17 731.082C1292.17 728.595 1289.95 727.709 1287.88 727.709C1287.11 727.709 1286.43 727.783 1285.85 727.931C1285.33 728.067 1284.96 728.542 1284.96 729.086V730.076C1284.96 730.355 1285.1 730.611 1285.34 730.761C1285.57 730.91 1285.86 730.928 1286.11 730.811C1286.49 730.633 1287.08 730.422 1287.75 730.422C1287.99 730.422 1288.88 730.503 1288.88 730.9C1288.88 731.221 1288.35 731.474 1287.55 731.822C1286.28 732.374 1284.54 733.131 1284.54 735.324ZM1275.55 729.57V728.947C1275.55 728.354 1276.03 727.872 1276.63 727.872H1283.16C1283.76 727.872 1284.24 728.354 1284.24 728.947V729.57C1284.24 730.163 1283.76 730.645 1283.16 730.645H1281.49V737.465C1281.49 738.058 1281.01 738.54 1280.42 738.54H1279.39C1278.79 738.54 1278.31 738.058 1278.31 737.465V730.645H1276.63C1276.03 730.646 1275.55 730.163 1275.55 729.57ZM1267.04 729.158C1266.06 730.165 1265.5 731.658 1265.54 733.152C1265.62 735.716 1267.04 738.71 1270.82 738.71C1274.41 738.71 1276.02 736.011 1276.02 733.335C1276.02 730.535 1274.36 727.71 1270.67 727.71C1269.21 727.71 1267.96 728.211 1267.04 729.158ZM1268.84 733.261C1268.84 731.486 1269.47 730.585 1270.73 730.585C1272.58 730.585 1272.72 732.602 1272.72 733.22C1272.72 733.832 1272.58 735.829 1270.78 735.829C1269.03 735.829 1268.84 734.033 1268.84 733.261ZM1256.71 731.453C1256.71 733.323 1258.06 735.21 1261.06 735.21H1261.6V737.466C1261.6 738.059 1262.08 738.541 1262.68 738.541H1263.7C1264.3 738.541 1264.78 738.059 1264.78 737.466V728.947C1264.78 728.354 1264.3 727.872 1263.7 727.872H1260.87C1257.43 727.872 1256.71 729.819 1256.71 731.453ZM1261.6 732.559H1261.25C1260.16 732.559 1260.01 732.067 1260.01 731.535C1260.01 731.02 1260.16 730.545 1261.25 730.545H1261.6V732.559Z" fill="black"/>
<path d="M1291.18 737.866C1291.45 737.767 1291.63 737.497 1291.63 737.202V736.083C1291.63 735.842 1291.37 735.695 1291.16 735.816C1290.67 736.105 1289.83 736.497 1288.97 736.497C1287.37 736.497 1287.33 735.659 1287.33 735.519C1287.33 733.835 1291.67 734.252 1291.67 731.082C1291.67 728.275 1288.44 728.209 1287.88 728.209C1287 728.209 1286.39 728.31 1285.98 728.415C1285.67 728.493 1285.46 728.77 1285.46 729.086V730.076C1285.46 730.304 1285.7 730.454 1285.9 730.357C1286.32 730.163 1286.99 729.922 1287.76 729.922C1288 729.922 1289.38 729.981 1289.38 730.9C1289.38 732.52 1285.04 732.13 1285.04 735.323C1285.04 738.262 1288.36 738.209 1288.87 738.209C1289.96 738.21 1290.71 738.034 1291.18 737.866Z" fill="white"/>
<path d="M1276.63 730.145H1278.81V737.466C1278.81 737.784 1279.07 738.041 1279.38 738.041H1280.42C1280.74 738.041 1280.99 737.783 1280.99 737.466V730.145H1283.16C1283.48 730.145 1283.74 729.887 1283.74 729.57V728.947C1283.74 728.629 1283.48 728.372 1283.16 728.372H1276.63C1276.31 728.372 1276.05 728.63 1276.05 728.947V729.57C1276.05 729.888 1276.31 730.145 1276.63 730.145Z" fill="white"/>
<path d="M1270.82 738.21C1274.4 738.21 1275.52 735.366 1275.52 733.335C1275.52 730.699 1273.94 728.21 1270.67 728.21C1267.39 728.21 1265.98 730.913 1266.04 733.139C1266.11 735.365 1267.25 738.21 1270.82 738.21ZM1270.73 730.085C1272.91 730.085 1273.22 732.276 1273.22 733.221C1273.22 734.179 1272.91 736.33 1270.78 736.33C1268.66 736.33 1268.34 734.224 1268.34 733.262C1268.34 732.258 1268.55 730.085 1270.73 730.085Z" fill="white"/>
<path d="M1262.1 734.71V737.466C1262.1 737.784 1262.36 738.041 1262.68 738.041H1263.7C1264.02 738.041 1264.28 737.783 1264.28 737.466V728.947C1264.28 728.629 1264.02 728.372 1263.7 728.372H1260.87C1258.43 728.372 1257.21 729.399 1257.21 731.454C1257.21 733.154 1258.46 734.711 1261.06 734.711H1262.1V734.71ZM1262.1 730.044V733.058H1261.25C1260.09 733.058 1259.51 732.55 1259.51 731.534C1259.51 730.541 1260.09 730.044 1261.25 730.044H1262.1Z" fill="white"/>
<rect x="1149" y="733" width="2" height="101" transform="rotate(180 1149 733)" fill="url(#paint5_linear)"/>
<rect x="1149" y="733" width="2" height="99" transform="rotate(-90 1149 733)" fill="url(#paint6_linear)"/>
<rect x="1243" y="735" width="6" height="6" rx="3" transform="rotate(-90 1243 735)" fill="black"/>
<rect width="2" height="101" transform="matrix(1 5.56363e-08 5.56363e-08 -1 680 793)" fill="url(#paint7_linear)"/>
<rect width="2" height="99" transform="matrix(-9.93477e-08 1 1 9.93477e-08 682 791)" fill="url(#paint8_linear)"/>
<rect width="6" height="6" rx="3" transform="matrix(-9.93477e-08 1 1 9.93477e-08 776 789)" fill="black"/>
<path d="M786.035 808.5C785.127 808.5 784.31 808.027 783.851 807.236C783.385 806.432 783.382 805.47 783.844 804.664L799.81 776.777C800.267 775.978 801.086 775.5 802 775.5C802.914 775.5 803.733 775.978 804.19 776.777L820.155 804.664C820.617 805.47 820.614 806.432 820.148 807.236C819.689 808.028 818.873 808.5 817.964 808.5H786.035Z" fill="black"/>
<path d="M802 776C802.733 776 803.389 776.383 803.757 777.025L819.722 804.912C820.094 805.562 820.092 806.337 819.716 806.985C819.347 807.621 818.693 808 817.965 808H786.035C785.307 808 784.653 807.621 784.284 806.985C783.908 806.337 783.906 805.562 784.278 804.912L800.243 777.025C800.611 776.383 801.267 776 802 776ZM802 775C800.979 775 799.959 775.509 799.375 776.528L783.411 804.415C782.244 806.453 783.702 809 786.035 809H817.965C820.298 809 821.756 806.453 820.59 804.415L804.625 776.528C804.041 775.509 803.021 775 802 775Z" fill="black"/>
<path d="M787.147 805.5L802 778.977L816.853 805.5H787.147Z" fill="white"/>
<path d="M802 780L816 805H788L802 780ZM802 777.953L801.127 779.511L787.127 804.511L786.294 806H788H816H817.706L816.872 804.511L802.872 779.511L802 777.953Z" fill="black"/>
<path d="M797 794L808 801" stroke="black" stroke-width="0.5" stroke-miterlimit="10"/>
<path d="M802.45 795.673L803.088 798.314C803.179 798.738 803.568 799.03 804 799C804.525 798.963 804.898 798.472 804.792 797.957L803.913 793.988C803.86 793.728 803.713 793.498 803.498 793.341C802.979 792.963 801.996 792.248 801.601 791.961C801.488 791.879 801.362 791.821 801.226 791.789L799.066 791.046C798.638 790.943 798.19 791.113 797.939 791.475L796.14 793.645C795.879 794.022 795.964 794.539 796.333 794.813C796.716 795.097 797.258 795.01 797.534 794.621L798.731 793.262L799.653 793.569L798 796L796 804H798L799.474 799L800.632 800.285L801.217 804H803L802.45 799.631L801.19 797.385L802.45 795.673Z" fill="black"/>
<path d="M804 789C803.47 789 802.961 789.211 802.586 789.586C802.211 789.961 802 790.47 802 791C802 791.53 802.211 792.039 802.586 792.414C802.961 792.789 803.47 793 804 793C804.53 793 805.039 792.789 805.414 792.414C805.789 792.039 806 791.53 806 791C806 790.47 805.789 789.961 805.414 789.586C805.039 789.211 804.53 789 804 789Z" fill="black"/>
<path d="M804 804H812C811.211 802.015 809.569 799 808.71 799C807.884 799 807.09 802.284 806.441 802.284C806.136 802.284 805.727 801.968 805.316 801.968C804.885 801.968 804 803.324 804 804Z" fill="black"/>
<path d="M315 748C315 759.044 306.044 768 295 768C283.956 768 275 759.044 275 748C275 736.956 283.956 728 295 728C306.044 728 315 736.956 315 748Z" fill="white"/>
<path d="M295 732C303.821 732 311 739.179 311 748C311 756.821 303.821 764 295 764C286.179 764 279 756.821 279 748C279 739.179 286.179 732 295 732ZM295 728C283.956 728 275 736.956 275 748C275 759.044 283.956 768 295 768C306.044 768 315 759.044 315 748C315 736.956 306.044 728 295 728Z" fill="black"/>
<path d="M285.254 748.156L286.063 741.187H293.782V743.621H288.548L288.247 746.348C288.466 746.215 288.751 746.098 289.106 745.996C289.461 745.898 289.805 745.848 290.145 745.848C291.458 745.848 292.465 746.25 293.168 747.051C293.871 747.852 294.227 748.977 294.227 750.426C294.227 751.297 294.036 752.09 293.661 752.797C293.282 753.504 292.751 754.051 292.067 754.43C291.383 754.809 290.574 755 289.645 755C288.817 755 288.04 754.824 287.313 754.473C286.586 754.121 286.02 753.637 285.61 753.024C285.196 752.411 284.993 751.715 285.001 750.942H288.067C288.098 751.442 288.251 751.837 288.528 752.13C288.805 752.423 289.173 752.568 289.626 752.568C290.653 752.568 291.169 751.787 291.169 750.216C291.169 748.767 290.54 748.036 289.282 748.036C288.567 748.036 288.036 748.274 287.684 748.747L285.254 748.156ZM305 749.242C305 751.086 304.602 752.504 303.801 753.504C302.996 754.504 301.867 755 300.41 755C298.941 755 297.805 754.496 297 753.492C296.195 752.488 295.793 751.07 295.793 749.242V746.758C295.793 744.914 296.195 743.496 296.996 742.496C297.797 741.5 298.93 741 300.395 741C301.856 741 302.989 741.504 303.793 742.508C304.597 743.512 305 744.93 305 746.766V749.242ZM301.941 746.352C301.941 745.375 301.82 744.645 301.57 744.161C301.324 743.677 300.929 743.434 300.39 743.434C299.867 743.434 299.484 743.661 299.242 744.11C299.008 744.559 298.879 745.239 298.859 746.149V749.629C298.859 750.645 298.984 751.391 299.23 751.859C299.476 752.332 299.871 752.566 300.41 752.566C300.93 752.566 301.312 752.336 301.562 751.878C301.808 751.421 301.937 750.698 301.941 749.722V746.352Z" fill="black"/>
<rect width="2" height="101" transform="matrix(-1 0 0 1 172 748)" fill="url(#paint9_linear)"/>
<rect width="2" height="99" transform="matrix(-4.37114e-08 1 1 4.37114e-08 172 748)" fill="url(#paint10_linear)"/>
<rect x="170" y="847" width="2" height="99" transform="rotate(90 170 847)" fill="url(#paint11_linear)"/>
<rect width="6" height="6" rx="3" transform="matrix(-4.37114e-08 1 1 4.37114e-08 266 746)" fill="black"/>
<path d="M943 598C943 609.044 934.044 618 923 618C911.956 618 903 609.044 903 598C903 586.956 911.956 578 923 578C934.044 578 943 586.956 943 598Z" fill="white"/>
<path d="M923 582C931.821 582 939 589.179 939 598C939 606.821 931.821 614 923 614C914.179 614 907 606.821 907 598C907 589.179 914.179 582 923 582ZM923 578C911.956 578 903 586.956 903 598C903 609.044 911.956 618 923 618C934.044 618 943 609.044 943 598C943 586.956 934.044 578 923 578Z" fill="black"/>
<path d="M913.254 598.156L914.063 591.187H921.782V593.621H916.548L916.247 596.348C916.466 596.215 916.751 596.098 917.106 595.996C917.461 595.898 917.805 595.848 918.145 595.848C919.458 595.848 920.465 596.25 921.168 597.051C921.871 597.852 922.227 598.977 922.227 600.426C922.227 601.297 922.036 602.09 921.661 602.797C921.282 603.504 920.751 604.051 920.067 604.43C919.383 604.809 918.574 605 917.645 605C916.817 605 916.04 604.824 915.313 604.473C914.586 604.121 914.02 603.637 913.61 603.024C913.196 602.411 912.993 601.715 913.001 600.942H916.067C916.098 601.442 916.251 601.837 916.528 602.13C916.805 602.423 917.173 602.568 917.626 602.568C918.653 602.568 919.169 601.787 919.169 600.216C919.169 598.767 918.54 598.036 917.282 598.036C916.567 598.036 916.036 598.274 915.684 598.747L913.254 598.156ZM933 599.242C933 601.086 932.602 602.504 931.801 603.504C930.996 604.504 929.867 605 928.41 605C926.941 605 925.805 604.496 925 603.492C924.195 602.488 923.793 601.07 923.793 599.242V596.758C923.793 594.914 924.195 593.496 924.996 592.496C925.797 591.5 926.93 591 928.395 591C929.856 591 930.989 591.504 931.793 592.508C932.597 593.512 933 594.93 933 596.766V599.242ZM929.941 596.352C929.941 595.375 929.82 594.645 929.57 594.161C929.324 593.677 928.929 593.434 928.39 593.434C927.867 593.434 927.484 593.661 927.242 594.11C927.008 594.559 926.879 595.239 926.859 596.149V599.629C926.859 600.645 926.984 601.391 927.23 601.859C927.476 602.332 927.871 602.566 928.41 602.566C928.93 602.566 929.312 602.336 929.562 601.878C929.808 601.421 929.937 600.698 929.941 599.722V596.352Z" fill="black"/>
<rect width="2" height="101" transform="matrix(4.37114e-08 -1 -1 -4.37114e-08 923 475)" fill="url(#paint12_linear)"/>
<rect width="2" height="99" transform="matrix(-1 -8.74228e-08 -8.74228e-08 1 923 475)" fill="url(#paint13_linear)"/>
<rect x="824" y="473" width="2" height="99" transform="rotate(-180 824 473)" fill="url(#paint14_linear)"/>
<rect width="6" height="6" rx="3" transform="matrix(-1 -8.74228e-08 -8.74228e-08 1 925 569)" fill="black"/>
<rect width="2" height="101" transform="matrix(-1 0 0 1 427 250)" fill="url(#paint15_linear)"/>
<rect width="2" height="99" transform="matrix(-4.37114e-08 1 1 4.37114e-08 427 250)" fill="url(#paint16_linear)"/>
<rect x="425" y="349" width="2" height="99" transform="rotate(90 425 349)" fill="url(#paint17_linear)"/>
<rect width="6" height="6" rx="3" transform="matrix(-4.37114e-08 1 1 4.37114e-08 521 248)" fill="black"/>
<path d="M568.937 244.001C568.729 238.244 567 234.001 567 234.001C567 234.001 561 239.001 551 234.001V234.147L550.961 234.001C540.961 239.001 534.961 234.001 534.961 234.001C534.961 234.001 533.232 238.244 533.024 244.001H568.937Z" fill="black"/>
<path d="M533.024 244C532.728 252.221 535.54 263.53 550.961 270.002L551 269.744V270.002C566.422 263.53 569.232 252.221 568.937 244H533.024Z" fill="black"/>
<path d="M549.18 249.041V250.949H548.959C547.928 250.965 547.098 251.238 546.469 251.767C545.84 252.296 545.463 253.031 545.336 253.973C545.946 253.342 546.717 253.027 547.649 253.027C548.649 253.027 549.443 253.39 550.033 254.117C550.622 254.845 550.917 255.803 550.917 256.989C550.917 257.748 550.755 258.436 550.432 259.051C550.108 259.666 549.651 260.145 549.058 260.487C548.465 260.828 547.796 261 547.049 261C545.839 261 544.861 260.572 544.117 259.717C543.373 258.861 543 257.719 543 256.291V255.457C543 254.189 543.235 253.071 543.707 252.101C544.178 251.13 544.853 250.379 545.735 249.847C546.616 249.315 547.638 249.045 548.801 249.041H549.18ZM546.954 254.896C546.585 254.896 546.251 254.993 545.952 255.187C545.652 255.382 545.431 255.64 545.289 255.96V256.665C545.289 257.438 545.439 258.042 545.739 258.478C546.039 258.914 546.46 259.13 547.002 259.13C547.491 259.13 547.887 258.934 548.19 258.542C548.492 258.149 548.644 257.642 548.644 257.017C548.644 256.382 548.492 255.869 548.186 255.48C547.88 255.09 547.47 254.896 546.954 254.896ZM560 256.011C560 257.627 559.671 258.862 559.014 259.717C558.355 260.572 557.393 261 556.125 261C554.873 261 553.915 260.58 553.252 259.74C552.59 258.901 552.25 257.698 552.234 256.131V253.982C552.234 252.35 552.566 251.114 553.232 250.268C553.898 249.422 554.857 249 556.109 249C557.361 249 558.318 249.418 558.982 250.256C559.644 251.093 559.984 252.294 560 253.861V256.011ZM557.719 253.647C557.719 252.679 557.589 251.972 557.328 251.531C557.068 251.09 556.662 250.869 556.109 250.869C555.572 250.869 555.175 251.08 554.921 251.5C554.665 251.92 554.53 252.576 554.514 253.471V256.313C554.514 257.266 554.642 257.975 554.897 258.437C555.152 258.9 555.562 259.131 556.125 259.131C556.683 259.131 557.086 258.91 557.332 258.465C557.58 258.02 557.709 257.34 557.719 256.425V253.647ZM533.002 245H568.959C568.956 244.312 568.927 243.647 568.883 243H533.078C533.034 243.647 533.005 244.312 533.002 245Z" fill="white"/>
<path d="M1025 101C1025 112.044 1016.04 121 1005 121C993.956 121 985 112.044 985 101C985 89.956 993.956 81 1005 81C1016.04 81 1025 89.956 1025 101Z" fill="white"/>
<path d="M1005 85C1013.82 85 1021 92.179 1021 101C1021 109.821 1013.82 117 1005 117C996.179 117 989 109.821 989 101C989 92.179 996.179 85 1005 85ZM1005 81C993.956 81 985 89.956 985 101C985 112.044 993.956 121 1005 121C1016.04 121 1025 112.044 1025 101C1025 89.956 1016.04 81 1005 81Z" fill="black"/>
<path d="M995.254 101.156L996.063 94.187H1003.78V96.621H998.548L998.247 99.348C998.466 99.215 998.751 99.098 999.106 98.996C999.461 98.898 999.805 98.848 1000.14 98.848C1001.46 98.848 1002.46 99.25 1003.17 100.051C1003.87 100.852 1004.23 101.977 1004.23 103.426C1004.23 104.297 1004.04 105.09 1003.66 105.797C1003.28 106.504 1002.75 107.051 1002.07 107.43C1001.38 107.809 1000.57 108 999.645 108C998.817 108 998.04 107.824 997.313 107.473C996.586 107.121 996.02 106.637 995.61 106.024C995.196 105.411 994.993 104.715 995.001 103.942H998.067C998.098 104.442 998.251 104.837 998.528 105.13C998.805 105.423 999.173 105.568 999.626 105.568C1000.65 105.568 1001.17 104.787 1001.17 103.216C1001.17 101.767 1000.54 101.036 999.282 101.036C998.567 101.036 998.036 101.274 997.684 101.747L995.254 101.156ZM1015 102.242C1015 104.086 1014.6 105.504 1013.8 106.504C1013 107.504 1011.87 108 1010.41 108C1008.94 108 1007.8 107.496 1007 106.492C1006.19 105.488 1005.79 104.07 1005.79 102.242V99.758C1005.79 97.914 1006.19 96.496 1007 95.496C1007.8 94.5 1008.93 94 1010.39 94C1011.86 94 1012.99 94.504 1013.79 95.508C1014.6 96.512 1015 97.93 1015 99.766V102.242ZM1011.94 99.352C1011.94 98.375 1011.82 97.645 1011.57 97.161C1011.32 96.677 1010.93 96.434 1010.39 96.434C1009.87 96.434 1009.48 96.661 1009.24 97.11C1009.01 97.559 1008.88 98.239 1008.86 99.149V102.629C1008.86 103.645 1008.98 104.391 1009.23 104.859C1009.48 105.332 1009.87 105.566 1010.41 105.566C1010.93 105.566 1011.31 105.336 1011.56 104.878C1011.81 104.421 1011.94 103.698 1011.94 102.722V99.352Z" fill="black"/>
<rect x="882" y="101" width="2" height="101" transform="rotate(-180 882 101)" fill="url(#paint18_linear)"/>
<rect x="882" y="101" width="2" height="99" transform="rotate(-90 882 101)" fill="url(#paint19_linear)"/>
<rect width="2" height="99" transform="matrix(4.37114e-08 -1 -1 -4.37114e-08 880 2)" fill="url(#paint20_linear)"/>
<rect x="976" y="103" width="6" height="6" rx="3" transform="rotate(-90 976 103)" fill="black"/>
<rect width="2" height="99" transform="matrix(-4.37114e-08 1 1 4.37114e-08 1222 232)" fill="url(#paint21_linear)"/>
<rect width="6" height="6" rx="3" transform="matrix(-4.37114e-08 1 1 4.37114e-08 1316 230)" fill="black"/>
<path d="M1355 211.88C1354.01 211.88 1353.12 212.386 1352.63 213.23L1333.34 246.74C1332.81 247.666 1332.8 248.818 1333.34 249.74C1333.85 250.629 1334.77 251.15 1335.77 251.15C1335.83 251.15 1335.89 251.154 1335.89 251.15H1374.02C1375.13 251.15 1376.11 250.565 1376.66 249.62C1377.2 248.679 1377.2 247.561 1376.66 246.62L1357.37 213.23C1356.88 212.39 1355.99 211.88 1355 211.88ZM1356.14 226.28C1357.15 226.28 1357.97 227.101 1357.97 228.11C1357.97 229.119 1357.15 229.94 1356.14 229.94C1355.13 229.94 1354.34 229.119 1354.34 228.11C1354.34 227.101 1355.13 226.28 1356.14 226.28ZM1353.26 229.94C1353.45 229.94 1353.84 230.113 1354.7 230.69C1355.66 231.268 1355.96 231.74 1355.96 231.74C1356.06 231.931 1356.16 232.141 1356.26 232.43C1356.26 232.43 1356.89 236.146 1357.19 237.59L1360.31 239.15C1360.39 239.188 1360.46 239.244 1360.52 239.3C1361.21 238.295 1361.41 238.28 1361.72 238.28C1362.01 238.28 1362.39 238.569 1362.68 239.24C1362.87 239.818 1365.56 245.48 1365.56 245.48H1355.96L1357.79 241.82C1357.89 241.531 1358.28 241.46 1358.66 241.46C1358.9 241.46 1359.15 241.213 1359.44 240.86L1353.23 237.77C1353.63 238.509 1354.38 239.919 1354.52 240.2C1354.62 240.391 1354.7 240.669 1354.7 240.86C1354.7 241.051 1354.82 243.763 1354.82 244.34C1354.82 245.011 1354.81 245.48 1354.04 245.48C1353.27 245.48 1353.26 244.52 1353.26 244.52L1352.78 240.59L1350.68 238.67L1348.37 244.7C1348.37 244.7 1348.09 245.769 1347.23 245.48C1346.46 245.191 1346.56 244.231 1346.66 244.04C1346.76 243.849 1348.84 236.559 1348.94 236.27C1348.98 236.154 1349.05 235.944 1349.12 235.73L1347.65 235.01C1347.25 234.815 1347.09 234.376 1347.17 233.96C1347.07 233.754 1347.03 233.469 1347.32 233.18C1347.32 233.18 1349.92 230.398 1350.02 230.3C1350.12 230.203 1350.21 230.12 1350.5 230.12C1350.69 230.023 1353.26 229.94 1353.26 229.94ZM1350.59 231.95L1349 233.54L1350.05 234.05C1350.5 233.405 1351.15 232.52 1351.55 231.95H1350.59ZM1354.82 234.05L1353.62 235.82L1355.45 236.75C1355.22 235.873 1354.99 234.766 1354.82 234.05Z" fill="black"/>
<rect width="2" height="101" transform="matrix(-1 0 0 1 326 34)" fill="url(#paint22_linear)"/>
<rect width="2" height="99" transform="matrix(4.37114e-08 -1 -1 -4.37114e-08 324 36)" fill="url(#paint23_linear)"/>
<rect width="6" height="6" rx="3" transform="matrix(4.37114e-08 -1 -1 -4.37114e-08 230 38)" fill="black"/>
<path d="M208.502 49.975L183.527 49.9992C182.152 50.0009 181.027 48.8767 181.025 47.5017L181.001 22.5275C180.999 21.1525 182.123 20.0259 183.498 20.025L208.472 20.0009C209.847 19.9992 210.973 21.1234 210.975 22.4984L210.999 47.4725C211.001 48.8475 209.877 49.9742 208.502 49.975Z" fill="black"/>
<path opacity="0.05" d="M201.623 27.5484C200.338 26.41 198.575 25.8334 196.385 25.8334H191.773C190.887 25.8334 190.167 26.5534 190.167 27.4392V44.2275C190.167 45.1134 190.887 45.8334 191.773 45.8334H193.739C194.624 45.8334 195.345 45.1134 195.345 44.2275V39.4875H195.952C198.226 39.4875 200.088 38.8317 201.485 37.5384C202.919 36.2117 203.647 34.5 203.647 32.4492C203.646 30.3859 202.965 28.7359 201.623 27.5484ZM198.374 32.5434C198.374 33.4092 198.078 33.7667 197.856 33.96C197.451 34.3117 196.74 34.4975 195.8 34.4975H195.345V30.8242H196.046C198.374 30.8234 198.374 31.8175 198.374 32.5434Z" fill="black"/>
<path opacity="0.07" d="M201.347 27.86C200.14 26.7917 198.471 26.25 196.385 26.25H191.772C191.117 26.25 190.583 26.7833 190.583 27.4392V44.2275C190.583 44.8833 191.117 45.4167 191.772 45.4167H193.739C194.395 45.4167 194.928 44.8833 194.928 44.2275V39.0708H195.952C198.118 39.0708 199.884 38.4525 201.202 37.2325C202.547 35.9883 203.23 34.3783 203.23 32.4492C203.229 30.51 202.596 28.9658 201.347 27.86ZM198.791 32.5433C198.791 33.3217 198.574 33.8867 198.128 34.2742C197.64 34.6992 196.857 34.9142 195.8 34.9142H194.928V30.4075H196.046C198.457 30.4067 198.791 31.4342 198.791 32.5433Z" fill="black"/>
<path d="M201.071 28.1716C199.943 27.1733 198.366 26.6666 196.385 26.6666H191.772C191.345 26.6666 191 27.0125 191 27.4391V44.2283C191 44.6541 191.345 45 191.773 45H193.74C194.167 45 194.513 44.6541 194.513 44.2275V38.6541H195.953C198.01 38.6541 199.682 38.0725 200.92 36.9266C202.176 35.765 202.813 34.2583 202.813 32.4491C202.812 30.6341 202.226 29.195 201.071 28.1716ZM194.512 29.99H196.046C198.848 29.99 199.208 31.3541 199.208 32.5433C199.208 33.4483 198.943 34.1175 198.402 34.5891C197.835 35.0808 196.961 35.3308 195.8 35.3308H194.512V29.99Z" fill="white"/>
<rect width="2" height="101" transform="matrix(-1 0 0 1 541 42)" fill="url(#paint24_linear)"/>
<rect width="2" height="99" transform="matrix(4.37114e-08 -1 -1 -4.37114e-08 539 44)" fill="url(#paint25_linear)"/>
<rect width="6" height="6" rx="3" transform="matrix(4.37114e-08 -1 -1 -4.37114e-08 445 46)" fill="black"/>
<rect width="2" height="99" transform="matrix(1 8.74228e-08 8.74228e-08 -1 1206.86 181.52)" fill="url(#paint26_linear)"/>
<rect width="6" height="6" rx="3" transform="matrix(1 8.74228e-08 8.74228e-08 -1 1204.86 87.52)" fill="black"/>
<path d="M1207.36 54C1200.65 54 1195.2 59.445 1195.2 66.16C1195.2 72.875 1200.65 78.32 1207.36 78.32C1214.08 78.32 1219.52 72.875 1219.52 66.16C1219.52 59.445 1214.08 54 1207.36 54ZM1196.7 55.28C1196.56 55.305 1196.44 55.375 1196.34 55.48C1193.66 58.245 1192 62.01 1192 66.16C1192 69.675 1193.19 72.93 1195.18 75.52C1195.4 75.8025 1195.81 75.85 1196.09 75.63C1196.37 75.41 1196.42 75.0025 1196.2 74.72C1194.38 72.345 1193.28 69.3875 1193.28 66.16C1193.28 62.35 1194.8 58.895 1197.26 56.36C1197.46 56.1625 1197.5 55.8625 1197.37 55.6175C1197.25 55.3725 1196.97 55.235 1196.7 55.28ZM1217.8 55.28C1217.57 55.3225 1217.38 55.49 1217.31 55.7175C1217.23 55.945 1217.29 56.1925 1217.46 56.36C1219.92 58.895 1221.44 62.35 1221.44 66.16C1221.44 69.3875 1220.35 72.345 1218.52 74.72C1218.3 75.0025 1218.35 75.41 1218.63 75.63C1218.91 75.85 1219.32 75.8025 1219.54 75.52C1221.53 72.93 1222.72 69.675 1222.72 66.16C1222.72 62.01 1221.06 58.245 1218.38 55.48C1218.23 55.32 1218.02 55.2425 1217.8 55.28ZM1206.72 58.48H1208C1208.35 58.48 1208.64 58.7675 1208.64 59.12V67.44C1208.64 67.7925 1208.35 68.08 1208 68.08H1206.72C1206.37 68.08 1206.08 67.7925 1206.08 67.44V59.12C1206.08 58.7675 1206.37 58.48 1206.72 58.48ZM1206.72 70.64H1208C1208.35 70.64 1208.64 70.9275 1208.64 71.28V72.56C1208.64 72.9125 1208.35 73.2 1208 73.2H1206.72C1206.37 73.2 1206.08 72.9125 1206.08 72.56V71.28C1206.08 70.9275 1206.37 70.64 1206.72 70.64Z" fill="black"/>
<g clip-path="url(#clip0)">
<path d="M1189.09 314.5C1190.06 314.5 1190.94 315.188 1191.16 316.156L1197.94 343.875H1200.62H1200.75C1201.28 343.875 1201.69 344.281 1201.69 344.812C1201.69 345.344 1201.28 345.75 1200.75 345.75H1200.62H1173C1172.47 345.75 1172.06 345.344 1172.06 344.812C1172.06 344.312 1172.44 343.938 1172.91 343.875C1172.97 343.844 1173.06 343.844 1173.12 343.844H1175.81L1182.56 316.125C1182.81 315.156 1183.66 314.5 1184.66 314.5H1189.09ZM1189.09 316.344H1185.62L1184.72 324.344H1191.25L1189.34 316.562C1189.31 316.437 1189.22 316.344 1189.09 316.344ZM1191.72 326.219H1184.53L1183.59 334.344H1193.69L1191.72 326.219ZM1194.12 336.219H1183.34L1182.5 343.875H1186.88H1196L1194.12 336.219ZM1205.47 343.898C1205.71 343.898 1205.95 343.984 1206.12 344.156C1206.31 344.344 1206.41 344.562 1206.41 344.812C1206.41 345.062 1206.31 345.312 1206.12 345.469C1205.94 345.656 1205.69 345.75 1205.47 345.75C1205.22 345.75 1204.97 345.656 1204.81 345.469C1204.63 345.281 1204.53 345.062 1204.53 344.812C1204.53 344.562 1204.63 344.313 1204.81 344.156C1204.98 343.984 1205.23 343.898 1205.47 343.898Z" fill="black"/>
</g>
<rect width="2" height="101" transform="matrix(-1 0 0 1 1310 334)" fill="url(#paint27_linear)"/>
<rect width="2" height="99" transform="matrix(4.37114e-08 -1 -1 -4.37114e-08 1308 336)" fill="url(#paint28_linear)"/>
<rect width="6" height="6" rx="3" transform="matrix(4.37114e-08 -1 -1 -4.37114e-08 1214 338)" fill="black"/>
<rect width="2" height="101" transform="matrix(-1.19249e-08 -1 -1 1.19249e-08 956 372)" fill="url(#paint29_linear)"/>
<rect width="2" height="99" transform="matrix(1 3.17865e-08 3.17865e-08 -1 954 370)" fill="url(#paint30_linear)"/>
<rect width="6" height="6" rx="3" transform="matrix(1 3.17865e-08 3.17865e-08 -1 952 276)" fill="black"/>
<g clip-path="url(#clip1)">
<path d="M977.568 233.539L958.465 214.433C957.539 213.51 956.309 213 955 213C953.691 213 952.461 213.51 951.539 214.433L932.433 233.539C930.524 235.448 930.524 238.552 932.433 240.461L951.539 259.567C952.461 260.49 953.691 261 955 261C956.309 261 957.539 260.49 958.461 259.567L977.568 240.465C978.49 239.539 979 238.309 979 237C979 235.691 978.49 234.461 977.568 233.539ZM966.423 241.511C966.329 241.991 965.849 241.8 964.889 242.662C963.738 243.72 962.778 242.569 961.818 242.76C958.071 243.529 956.729 242.182 956.729 242.182C956.729 242.182 956.151 248.423 952.218 250.342L944.538 242.374C948.951 241.894 952.698 234.983 952.698 234.983C952.698 234.983 951.929 235.462 950.583 234.791C949.24 234.12 948.378 232.294 948.663 231.622C948.951 231.049 951.16 231.24 952.218 231.72C953.178 232.2 954.52 233.449 954.903 233.64C955.026 233.663 955.176 233.606 955.371 233.524C955.023 232.583 954.573 231.514 954.4 231.3C954.284 231.154 953.924 230.779 953.47 230.306C952.086 228.855 950.905 227.602 950.504 226.931C949.949 225.829 949.986 221.929 950.009 220.759C950.016 220.335 950.369 220.016 950.793 220.005C951.216 220.016 951.554 220.365 951.546 220.789C951.505 222.799 951.591 225.176 951.783 225.975C952.274 226.421 952.705 226.815 953.095 227.175C952.93 224.989 953.166 222.653 953.181 222.514C953.226 222.094 953.609 221.794 954.025 221.831C954.449 221.876 954.753 222.255 954.708 222.675C954.704 222.72 954.284 226.826 954.933 228.922C955.229 229.215 955.465 229.459 955.645 229.646C956.129 229.031 957.183 227.554 957.513 225.904C957.595 225.488 957.993 225.221 958.416 225.3C958.833 225.383 959.103 225.788 959.016 226.204C958.503 228.78 956.609 230.895 956.53 230.985C956.519 230.996 956.5 231 956.489 231.011C956.736 231.536 957.153 232.365 957.531 233.089C957.546 233.111 957.546 233.138 957.554 233.164C957.933 233.205 958.345 233.28 958.84 233.445C960.663 234.019 963.738 238.245 966.04 239.587C966.809 239.977 966.423 241.222 966.423 241.511Z" fill="black"/>
</g>
<g clip-path="url(#clip2)">
<path d="M128.906 398.5C127.938 398.5 127.063 399.188 126.844 400.156L120.062 427.875H117.375H117.25C116.719 427.875 116.312 428.281 116.312 428.812C116.312 429.344 116.719 429.75 117.25 429.75H117.375H145C145.531 429.75 145.938 429.344 145.938 428.812C145.938 428.312 145.562 427.938 145.094 427.875C145.031 427.844 144.938 427.844 144.875 427.844H142.188L135.438 400.125C135.188 399.156 134.344 398.5 133.344 398.5H128.906ZM128.906 400.344H132.375L133.281 408.344H126.75L128.656 400.562C128.687 400.437 128.781 400.344 128.906 400.344ZM126.281 410.219H133.469L134.406 418.344H124.312L126.281 410.219ZM123.875 420.219H134.656L135.5 427.875H131.125H122L123.875 420.219ZM112.531 427.898C112.289 427.898 112.047 427.984 111.875 428.156C111.688 428.344 111.594 428.562 111.594 428.812C111.594 429.062 111.688 429.312 111.875 429.469C112.063 429.656 112.312 429.75 112.531 429.75C112.781 429.75 113.031 429.656 113.187 429.469C113.375 429.281 113.469 429.062 113.469 428.812C113.469 428.562 113.375 428.313 113.187 428.156C113.016 427.984 112.773 427.898 112.531 427.898Z" fill="black"/>
</g>
<rect x="8" y="418" width="2" height="101" fill="url(#paint31_linear)"/>
<rect x="10" y="420" width="2" height="99" transform="rotate(-90 10 420)" fill="url(#paint32_linear)"/>
<rect x="104" y="422" width="6" height="6" rx="3" transform="rotate(-90 104 422)" fill="black"/>
<rect width="2" height="99" transform="matrix(-1 -1.74846e-07 -1.74846e-07 1 642 22)" fill="url(#paint33_linear)"/>
<rect width="6" height="6" rx="3" transform="matrix(-1 -1.74846e-07 -1.74846e-07 1 644 116)" fill="black"/>
<path d="M641.5 149.52C648.215 149.52 653.66 144.075 653.66 137.36C653.66 130.645 648.215 125.2 641.5 125.2C634.785 125.2 629.34 130.645 629.34 137.36C629.34 144.075 634.785 149.52 641.5 149.52ZM652.16 148.24C652.3 148.215 652.425 148.145 652.52 148.04C655.197 145.275 656.86 141.51 656.86 137.36C656.86 133.845 655.67 130.59 653.68 128C653.46 127.718 653.052 127.67 652.77 127.89C652.487 128.11 652.44 128.518 652.66 128.8C654.485 131.175 655.58 134.133 655.58 137.36C655.58 141.17 654.057 144.625 651.6 147.16C651.405 147.358 651.36 147.658 651.487 147.903C651.615 148.148 651.887 148.285 652.16 148.24ZM631.06 148.24C631.292 148.198 631.485 148.03 631.555 147.803C631.627 147.575 631.567 147.328 631.4 147.16C628.942 144.625 627.42 141.17 627.42 137.36C627.42 134.133 628.515 131.175 630.34 128.8C630.56 128.518 630.512 128.11 630.23 127.89C629.947 127.67 629.54 127.718 629.32 128C627.33 130.59 626.14 133.845 626.14 137.36C626.14 141.51 627.802 145.275 630.48 148.04C630.627 148.2 630.845 148.278 631.06 148.24ZM642.14 145.04L640.86 145.04C640.507 145.04 640.22 144.753 640.22 144.4L640.22 136.08C640.22 135.728 640.507 135.44 640.86 135.44L642.14 135.44C642.492 135.44 642.78 135.728 642.78 136.08L642.78 144.4C642.78 144.753 642.492 145.04 642.14 145.04ZM642.14 132.88L640.86 132.88C640.507 132.88 640.22 132.593 640.22 132.24L640.22 130.96C640.22 130.608 640.507 130.32 640.86 130.32L642.14 130.32C642.492 130.32 642.78 130.608 642.78 130.96L642.78 132.24C642.78 132.593 642.492 132.88 642.14 132.88Z" fill="black"/>
<rect width="2" height="99" transform="matrix(-1 -1.74846e-07 -1.74846e-07 1 1025 667)" fill="url(#paint34_linear)"/>
<rect width="6" height="6" rx="3" transform="matrix(-1 -1.74846e-07 -1.74846e-07 1 1027 761)" fill="black"/>
<path d="M1024.5 794.52C1031.21 794.52 1036.66 789.075 1036.66 782.36C1036.66 775.645 1031.21 770.2 1024.5 770.2C1017.78 770.2 1012.34 775.645 1012.34 782.36C1012.34 789.075 1017.78 794.52 1024.5 794.52ZM1035.16 793.24C1035.3 793.215 1035.42 793.145 1035.52 793.04C1038.2 790.275 1039.86 786.51 1039.86 782.36C1039.86 778.845 1038.67 775.59 1036.68 773C1036.46 772.718 1036.05 772.67 1035.77 772.89C1035.49 773.11 1035.44 773.518 1035.66 773.8C1037.48 776.175 1038.58 779.133 1038.58 782.36C1038.58 786.17 1037.06 789.625 1034.6 792.16C1034.4 792.358 1034.36 792.658 1034.49 792.903C1034.61 793.148 1034.89 793.285 1035.16 793.24ZM1014.06 793.24C1014.29 793.198 1014.48 793.03 1014.55 792.803C1014.63 792.575 1014.57 792.328 1014.4 792.16C1011.94 789.625 1010.42 786.17 1010.42 782.36C1010.42 779.133 1011.51 776.175 1013.34 773.8C1013.56 773.518 1013.51 773.11 1013.23 772.89C1012.95 772.67 1012.54 772.718 1012.32 773C1010.33 775.59 1009.14 778.845 1009.14 782.36C1009.14 786.51 1010.8 790.275 1013.48 793.04C1013.63 793.2 1013.84 793.278 1014.06 793.24ZM1025.14 790.04L1023.86 790.04C1023.51 790.04 1023.22 789.753 1023.22 789.4L1023.22 781.08C1023.22 780.728 1023.51 780.44 1023.86 780.44L1025.14 780.44C1025.49 780.44 1025.78 780.728 1025.78 781.08L1025.78 789.4C1025.78 789.753 1025.49 790.04 1025.14 790.04ZM1025.14 777.88L1023.86 777.88C1023.51 777.88 1023.22 777.593 1023.22 777.24L1023.22 775.96C1023.22 775.608 1023.51 775.32 1023.86 775.32L1025.14 775.32C1025.49 775.32 1025.78 775.608 1025.78 775.96L1025.78 777.24C1025.78 777.593 1025.49 777.88 1025.14 777.88Z" fill="black"/>
<rect width="2" height="99" transform="matrix(1 8.74228e-08 8.74228e-08 -1 302.86 331.52)" fill="url(#paint35_linear)"/>
<rect width="6" height="6" rx="3" transform="matrix(1 8.74228e-08 8.74228e-08 -1 300.86 237.52)" fill="black"/>
<path d="M303.36 204C296.645 204 291.2 209.445 291.2 216.16C291.2 222.875 296.645 228.32 303.36 228.32C310.075 228.32 315.52 222.875 315.52 216.16C315.52 209.445 310.075 204 303.36 204ZM292.7 205.28C292.56 205.305 292.435 205.375 292.34 205.48C289.662 208.245 288 212.01 288 216.16C288 219.675 289.19 222.93 291.18 225.52C291.4 225.802 291.808 225.85 292.09 225.63C292.372 225.41 292.42 225.002 292.2 224.72C290.375 222.345 289.28 219.387 289.28 216.16C289.28 212.35 290.803 208.895 293.26 206.36C293.455 206.162 293.5 205.862 293.373 205.617C293.245 205.372 292.973 205.235 292.7 205.28ZM313.8 205.28C313.568 205.322 313.375 205.49 313.305 205.717C313.233 205.945 313.293 206.192 313.46 206.36C315.918 208.895 317.44 212.35 317.44 216.16C317.44 219.387 316.345 222.345 314.52 224.72C314.3 225.002 314.348 225.41 314.63 225.63C314.913 225.85 315.32 225.802 315.54 225.52C317.53 222.93 318.72 219.675 318.72 216.16C318.72 212.01 317.058 208.245 314.38 205.48C314.233 205.32 314.015 205.242 313.8 205.28ZM302.72 208.48H304C304.353 208.48 304.64 208.767 304.64 209.12V217.44C304.64 217.792 304.353 218.08 304 218.08H302.72C302.368 218.08 302.08 217.792 302.08 217.44V209.12C302.08 208.767 302.368 208.48 302.72 208.48ZM302.72 220.64H304C304.353 220.64 304.64 220.927 304.64 221.28V222.56C304.64 222.912 304.353 223.2 304 223.2H302.72C302.368 223.2 302.08 222.912 302.08 222.56V221.28C302.08 220.927 302.368 220.64 302.72 220.64Z" fill="black"/>
<rect x="1309.52" y="589.86" width="2" height="99" transform="rotate(90 1309.52 589.86)" fill="url(#paint36_linear)"/>
<rect x="1215.52" y="587.86" width="6" height="6" rx="3" transform="rotate(90 1215.52 587.86)" fill="black"/>
<path d="M1182 590.36C1182 583.645 1187.45 578.2 1194.16 578.2C1200.88 578.2 1206.32 583.645 1206.32 590.36C1206.32 597.075 1200.88 602.52 1194.16 602.52C1187.45 602.52 1182 597.075 1182 590.36ZM1183.28 579.7C1183.31 579.56 1183.38 579.435 1183.48 579.34C1186.25 576.662 1190.01 575 1194.16 575C1197.68 575 1200.93 576.19 1203.52 578.18C1203.8 578.4 1203.85 578.807 1203.63 579.09C1203.41 579.372 1203 579.42 1202.72 579.2C1200.34 577.375 1197.39 576.28 1194.16 576.28C1190.35 576.28 1186.9 577.802 1184.36 580.26C1184.16 580.455 1183.86 580.5 1183.62 580.373C1183.37 580.245 1183.24 579.973 1183.28 579.7ZM1183.28 600.8C1183.32 600.568 1183.49 600.375 1183.72 600.305C1183.95 600.233 1184.19 600.293 1184.36 600.46C1186.9 602.918 1190.35 604.44 1194.16 604.44C1197.39 604.44 1200.35 603.345 1202.72 601.52C1203 601.3 1203.41 601.348 1203.63 601.63C1203.85 601.913 1203.8 602.32 1203.52 602.54C1200.93 604.53 1197.68 605.72 1194.16 605.72C1190.01 605.72 1186.25 604.058 1183.48 601.38C1183.32 601.233 1183.24 601.015 1183.28 600.8ZM1186.48 589.72L1186.48 591C1186.48 591.353 1186.77 591.64 1187.12 591.64L1195.44 591.64C1195.79 591.64 1196.08 591.353 1196.08 591L1196.08 589.72C1196.08 589.368 1195.79 589.08 1195.44 589.08L1187.12 589.08C1186.77 589.08 1186.48 589.368 1186.48 589.72ZM1198.64 589.72L1198.64 591C1198.64 591.353 1198.93 591.64 1199.28 591.64L1200.56 591.64C1200.91 591.64 1201.2 591.353 1201.2 591L1201.2 589.72C1201.2 589.368 1200.91 589.08 1200.56 589.08L1199.28 589.08C1198.93 589.08 1198.64 589.368 1198.64 589.72Z" fill="black"/>
<rect width="2" height="99" transform="matrix(-1.31134e-07 1 1 1.31134e-07 629 589.86)" fill="url(#paint37_linear)"/>
<rect width="6" height="6" rx="3" transform="matrix(-1.31134e-07 1 1 1.31134e-07 723 587.86)" fill="black"/>
<g clip-path="url(#clip3)">
<path d="M774.903 591C774.903 601.703 766.223 610.383 755.52 610.383C744.817 610.383 736.137 601.703 736.137 591C736.137 580.297 744.817 571.617 755.52 571.617C766.223 571.617 774.903 580.297 774.903 591Z" fill="black"/>
<path d="M744.613 593.359C749.699 593.359 754.793 593.359 759.879 593.359C758.973 594.266 758.067 595.172 757.16 596.078C755.067 598.172 758.324 601.406 760.426 599.305C762.637 597.094 764.848 594.883 767.059 592.672C767.949 591.781 767.926 590.305 767.043 589.43C764.832 587.219 762.621 585.008 760.41 582.797C758.317 580.703 755.082 583.961 757.184 586.062C758.082 586.961 758.988 587.867 759.887 588.766C754.809 588.766 749.731 588.766 744.653 588.766C741.684 588.766 741.66 593.359 744.613 593.359Z" fill="white"/>
</g>
<rect width="2" height="99" transform="matrix(-7.54979e-08 1 1 7.54979e-08 286 422.86)" fill="url(#paint38_linear)"/>
<rect width="6" height="6" rx="3" transform="matrix(-7.54979e-08 1 1 7.54979e-08 380 420.86)" fill="black"/>
<g clip-path="url(#clip4)">
<path d="M412.52 404.617C423.223 404.617 431.903 413.297 431.903 424C431.903 434.703 423.223 443.383 412.52 443.383C401.817 443.383 393.137 434.703 393.137 424C393.137 413.297 401.817 404.617 412.52 404.617Z" fill="black"/>
<path d="M414.879 434.906C414.879 429.821 414.879 424.727 414.879 419.641C415.786 420.547 416.692 421.453 417.598 422.36C419.692 424.453 422.926 421.196 420.825 419.094C418.614 416.883 416.403 414.672 414.192 412.461C413.301 411.571 411.825 411.594 410.95 412.477C408.739 414.688 406.528 416.899 404.317 419.11C402.223 421.203 405.481 424.438 407.583 422.336C408.481 421.438 409.387 420.531 410.286 419.633C410.286 424.711 410.286 429.789 410.286 434.867C410.286 437.836 414.879 437.86 414.879 434.906Z" fill="white"/>
</g>
<rect width="2" height="99" transform="matrix(1 8.74228e-08 8.74228e-08 -1 476.86 791)" fill="url(#paint39_linear)"/>
<rect width="6" height="6" rx="3" transform="matrix(1 8.74228e-08 8.74228e-08 -1 474.86 697)" fill="black"/>
<path d="M496 662C496 671.4 488.4 679 479 679C469.6 679 462 671.4 462 662C462 652.6 469.6 645 479 645C488.4 645 496 652.6 496 662Z" fill="white"/>
<path d="M479 646C487.8 646 495 653.2 495 662C495 670.8 487.8 678 479 678C470.2 678 463 670.8 463 662C463 653.2 470.2 646 479 646ZM479 642C468 642 459 651 459 662C459 673 468 682 479 682C490 682 499 673 499 662C499 651 490 642 479 642Z" fill="black"/>
<path d="M475.615 668.754H472.48V658.772L469.4 659.672V657.297L475.328 655.247H475.615V668.754Z" fill="black"/>
<path d="M488.796 663.234C488.796 665.059 488.386 666.466 487.566 667.455C486.748 668.445 485.591 668.939 484.101 668.939C482.599 668.939 481.435 668.441 480.613 667.445C479.791 666.449 479.38 665.046 479.38 663.233V660.765C479.38 658.941 479.789 657.534 480.609 656.544C481.428 655.555 482.586 655.06 484.084 655.06C485.58 655.06 486.74 655.558 487.563 656.554C488.385 657.55 488.797 658.957 488.797 660.775V663.234H488.796ZM485.669 660.367C485.669 659.396 485.542 658.671 485.288 658.191C485.034 657.712 484.633 657.472 484.083 657.472C483.544 657.472 483.153 657.695 482.909 658.14C482.665 658.585 482.533 659.26 482.514 660.162V663.613C482.514 664.621 482.641 665.359 482.895 665.826C483.148 666.293 483.549 666.526 484.1 666.526C484.632 666.526 485.025 666.298 485.279 665.844C485.532 665.389 485.663 664.677 485.669 663.705V660.367Z" fill="black"/>
<rect width="2" height="99" transform="matrix(-1 -1.74846e-07 -1.74846e-07 1 782 237)" fill="url(#paint40_linear)"/>
<rect width="6" height="6" rx="3" transform="matrix(-1 -1.74846e-07 -1.74846e-07 1 784 331)" fill="black"/>
<path d="M790.038 369.131C790.019 367.997 789.935 366.863 789.288 365.897C788.66 364.959 787.75 364.144 786.597 363.994C786.597 363.994 786.597 363.994 786.588 363.994C785.294 364.959 785.135 367.031 785.21 368.503C785.294 370.003 785.613 372.244 787.188 372.928C787.975 373.275 788.857 373.069 789.372 372.366C790.019 371.494 790.047 370.163 790.038 369.131Z" fill="white"/>
<path d="M793.581 369.347C793.469 366.947 792.531 364.763 791.06 362.888C789.738 361.209 787.947 359.981 785.781 360.038C785.716 360.094 785.622 360.131 785.519 360.15C784.028 360.366 783.25 361.922 782.847 363.216C782.397 364.678 782.153 366.234 782.05 367.763C781.816 371.081 782.256 376.35 786.156 377.437C788.031 377.962 790.131 377.428 791.491 376.012C793.103 374.316 793.685 371.634 793.581 369.347ZM791.022 370.219C790.938 371.259 790.76 372.422 790.01 373.209C788.613 374.662 786.335 374.222 785.285 372.572C784.375 371.137 784.094 369.234 784.178 367.556C784.263 365.925 784.656 364.013 786.119 363.047C786.269 362.944 786.428 362.934 786.56 362.981C786.625 362.963 786.71 362.953 786.794 362.963C788.65 363.216 790.356 364.95 790.806 366.741C791.088 367.875 791.116 369.075 791.022 370.219Z" fill="black"/>
<path d="M773.651 366.562C773.641 366.337 773.66 365.916 773.519 365.672C773.51 365.681 773.501 365.7 773.491 365.709C773.407 365.85 773.341 365.991 773.276 366.15C773.154 366.478 773.126 366.816 773.032 367.144C772.741 368.128 772.216 369 771.794 369.928C771.926 370.106 771.972 370.35 771.794 370.575C771.785 370.594 771.766 370.603 771.757 370.622C772.347 370.528 772.929 370.388 773.519 370.275C773.51 369.534 773.51 368.784 773.566 368.044C773.604 367.547 773.66 367.05 773.651 366.562Z" fill="white"/>
<path d="M777.7 374.316C778.263 374.381 778.863 374.288 779.416 374.147C779.379 373.134 779.247 372.131 779.247 371.109C779.247 371.025 779.247 370.941 779.238 370.856C779.088 370.781 778.947 370.763 778.779 370.772C778.375 370.809 777.982 370.903 777.579 370.988C777.485 371.006 777.4 371.006 777.325 370.988C777.044 371.053 776.716 370.913 776.707 370.547C776.622 367.603 776.613 364.659 776.613 361.716C776.36 361.744 776.107 361.744 775.854 361.744C775.741 361.744 775.629 361.716 775.535 361.65C775.029 361.669 774.522 361.716 774.007 361.753C773.275 361.809 772.544 361.753 771.813 361.744C771.307 362.606 771.147 363.619 770.716 364.509C770.2 365.588 769.685 366.675 769.291 367.8C768.907 368.906 768.354 369.919 767.913 370.988C767.725 371.438 767.604 372.197 767.219 372.572C767.463 373.313 767.604 374.081 767.622 374.859C768.663 374.831 769.694 374.738 770.725 374.653C771.785 374.569 772.844 374.588 773.904 374.588C774.438 374.588 774.597 375.263 774.279 375.516C774.279 376.303 774.288 377.109 774.429 377.888C774.541 378.469 774.7 379.05 774.738 379.631C774.86 379.631 774.982 379.631 775.113 379.622C775.535 379.594 775.957 379.547 776.379 379.5C776.875 379.444 777.372 379.359 777.879 379.313C777.804 379.238 777.757 379.125 777.757 378.984V378.609C777.757 378.581 777.757 378.553 777.766 378.525C777.775 377.916 777.804 377.297 777.7 376.706C777.625 376.256 777.466 375.788 777.466 375.319C776.857 375.197 777.063 374.241 777.7 374.316ZM774.644 367.434C774.569 368.513 774.56 369.581 774.56 370.659C774.56 370.959 774.382 371.166 774.082 371.213C772.9 371.419 771.729 371.756 770.519 371.775C770.06 371.784 769.797 371.288 770.088 370.922C770.304 370.659 770.547 370.425 770.782 370.172C770.716 370.05 770.697 369.891 770.763 369.722C771.054 369.038 771.447 368.391 771.738 367.706C771.972 367.172 772.038 366.628 772.216 366.094C772.413 365.484 772.975 364.144 773.866 364.613C774.822 365.109 774.7 366.534 774.644 367.434Z" fill="black"/>
<path d="M797.191 365.428C796.694 363.244 795.504 361.191 794.069 359.466C792.682 357.797 790.976 356.353 789.035 355.35C787.113 354.347 784.985 353.737 782.81 353.672C780.316 353.597 777.804 354.272 775.498 355.162C773.051 356.1 770.585 357.384 768.691 359.203C766.948 360.881 765.719 362.925 764.726 365.1C764.707 365.137 764.688 365.166 764.669 365.203C764.426 366.122 764.116 367.012 763.91 367.931C763.751 368.653 763.619 369.375 763.526 370.106C763.338 371.578 763.263 373.059 763.366 374.541C763.563 377.372 764.36 380.4 766.441 382.472C769.938 385.969 775.404 385.791 779.988 385.266C782.623 384.966 785.266 384.253 787.573 382.941C789.673 381.75 791.519 380.128 793.076 378.3C796.048 374.784 798.251 370.087 797.191 365.428ZM780.119 375.028C779.585 375.178 779.032 375.3 778.469 375.337C778.451 375.825 778.694 376.406 778.751 376.875C778.826 377.541 778.779 378.234 778.779 378.9C778.779 379.041 778.732 379.153 778.666 379.237C778.835 379.294 778.966 379.406 779.032 379.612C779.126 379.912 778.929 380.297 778.582 380.297C777.766 380.306 776.951 380.475 776.144 380.559C775.704 380.606 775.254 380.662 774.813 380.653C774.701 380.653 774.569 380.653 774.438 380.634C774.119 380.728 773.679 380.494 773.726 380.053C773.801 379.303 773.482 378.516 773.379 377.784C773.276 377.062 773.257 376.331 773.257 375.6C772.441 375.6 771.626 375.6 770.81 375.666C769.657 375.769 768.504 375.872 767.341 375.881C767.032 375.881 766.854 375.666 766.807 375.422C766.685 375.347 766.601 375.225 766.601 375.028C766.591 374.203 766.441 373.406 766.16 372.628C766.094 372.45 766.123 372.3 766.207 372.187C766.216 372.056 766.291 371.925 766.451 371.841C766.61 371.756 766.723 371.259 766.788 371.072C766.929 370.687 767.088 370.331 767.266 369.966C767.763 368.944 768.138 367.894 768.56 366.834C768.973 365.794 769.516 364.8 769.929 363.759C770.266 362.887 770.463 361.95 770.969 361.153C770.988 361.125 771.007 361.097 771.035 361.069C771.063 360.853 771.213 360.675 771.485 360.675C772.301 360.684 773.135 360.769 773.951 360.694C774.476 360.647 775.01 360.6 775.544 360.591C775.563 360.591 775.591 360.591 775.61 360.591H775.751C775.873 360.591 775.976 360.628 776.06 360.684C776.313 360.684 776.585 360.675 776.791 360.619C776.979 360.562 777.138 360.609 777.26 360.703C777.476 360.731 777.663 360.872 777.663 361.162C777.663 364.069 777.673 366.975 777.738 369.891C778.582 369.694 779.707 369.497 780.148 370.331C780.419 370.837 780.269 371.559 780.307 372.122C780.363 372.909 780.457 373.697 780.466 374.484C780.466 374.719 780.344 374.962 780.119 375.028ZM794.566 370.903C794.36 373.153 793.582 375.6 791.81 377.109C790.329 378.375 788.219 378.994 786.288 378.544C781.601 377.447 780.757 371.887 781.01 367.828C781.123 366.066 781.376 364.247 781.976 362.578C782.51 361.078 783.429 359.653 784.985 359.222C785.06 359.119 785.182 359.044 785.341 359.034C786.373 358.941 787.413 359.072 788.379 359.475C790.432 360.319 791.96 362.119 793.029 364.012C794.238 366.131 794.791 368.456 794.566 370.903Z" fill="white"/>
<path d="M800.135 361.528C798.138 357.459 794.36 354.263 790.366 352.247C786.353 350.213 781.713 349.144 777.232 349.856C769.835 351.019 762.672 356.447 760.553 363.722C760.553 363.806 760.535 363.881 760.488 363.966C760.45 364.097 760.413 364.238 760.385 364.369C760.338 364.463 760.291 364.556 760.253 364.659C760.244 364.744 760.225 364.838 760.216 364.913C760.132 365.297 760.028 365.681 759.963 366.066C759.832 366.788 759.86 367.538 759.607 368.222C759.588 368.419 759.56 368.616 759.532 368.813C759.532 368.841 759.532 368.859 759.532 368.878C759.485 369.291 759.447 369.703 759.41 370.116C759.335 370.978 759.297 371.841 759.307 372.703C759.335 374.4 759.532 376.097 759.953 377.738C760.769 380.859 762.344 383.813 764.828 385.922C766.535 387.375 768.532 388.331 770.678 388.95C773.022 389.634 775.46 390.019 777.907 390.028C782.735 390.038 787.582 388.725 791.557 385.931C798.907 380.756 804.447 370.284 800.135 361.528ZM795.728 376.406C793.103 380.503 789.138 383.916 784.413 385.369C781.928 386.138 779.285 386.466 776.688 386.55C774.091 386.634 771.419 386.409 769.01 385.397C765.382 383.878 763.31 380.522 762.616 376.8C762.269 374.916 762.222 372.984 762.391 371.081C762.475 370.153 762.607 369.225 762.785 368.306C763.01 367.181 763.385 366.113 763.666 365.006C763.685 364.941 763.713 364.875 763.75 364.828C763.76 364.781 763.769 364.734 763.797 364.688C763.882 364.509 763.966 364.331 764.05 364.153C765.082 362.016 766.357 360.009 768.11 358.378C770.022 356.606 772.403 355.294 774.832 354.338C777.138 353.428 779.669 352.678 782.182 352.659C784.366 352.641 786.541 353.081 788.538 353.972C792.541 355.763 795.841 359.128 797.538 363.131C799.385 367.584 798.26 372.45 795.728 376.406Z" fill="black"/>
<path d="M800.106 359.569C797.744 355.781 793.928 352.856 789.916 350.981C785.856 349.088 781.206 348.216 776.763 348.984C769.094 350.316 761.763 355.988 759.616 363.572C759.306 364.088 759.26 364.8 759.128 365.372C759.035 365.775 758.969 366.188 758.913 366.6C758.903 366.638 758.903 366.684 758.894 366.722C758.885 366.75 758.875 366.769 758.875 366.797C758.8 367.191 758.735 367.584 758.678 367.978C758.678 367.988 758.669 367.988 758.669 367.997C758.622 368.109 758.613 368.213 758.631 368.297C758.538 369.056 758.472 369.816 758.416 370.575C758.341 371.644 758.331 372.722 758.388 373.791C758.51 375.881 758.913 377.963 759.635 379.931C761.069 383.85 763.9 387.103 767.706 388.866C769.872 389.859 772.281 390.431 774.635 390.741C777.025 391.05 779.463 391.031 781.853 390.684C786.625 389.991 791.088 387.9 794.613 384.609C798.025 381.431 800.706 377.334 801.935 372.816C803.181 368.316 802.591 363.544 800.106 359.569ZM791.547 385.931C787.572 388.725 782.725 390.038 777.897 390.028C775.45 390.019 773.013 389.634 770.669 388.95C768.522 388.322 766.525 387.375 764.819 385.922C762.335 383.813 760.76 380.859 759.944 377.738C759.513 376.097 759.325 374.4 759.297 372.703C759.278 371.841 759.316 370.978 759.4 370.116C759.438 369.703 759.475 369.291 759.522 368.878C759.522 368.859 759.522 368.831 759.522 368.813C759.55 368.616 759.578 368.419 759.597 368.222C759.85 367.538 759.822 366.778 759.953 366.066C760.028 365.681 760.122 365.297 760.206 364.913C760.225 364.838 760.235 364.753 760.244 364.659C760.281 364.566 760.328 364.463 760.375 364.369C760.413 364.238 760.441 364.097 760.478 363.966C760.525 363.881 760.553 363.797 760.544 363.722C762.663 356.447 769.825 351.019 777.222 349.856C781.713 349.144 786.344 350.213 790.356 352.247C794.35 354.263 798.119 357.469 800.125 361.528C804.447 370.284 798.906 380.756 791.547 385.931Z" fill="black"/>
<path d="M797.51 363.15C795.813 359.147 792.513 355.781 788.51 353.991C786.513 353.1 784.347 352.659 782.154 352.678C779.651 352.697 777.119 353.447 774.804 354.356C772.376 355.313 769.994 356.625 768.082 358.397C766.329 360.019 765.054 362.034 764.022 364.172C763.938 364.35 763.854 364.528 763.769 364.706C763.751 364.753 763.732 364.8 763.722 364.847C763.685 364.894 763.657 364.959 763.638 365.025C763.347 366.131 762.982 367.209 762.757 368.325C762.569 369.244 762.438 370.163 762.363 371.1C762.194 373.003 762.241 374.944 762.588 376.819C763.282 380.541 765.363 383.888 768.982 385.416C771.401 386.428 774.063 386.653 776.66 386.569C779.257 386.484 781.901 386.147 784.385 385.388C789.119 383.934 793.076 380.522 795.701 376.425C798.26 372.45 799.385 367.584 797.51 363.15ZM793.057 378.3C791.501 380.128 789.644 381.75 787.554 382.941C785.238 384.253 782.604 384.966 779.969 385.266C775.385 385.781 769.919 385.969 766.422 382.472C764.351 380.4 763.554 377.363 763.347 374.541C763.244 373.059 763.319 371.578 763.507 370.106C763.601 369.375 763.732 368.653 763.891 367.931C764.097 367.003 764.416 366.113 764.651 365.203C764.669 365.175 764.688 365.138 764.707 365.1C765.71 362.925 766.929 360.881 768.672 359.203C770.566 357.384 773.032 356.1 775.479 355.163C777.785 354.272 780.297 353.597 782.791 353.672C784.976 353.738 787.094 354.356 789.016 355.35C790.957 356.353 792.663 357.797 794.051 359.466C795.476 361.181 796.666 363.244 797.172 365.428C798.251 370.088 796.047 374.784 793.057 378.3Z" fill="black"/>
<path d="M780.297 372.131C780.26 371.578 780.41 370.856 780.138 370.341C779.688 369.506 778.572 369.712 777.729 369.9C777.654 366.994 777.654 364.087 777.654 361.172C777.654 360.891 777.466 360.741 777.251 360.712C777.129 360.619 776.969 360.572 776.782 360.628C776.576 360.694 776.304 360.694 776.051 360.694C775.966 360.637 775.863 360.6 775.741 360.6H775.601C775.572 360.6 775.554 360.6 775.535 360.6C775.001 360.609 774.476 360.656 773.941 360.703C773.126 360.778 772.291 360.694 771.476 360.684C771.194 360.684 771.044 360.862 771.026 361.078C771.007 361.106 770.979 361.125 770.96 361.162C770.454 361.959 770.257 362.897 769.919 363.769C769.507 364.809 768.963 365.803 768.551 366.844C768.138 367.903 767.754 368.944 767.257 369.975C767.079 370.341 766.919 370.697 766.779 371.081C766.713 371.269 766.601 371.766 766.441 371.85C766.282 371.934 766.207 372.066 766.197 372.197C766.113 372.309 766.085 372.459 766.151 372.637C766.432 373.416 766.582 374.212 766.591 375.037C766.591 375.225 766.685 375.356 766.797 375.431C766.835 375.666 767.022 375.891 767.332 375.891C768.494 375.881 769.647 375.778 770.801 375.675C771.616 375.609 772.432 375.6 773.247 375.609C773.247 376.341 773.266 377.062 773.369 377.794C773.482 378.534 773.791 379.312 773.716 380.062C773.669 380.503 774.119 380.737 774.429 380.644C774.56 380.662 774.691 380.662 774.804 380.662C775.244 380.662 775.694 380.616 776.135 380.569C776.941 380.484 777.766 380.316 778.572 380.306C778.91 380.297 779.116 379.922 779.022 379.622C778.957 379.406 778.816 379.303 778.657 379.247C778.722 379.162 778.769 379.05 778.769 378.909C778.769 378.234 778.816 377.55 778.741 376.884C778.685 376.416 778.441 375.834 778.46 375.347C779.013 375.3 779.576 375.178 780.11 375.037C780.344 374.972 780.457 374.728 780.457 374.512C780.447 373.706 780.354 372.928 780.297 372.131ZM777.701 374.316C777.063 374.241 776.857 375.197 777.447 375.319C777.447 375.787 777.607 376.256 777.682 376.706C777.785 377.297 777.766 377.916 777.747 378.525C777.747 378.553 777.738 378.581 777.738 378.609V378.984C777.738 379.125 777.785 379.237 777.86 379.312C777.363 379.359 776.857 379.444 776.36 379.5C775.938 379.547 775.516 379.594 775.094 379.622C774.972 379.631 774.851 379.631 774.719 379.631C774.672 379.041 774.522 378.469 774.41 377.887C774.26 377.109 774.26 376.312 774.26 375.516C774.569 375.262 774.419 374.587 773.885 374.587C772.826 374.587 771.766 374.559 770.707 374.653C769.676 374.737 768.644 374.841 767.604 374.859C767.585 374.081 767.444 373.312 767.201 372.572C767.585 372.197 767.707 371.437 767.894 370.987C768.344 369.919 768.888 368.906 769.272 367.8C769.666 366.675 770.182 365.587 770.697 364.509C771.129 363.609 771.279 362.606 771.794 361.744C772.526 361.762 773.257 361.809 773.988 361.753C774.494 361.716 775.001 361.659 775.516 361.65C775.61 361.706 775.722 361.744 775.835 361.744C776.088 361.744 776.341 361.744 776.594 361.716C776.594 364.659 776.604 367.603 776.688 370.547C776.697 370.922 777.026 371.062 777.307 370.987C777.382 371.006 777.466 371.006 777.56 370.987C777.954 370.903 778.347 370.8 778.76 370.772C778.929 370.753 779.069 370.781 779.219 370.856C779.229 370.941 779.229 371.025 779.229 371.109C779.229 372.122 779.36 373.134 779.397 374.147C778.863 374.287 778.263 374.381 777.701 374.316Z" fill="black"/>
<path d="M773.866 364.613C772.976 364.144 772.413 365.484 772.216 366.094C772.038 366.638 771.973 367.181 771.738 367.706C771.438 368.391 771.054 369.038 770.763 369.722C770.688 369.891 770.707 370.05 770.782 370.172C770.548 370.425 770.304 370.65 770.088 370.922C769.798 371.288 770.06 371.784 770.52 371.775C771.729 371.756 772.901 371.419 774.082 371.213C774.373 371.166 774.56 370.959 774.56 370.659C774.56 369.581 774.57 368.513 774.645 367.434C774.701 366.534 774.823 365.109 773.866 364.613ZM773.566 368.044C773.51 368.784 773.52 369.534 773.52 370.275C772.929 370.388 772.348 370.528 771.757 370.622C771.766 370.603 771.785 370.594 771.795 370.575C771.973 370.35 771.935 370.106 771.795 369.928C772.216 369 772.741 368.128 773.032 367.144C773.126 366.816 773.154 366.469 773.276 366.15C773.332 366 773.407 365.85 773.491 365.709C773.501 365.691 773.51 365.681 773.52 365.672C773.651 365.925 773.641 366.338 773.651 366.563C773.66 367.05 773.604 367.547 773.566 368.044ZM793.029 364.003C791.96 362.109 790.432 360.309 788.379 359.466C787.413 359.072 786.373 358.941 785.341 359.025C785.182 359.044 785.06 359.109 784.985 359.213C783.429 359.653 782.51 361.078 781.976 362.569C781.385 364.238 781.123 366.056 781.01 367.819C780.757 371.878 781.601 377.438 786.288 378.534C788.21 378.984 790.32 378.375 791.81 377.1C793.582 375.591 794.36 373.144 794.566 370.894C794.791 368.456 794.238 366.131 793.029 364.003ZM791.482 376.013C790.132 377.428 788.023 377.963 786.148 377.438C782.248 376.35 781.807 371.081 782.041 367.763C782.145 366.234 782.388 364.678 782.838 363.216C783.241 361.913 784.02 360.366 785.51 360.15C785.613 360.131 785.707 360.094 785.773 360.038C787.938 359.981 789.729 361.209 791.051 362.888C792.532 364.763 793.46 366.956 793.573 369.347C793.685 371.634 793.104 374.316 791.482 376.013Z" fill="black"/>
<path d="M790.807 366.75C790.357 364.959 788.65 363.225 786.794 362.972C786.71 362.963 786.635 362.972 786.56 362.991C786.429 362.944 786.279 362.953 786.119 363.056C784.657 364.031 784.263 365.934 784.179 367.566C784.094 369.234 784.366 371.138 785.285 372.581C786.335 374.231 788.604 374.672 790.01 373.219C790.769 372.431 790.938 371.269 791.022 370.228C791.116 369.075 791.088 367.875 790.807 366.75ZM789.382 372.366C788.866 373.069 787.985 373.266 787.197 372.928C785.622 372.244 785.304 370.003 785.219 368.503C785.135 367.031 785.304 364.959 786.597 363.994C786.597 363.994 786.597 363.994 786.607 363.994C787.76 364.153 788.669 364.959 789.297 365.897C789.944 366.863 790.029 367.997 790.047 369.131C790.047 370.163 790.019 371.494 789.382 372.366Z" fill="black"/>
<rect width="2" height="99" transform="matrix(-7.54979e-08 1 1 7.54979e-08 1021 437.86)" fill="url(#paint41_linear)"/>
<rect width="6" height="6" rx="3" transform="matrix(-7.54979e-08 1 1 7.54979e-08 1115 435.86)" fill="black"/>
<g clip-path="url(#clip5)">
<path d="M1147.52 419.617C1158.22 419.617 1166.9 428.297 1166.9 439C1166.9 449.703 1158.22 458.383 1147.52 458.383C1136.82 458.383 1128.14 449.703 1128.14 439C1128.14 428.297 1136.82 419.617 1147.52 419.617Z" fill="black"/>
<path d="M1149.88 449.906C1149.88 444.821 1149.88 439.727 1149.88 434.641C1150.79 435.547 1151.69 436.453 1152.6 437.36C1154.69 439.453 1157.93 436.196 1155.82 434.094C1153.61 431.883 1151.4 429.672 1149.19 427.461C1148.3 426.571 1146.82 426.594 1145.95 427.477C1143.74 429.688 1141.53 431.899 1139.32 434.11C1137.22 436.203 1140.48 439.438 1142.58 437.336C1143.48 436.438 1144.39 435.531 1145.29 434.633C1145.29 439.711 1145.29 444.789 1145.29 449.867C1145.29 452.836 1149.88 452.86 1149.88 449.906Z" fill="white"/>
</g>
<rect width="2" height="99" transform="matrix(-7.54979e-08 1 1 7.54979e-08 -38 607.86)" fill="url(#paint42_linear)"/>
<rect width="6" height="6" rx="3" transform="matrix(-7.54979e-08 1 1 7.54979e-08 56 605.86)" fill="black"/>
<g clip-path="url(#clip6)">
<path d="M88.52 589.617C99.2231 589.617 107.903 598.297 107.903 609C107.903 619.703 99.2231 628.383 88.52 628.383C77.8169 628.383 69.1372 619.703 69.1372 609C69.1372 598.297 77.8169 589.617 88.52 589.617Z" fill="black"/>
<path d="M90.8794 619.906C90.8794 614.821 90.8794 609.727 90.8794 604.641C91.7857 605.547 92.6919 606.453 93.5982 607.36C95.6919 609.453 98.9263 606.196 96.8247 604.094C94.6138 601.883 92.4029 599.672 90.1919 597.461C89.3013 596.571 87.8247 596.594 86.9497 597.477C84.7388 599.688 82.5279 601.899 80.3169 604.11C78.2232 606.203 81.481 609.438 83.5826 607.336C84.481 606.438 85.3872 605.531 86.2857 604.633C86.2857 609.711 86.2857 614.789 86.2857 619.867C86.2857 622.836 90.8794 622.86 90.8794 619.906Z" fill="white"/>
</g>
<rect x="1469.52" y="482.86" width="2" height="99" transform="rotate(90 1469.52 482.86)" fill="url(#paint43_linear)"/>
<rect x="1375.52" y="480.86" width="6" height="6" rx="3" transform="rotate(90 1375.52 480.86)" fill="black"/>
<g clip-path="url(#clip7)">
<path d="M1343 464.617C1332.3 464.617 1323.62 473.297 1323.62 484C1323.62 494.703 1332.3 503.383 1343 503.383C1353.7 503.383 1362.38 494.703 1362.38 484C1362.38 473.297 1353.7 464.617 1343 464.617Z" fill="black"/>
<path d="M1340.64 494.906C1340.64 489.821 1340.64 484.727 1340.64 479.641C1339.73 480.547 1338.83 481.453 1337.92 482.36C1335.83 484.453 1332.59 481.196 1334.7 479.094C1336.91 476.883 1339.12 474.672 1341.33 472.461C1342.22 471.571 1343.7 471.594 1344.57 472.477C1346.78 474.688 1348.99 476.899 1351.2 479.11C1353.3 481.203 1350.04 484.438 1347.94 482.336C1347.04 481.438 1346.13 480.531 1345.23 479.633C1345.23 484.711 1345.23 489.789 1345.23 494.867C1345.23 497.836 1340.64 497.86 1340.64 494.906Z" fill="white"/>
</g>
</g>
<defs>
<linearGradient id="paint0_linear" x1="0.999998" y1="0" x2="0.999998" y2="99" gradientUnits="userSpaceOnUse">
<stop stop-opacity="0.5"/>
<stop offset="1"/>
</linearGradient>
<linearGradient id="paint1_linear" x1="1" y1="0" x2="1" y2="101" gradientUnits="userSpaceOnUse">
<stop stop-opacity="0.5"/>
<stop offset="1" stop-color="#C4C4C4" stop-opacity="0"/>
</linearGradient>
<linearGradient id="paint2_linear" x1="0.999998" y1="0" x2="0.999998" y2="99" gradientUnits="userSpaceOnUse">
<stop stop-opacity="0.5"/>
<stop offset="1"/>
</linearGradient>
<linearGradient id="paint3_linear" x1="606" y1="352" x2="606" y2="453" gradientUnits="userSpaceOnUse">
<stop stop-opacity="0.5"/>
<stop offset="1" stop-color="#C4C4C4" stop-opacity="0"/>
</linearGradient>
<linearGradient id="paint4_linear" x1="604" y1="354" x2="604" y2="453" gradientUnits="userSpaceOnUse">
<stop stop-opacity="0.5"/>
<stop offset="1"/>
</linearGradient>
<linearGradient id="paint5_linear" x1="1150" y1="733" x2="1150" y2="834" gradientUnits="userSpaceOnUse">
<stop stop-opacity="0.5"/>
<stop offset="1" stop-color="#C4C4C4" stop-opacity="0"/>
</linearGradient>
<linearGradient id="paint6_linear" x1="1150" y1="733" x2="1150" y2="832" gradientUnits="userSpaceOnUse">
<stop stop-opacity="0.5"/>
<stop offset="1"/>
</linearGradient>
<linearGradient id="paint7_linear" x1="1" y1="0" x2="1" y2="101" gradientUnits="userSpaceOnUse">
<stop stop-opacity="0.5"/>
<stop offset="1" stop-color="#C4C4C4" stop-opacity="0"/>
</linearGradient>
<linearGradient id="paint8_linear" x1="0.999998" y1="0" x2="0.999998" y2="99" gradientUnits="userSpaceOnUse">
<stop stop-opacity="0.5"/>
<stop offset="1"/>
</linearGradient>
<linearGradient id="paint9_linear" x1="1" y1="0" x2="1" y2="101" gradientUnits="userSpaceOnUse">
<stop stop-opacity="0.7"/>
<stop offset="1" stop-opacity="0.3"/>
</linearGradient>
<linearGradient id="paint10_linear" x1="0.999998" y1="0" x2="0.999998" y2="99" gradientUnits="userSpaceOnUse">
<stop stop-opacity="0.7"/>
<stop offset="1"/>
</linearGradient>
<linearGradient id="paint11_linear" x1="171" y1="847" x2="171" y2="946" gradientUnits="userSpaceOnUse">
<stop stop-opacity="0.3"/>
<stop offset="1" stop-opacity="0"/>
</linearGradient>
<linearGradient id="paint12_linear" x1="1" y1="0" x2="1" y2="101" gradientUnits="userSpaceOnUse">
<stop stop-opacity="0.7"/>
<stop offset="1" stop-opacity="0.3"/>
</linearGradient>
<linearGradient id="paint13_linear" x1="0.999998" y1="0" x2="0.999998" y2="99" gradientUnits="userSpaceOnUse">
<stop stop-opacity="0.7"/>
<stop offset="1"/>
</linearGradient>
<linearGradient id="paint14_linear" x1="825" y1="473" x2="825" y2="572" gradientUnits="userSpaceOnUse">
<stop stop-opacity="0.3"/>
<stop offset="1" stop-opacity="0"/>
</linearGradient>
<linearGradient id="paint15_linear" x1="1" y1="0" x2="1" y2="101" gradientUnits="userSpaceOnUse">
<stop stop-opacity="0.7"/>
<stop offset="1" stop-opacity="0.3"/>
</linearGradient>
<linearGradient id="paint16_linear" x1="0.999998" y1="0" x2="0.999998" y2="99" gradientUnits="userSpaceOnUse">
<stop stop-opacity="0.7"/>
<stop offset="1"/>
</linearGradient>
<linearGradient id="paint17_linear" x1="426" y1="349" x2="426" y2="448" gradientUnits="userSpaceOnUse">
<stop stop-opacity="0.3"/>
<stop offset="1" stop-opacity="0"/>
</linearGradient>
<linearGradient id="paint18_linear" x1="883" y1="101" x2="883" y2="202" gradientUnits="userSpaceOnUse">
<stop stop-opacity="0.7"/>
<stop offset="1" stop-opacity="0.3"/>
</linearGradient>
<linearGradient id="paint19_linear" x1="883" y1="101" x2="883" y2="200" gradientUnits="userSpaceOnUse">
<stop stop-opacity="0.7"/>
<stop offset="1"/>
</linearGradient>
<linearGradient id="paint20_linear" x1="0.999998" y1="0" x2="0.999998" y2="99" gradientUnits="userSpaceOnUse">
<stop stop-opacity="0.3"/>
<stop offset="1" stop-opacity="0"/>
</linearGradient>
<linearGradient id="paint21_linear" x1="0.999998" y1="0" x2="0.999998" y2="99" gradientUnits="userSpaceOnUse">
<stop stop-opacity="0.7"/>
<stop offset="1"/>
</linearGradient>
<linearGradient id="paint22_linear" x1="1" y1="0" x2="1" y2="101" gradientUnits="userSpaceOnUse">
<stop stop-opacity="0.5"/>
<stop offset="1" stop-color="#C4C4C4" stop-opacity="0"/>
</linearGradient>
<linearGradient id="paint23_linear" x1="0.999998" y1="0" x2="0.999998" y2="99" gradientUnits="userSpaceOnUse">
<stop stop-opacity="0.5"/>
<stop offset="1"/>
</linearGradient>
<linearGradient id="paint24_linear" x1="1" y1="0" x2="1" y2="101" gradientUnits="userSpaceOnUse">
<stop stop-opacity="0.5"/>
<stop offset="1" stop-color="#C4C4C4" stop-opacity="0"/>
</linearGradient>
<linearGradient id="paint25_linear" x1="0.999998" y1="0" x2="0.999998" y2="99" gradientUnits="userSpaceOnUse">
<stop stop-opacity="0.5"/>
<stop offset="1"/>
</linearGradient>
<linearGradient id="paint26_linear" x1="0.999998" y1="0" x2="0.999998" y2="99" gradientUnits="userSpaceOnUse">
<stop stop-opacity="0.5"/>
<stop offset="1"/>
</linearGradient>
<linearGradient id="paint27_linear" x1="1" y1="0" x2="1" y2="101" gradientUnits="userSpaceOnUse">
<stop stop-opacity="0.5"/>
<stop offset="1" stop-color="#C4C4C4" stop-opacity="0"/>
</linearGradient>
<linearGradient id="paint28_linear" x1="0.999998" y1="0" x2="0.999998" y2="99" gradientUnits="userSpaceOnUse">
<stop stop-opacity="0.5"/>
<stop offset="1"/>
</linearGradient>
<linearGradient id="paint29_linear" x1="1" y1="0" x2="1" y2="101" gradientUnits="userSpaceOnUse">
<stop stop-opacity="0.5"/>
<stop offset="1" stop-color="#C4C4C4" stop-opacity="0"/>
</linearGradient>
<linearGradient id="paint30_linear" x1="0.999998" y1="0" x2="0.999998" y2="99" gradientUnits="userSpaceOnUse">
<stop stop-opacity="0.5"/>
<stop offset="1"/>
</linearGradient>
<linearGradient id="paint31_linear" x1="9" y1="418" x2="9" y2="519" gradientUnits="userSpaceOnUse">
<stop stop-opacity="0.5"/>
<stop offset="1" stop-color="#C4C4C4" stop-opacity="0"/>
</linearGradient>
<linearGradient id="paint32_linear" x1="11" y1="420" x2="11" y2="519" gradientUnits="userSpaceOnUse">
<stop stop-opacity="0.5"/>
<stop offset="1"/>
</linearGradient>
<linearGradient id="paint33_linear" x1="0.999998" y1="0" x2="0.999998" y2="99" gradientUnits="userSpaceOnUse">
<stop stop-opacity="0.5"/>
<stop offset="1"/>
</linearGradient>
<linearGradient id="paint34_linear" x1="0.999998" y1="0" x2="0.999998" y2="99" gradientUnits="userSpaceOnUse">
<stop stop-opacity="0.5"/>
<stop offset="1"/>
</linearGradient>
<linearGradient id="paint35_linear" x1="0.999998" y1="0" x2="0.999998" y2="99" gradientUnits="userSpaceOnUse">
<stop stop-opacity="0.5"/>
<stop offset="1"/>
</linearGradient>
<linearGradient id="paint36_linear" x1="1310.52" y1="589.86" x2="1310.52" y2="688.86" gradientUnits="userSpaceOnUse">
<stop stop-opacity="0.5"/>
<stop offset="1"/>
</linearGradient>
<linearGradient id="paint37_linear" x1="0.999998" y1="0" x2="0.999998" y2="99" gradientUnits="userSpaceOnUse">
<stop stop-opacity="0.5"/>
<stop offset="1"/>
</linearGradient>
<linearGradient id="paint38_linear" x1="0.999998" y1="0" x2="0.999998" y2="99" gradientUnits="userSpaceOnUse">
<stop stop-opacity="0.5"/>
<stop offset="1"/>
</linearGradient>
<linearGradient id="paint39_linear" x1="0.999998" y1="0" x2="0.999998" y2="99" gradientUnits="userSpaceOnUse">
<stop stop-opacity="0.5"/>
<stop offset="1"/>
</linearGradient>
<linearGradient id="paint40_linear" x1="0.999998" y1="0" x2="0.999998" y2="99" gradientUnits="userSpaceOnUse">
<stop stop-opacity="0.5"/>
<stop offset="1"/>
</linearGradient>
<linearGradient id="paint41_linear" x1="0.999998" y1="0" x2="0.999998" y2="99" gradientUnits="userSpaceOnUse">
<stop stop-opacity="0.5"/>
<stop offset="1"/>
</linearGradient>
<linearGradient id="paint42_linear" x1="0.999998" y1="0" x2="0.999998" y2="99" gradientUnits="userSpaceOnUse">
<stop stop-opacity="0.5"/>
<stop offset="1"/>
</linearGradient>
<linearGradient id="paint43_linear" x1="1470.52" y1="482.86" x2="1470.52" y2="581.86" gradientUnits="userSpaceOnUse">
<stop stop-opacity="0.5"/>
<stop offset="1"/>
</linearGradient>
<clipPath id="clip0">
<rect width="48" height="48" fill="white" transform="matrix(-1 0 0 1 1208 310)"/>
</clipPath>
<clipPath id="clip1">
<rect width="48" height="48" fill="white" transform="translate(931 213)"/>
</clipPath>
<clipPath id="clip2">
<rect width="48" height="48" fill="white" transform="translate(110 394)"/>
</clipPath>
<clipPath id="clip3">
<rect width="40" height="40" fill="white" transform="translate(775.52 611) rotate(-180)"/>
</clipPath>
<clipPath id="clip4">
<rect width="40" height="40" fill="white" transform="translate(432.52 404) rotate(90)"/>
</clipPath>
<clipPath id="clip5">
<rect width="40" height="40" fill="white" transform="translate(1167.52 419) rotate(90)"/>
</clipPath>
<clipPath id="clip6">
<rect width="40" height="40" fill="white" transform="translate(108.52 589) rotate(90)"/>
</clipPath>
<clipPath id="clip7">
<rect width="40" height="40" fill="white" transform="matrix(-1.19249e-08 1 1 1.19249e-08 1323 464)"/>
</clipPath>
</defs>
</svg>
