<svg width="270" height="200" viewBox="0 0 270 200" fill="none" xmlns="http://www.w3.org/2000/svg">
<path d="M269.017 175.757H0.604248V175.891H269.017V175.757Z" fill="#EBEBEB"/>
<path d="M242.122 184.394H224.343V184.529H242.122V184.394Z" fill="#EBEBEB"/>
<path d="M178.412 185.855H173.747V185.989H178.412V185.855Z" fill="#EBEBEB"/>
<path d="M223.806 179.413H213.504V179.547H223.806V179.413Z" fill="#EBEBEB"/>
<path d="M51.9516 180.315H28.7661V180.449H51.9516V180.315Z" fill="#EBEBEB"/>
<path d="M60.1327 180.315H56.7346V180.449H60.1327V180.315Z" fill="#EBEBEB"/>
<path d="M121.471 182.58H71.1809V182.714H121.471V182.58Z" fill="#EBEBEB"/>
<path d="M127.832 151.814H24.1764C23.3643 151.813 22.586 151.489 22.0124 150.915C21.4387 150.34 21.1165 149.561 21.1165 148.749V3.03844C21.1235 2.23106 21.4489 1.45908 22.0218 0.890175C22.5947 0.321268 23.369 0.00138307 24.1764 0H127.832C128.645 0 129.425 0.322948 130 0.897799C130.574 1.47265 130.897 2.25232 130.897 3.06528V148.749C130.897 149.562 130.574 150.342 130 150.917C129.425 151.492 128.645 151.814 127.832 151.814ZM24.1764 0.107366C23.3999 0.108788 22.6558 0.418223 22.1073 0.967751C21.5587 1.51728 21.2507 2.262 21.2507 3.03844V148.749C21.2507 149.526 21.5587 150.27 22.1073 150.82C22.6558 151.369 23.3999 151.679 24.1764 151.68H127.832C128.609 151.679 129.354 151.37 129.903 150.82C130.453 150.271 130.762 149.526 130.763 148.749V3.03844C130.762 2.2615 130.453 1.5168 129.903 0.967423C129.354 0.418048 128.609 0.108785 127.832 0.107366H24.1764Z" fill="#EBEBEB"/>
<path d="M243.953 151.814H140.292C139.479 151.813 138.7 151.49 138.126 150.915C137.551 150.341 137.228 149.562 137.227 148.749V3.03844C137.235 2.23057 137.562 1.4586 138.135 0.889839C138.709 0.32108 139.484 0.00136799 140.292 0H243.953C244.759 0.00279391 245.532 0.323303 246.104 0.892059C246.676 1.46082 247 2.23199 247.008 3.03844V148.749C247.008 149.56 246.686 150.338 246.114 150.913C245.541 151.487 244.764 151.812 243.953 151.814ZM140.292 0.107366C139.515 0.108785 138.77 0.418048 138.221 0.967423C137.671 1.5168 137.362 2.2615 137.361 3.03844V148.749C137.362 149.526 137.671 150.271 138.221 150.82C138.77 151.37 139.515 151.679 140.292 151.68H243.953C244.73 151.679 245.475 151.37 246.024 150.82C246.573 150.271 246.883 149.526 246.884 148.749V3.03844C246.883 2.2615 246.573 1.5168 246.024 0.967423C245.475 0.418048 244.73 0.108785 243.953 0.107366H140.292Z" fill="#EBEBEB"/>
<path d="M171.455 122.085H235.949C235.95 123.225 235.511 124.322 234.722 125.146C233.934 125.971 232.858 126.459 231.719 126.508C224.788 126.82 214.127 127.915 210.745 131.748C204.443 138.898 205.055 164.011 212.602 169.825C214.97 171.65 221.868 175.274 221.868 175.274H185.53C185.53 175.274 191.972 171.575 194.221 169.825C201.737 163.963 201.946 138.866 195.612 131.748C192.364 128.097 182.374 126.916 175.663 126.546C174.524 126.482 173.454 125.983 172.671 125.153C171.888 124.324 171.453 123.226 171.455 122.085Z" fill="#F5F5F5"/>
<path d="M227.961 126.739C221.406 127.276 213.558 128.559 210.745 131.748C209.826 132.849 209.1 134.098 208.598 135.441H197.781C197.275 134.099 196.55 132.851 195.633 131.748C192.81 128.575 184.897 127.271 178.455 126.739H227.961Z" fill="#E6E6E6"/>
<path d="M198.929 122.117L199.804 112.095H187.092L186.212 122.117H198.929Z" fill="#EBEBEB"/>
<path d="M198.929 122.117L199.804 112.095H200.486L199.611 122.117H198.929Z" fill="#E0E0E0"/>
<path d="M197.721 121.097L198.419 113.115H188.295L187.597 121.097H197.721Z" fill="#F0F0F0"/>
<path d="M196.943 120.442L197.528 113.775H189.073L188.488 120.442H196.943Z" fill="#FAFAFA"/>
<path d="M203.052 122.085H215.823L214.406 105.889H201.635L203.052 122.085Z" fill="#E6E6E6"/>
<path d="M203.052 122.085H202.44L201.023 105.889H201.635L203.052 122.085Z" fill="#E0E0E0"/>
<path d="M204.206 120.437H214.374L213.247 107.543H203.079L204.206 120.437Z" fill="#F0F0F0"/>
<path d="M204.953 119.374H213.445L212.5 108.605H204.008L204.953 119.374Z" fill="#FAFAFA"/>
<path d="M209.242 113.447C209.105 113.585 208.942 113.695 208.763 113.769C208.584 113.844 208.392 113.882 208.198 113.882C208.004 113.882 207.811 113.844 207.632 113.769C207.453 113.695 207.29 113.585 207.154 113.447C207.016 113.311 206.906 113.148 206.832 112.969C206.757 112.79 206.719 112.598 206.719 112.403C206.719 112.209 206.757 112.017 206.832 111.838C206.906 111.659 207.016 111.496 207.154 111.359C207.431 111.084 207.807 110.929 208.198 110.929C208.589 110.929 208.964 111.084 209.242 111.359C209.518 111.637 209.672 112.012 209.672 112.403C209.672 112.795 209.518 113.17 209.242 113.447Z" fill="#EBEBEB"/>
<path d="M208.619 115.262C208.719 115.161 208.838 115.08 208.969 115.025C209.101 114.97 209.242 114.942 209.384 114.942C209.526 114.942 209.667 114.97 209.799 115.025C209.93 115.08 210.049 115.161 210.149 115.262C210.305 115.412 210.411 115.605 210.455 115.817C210.499 116.028 210.478 116.248 210.396 116.447C210.313 116.647 210.171 116.817 209.991 116.935C209.81 117.053 209.597 117.113 209.381 117.109C209.166 117.112 208.954 117.051 208.774 116.932C208.594 116.814 208.454 116.644 208.372 116.445C208.289 116.246 208.269 116.026 208.313 115.815C208.357 115.604 208.464 115.412 208.619 115.262Z" fill="#F0F0F0"/>
<path d="M100.384 171.961H112.801L106.262 118.703C106.104 117.59 105.557 116.569 104.718 115.821C103.879 115.074 102.802 114.647 101.678 114.618H47.4263L55.3606 171.961H100.384Z" fill="#F5F5F5"/>
<path d="M60.9327 171.961H48.4944L41.9398 118.703C41.8594 118.191 41.8925 117.668 42.0367 117.17C42.1809 116.672 42.4327 116.212 42.7742 115.823C43.1158 115.433 43.5388 115.123 44.0133 114.915C44.4879 114.707 45.0024 114.605 45.5204 114.618H49.815C50.9387 114.647 52.0156 115.074 52.8549 115.821C53.6941 116.569 54.2413 117.59 54.3995 118.703L60.9327 171.961Z" fill="#F0F0F0"/>
<path d="M65.5173 171.897L63.2626 146.129C63.2127 145.57 62.9722 145.044 62.5813 144.641C62.1905 144.237 61.673 143.98 61.1153 143.912L60.1866 143.789C59.4408 143.695 58.7499 143.347 58.2292 142.805C57.7084 142.263 57.3894 141.558 57.3253 140.809L56.912 136.112C56.8726 135.657 56.9281 135.199 57.075 134.767C57.2219 134.335 57.4569 133.938 57.7653 133.601C58.0737 133.265 58.4486 132.996 58.8663 132.812C59.2841 132.627 59.7355 132.532 60.192 132.532H39.4168C38.9603 132.532 38.5089 132.627 38.0911 132.812C37.6734 132.996 37.2985 133.265 36.9901 133.601C36.6818 133.938 36.4467 134.335 36.2998 134.767C36.1529 135.199 36.0974 135.657 36.1368 136.112L36.5502 140.809C36.6142 141.558 36.9333 142.263 37.454 142.805C37.9747 143.347 38.6656 143.695 39.4115 143.789L40.3402 143.912C40.8982 143.979 41.4162 144.236 41.8073 144.64C42.1983 145.044 42.4385 145.57 42.4875 146.129L44.7421 171.897C44.8226 172.803 45.2391 173.646 45.9097 174.259C46.5804 174.873 47.4565 175.214 48.3657 175.215H69.1516C68.2398 175.219 67.3597 174.881 66.6863 174.266C66.0129 173.651 65.5955 172.806 65.5173 171.897Z" fill="#E6E6E6"/>
<path d="M122.722 139.687C122.893 137.737 123.788 135.922 125.231 134.599C126.673 133.276 128.559 132.54 130.516 132.537H112.425C110.467 132.539 108.58 133.274 107.136 134.597C105.693 135.921 104.797 137.736 104.625 139.687L102.838 160.087H120.934L122.722 139.687Z" fill="#E6E6E6"/>
<path d="M138.569 132.537H130.516C128.558 132.539 126.671 133.274 125.227 134.597C123.784 135.921 122.888 137.736 122.716 139.687L120.928 160.087H77.8321L76.0444 139.687C75.8727 137.736 74.9769 135.921 73.5332 134.597C72.0896 133.274 70.2028 132.539 68.2444 132.537H60.192C59.7355 132.537 59.284 132.633 58.8663 132.817C58.4486 133.001 58.0736 133.27 57.7653 133.607C57.4569 133.943 57.2218 134.34 57.0749 134.772C56.9281 135.205 56.8726 135.663 56.912 136.117L57.3253 140.815C57.3894 141.564 57.7084 142.268 58.2291 142.81C58.7499 143.353 59.4408 143.7 60.1866 143.794L61.1153 143.918C61.673 143.985 62.1905 144.243 62.5813 144.646C62.9721 145.05 63.2126 145.575 63.2626 146.135L65.5173 171.902C65.5953 172.808 66.0103 173.651 66.6803 174.266C67.3503 174.88 68.2265 175.221 69.1355 175.22H129.63C130.54 175.219 131.416 174.879 132.086 174.265C132.757 173.651 133.174 172.808 133.254 171.902L135.503 146.135C135.553 145.575 135.794 145.05 136.185 144.646C136.575 144.243 137.093 143.985 137.651 143.918L138.579 143.799C139.325 143.703 140.016 143.354 140.536 142.812C141.057 142.269 141.376 141.564 141.441 140.815L141.854 136.117C141.893 135.662 141.838 135.204 141.691 134.771C141.543 134.339 141.308 133.941 140.999 133.605C140.69 133.268 140.314 132.999 139.896 132.815C139.478 132.631 139.026 132.537 138.569 132.537Z" fill="#F0F0F0"/>
<path d="M211.395 40.9546C211.395 40.9546 212.028 36.8103 209 34.1477C205.973 31.485 206.241 29.9067 207.105 29.7027C207.97 29.4987 208.769 32.156 210.095 32.8861C210.095 32.8861 210.138 29.0961 208.791 27.7004C207.444 26.3046 206.73 22.7079 208.013 22.6435C209.296 22.5791 209.435 24.7908 209.698 26.3368C209.961 27.8829 211.395 30.0946 211.395 30.0946C211.395 30.0946 211.674 26.7019 212.549 25.3061C213.424 23.9104 211.094 20.7163 212.012 19.3205C212.93 17.9248 214.508 20.5874 214.374 23.5775C214.24 26.5677 212.227 29.7618 212.71 32.8861C212.71 32.8861 213.59 30.6905 214.385 30.4919C215.179 30.2932 215.968 28.8384 216.5 28.3016C217.031 27.7648 217.697 29.6276 216.5 31.3562C215.303 33.0847 212.248 37.7068 212.71 41.4485L211.395 40.9546Z" fill="#E6E6E6"/>
<path d="M209.59 39.0703L208.597 45.2868C208.525 45.7379 208.552 46.1994 208.675 46.6394C208.799 47.0793 209.016 47.4871 209.313 47.8347C209.609 48.1823 209.978 48.4614 210.393 48.6527C210.808 48.844 211.259 48.9429 211.716 48.9425H212.79C213.247 48.9427 213.699 48.8438 214.114 48.6526C214.529 48.4614 214.898 48.1824 215.195 47.8349C215.492 47.4874 215.71 47.0797 215.834 46.6398C215.958 46.1999 215.986 45.7383 215.914 45.2868L214.921 39.0703H209.59Z" fill="#E6E6E6"/>
<path d="M224.573 46.6501H154.55V50.2469H224.573V46.6501Z" fill="#E0E0E0"/>
<path d="M160.858 33.3854H157.771V46.645H160.858V33.3854Z" fill="#EBEBEB"/>
<path d="M175.776 33.3854H172.689V46.645H175.776V33.3854Z" fill="#EBEBEB"/>
<path d="M192.709 33.048L189.667 33.5723L191.919 46.6392L194.961 46.1149L192.709 33.048Z" fill="#EBEBEB"/>
<path d="M164.68 35.1354H161.593V46.6504H164.68V35.1354Z" fill="#EBEBEB"/>
<path d="M171.771 35.1354H168.685V46.6504H171.771V35.1354Z" fill="#EBEBEB"/>
<path d="M189.669 35.1354H186.582V46.6504H189.669V35.1354Z" fill="#EBEBEB"/>
<path d="M179.831 34.7276L176.817 35.3973L179.316 46.6379L182.329 45.9683L179.831 34.7276Z" fill="#EBEBEB"/>
<path d="M167.342 32.7302H165.802V46.6501H167.342V32.7302Z" fill="#EBEBEB"/>
<path d="M185.691 32.7302H184.15V46.6501H185.691V32.7302Z" fill="#EBEBEB"/>
<path d="M154.545 77.1044L224.568 77.1044V73.5077L154.545 73.5077V77.1044Z" fill="#E0E0E0"/>
<path d="M218.261 73.5077H221.347V60.2481H218.261V73.5077Z" fill="#EBEBEB"/>
<path d="M203.342 73.5077H206.429V60.2481H203.342V73.5077Z" fill="#EBEBEB"/>
<path d="M184.165 72.9756L187.207 73.4999L189.459 60.433L186.417 59.9087L184.165 72.9756Z" fill="#EBEBEB"/>
<path d="M214.444 73.5077H217.531V61.9928H214.444V73.5077Z" fill="#EBEBEB"/>
<path d="M207.347 73.5077H210.434V61.9928H207.347V73.5077Z" fill="#EBEBEB"/>
<path d="M189.449 73.5077H192.536V61.9928H189.449V73.5077Z" fill="#EBEBEB"/>
<path d="M196.799 72.8285L199.812 73.4982L202.31 62.2575L199.297 61.5878L196.799 72.8285Z" fill="#EBEBEB"/>
<path d="M211.77 73.5077H213.311V59.5878H211.77V73.5077Z" fill="#EBEBEB"/>
<path d="M193.421 73.5077H194.962V59.5878H193.421V73.5077Z" fill="#EBEBEB"/>
<path d="M161.271 73.3843H176.302V63.0074H161.271V73.3843Z" fill="#EBEBEB"/>
<path d="M125.293 25.1771H39.7655C39.137 25.1771 38.6274 25.6866 38.6274 26.3151V27.5337C38.6274 28.1623 39.137 28.6718 39.7655 28.6718H125.293C125.921 28.6718 126.431 28.1623 126.431 27.5337V26.3151C126.431 25.6866 125.921 25.1771 125.293 25.1771Z" fill="#E0E0E0"/>
<path d="M121.218 27.958H43.8457V96.6181H121.218V27.958Z" fill="#E6E6E6"/>
<path d="M119.184 29.8367H45.7834V94.7659H119.184V29.8367Z" fill="#F0F0F0"/>
<path d="M63.0102 29.8367L45.7834 94.6263V64.1829L54.8773 29.8367H63.0102Z" fill="white"/>
<path d="M69.1088 29.8367L51.7317 94.7712H48.9617L66.3387 29.8367H69.1088Z" fill="white"/>
<path d="M119.184 70.8128V81.1843L115.668 94.7714H112.892L119.184 70.8128Z" fill="white"/>
<path d="M71.3795 28.6719H70.1448V96.2208H71.3795V28.6719Z" fill="#E6E6E6"/>
<path d="M95.3436 28.6719H94.1089V96.2208H95.3436V28.6719Z" fill="#E6E6E6"/>
<path d="M108.608 26.3046C108.608 26.3046 110.391 49.5331 120.628 61.3701C120.628 61.3701 113.171 91.266 113.177 101.691L127.032 99.1305L122.04 61.5526L124.429 26.3046H108.608Z" fill="#E0E0E0"/>
<path d="M56.4341 26.3046C56.4341 26.3046 54.6519 49.5331 44.4146 61.3701C44.4146 61.3701 51.8711 91.266 51.8657 101.691L38.0103 99.1305L43.0027 61.5526L40.6353 26.3046H56.4341Z" fill="#E0E0E0"/>
<path d="M134.811 200C192.296 200 238.896 197.279 238.896 193.923C238.896 190.567 192.296 187.846 134.811 187.846C77.3261 187.846 30.7256 190.567 30.7256 193.923C30.7256 197.279 77.3261 200 134.811 200Z" fill="#F5F5F5"/>
<path d="M207.32 178.511C207.32 178.339 206.74 161.37 203.992 158.702C201.345 156.125 198.291 158.605 198.162 158.702L197.818 158.288C197.856 158.261 201.372 155.389 204.367 158.288C207.272 161.112 207.835 177.759 207.857 178.462L207.32 178.511Z" fill="#3950A2"/>
<path d="M207.562 181.85C207.481 181.018 205.667 161.45 213.059 152.958L213.462 153.307C206.225 161.611 208.093 181.597 208.093 181.796L207.562 181.85Z" fill="#3950A2"/>
<path d="M207.39 179.713L206.853 179.676C206.853 179.45 208.297 156.748 202.907 151.793L203.272 151.396C208.85 156.528 207.454 178.763 207.39 179.713Z" fill="#3950A2"/>
<path d="M208.093 179.697H207.556C207.556 179.069 207.739 164.317 211.948 161.907C212.351 161.645 212.811 161.485 213.29 161.439C213.768 161.394 214.251 161.464 214.696 161.644C217.246 162.717 218.508 167.221 218.561 167.414L218.025 167.554C218.025 167.511 216.784 163.093 214.476 162.137C214.105 161.99 213.704 161.934 213.306 161.975C212.909 162.016 212.528 162.153 212.195 162.374C208.27 164.628 208.099 179.547 208.093 179.697Z" fill="#3950A2"/>
<path d="M206.467 179.708L205.93 179.681C205.93 179.563 206.558 168.064 203.466 164.022C202.72 163.055 201.92 162.599 201.077 162.653C199.064 162.792 197.373 165.745 197.357 165.777L196.884 165.514C196.959 165.38 198.742 162.293 201.034 162.116C202.065 162.046 203.031 162.572 203.89 163.694C207.105 167.898 206.493 179.23 206.467 179.708Z" fill="#3950A2"/>
<path d="M207.046 181.275C206.96 180.159 205.012 153.843 208.447 149.189L208.882 149.511C205.559 153.999 207.556 180.964 207.578 181.238L207.046 181.275Z" fill="#3950A2"/>
<path d="M215.609 164.349C215.609 164.349 213.553 165.106 214.165 166.894C214.777 168.681 221.278 171.629 221.278 171.629C221.278 171.629 223.999 169.132 221.498 165.079C218.996 161.026 215.663 163.072 215.609 164.349Z" fill="#3950A2"/>
<path opacity="0.2" d="M215.609 164.349C215.609 164.349 213.553 165.106 214.165 166.894C214.777 168.681 221.278 171.629 221.278 171.629C221.278 171.629 223.999 169.132 221.498 165.079C218.996 161.026 215.663 163.072 215.609 164.349Z" fill="white"/>
<path d="M206.671 160.946C206.671 160.946 208.861 160.854 208.984 162.739C209.108 164.623 204.244 169.846 204.244 169.846C204.244 169.846 200.771 168.59 201.517 163.882C202.263 159.174 206.128 159.781 206.671 160.946Z" fill="#3950A2"/>
<path opacity="0.2" d="M206.671 160.946C206.671 160.946 208.861 160.854 208.984 162.739C209.108 164.623 204.244 169.846 204.244 169.846C204.244 169.846 200.771 168.59 201.517 163.882C202.263 159.174 206.128 159.781 206.671 160.946Z" fill="white"/>
<path d="M204.819 151.922C204.819 151.922 206.279 151.766 206.161 150.88C206.043 149.994 200.487 147.702 197.212 151.417C197.212 151.417 199.311 155.025 202.344 155.067C205.377 155.11 204.819 151.922 204.819 151.922Z" fill="#3950A2"/>
<path opacity="0.2" d="M204.819 151.922C204.819 151.922 206.279 151.766 206.161 150.88C206.043 149.994 200.487 147.702 197.212 151.417C197.212 151.417 199.311 155.025 202.344 155.067C205.377 155.11 204.819 151.922 204.819 151.922Z" fill="white"/>
<path d="M207.54 149.774C207.54 149.774 206.22 150.413 205.849 149.597C205.479 148.781 208.979 143.902 213.719 145.303C213.719 145.303 213.848 149.474 211.293 151.116C208.737 152.759 207.54 149.774 207.54 149.774Z" fill="#3950A2"/>
<path opacity="0.2" d="M207.54 149.774C207.54 149.774 206.22 150.413 205.849 149.597C205.479 148.781 208.979 143.902 213.719 145.303C213.719 145.303 213.848 149.474 211.293 151.116C208.737 152.759 207.54 149.774 207.54 149.774Z" fill="white"/>
<path d="M200.631 163.63C200.631 163.63 201.635 162.819 200.551 162.422C199.466 162.025 194.109 162.137 194.071 167.42C194.071 167.42 200.282 168.451 201.05 166.437C201.818 164.424 200.631 163.63 200.631 163.63Z" fill="#3950A2"/>
<path opacity="0.2" d="M200.631 163.63C200.631 163.63 201.635 162.819 200.551 162.422C199.466 162.025 194.109 162.137 194.071 167.42C194.071 167.42 200.282 168.451 201.05 166.437C201.818 164.424 200.631 163.63 200.631 163.63Z" fill="white"/>
<path d="M213.295 151.782C213.295 151.782 212.291 150.966 213.376 150.569C214.46 150.172 219.818 150.285 219.85 155.572C219.85 155.572 213.639 156.603 212.871 154.59C212.103 152.577 213.295 151.782 213.295 151.782Z" fill="#3950A2"/>
<path opacity="0.2" d="M213.295 151.782C213.295 151.782 212.291 150.966 213.376 150.569C214.46 150.172 219.818 150.285 219.85 155.572C219.85 155.572 213.639 156.603 212.871 154.59C212.103 152.577 213.295 151.782 213.295 151.782Z" fill="white"/>
<path d="M210.01 156.039C210.01 156.039 209.924 155.046 210.724 155.438C211.524 155.83 214.299 158.825 211.416 161.671C211.416 161.671 207.54 158.799 208.238 157.301C208.936 155.803 210.01 156.039 210.01 156.039Z" fill="#3950A2"/>
<path opacity="0.2" d="M210.01 156.039C210.01 156.039 209.924 155.046 210.724 155.438C211.524 155.83 214.299 158.825 211.416 161.671C211.416 161.671 207.54 158.799 208.238 157.301C208.936 155.803 210.01 156.039 210.01 156.039Z" fill="white"/>
<path d="M199.73 157.446C199.73 157.446 200.331 156.656 199.45 156.56C198.57 156.463 194.619 157.515 195.537 161.461C195.537 161.461 200.368 161.101 200.556 159.459C200.744 157.816 199.73 157.446 199.73 157.446Z" fill="#3950A2"/>
<path opacity="0.2" d="M199.73 157.446C199.73 157.446 200.331 156.656 199.45 156.56C198.57 156.463 194.619 157.515 195.537 161.461C195.537 161.461 200.368 161.101 200.556 159.459C200.744 157.816 199.73 157.446 199.73 157.446Z" fill="white"/>
<path d="M215.995 194.342H199.472L197.695 176.256H217.777L215.995 194.342Z" fill="#263238"/>
<path d="M218.653 174.259H196.809V178.248H218.653V174.259Z" fill="#263238"/>
<path opacity="0.2" d="M218.653 174.259H196.809V178.248H218.653V174.259Z" fill="white"/>
<path d="M177.972 194.331H128.138C127.423 194.343 126.713 194.202 126.057 193.919C125.4 193.636 124.811 193.216 124.329 192.687C123.847 192.158 123.484 191.533 123.262 190.853C123.04 190.173 122.966 189.454 123.044 188.743L135.927 41.5879C136.083 40.0755 136.787 38.6726 137.907 37.644C139.027 36.6154 140.484 36.0323 142.004 36.0049H191.822C192.537 35.9915 193.247 36.1307 193.904 36.4132C194.562 36.6957 195.151 37.1151 195.634 37.6434C196.117 38.1716 196.481 38.7967 196.703 39.4768C196.925 40.157 197 40.8767 196.922 41.5879L184.038 188.743C183.885 190.255 183.183 191.658 182.065 192.688C180.947 193.717 179.491 194.302 177.972 194.331Z" fill="#3950A2"/>
<path opacity="0.4" d="M177.972 194.331H128.138C127.423 194.343 126.713 194.202 126.057 193.919C125.4 193.636 124.811 193.216 124.329 192.687C123.847 192.158 123.484 191.533 123.262 190.853C123.04 190.173 122.966 189.454 123.044 188.743L135.927 41.5879C136.083 40.0755 136.787 38.6726 137.907 37.644C139.027 36.6154 140.484 36.0323 142.004 36.0049H191.822C192.537 35.9915 193.247 36.1307 193.904 36.4132C194.562 36.6957 195.151 37.1151 195.634 37.6434C196.117 38.1716 196.481 38.7967 196.703 39.4768C196.925 40.157 197 40.8767 196.922 41.5879L184.038 188.743C183.885 190.255 183.183 191.658 182.065 192.688C180.947 193.717 179.491 194.302 177.972 194.331Z" fill="white"/>
<path d="M172.603 194.331H122.77C122.055 194.343 121.345 194.202 120.689 193.919C120.032 193.636 119.443 193.216 118.961 192.687C118.479 192.158 118.115 191.533 117.894 190.853C117.672 190.173 117.598 189.454 117.675 188.743L130.559 41.5879C130.715 40.0755 131.419 38.6726 132.539 37.644C133.659 36.6154 135.116 36.0323 136.636 36.0049H186.454C187.169 35.9915 187.879 36.1307 188.536 36.4132C189.194 36.6957 189.783 37.1151 190.266 37.6434C190.748 38.1716 191.113 38.7967 191.335 39.4768C191.557 40.157 191.631 40.8767 191.553 41.5879L178.67 188.743C178.516 190.255 177.815 191.658 176.697 192.688C175.579 193.717 174.123 194.302 172.603 194.331Z" fill="#263238"/>
<path d="M172.603 194.331H122.77C122.055 194.343 121.345 194.202 120.689 193.919C120.032 193.636 119.443 193.216 118.961 192.687C118.479 192.158 118.115 191.533 117.894 190.853C117.672 190.173 117.598 189.454 117.675 188.743L130.559 41.5879C130.715 40.0755 131.419 38.6726 132.539 37.644C133.659 36.6154 135.116 36.0323 136.636 36.0049H186.454C187.169 35.9915 187.879 36.1307 188.536 36.4132C189.194 36.6957 189.783 37.1151 190.266 37.6434C190.748 38.1716 191.113 38.7967 191.335 39.4768C191.557 40.157 191.631 40.8767 191.553 41.5879L178.67 188.743C178.516 190.255 177.815 191.658 176.697 192.688C175.579 193.717 174.123 194.302 172.603 194.331Z" fill="#3950A2"/>
<path d="M189.519 41.3357L176.635 188.77C176.528 189.983 175.771 190.917 174.928 190.917H120.902C120.129 190.917 119.624 190.053 119.721 188.941L132.663 41.1424C132.749 40.1761 133.313 39.3333 133.984 39.3333H147.485C147.866 39.3333 148.183 39.693 148.28 40.2083L148.666 42.1946C148.763 42.7314 149.08 43.0643 149.461 43.0643H172.448C172.672 43.031 172.881 42.9322 173.049 42.7803C173.217 42.6285 173.337 42.4303 173.392 42.2107L174.128 40.2137C174.182 39.9908 174.301 39.7886 174.469 39.6322C174.636 39.4757 174.846 39.3718 175.073 39.3333H188.381C189.105 39.3333 189.61 40.262 189.519 41.3357Z" fill="#263238"/>
<path d="M188.885 48.5451L177.816 175.048H120.934L132.003 48.5451H188.885Z" fill="#3950A2"/>
<path opacity="0.6" d="M138.558 45.2758H139.261L139.379 43.923H138.676L138.558 45.2758Z" fill="white"/>
<path opacity="0.6" d="M137.409 45.2758H138.112L138.273 43.472H137.57L137.409 45.2758Z" fill="white"/>
<path opacity="0.6" d="M136.265 45.2758H136.969L137.167 43.0211H136.464L136.265 45.2758Z" fill="white"/>
<path opacity="0.6" d="M135.122 45.2757H135.825L136.062 42.5701H135.358L135.122 45.2757Z" fill="white"/>
<path opacity="0.6" d="M182.776 44.782H182.357L182.481 43.4292H182.894L182.776 44.782Z" fill="white"/>
<path opacity="0.6" d="M183.018 45.2759H186.341L186.545 42.9354H183.227L183.018 45.2759Z" fill="white"/>
<path opacity="0.6" d="M161.223 39.5264C161.169 40.1491 160.777 40.6537 160.342 40.6537C159.907 40.6537 159.607 40.1491 159.66 39.5264C159.714 38.9037 160.111 38.399 160.541 38.399C160.97 38.399 161.276 38.9037 161.223 39.5264Z" fill="#263238"/>
<path opacity="0.6" d="M162.801 39.5265C162.769 39.9238 162.517 40.2459 162.237 40.2459C161.958 40.2459 161.77 39.9238 161.803 39.5265C161.835 39.1293 162.093 38.8018 162.366 38.8018C162.64 38.8018 162.839 39.1293 162.801 39.5265Z" fill="#263238"/>
<path opacity="0.7" d="M188.885 48.5451L187.35 66.094L187.087 69.1217L185.858 83.1811L185.664 85.366L183.92 105.298L183.732 107.483L182.057 126.621L181.815 129.375L177.821 175.048H120.934L132.003 48.5451H188.885Z" fill="white"/>
<path d="M134.596 79.74L133.088 82.51L136.105 84.4265L134.596 79.74Z" fill="#3950A2"/>
<path d="M138.998 135.124L140.941 132.961L138.348 130.062L138.998 135.124Z" fill="#3950A2"/>
<path d="M161.309 53.7577L161.164 50.2737L158.002 51.6157L161.309 53.7577Z" fill="#3950A2"/>
<path d="M129.147 133.788L127.644 136.553L130.656 138.469L129.147 133.788Z" fill="#3950A2"/>
<path d="M130.983 121.919L129.845 124.925L127.505 122.939L129.384 119.707L130.983 121.919Z" fill="#3950A2"/>
<path d="M154.4 164.586L156.81 164.8L156.509 168.633L153.648 167.57L154.4 164.586Z" fill="#3950A2"/>
<path d="M134.811 99.5276L136.319 99.9517C136.319 99.9517 134.059 102.099 135.111 103.785C136.163 105.47 134.36 106.979 134.36 106.979L133.001 105.701C133.353 105.3 133.593 104.814 133.699 104.292C133.804 103.769 133.771 103.228 133.603 102.722C133.001 101.02 134.811 99.5276 134.811 99.5276Z" fill="#3950A2"/>
<path d="M155.377 87.4168L156.885 87.8409C156.885 87.8409 154.625 89.9882 155.677 91.6738C156.73 93.3595 154.926 94.868 154.926 94.868L153.6 93.5903C153.95 93.1886 154.19 92.7026 154.295 92.1802C154.4 91.6578 154.368 91.117 154.201 90.6109C153.6 88.9038 155.377 87.4168 155.377 87.4168Z" fill="#3950A2"/>
<path d="M134.961 67.2214L133.576 70.1149L136.668 71.7683L134.961 67.2214Z" fill="#3950A2"/>
<path d="M162.023 68.6924L160.638 71.5859L163.73 73.2393L162.023 68.6924Z" fill="#3950A2"/>
<path d="M148.983 64.097L149.821 60.8117L146.541 60.2802L148.983 64.097Z" fill="#3950A2"/>
<path d="M148.36 77.1687L148.8 73.8135L151.458 74.7047L150.362 78.5913L148.36 77.1687Z" fill="#3950A2"/>
<path d="M179.926 72.3318L180.366 68.9767L183.018 69.8678L181.923 73.7544L179.926 72.3318Z" fill="#3950A2"/>
<path d="M177.719 92.1087L178.159 88.7535L180.817 89.6447L179.722 93.5313L177.719 92.1087Z" fill="#3950A2"/>
<path d="M170.242 87.9535L168.717 88.1951C168.717 88.1951 170.413 85.1943 169.044 84.024C167.675 82.8537 169.071 80.6581 169.071 80.6581L170.639 81.2969C170.639 81.2969 169.764 83.0309 170.709 84.3944C171.653 85.7579 170.242 87.9535 170.242 87.9535Z" fill="#3950A2"/>
<path d="M157.567 127.743L156.059 130.513L159.07 132.429L157.567 127.743Z" fill="#3950A2"/>
<path d="M148.167 138.469L146.659 141.239L149.67 143.155L148.167 138.469Z" fill="#3950A2"/>
<path d="M165.222 114.585L167.632 114.795L167.331 118.633L164.47 117.565L165.222 114.585Z" fill="#3950A2"/>
<path d="M174.23 146.924L176.635 147.133L176.334 150.966L173.473 149.903L174.23 146.924Z" fill="#3950A2"/>
<path d="M162.334 150.359L163.842 150.789C163.842 150.789 161.582 152.936 162.634 154.622C163.687 156.308 161.883 157.843 161.883 157.843L160.53 156.565C160.886 156.156 161.128 155.66 161.231 155.127C161.334 154.595 161.294 154.044 161.115 153.532C160.53 151.852 162.334 150.359 162.334 150.359Z" fill="#3950A2"/>
<path d="M175.636 134.969L174.686 135.28C174.686 135.28 175.094 132.44 173.913 131.458C172.732 130.476 173.14 128.387 173.14 128.387L174.321 128.87C174.244 129.873 174.518 130.871 175.094 131.694C176.039 132.881 175.636 134.969 175.636 134.969Z" fill="#3950A2"/>
<path d="M176.297 58.5893L175.346 58.906C175.346 58.906 175.754 56.0662 174.573 55.0838C173.392 54.1014 173.795 52.0132 173.795 52.0132L174.976 52.4963C174.903 53.4991 175.178 54.4964 175.754 55.32C176.683 56.5011 176.297 58.5893 176.297 58.5893Z" fill="#3950A2"/>
<path d="M138.912 166.303L137.495 167.119C137.495 167.119 138.569 163.582 137.007 162.98C135.444 162.379 136.395 159.727 136.395 159.727H138.005C138.005 159.727 137.495 161.735 138.66 162.691C139.825 163.646 138.912 166.303 138.912 166.303Z" fill="#3950A2"/>
<path d="M138.295 53.7576C138.295 54.638 137.79 55.3681 137.168 55.3681C136.545 55.3681 136.035 54.6541 136.035 53.7576C136.035 52.8611 136.54 52.1472 137.168 52.1472C137.796 52.1472 138.295 52.8772 138.295 53.7576Z" fill="#3950A2"/>
<path d="M150.803 115.176C150.803 116.062 150.266 116.786 149.67 116.786C149.074 116.786 148.543 116.072 148.543 115.176C148.543 114.279 149.048 113.565 149.67 113.565C150.293 113.565 150.803 114.295 150.803 115.176Z" fill="#3950A2"/>
<path d="M180.398 110.608C181.021 110.608 181.525 109.891 181.525 109.008C181.525 108.124 181.021 107.408 180.398 107.408C179.775 107.408 179.271 108.124 179.271 109.008C179.271 109.891 179.775 110.608 180.398 110.608Z" fill="#3950A2"/>
<path d="M185.911 54.9228C185.911 55.8086 185.407 56.5333 184.779 56.5333C184.151 56.5333 183.651 55.8193 183.651 54.9228C183.651 54.0263 184.156 53.3123 184.779 53.3123C185.401 53.3123 185.911 54.0424 185.911 54.9228Z" fill="#3950A2"/>
<path d="M126.517 154.262L127.714 151.208L124.531 149.946L126.517 154.262Z" fill="#3950A2"/>
<path d="M171.567 169.154L170.934 172.531L174.235 172.654L171.567 169.154Z" fill="#3950A2"/>
<path d="M125.196 171.661C125.137 170.78 125.599 170.002 126.222 169.927C126.844 169.852 127.392 170.496 127.446 171.376C127.499 172.257 127.043 173.03 126.42 173.11C125.797 173.191 125.25 172.536 125.196 171.661Z" fill="#3950A2"/>
<g opacity="0.5">
<path opacity="0.5" d="M134.596 79.7402L133.087 82.5102L136.104 84.4267L134.596 79.7402Z" fill="white"/>
<path opacity="0.5" d="M138.998 135.125L140.942 132.961L138.349 130.062L138.998 135.125Z" fill="white"/>
<path opacity="0.5" d="M161.309 53.7579L161.164 50.2739L158.002 51.616L161.309 53.7579Z" fill="white"/>
<path opacity="0.5" d="M129.147 133.788L127.644 136.553L130.656 138.469L129.147 133.788Z" fill="white"/>
<path opacity="0.5" d="M130.983 121.919L129.845 124.925L127.504 122.939L129.383 119.707L130.983 121.919Z" fill="white"/>
<path opacity="0.5" d="M154.4 164.586L156.81 164.801L156.509 168.633L153.648 167.571L154.4 164.586Z" fill="white"/>
<path opacity="0.5" d="M134.811 99.5279L136.319 99.952C136.319 99.952 134.059 102.099 135.111 103.785C136.164 105.471 134.36 106.979 134.36 106.979L133.002 105.701C133.353 105.3 133.594 104.814 133.699 104.292C133.805 103.769 133.772 103.228 133.603 102.722C133.002 101.02 134.811 99.5279 134.811 99.5279Z" fill="white"/>
<path opacity="0.5" d="M155.377 87.4171L156.885 87.8412C156.885 87.8412 154.625 89.9885 155.677 91.6741C156.729 93.3597 154.926 94.8682 154.926 94.8682L153.6 93.5906C153.95 93.1888 154.189 92.7029 154.295 92.1805C154.4 91.6581 154.368 91.1173 154.201 90.6112C153.6 88.9041 155.377 87.4171 155.377 87.4171Z" fill="white"/>
<path opacity="0.5" d="M134.961 67.2216L133.576 70.1151L136.668 71.7685L134.961 67.2216Z" fill="white"/>
<path opacity="0.5" d="M162.022 68.6926L160.637 71.5861L163.73 73.2395L162.022 68.6926Z" fill="white"/>
<path opacity="0.5" d="M148.983 64.0973L149.82 60.8119L146.54 60.2805L148.983 64.0973Z" fill="white"/>
<path opacity="0.5" d="M148.36 77.1689L148.801 73.8138L151.458 74.7049L150.363 78.5915L148.36 77.1689Z" fill="white"/>
<path opacity="0.5" d="M179.926 72.3321L180.366 68.9769L183.018 69.8681L181.923 73.7547L179.926 72.3321Z" fill="white"/>
<path opacity="0.5" d="M177.719 92.1089L178.16 88.7537L180.817 89.6449L179.722 93.5315L177.719 92.1089Z" fill="white"/>
<path opacity="0.5" d="M170.241 87.9537L168.717 88.1953C168.717 88.1953 170.413 85.1944 169.044 84.0242C167.675 82.8539 169.071 80.6583 169.071 80.6583L170.639 81.2971C170.639 81.2971 169.763 83.031 170.708 84.3946C171.653 85.7581 170.241 87.9537 170.241 87.9537Z" fill="white"/>
<path opacity="0.5" d="M157.567 127.743L156.058 130.513L159.07 132.43L157.567 127.743Z" fill="white"/>
<path opacity="0.5" d="M148.167 138.469L146.658 141.239L149.67 143.156L148.167 138.469Z" fill="white"/>
<path opacity="0.5" d="M165.222 114.586L167.632 114.795L167.332 118.633L164.47 117.565L165.222 114.586Z" fill="white"/>
<path opacity="0.5" d="M174.23 146.924L176.635 147.134L176.334 150.967L173.473 149.904L174.23 146.924Z" fill="white"/>
<path opacity="0.5" d="M162.334 150.36L163.842 150.789C163.842 150.789 161.582 152.936 162.635 154.622C163.687 156.308 161.883 157.843 161.883 157.843L160.53 156.565C160.887 156.156 161.128 155.66 161.231 155.128C161.334 154.595 161.294 154.045 161.115 153.532C160.53 151.852 162.334 150.36 162.334 150.36Z" fill="white"/>
<path opacity="0.5" d="M175.636 134.969L174.686 135.28C174.686 135.28 175.094 132.441 173.913 131.458C172.732 130.476 173.14 128.388 173.14 128.388L174.321 128.871C174.245 129.873 174.518 130.871 175.094 131.694C176.039 132.881 175.636 134.969 175.636 134.969Z" fill="white"/>
<path opacity="0.5" d="M176.297 58.5892L175.347 58.9059C175.347 58.9059 175.755 56.0661 174.574 55.0837C173.393 54.1013 173.795 52.0131 173.795 52.0131L174.976 52.4962C174.903 53.499 175.178 54.4963 175.755 55.3199C176.683 56.5009 176.297 58.5892 176.297 58.5892Z" fill="white"/>
<path opacity="0.5" d="M138.912 166.304L137.495 167.12C137.495 167.12 138.569 163.582 137.006 162.981C135.444 162.379 136.394 159.728 136.394 159.728H138.005C138.005 159.728 137.495 161.735 138.66 162.691C139.825 163.646 138.912 166.304 138.912 166.304Z" fill="white"/>
<path opacity="0.5" d="M138.295 53.7578C138.295 54.6382 137.79 55.3683 137.167 55.3683C136.545 55.3683 136.035 54.6543 136.035 53.7578C136.035 52.8613 136.539 52.1473 137.167 52.1473C137.795 52.1473 138.295 52.8774 138.295 53.7578Z" fill="white"/>
<path opacity="0.5" d="M150.803 115.176C150.803 116.062 150.266 116.787 149.67 116.787C149.074 116.787 148.543 116.073 148.543 115.176C148.543 114.28 149.047 113.566 149.67 113.566C150.293 113.566 150.803 114.296 150.803 115.176Z" fill="white"/>
<path opacity="0.5" d="M180.398 110.608C181.02 110.608 181.525 109.892 181.525 109.008C181.525 108.124 181.02 107.408 180.398 107.408C179.775 107.408 179.271 108.124 179.271 109.008C179.271 109.892 179.775 110.608 180.398 110.608Z" fill="white"/>
<path opacity="0.5" d="M185.911 54.923C185.911 55.8088 185.407 56.5335 184.778 56.5335C184.15 56.5335 183.651 55.8195 183.651 54.923C183.651 54.0265 184.156 53.3126 184.778 53.3126C185.401 53.3126 185.911 54.0426 185.911 54.923Z" fill="white"/>
<path opacity="0.5" d="M126.517 154.262L127.714 151.208L124.531 149.946L126.517 154.262Z" fill="white"/>
<path opacity="0.5" d="M171.567 169.154L170.934 172.531L174.235 172.654L171.567 169.154Z" fill="white"/>
<path opacity="0.5" d="M125.196 171.661C125.137 170.781 125.599 170.002 126.221 169.927C126.844 169.852 127.392 170.496 127.445 171.376C127.499 172.257 127.043 173.03 126.42 173.11C125.797 173.191 125.25 172.536 125.196 171.661Z" fill="white"/>
</g>
<path d="M161.422 153.962H139.412C138.672 153.985 137.937 153.851 137.254 153.567C136.571 153.283 135.956 152.856 135.452 152.315C134.948 151.774 134.565 151.131 134.329 150.43C134.094 149.729 134.011 148.986 134.086 148.25C134.266 146.685 135.013 145.24 136.187 144.188C137.36 143.137 138.878 142.551 140.453 142.543H162.463C163.202 142.52 163.937 142.654 164.62 142.938C165.302 143.222 165.916 143.648 166.42 144.188C166.925 144.729 167.308 145.371 167.544 146.071C167.779 146.772 167.863 147.514 167.788 148.25C167.61 149.816 166.863 151.262 165.69 152.315C164.516 153.367 162.998 153.953 161.422 153.962Z" fill="#3950A2"/>
<path d="M137.817 65.1062C137.829 64.6698 138.005 64.2539 138.311 63.9423C138.616 63.6306 139.029 63.4461 139.465 63.4259C139.665 63.418 139.864 63.4606 140.043 63.5497C140.222 63.6388 140.376 63.7717 140.49 63.9359L140.2 64.2312C140.116 64.1088 140.003 64.0094 139.871 63.9419C139.739 63.8744 139.592 63.8409 139.443 63.8446C139.118 63.8621 138.811 64.0018 138.584 64.2357C138.357 64.4695 138.227 64.7804 138.22 65.1062C138.187 65.2561 138.188 65.4113 138.223 65.5608C138.257 65.7103 138.324 65.8503 138.419 65.9708C138.514 66.0913 138.634 66.1894 138.771 66.258C138.909 66.3266 139.059 66.3641 139.213 66.3677C139.371 66.3667 139.528 66.3305 139.671 66.2618C139.813 66.1931 139.939 66.0936 140.039 65.9705L140.276 66.2711C140.14 66.4377 139.969 66.5722 139.775 66.665C139.581 66.7577 139.369 66.8066 139.154 66.8079C138.3 66.7865 137.726 66.0778 137.817 65.1062Z" fill="#3950A2"/>
<path d="M140.673 65.1063C140.686 64.6694 140.864 64.2535 141.17 63.942C141.477 63.6304 141.89 63.4461 142.326 63.426C142.532 63.4296 142.734 63.4785 142.918 63.5691C143.102 63.6598 143.264 63.79 143.393 63.9505C143.521 64.111 143.612 64.2978 143.66 64.4976C143.707 64.6974 143.71 64.9052 143.668 65.1063C143.657 65.5427 143.48 65.9585 143.175 66.2702C142.869 66.5819 142.456 66.7664 142.02 66.7866C141.815 66.7828 141.613 66.7339 141.428 66.6433C141.244 66.5527 141.081 66.4226 140.953 66.2622C140.824 66.1019 140.732 65.9152 140.684 65.7154C140.636 65.5157 140.632 65.3077 140.673 65.1063ZM143.266 65.1063C143.299 64.9576 143.299 64.8034 143.266 64.6546C143.233 64.5059 143.167 64.3663 143.074 64.2459C142.981 64.1254 142.862 64.027 142.726 63.9577C142.59 63.8883 142.441 63.8498 142.289 63.8447C141.965 63.8636 141.66 64.004 141.435 64.2379C141.21 64.4718 141.082 64.7819 141.076 65.1063C141.042 65.2554 141.042 65.4101 141.076 65.5592C141.109 65.7083 141.175 65.8482 141.269 65.9687C141.363 66.0893 141.483 66.1876 141.619 66.2566C141.755 66.3256 141.905 66.3636 142.058 66.3678C142.381 66.3477 142.684 66.2067 142.908 65.973C143.132 65.7392 143.26 65.4298 143.266 65.1063Z" fill="#3950A2"/>
<path d="M146.868 63.4636L146.567 66.749H146.234L144.764 64.3011L144.543 66.749H144.141L144.441 63.4636H144.769L146.24 65.9115L146.465 63.4636H146.868Z" fill="#3950A2"/>
<path d="M149.52 65.0847H149.906L149.794 66.3677C149.487 66.6358 149.095 66.7845 148.688 66.7864C148.482 66.7844 148.278 66.7367 148.093 66.6467C147.907 66.5567 147.744 66.4267 147.614 66.266C147.485 66.1053 147.393 65.918 147.344 65.7174C147.296 65.5169 147.293 65.3081 147.335 65.1061C147.348 64.6674 147.527 64.2501 147.836 63.9383C148.145 63.6264 148.561 63.4433 148.999 63.4259C149.202 63.4167 149.403 63.4586 149.585 63.5477C149.767 63.6368 149.924 63.7703 150.041 63.9359L149.761 64.2257C149.671 64.104 149.553 64.0057 149.416 63.9394C149.28 63.873 149.129 63.8405 148.978 63.8446C148.649 63.8581 148.339 63.996 148.108 64.2303C147.878 64.4646 147.746 64.7777 147.738 65.1061C147.711 65.2563 147.716 65.4105 147.754 65.5583C147.791 65.7062 147.859 65.8445 147.954 65.9639C148.049 66.0832 148.169 66.181 148.304 66.2506C148.44 66.3202 148.589 66.3601 148.741 66.3677C148.985 66.372 149.224 66.2987 149.423 66.1583L149.52 65.0847Z" fill="#3950A2"/>
<path d="M152.413 66.7489L151.876 65.7397H151.699H151.001L150.91 66.7382H150.507L150.808 63.4528H151.908C152.06 63.4329 152.215 63.4495 152.359 63.5011C152.503 63.5527 152.633 63.6378 152.738 63.7495C152.843 63.8612 152.92 63.9962 152.962 64.1434C153.005 64.2907 153.011 64.4459 152.982 64.5962C152.976 64.8201 152.904 65.0373 152.776 65.2212C152.649 65.4052 152.47 65.548 152.263 65.6323L152.832 66.7382L152.413 66.7489ZM152.601 64.6016C152.644 64.1346 152.397 63.8662 151.882 63.8662H151.194L151.06 65.3424H151.747C151.853 65.3552 151.959 65.3458 152.061 65.3149C152.162 65.2841 152.256 65.2324 152.337 65.1631C152.417 65.0939 152.482 65.0087 152.527 64.913C152.573 64.8172 152.598 64.713 152.601 64.607V64.6016Z" fill="#3950A2"/>
<path d="M155.334 65.9277H153.836L153.449 66.749H153.063L154.641 63.4636H155.038L156.021 66.749H155.597L155.334 65.9277ZM155.226 65.5519L154.764 63.9414L154.008 65.5519H155.226Z" fill="#3950A2"/>
<path d="M157.094 63.8822H156.128L156.166 63.4742H158.501L158.463 63.8822H157.497L157.234 66.7596H156.821L157.094 63.8822Z" fill="#3950A2"/>
<path d="M158.694 65.3318L158.866 63.4636H159.269L159.097 65.3103C159.033 66.0404 159.29 66.384 159.795 66.384C160.3 66.384 160.627 66.0565 160.691 65.3103L160.863 63.4636H161.25L161.083 65.3318C160.992 66.282 160.498 66.7866 159.757 66.7866C159.017 66.7866 158.609 66.282 158.694 65.3318Z" fill="#3950A2"/>
<path d="M162.082 63.4636H162.484L162.221 66.341H163.746L163.714 66.749H161.781L162.082 63.4636Z" fill="#3950A2"/>
<path d="M166.059 65.9277H164.562L164.175 66.749H163.762L165.34 63.4636H165.737L166.72 66.749H166.296L166.059 65.9277ZM165.952 65.5519L165.49 63.9414L164.739 65.5519H165.952Z" fill="#3950A2"/>
<path d="M167.82 63.8822H166.854L166.892 63.4742H169.227L169.168 63.8822H168.201L167.938 66.7596H167.557L167.82 63.8822Z" fill="#3950A2"/>
<path d="M169.667 63.4636H170.069L169.769 66.749H169.366L169.667 63.4636Z" fill="#3950A2"/>
<path d="M170.537 65.1063C170.552 64.6693 170.731 64.2541 171.039 63.9429C171.346 63.6318 171.759 63.4473 172.195 63.426C172.401 63.4296 172.603 63.4785 172.787 63.5691C172.971 63.6598 173.134 63.79 173.262 63.9505C173.39 64.111 173.481 64.2978 173.529 64.4976C173.576 64.6974 173.579 64.9052 173.538 65.1063C173.526 65.5427 173.349 65.9585 173.044 66.2702C172.738 66.5819 172.326 66.7664 171.889 66.7866C171.684 66.7836 171.481 66.7352 171.296 66.645C171.11 66.5547 170.947 66.4247 170.818 66.2643C170.689 66.1038 170.597 65.9169 170.548 65.7167C170.5 65.5166 170.496 65.3081 170.537 65.1063ZM173.135 65.1063C173.167 64.9577 173.166 64.8038 173.133 64.6555C173.099 64.5071 173.034 64.368 172.941 64.2477C172.847 64.1275 172.729 64.0291 172.594 63.9595C172.459 63.8899 172.31 63.8507 172.158 63.8447C171.833 63.8635 171.528 64.0038 171.302 64.2375C171.076 64.4712 170.947 64.7814 170.939 65.1063C170.907 65.2558 170.908 65.4106 170.942 65.5596C170.976 65.7087 171.043 65.8484 171.137 65.9689C171.231 66.0893 171.351 66.1875 171.488 66.2564C171.624 66.3254 171.774 66.3634 171.927 66.3678C172.25 66.3477 172.554 66.2067 172.777 65.973C173.001 65.7392 173.129 65.4298 173.135 65.1063Z" fill="#3950A2"/>
<path d="M176.731 63.4636L176.436 66.749H176.103L174.632 64.3011L174.412 66.749H173.999L174.3 63.4636H174.632L176.103 65.9115L176.323 63.4636H176.731Z" fill="#3950A2"/>
<path d="M177.059 66.3732L177.22 66.0296C177.335 66.1509 177.475 66.247 177.629 66.3117C177.783 66.3763 177.949 66.4082 178.117 66.4054C178.605 66.4054 178.836 66.1853 178.857 65.9008C178.933 65.1009 177.177 65.6055 177.29 64.3869C177.324 64.1095 177.464 63.8562 177.682 63.6808C177.899 63.5054 178.177 63.4217 178.455 63.4475C178.773 63.4388 179.084 63.5413 179.335 63.7373L179.169 64.1131C178.956 63.9418 178.691 63.8473 178.417 63.8447C177.939 63.8447 177.714 64.0809 177.687 64.3815C177.612 65.1868 179.367 64.6822 179.26 65.89C179.225 66.1695 179.082 66.4241 178.861 66.5988C178.64 66.7735 178.359 66.8544 178.079 66.8241C177.887 66.8221 177.698 66.7811 177.523 66.7036C177.347 66.6261 177.19 66.5136 177.059 66.3732Z" fill="#3950A2"/>
<path d="M141.387 148.347H142.047L141.913 149.823C141.541 150.117 141.082 150.279 140.609 150.285C139.621 150.285 138.971 149.501 139.068 148.406C139.084 147.909 139.289 147.438 139.641 147.088C139.994 146.737 140.466 146.535 140.963 146.521C141.208 146.508 141.452 146.559 141.672 146.67C141.891 146.78 142.078 146.945 142.214 147.15L141.677 147.649C141.594 147.521 141.48 147.416 141.346 147.345C141.212 147.273 141.061 147.238 140.909 147.241C140.606 147.249 140.318 147.376 140.106 147.593C139.895 147.811 139.776 148.102 139.776 148.406C139.743 148.544 139.742 148.687 139.772 148.826C139.802 148.964 139.863 149.095 139.95 149.206C140.037 149.318 140.148 149.409 140.275 149.472C140.402 149.535 140.542 149.569 140.684 149.571C140.888 149.573 141.09 149.517 141.263 149.41L141.387 148.347Z" fill="white"/>
<path d="M142.863 146.586H143.588L143.255 150.226H142.531L142.863 146.586Z" fill="white"/>
<path d="M145.01 147.262L144.924 148.223H146.374L146.309 148.9H144.86L144.742 150.226H144.017L144.35 146.586H146.712L146.653 147.262H145.01Z" fill="white"/>
<path d="M147.807 147.268H146.803L146.868 146.586H149.595L149.531 147.268H148.532L148.258 150.226H147.539L147.807 147.268Z" fill="white"/>
<path d="M150.701 149.866L151.007 149.232C151.284 149.472 151.638 149.605 152.005 149.608C152.429 149.608 152.623 149.442 152.644 149.222C152.703 148.54 150.84 149.007 150.964 147.654C150.982 147.486 151.034 147.323 151.116 147.176C151.197 147.028 151.308 146.897 151.44 146.792C151.572 146.687 151.724 146.609 151.886 146.562C152.048 146.516 152.218 146.502 152.386 146.521C152.77 146.506 153.148 146.619 153.46 146.843L153.181 147.482C152.936 147.302 152.642 147.203 152.338 147.198C151.909 147.198 151.726 147.386 151.705 147.611C151.645 148.282 153.503 147.82 153.385 149.157C153.365 149.325 153.312 149.488 153.229 149.636C153.146 149.783 153.035 149.913 152.902 150.018C152.769 150.123 152.616 150.2 152.453 150.246C152.29 150.292 152.12 150.305 151.951 150.284C151.497 150.302 151.053 150.153 150.701 149.866Z" fill="white"/>
<path d="M156.252 149.549L156.187 150.226H153.766L154.099 146.586H156.461L156.402 147.262H154.754L154.684 148.051H156.134L156.074 148.706H154.625L154.545 149.549H156.252Z" fill="white"/>
<path d="M159.966 146.586L159.633 150.226H159.038L157.679 148.014L157.475 150.226H156.761L157.094 146.586H157.696L159.048 148.792L159.252 146.586H159.966Z" fill="white"/>
<path d="M161.292 147.268H160.289L160.353 146.586H163.08L163.016 147.268H162.017L161.743 150.226H161.024L161.292 147.268Z" fill="white"/>
<path d="M173.569 109.172C176.328 95.6531 170.309 83.0087 160.125 80.9303C149.941 78.852 139.449 88.1268 136.69 101.646C133.931 115.165 139.95 127.81 150.134 129.888C160.317 131.967 170.81 122.692 173.569 109.172Z" fill="#3950A2"/>
<path opacity="0.3" d="M173.569 109.172C176.328 95.6531 170.309 83.0087 160.125 80.9303C149.941 78.852 139.449 88.1268 136.69 101.646C133.931 115.165 139.95 127.81 150.134 129.888C160.317 131.967 170.81 122.692 173.569 109.172Z" fill="white"/>
<path d="M125.62 106.855L131.923 102.432L136.121 104.767L148.167 102.512L147.63 107.161L136.003 107.639C136.003 107.639 130.516 110.978 129.443 111.123C128.369 111.268 125.62 106.855 125.62 106.855Z" fill="#E4897B"/>
<path d="M173.887 105.068C173.86 105.379 173.828 105.696 173.795 106.007L143.352 108.332H143.137V107.365V103.463V101.772L143.781 101.643L173.269 95.5552C173.966 98.675 174.174 101.884 173.887 105.068Z" fill="#3950A2"/>
<path opacity="0.2" d="M173.887 105.068C173.86 105.379 173.828 105.696 173.795 106.007L143.352 108.332H143.137V107.365V103.463V101.772L143.781 101.643L173.269 95.5552C173.966 98.675 174.174 101.884 173.887 105.068Z" fill="black"/>
<path d="M141.768 101.578L143.846 101.192L143.271 109.593L140.952 109.298L141.768 101.578Z" fill="#3950A2"/>
<path opacity="0.5" d="M141.768 101.578L143.846 101.192L143.271 109.593L140.952 109.298L141.768 101.578Z" fill="white"/>
<path d="M110.857 93.4829L110.943 93.4722L110.938 93.4615L110.949 93.4561L110.943 93.4346L110.857 93.4829Z" fill="#263238"/>
<path d="M143.717 86.633L143.411 86.6759L121.428 88.222L111.121 93.2682L110.938 93.2789L114.309 113.453L135.213 111.982L146.605 106.453L143.717 86.633Z" fill="#263238"/>
<path opacity="0.2" d="M113.595 94.6961L114.503 95.4262L115.619 95.088L115.206 96.1778L115.866 97.1333L114.707 97.0796L114.003 98.003L113.697 96.881L112.597 96.4945L113.569 95.861L113.595 94.6961Z" fill="white"/>
<path opacity="0.2" d="M125.62 95.5281V96.693L126.581 97.3479L125.475 97.7076L125.148 98.8242L124.461 97.8847L123.301 97.9223L123.983 96.9775L123.591 95.8824L124.697 96.2367L125.62 95.5281Z" fill="white"/>
<path opacity="0.2" d="M126.109 108.052V109.217L127.07 109.872L125.969 110.237L125.642 111.354L124.955 110.414L123.79 110.447L124.472 109.502L124.08 108.407L125.186 108.766L126.109 108.052Z" fill="white"/>
<path opacity="0.2" d="M120.81 105.288L120.816 106.447L121.777 107.108L120.671 107.467L120.343 108.584L119.656 107.645L118.491 107.682L119.173 106.737L118.781 105.642L119.892 105.996L120.81 105.288Z" fill="white"/>
<path opacity="0.2" d="M126.56 104.493L126.565 105.175L127.123 105.561L126.479 105.771L126.286 106.426L125.883 105.878L125.202 105.894L125.604 105.347L125.373 104.703L126.023 104.912L126.56 104.493Z" fill="white"/>
<path opacity="0.2" d="M117.128 109.872V110.554L117.691 110.935L117.047 111.15L116.854 111.8L116.451 111.252L115.77 111.273L116.167 110.72L115.941 110.076L116.591 110.286L117.128 109.872Z" fill="white"/>
<path opacity="0.2" d="M115.877 103.285L115.882 103.967L116.441 104.348L115.796 104.563L115.603 105.218L115.201 104.665L114.524 104.687L114.921 104.134L114.691 103.495L115.34 103.704L115.877 103.285Z" fill="white"/>
<path opacity="0.2" d="M129.641 92.5004V93.1821L130.205 93.5687L129.561 93.778L129.367 94.4329L128.965 93.8854L128.283 93.9068L128.68 93.3539L128.455 92.7097L129.104 92.9191L129.641 92.5004Z" fill="white"/>
<path opacity="0.2" d="M117.681 97.9868L118.459 99.3181L119.994 99.4308L118.969 100.58L119.334 102.072L117.927 101.455L116.618 102.265L116.773 100.735L115.598 99.7368L117.101 99.4093L117.681 97.9868Z" fill="white"/>
<path opacity="0.2" d="M127.907 100.081L129.341 100.633L130.613 99.7692L130.527 101.304L131.74 102.244L130.253 102.641L129.738 104.085L128.901 102.797L127.365 102.749L128.337 101.557L127.907 100.081Z" fill="white"/>
<path opacity="0.2" d="M131.23 106.453L132.009 107.784L133.544 107.897L132.518 109.046L132.884 110.538L131.477 109.921L130.167 110.726L130.323 109.196L129.147 108.203L130.65 107.875L131.23 106.453Z" fill="white"/>
<path opacity="0.2" d="M134.075 92.5541L134.607 93.1983L135.144 92.7581L135.036 93.8855L135.46 94.7766L134.864 94.8303L134.591 95.8234L134.328 94.7283L133.732 94.4491L134.167 93.7191L134.075 92.5541Z" fill="white"/>
<path opacity="0.2" d="M140.297 92.2642L140.41 93.4291L140.963 93.9981L140.431 94.4652L140.367 95.6086L139.932 94.7336L139.336 94.8785L139.599 93.8693L139.293 92.8117L139.894 93.064L140.297 92.2642Z" fill="white"/>
<path opacity="0.2" d="M141.725 104.756L141.832 105.916L142.385 106.485L141.854 106.952L141.789 108.095L141.355 107.22L140.759 107.365L141.022 106.356L140.721 105.299L141.317 105.551L141.725 104.756Z" fill="white"/>
<path opacity="0.2" d="M138.757 102.48L138.864 103.64L139.417 104.209L138.885 104.676L138.821 105.825L138.386 104.944L137.796 105.089L138.053 104.08L137.747 103.022L138.349 103.275L138.757 102.48Z" fill="white"/>
<path opacity="0.2" d="M141.623 101.154L141.688 101.83L142.01 102.163L141.698 102.437L141.661 103.108L141.403 102.598L141.06 102.679L141.21 102.088L141.033 101.471L141.387 101.616L141.623 101.154Z" fill="white"/>
<path opacity="0.2" d="M137.302 107.408L137.366 108.09L137.688 108.423L137.377 108.691L137.339 109.367L137.082 108.852L136.738 108.938L136.888 108.347L136.711 107.725L137.06 107.875L137.302 107.408Z" fill="white"/>
<path opacity="0.2" d="M136.046 100.934L136.11 101.616L136.432 101.949L136.121 102.222L136.083 102.893L135.825 102.378L135.482 102.464L135.632 101.873L135.455 101.251L135.809 101.401L136.046 100.934Z" fill="white"/>
<path opacity="0.2" d="M142.074 88.866L142.139 89.5477L142.461 89.8806L142.149 90.149L142.117 90.8254L141.859 90.31L141.51 90.3906L141.661 89.8054L141.484 89.1827L141.838 89.333L142.074 88.866Z" fill="white"/>
<path opacity="0.2" d="M136.47 95.4637L136.99 96.7253L137.785 96.6931L137.372 97.9385L137.699 99.3987L136.921 98.9102L136.325 99.8442L136.26 98.2982L135.568 97.4124L136.309 96.9454L136.47 95.4637Z" fill="white"/>
<path opacity="0.2" d="M141.897 96.6071L142.68 97.0312L143.25 96.0434L143.352 97.5895L144.06 98.4215L143.335 98.9476L143.207 100.445L142.659 99.2321L141.87 99.3288L142.256 98.0458L141.897 96.6071Z" fill="white"/>
<path opacity="0.2" d="M144.195 102.673L144.715 103.93L145.51 103.903L145.096 105.148L145.424 106.608L144.646 106.12L144.05 107.054L143.985 105.508L143.293 104.622L144.028 104.155L144.195 102.673Z" fill="white"/>
<path opacity="0.2" d="M131.832 91.8672L143.722 86.7244L146.616 106.614L135.23 112.213L131.832 91.8672Z" fill="black"/>
<path opacity="0.2" d="M110.852 93.3649L121.428 88.2221L143.561 86.6653L131.826 91.733L110.852 93.3649Z" fill="white"/>
<path d="M142.686 108.6L139.836 88.1039L118.255 89.6232L116.291 90.831L136.04 89.9775L139.97 109.813L142.686 108.6Z" fill="#3950A2"/>
<path d="M132.17 87.465L122.34 92.3769L124.987 112.701L121.863 112.921L118.277 92.7312L129.303 87.669L132.17 87.465Z" fill="#3950A2"/>
<path opacity="0.2" d="M139.846 88.2811L136.045 90.0204L139.975 109.883L142.691 108.686L139.846 88.2811Z" fill="black"/>
<path opacity="0.1" d="M118.287 92.8171L122.346 92.4252L124.987 112.701L121.863 112.921L118.287 92.8171Z" fill="black"/>
<path d="M125.814 89.5212C125.814 89.5212 119.635 85.5057 117.176 86.7941C115.227 87.8087 115.705 90.4123 120.843 90.7183C118.942 91.0243 116.704 91.4859 115.388 92.0979L119.259 92.2858C121.527 91.4911 123.855 90.8825 126.222 90.466C126.348 90.8942 126.379 91.345 126.313 91.7866L128.922 91.3732C128.922 91.3732 128.095 90.6914 127.424 90.1922C130.414 89.6822 136.797 88.2596 137.248 85.3608C137.806 81.5976 128.691 84.738 125.814 89.5212ZM117.224 87.5403C117.761 86.5203 125.465 89.8701 125.465 89.8701C122.024 90.6002 116.677 88.5764 117.23 87.5403H117.224ZM126.49 89.6339C126.49 89.6339 134.038 83.3799 136.045 84.5126C138.053 85.6453 128.906 89.6929 126.495 89.65L126.49 89.6339Z" fill="#3950A2"/>
<path opacity="0.1" d="M125.814 89.5212C125.814 89.5212 119.635 85.5057 117.176 86.7941C115.227 87.8087 115.705 90.4123 120.843 90.7183C118.942 91.0243 116.704 91.4859 115.388 92.0979L119.259 92.2858C121.527 91.4911 123.855 90.8825 126.222 90.466C126.348 90.8942 126.379 91.345 126.313 91.7866L128.922 91.3732C128.922 91.3732 128.095 90.6914 127.424 90.1922C130.414 89.6822 136.797 88.2596 137.248 85.3608C137.806 81.5976 128.691 84.738 125.814 89.5212ZM117.224 87.5403C117.761 86.5203 125.465 89.8701 125.465 89.8701C122.024 90.6002 116.677 88.5764 117.23 87.5403H117.224ZM126.49 89.6339C126.49 89.6339 134.038 83.3799 136.045 84.5126C138.053 85.6453 128.906 89.6929 126.495 89.65L126.49 89.6339Z" fill="black"/>
<path d="M138.155 106.957L145.166 103.768L148.859 106.839H161.115L159.735 111.305L148.231 109.636C148.231 109.636 142.219 111.907 141.145 111.88C140.071 111.853 138.155 106.957 138.155 106.957Z" fill="#E4897B"/>
<path d="M173.854 105.395C173.854 105.604 173.816 105.803 173.795 106.007C173.445 109.115 172.655 112.156 171.449 115.042L155.178 112.197L155.001 112.164L155.291 110.645L156.031 106.823L156.246 105.69H156.864L173.854 105.395Z" fill="#3950A2"/>
<path d="M155.001 104.74H157.111L155.001 112.895L152.778 112.181L155.001 104.74Z" fill="#3950A2"/>
<path opacity="0.7" d="M155.001 104.74H157.111L155.001 112.895L152.778 112.181L155.001 104.74Z" fill="white"/>
<path d="M105.742 39.1922L98.4843 37.9361C97.4063 37.7495 96.3812 38.4721 96.1946 39.5501L94.9385 46.8074C94.7519 47.8854 95.4745 48.9105 96.5525 49.0971L103.81 50.3533C104.888 50.5399 105.913 49.8173 106.1 48.7393L107.356 41.4819C107.542 40.4039 106.82 39.3788 105.742 39.1922Z" fill="#3950A2"/>
<path opacity="0.6" d="M104.598 42.4792C104.035 41.062 102.451 41.2929 101.49 42.1518C100.889 41.0244 99.4662 40.2729 98.457 41.4163C96.7552 43.3435 99.1441 45.8183 100.304 46.8222C100.432 46.9403 100.545 47.0369 100.636 47.1121L101.039 46.951C102.472 46.3927 105.554 44.8681 104.598 42.4792Z" fill="white"/>
<path d="M101.528 49.0662C101.528 49.0662 99.4825 52.1637 96.02 52.6415C96.02 52.6415 98.017 51.9114 98.4787 48.3952L101.528 49.0662Z" fill="#3950A2"/>
<path d="M103.992 70.4694L105.978 65.4715C105.978 65.4715 105.801 63.5443 105.978 63.2813C106.156 63.0182 111.014 59.7436 111.014 59.7436C111.014 59.7436 111.765 61.5366 111.717 62.3365C111.669 63.1363 108.4 65.1065 108.4 65.1065L106.419 70.0077L103.992 70.4694Z" fill="#B97964"/>
<path d="M107.857 67.7154C107.857 67.7154 101.346 82.5426 98.6562 83.8202C96.8149 84.6952 90.5072 83.8202 86.7172 83.1438C84.9725 82.8432 83.7646 82.607 83.7646 82.607L86.073 79.531L87.8499 77.1636C87.8499 77.1636 93.7013 79.5847 95.9667 80.0087C98.2321 80.4328 104.959 66.1747 104.959 66.1747L107.857 67.7154Z" fill="#3950A2"/>
<path opacity="0.2" d="M86.7172 83.1385C84.9725 82.8379 83.7646 82.6016 83.7646 82.6016L86.073 79.5256C86.4182 80.0534 86.6532 80.6455 86.7639 81.2663C86.8746 81.8871 86.8587 82.5239 86.7172 83.1385Z" fill="black"/>
<path d="M86.9319 54.3324C89.616 55.712 91.1406 57.6338 91.5432 61.3433C91.9459 65.0528 89.8415 66.2284 91.5432 67.7154C93.245 69.2024 92.2196 71.4732 91.0064 71.7685C89.7932 72.0637 91.8653 73.5454 91.8653 73.5454L91.0386 74.1359C91.0386 74.1359 91.2265 74.7264 89.6321 74.1359C88.0378 73.5454 88.7303 74.8606 86.2126 75.1558C83.6948 75.4511 78.901 75.8859 76.8879 73.5454C74.8748 71.2048 75.6961 67.6403 74.6064 66.1479C73.5166 64.6555 76.1095 56.6729 79.3143 54.9121C82.5192 53.1513 86.9319 54.3324 86.9319 54.3324Z" fill="#263238"/>
<path d="M57.2026 54.9282L58.9472 49.8337C58.9472 49.8337 60.3376 48.4916 60.3645 48.1749C60.3913 47.8582 58.8506 42.2054 58.8506 42.2054C58.8506 42.2054 57.1113 43.0858 56.6228 43.7192C56.1343 44.3527 57.3421 47.9816 57.3421 47.9816L55.6565 52.9956L57.2026 54.9282Z" fill="#B97964"/>
<path d="M70.9239 188.49H67.3755L68.4599 183.584L69.4691 179.08L73.914 178.398L72.3304 183.745L70.9239 188.49Z" fill="#B97964"/>
<path opacity="0.2" d="M72.2926 183.852L68.4275 183.681L69.4528 179.128L73.9031 178.425L72.2926 183.852Z" fill="black"/>
<path d="M63.5748 188.49H60.0264L61.1108 183.584L62.12 179.08L66.5649 178.398L64.9813 183.745L63.5748 188.49Z" fill="#B97964"/>
<path opacity="0.2" d="M64.9489 183.852L61.0784 183.681L62.1037 179.128L66.554 178.425L64.9489 183.852Z" fill="black"/>
<path d="M57.1489 94.7015C57.1489 94.7015 56.9717 95.0826 56.6872 95.7751C55.3505 99.0766 51.6894 109.502 53.0583 121.591C53.8635 128.742 61.7656 141.615 62.9412 148.626C64.3101 156.785 60.7295 171.172 61.6475 181.732L67.2949 182.226L68.9966 181.152L73.8281 180.433C73.8281 180.433 86.4274 151.788 86.1751 141.883C85.9925 134.105 73.8281 106.216 73.8281 106.216L74.9876 95.904" fill="#263238"/>
<path opacity="0.2" d="M69.8823 181.039L68.9965 181.168L67.5471 182.086C68.4704 178.865 76.4262 151.009 76.5711 144.879C76.7268 138.367 67.4451 115.251 67.4451 115.251L69.8232 110.957L69.4689 117.49C69.4689 117.49 78.2406 135.468 78.9332 144.868C79.6096 153.903 70.6177 179.01 69.8823 181.039Z" fill="black"/>
<path d="M66.3714 188.34C66.3714 187.948 71.2029 188.254 71.2029 188.254C71.2029 188.254 74.1608 191.261 77.0328 191.937C79.9048 192.613 78.3051 194.342 75.0895 194.342H67.1445C64.8522 194.331 66.2802 192.393 66.3714 188.34Z" fill="#263238"/>
<path d="M71.7291 188.877L71.6915 188.845C71.6891 188.832 71.6891 188.82 71.6915 188.807C71.6886 188.795 71.6886 188.782 71.6915 188.77C71.6862 188.752 71.6862 188.733 71.6915 188.716C71.6915 188.662 72.1156 187.546 72.7652 187.277C72.8629 187.232 72.9691 187.209 73.0765 187.209C73.184 187.209 73.2902 187.232 73.3879 187.277C73.608 187.379 73.71 187.519 73.7046 187.68C73.7046 187.932 73.345 188.19 72.9531 188.399C73.3149 188.334 73.6878 188.375 74.0267 188.517C74.0888 188.551 74.1435 188.597 74.1877 188.653C74.232 188.708 74.2648 188.771 74.2844 188.839C74.324 188.93 74.3339 189.031 74.3127 189.127C74.2915 189.223 74.2402 189.311 74.1663 189.376C74.0417 189.461 73.8923 189.5 73.7422 189.489C73.0407 189.403 72.3595 189.196 71.7291 188.877ZM72.1693 188.796C72.8779 189.092 73.7798 189.36 73.9838 189.172C73.9838 189.172 74.0643 189.108 74.016 188.92C74.0072 188.884 73.9906 188.851 73.9674 188.822C73.9442 188.793 73.915 188.77 73.8818 188.753C73.7042 188.67 73.5085 188.633 73.3128 188.646C72.9274 188.657 72.5443 188.707 72.1693 188.796ZM72.835 187.513C72.4559 187.759 72.166 188.121 72.0083 188.544C72.7222 188.276 73.4094 187.9 73.4201 187.685C73.4201 187.615 73.3181 187.556 73.2537 187.524C73.1839 187.489 73.1066 187.47 73.0282 187.47C72.9613 187.469 72.895 187.484 72.835 187.513Z" fill="#3950A2"/>
<path d="M67.2947 180.358L75.2665 179.273L74.5955 182.242L68.0194 183.069L67.2947 180.358Z" fill="#3950A2"/>
<path d="M59.0278 188.34C59.0278 187.948 63.8593 188.254 63.8593 188.254C63.8593 188.254 66.8172 191.261 69.6946 191.937C72.5719 192.613 70.9293 194.331 67.7083 194.331H59.7633C57.5086 194.331 58.9312 192.393 59.0278 188.34Z" fill="#263238"/>
<path d="M64.3797 188.877L64.3422 188.845C64.3394 188.833 64.3394 188.82 64.3422 188.807C64.3422 188.807 64.3422 188.807 64.3422 188.77C64.3395 188.752 64.3395 188.734 64.3422 188.716C64.3422 188.662 64.7663 187.546 65.4158 187.277C65.5134 187.232 65.6196 187.209 65.7272 187.209C65.8347 187.209 65.941 187.232 66.0385 187.277C66.2586 187.379 66.366 187.519 66.3553 187.68C66.3553 187.932 65.9956 188.19 65.6037 188.399C65.9655 188.334 66.3384 188.375 66.6774 188.518C66.741 188.549 66.797 188.595 66.8414 188.65C66.8859 188.706 66.9178 188.771 66.935 188.84C66.9764 188.93 66.9872 189.031 66.9659 189.128C66.9446 189.225 66.8923 189.312 66.8169 189.376C66.6924 189.461 66.5429 189.501 66.3928 189.489C65.6914 189.404 65.0102 189.196 64.3797 188.877ZM64.8199 188.797C65.5286 189.092 66.4304 189.36 66.6344 189.172C66.6344 189.172 66.7149 189.108 66.6666 188.92C66.6578 188.884 66.6412 188.851 66.618 188.822C66.5948 188.793 66.5656 188.77 66.5324 188.754C66.3549 188.67 66.1591 188.633 65.9634 188.646C65.5781 188.657 65.1949 188.707 64.8199 188.797ZM65.4856 187.514C65.108 187.76 64.8199 188.121 64.6643 188.544C65.3729 188.276 66.06 187.9 66.0761 187.685C66.0761 187.616 65.9687 187.557 65.9043 187.524C65.8345 187.489 65.7572 187.47 65.6789 187.471C65.6119 187.469 65.5457 187.484 65.4856 187.514Z" fill="#3950A2"/>
<path d="M60.4824 180.358L68.9965 179.273L68.2825 182.242L61.2608 183.069L60.4824 180.358Z" fill="#3950A2"/>
<path d="M58.1797 92.3824L57.3477 94.7766L74.145 99.2162L75.1273 96.3817L58.1797 92.3824Z" fill="black"/>
<path d="M63.9313 93.2548L63.1067 93.0143L61.8802 97.2196L62.7047 97.4601L63.9313 93.2548Z" fill="#263238"/>
<path d="M71.0551 95.6163L67.3684 94.6923L66.6676 97.4886L70.3543 98.4126L71.0551 95.6163Z" fill="white"/>
<path d="M74.3138 95.631L73.4893 95.3904L72.262 99.5955L73.0865 99.8361L74.3138 95.631Z" fill="#263238"/>
<path d="M87.8498 77.1473C87.1198 78.0975 86.4434 78.9886 85.8206 79.8314C83.3727 83.1061 81.628 85.4305 80.2967 87.3041C78.7954 89.3203 77.4938 91.4778 76.4101 93.746C75.9752 94.6639 75.5458 95.6678 75.068 96.8542L58.1794 92.3502C59.5791 87.0338 61.2563 81.7944 63.2041 76.6534C63.6712 75.4509 64.0953 74.4149 64.471 73.5237C64.8468 72.6326 65.1743 71.9132 65.4481 71.2691C65.4481 71.2368 65.4481 71.2046 65.491 71.1671C65.9058 70.2406 66.6377 69.4926 67.5549 69.0576C68.472 68.6226 69.5144 68.5292 70.4942 68.7943C71.7075 69.1218 73.1301 69.5351 74.4453 69.9807C76.8934 70.8877 79.2755 71.964 81.5743 73.2016C83.758 74.3648 85.8553 75.6834 87.8498 77.1473Z" fill="#3950A2"/>
<path d="M76.9471 76.5462C74.1073 73.3252 74.3489 71.0974 74.3489 71.0974C78.0744 70.9685 79.3091 66.1586 79.3091 66.1586L82.5301 70.276C81.9557 70.7313 81.4173 71.2303 80.9196 71.7684C78.826 74.0821 79.846 75.0377 79.846 75.0377C79.4594 76.9005 76.9471 76.5462 76.9471 76.5462Z" fill="#B97964"/>
<path opacity="0.2" d="M82.5354 70.276C81.961 70.7313 81.4226 71.2303 80.9249 71.7684C79.4433 69.6963 79.2822 66.1586 79.2822 66.1586L82.5354 70.276Z" fill="black"/>
<path d="M86.0408 55.084C90.3891 56.1576 91.2212 58.8096 90.4481 63.3672C89.4818 69.0629 87.2755 72.7348 82.1273 70.2171C75.1432 66.7975 78.8205 53.3232 86.0408 55.084Z" fill="#B97964"/>
<path d="M87.6997 62.4384C87.8873 63.173 88.165 63.8817 88.5264 64.5481C88.3556 64.6973 88.1469 64.7963 87.9233 64.8342C87.6997 64.8721 87.47 64.8474 87.2595 64.7629L87.6997 62.4384Z" fill="#B97964"/>
<path d="M85.1229 61.4344C85.0477 61.7941 84.79 62.041 84.5485 61.9712C84.3069 61.9014 84.1781 61.5847 84.2586 61.225C84.3391 60.8654 84.5914 60.6184 84.833 60.6882C85.0746 60.758 85.2034 61.0747 85.1229 61.4344Z" fill="#263238"/>
<path d="M84.731 60.6884L85.5791 60.5488C85.5791 60.5488 85.0423 61.1232 84.731 60.6884Z" fill="#263238"/>
<path d="M89.6052 62.3363C89.5246 62.696 89.267 62.9483 89.0308 62.8731C88.7946 62.798 88.6603 62.4866 88.7355 62.127C88.8107 61.7673 89.0737 61.5203 89.3153 61.5901C89.5568 61.6599 89.6857 61.9766 89.6052 62.3363Z" fill="#263238"/>
<path d="M89.2083 61.5902L90.0564 61.456C90.0564 61.456 89.525 62.025 89.2083 61.5902Z" fill="#263238"/>
<path d="M83.7647 58.8148C83.7348 58.8148 83.7052 58.808 83.6783 58.795C83.6513 58.782 83.6276 58.7631 83.609 58.7396C83.5785 58.698 83.5654 58.6462 83.5724 58.5951C83.5794 58.544 83.606 58.4977 83.6466 58.4658C83.9764 58.2589 84.3495 58.1308 84.7368 58.0917C85.1242 58.0526 85.5153 58.1035 85.8798 58.2404C85.9038 58.2495 85.9257 58.2633 85.9443 58.281C85.963 58.2986 85.978 58.3197 85.9884 58.3432C85.9989 58.3666 86.0046 58.3919 86.0053 58.4175C86.0061 58.4432 86.0017 58.4687 85.9925 58.4927C85.9834 58.5166 85.9696 58.5386 85.9519 58.5572C85.9343 58.5758 85.9132 58.5908 85.8897 58.6013C85.8663 58.6118 85.841 58.6175 85.8154 58.6182C85.7897 58.6189 85.7642 58.6146 85.7402 58.6054C85.4376 58.4925 85.1135 58.4493 84.7919 58.4791C84.4703 58.5088 84.1596 58.6107 83.8828 58.7772C83.849 58.8031 83.8073 58.8164 83.7647 58.8148Z" fill="#263238"/>
<path d="M90.6631 59.985C90.6357 59.9851 90.6087 59.9794 90.5837 59.9683C90.5587 59.9572 90.5363 59.9409 90.5181 59.9205C90.342 59.696 90.117 59.5145 89.8603 59.3899C89.6036 59.2652 89.3219 59.2007 89.0365 59.2012C89.0111 59.204 88.9854 59.2018 88.9609 59.1947C88.9364 59.1876 88.9135 59.1757 88.8935 59.1598C88.8736 59.1438 88.857 59.1241 88.8447 59.1017C88.8324 59.0794 88.8246 59.0548 88.8217 59.0294C88.8189 59.004 88.8211 58.9783 88.8282 58.9538C88.8353 58.9293 88.8472 58.9064 88.8632 58.8865C88.8791 58.8665 88.8988 58.8499 88.9212 58.8376C88.9436 58.8253 88.9681 58.8175 88.9935 58.8147C89.3394 58.8077 89.6823 58.88 89.9959 59.0261C90.3095 59.1722 90.5855 59.3882 90.8026 59.6575C90.8213 59.6751 90.8362 59.6963 90.8464 59.7198C90.8566 59.7434 90.8618 59.7687 90.8618 59.7944C90.8618 59.82 90.8566 59.8454 90.8464 59.869C90.8362 59.8925 90.8213 59.9137 90.8026 59.9313C90.7649 59.9667 90.7148 59.9859 90.6631 59.985Z" fill="#263238"/>
<path d="M79.5186 61.2518C79.5186 61.2518 82.4174 58.1758 82.7825 55.3467C82.7825 55.3467 92.2575 53.9295 90.5504 62.7764C90.5504 62.7764 93.2828 55.2179 85.8531 53.2209C78.4235 51.2239 75.793 62.1698 78.8744 66.3678C78.8475 66.3624 77.7041 63.179 79.5186 61.2518Z" fill="#263238"/>
<path d="M79.9908 62.3416C80.0731 61.8307 79.9499 61.308 79.6482 60.8876C79.3465 60.4672 78.8907 60.1832 78.3804 60.0976C76.9954 59.9205 75.6962 62.5295 78.8689 64.0111C79.3144 64.2205 79.701 63.8178 79.9908 62.3416Z" fill="#B97964"/>
<path d="M93.1591 64.7252C92.0264 63.6515 92.2035 61.8263 93.0839 59.9796C93.9643 58.133 91.6828 56.7587 91.6828 56.7587C91.6828 56.7587 91.4949 54.4289 89.7073 53.4894C89.3798 53.3176 87.8928 53.4894 87.8928 53.4894C85.9388 51.3421 82.7983 49.5813 80.3289 52.3782C78.8795 54.0262 77.4354 52.3352 75.1325 55.7763C73.4683 58.2564 74.6278 60.4467 74.1447 61.2465C71.9115 64.9184 74.8157 65.9116 75.5082 67.1892C75.5082 67.1892 77.0435 66.4538 76.9147 66.0189C75.8733 62.4974 77.6985 60.2158 79.1103 60.7795C80.5222 61.3432 81.5368 61.1875 82.5621 59.8938C83.5875 58.6 82.8735 57.2096 85.2463 56.8875C87.619 56.5654 87.8552 55.2073 87.8552 55.2073C87.8956 55.8118 88.0985 56.3943 88.4424 56.8932C88.7864 57.3921 89.2586 57.7889 89.8093 58.0417C91.7848 59.0778 91.0064 60.3286 90.7326 62.0947C90.4588 63.8609 91.3285 64.5427 92.8799 65.8203C94.4314 67.098 92.7887 68.032 92.7887 68.032C93.0838 67.8835 93.3372 67.6637 93.526 67.3925C93.7147 67.1213 93.8328 66.8073 93.8696 66.4789C93.9064 66.1506 93.8607 65.8183 93.7366 65.512C93.6125 65.2058 93.414 64.9354 93.1591 64.7252Z" fill="#263238"/>
<path d="M86.932 66.7329C86.5475 67.0805 86.1887 67.4554 85.8584 67.8548L85.6221 67.7153C84.5485 67.0765 84.2747 66.4269 84.2855 65.9062C84.2948 65.6494 84.3666 65.3988 84.4948 65.1761C84.5619 65.0484 84.6469 64.9309 84.7471 64.8271C85.227 65.5125 85.8497 66.0857 86.5723 66.5074C86.7871 66.6524 86.932 66.7329 86.932 66.7329Z" fill="#263238"/>
<path d="M86.5721 66.5074L86.2447 66.8295C85.2462 66.2283 84.6342 65.67 84.4946 65.1761C84.5617 65.0484 84.6467 64.9309 84.7469 64.8271C85.2269 65.5125 85.8495 66.0857 86.5721 66.5074Z" fill="white"/>
<path d="M85.6221 67.7153C84.5485 67.0765 84.2747 66.4269 84.2855 65.9062C84.6856 66.1551 85.0382 66.4732 85.3269 66.8456C85.5149 67.0969 85.6183 67.4014 85.6221 67.7153Z" fill="#DE5753"/>
<path d="M75.9 68.6763C75.9 68.6763 78.9384 72.5575 82.5351 72.6327C82.5351 72.6327 80.7475 75.5315 81.3112 77.0186C81.3112 77.0186 79.0458 79.3537 75.9429 77.3031C72.8401 75.2524 72.3301 69.7875 72.3301 69.7875C72.3301 69.7875 74.5579 69.6801 75.9 68.6763Z" fill="#3950A2"/>
<path d="M69.4797 68.6762C69.4797 68.6762 62.8177 67.0657 58.1473 66.341C53.4769 65.6163 59.1565 50.9448 59.1565 50.9448L56.3221 49.5652C56.3221 49.5652 49.8104 63.6461 52.7576 68.0427C54.3519 70.4263 64.4872 73.5452 64.4872 73.5452L69.4797 68.6762Z" fill="#3950A2"/>
<path d="M91.0333 73.1267C91.0333 73.1267 91.3929 72.2087 92.4398 73.1267C93.4866 74.0447 93.7711 72.5899 94.4099 72.7187C95.0487 72.8475 95.1131 71.7256 96.6753 71.3659C98.2375 71.0062 98.4415 71.0009 98.726 70.2922C99.0105 69.5836 100.143 69.5836 100.143 69.5836C100.143 69.5836 99.0696 68.5959 99.8587 67.7101C100.648 66.8243 99.7889 64.8488 99.7889 64.8488C99.7889 64.8488 101.276 64.414 101.84 65.4769C102.403 66.5398 102.339 66.8243 102.339 66.8243C102.339 66.8243 102.548 65.1065 102.054 64.7576C102.054 64.7576 104.32 66.1855 103.396 67.8497C102.928 68.7867 102.117 69.5075 101.131 69.8628C101.131 69.8628 100.637 71.6021 99.8587 71.7631C99.1686 71.9703 98.5375 72.3382 98.0174 72.8368C97.4537 73.2609 97.5235 73.2394 96.4606 73.4273C95.3977 73.6152 95.0434 75.1505 94.4099 75.1613C93.9167 75.0915 93.4161 75.0915 92.9229 75.1613C92.2841 75.3169 92.0425 76.4604 91.0333 75.8913C90.024 75.3223 89.4979 75.5746 89.0148 75.1613C88.5317 74.7479 86.2824 75.3169 86.2072 73.8997C86.132 72.4825 89.7771 71.5699 91.0333 73.1267Z" fill="#263238"/>
<path opacity="0.2" d="M69.4689 73.0084C69.2863 73.2499 65.958 77.5123 63.2041 76.6641C63.6711 75.4617 64.0952 74.4256 64.471 73.5344C64.4871 73.5452 67.8745 74.5007 69.4689 73.0084Z" fill="black"/>
<path opacity="0.2" d="M73.3715 69.6639C73.3715 69.6639 74.4828 74.3934 77.4246 75.6227C80.3664 76.852 80.9193 75.4026 80.9193 75.4026C80.9193 75.4026 80.6294 79.5523 77.4246 78.0009C75.8745 77.3121 74.6177 76.0978 73.8761 74.5723C73.1345 73.0468 72.9558 71.3084 73.3715 69.6639Z" fill="black"/>
<path opacity="0.7" d="M74.7728 90.9277L71.9008 88.206L67.5632 89.0703L69.8018 85.4521L67.982 82.0164L72.239 82.4995L75.4546 79.5148L75.8465 83.4282L79.6526 85.0226L75.6371 86.9606L74.7728 90.9277Z" fill="white"/>
</svg>
